<?xml version="1.0" encoding="UTF-8" standalone="no"?><!DOCTYPE svg PUBLIC "-//W3C//DTD SVG 1.1//EN" "http://www.w3.org/Graphics/SVG/1.1/DTD/svg11.dtd"><svg width="100%" height="100%" viewBox="0 0 742 948" version="1.1" xmlns="http://www.w3.org/2000/svg" xmlns:xlink="http://www.w3.org/1999/xlink" xml:space="preserve" xmlns:serif="http://www.serif.com/" style="fill-rule:evenodd;clip-rule:evenodd;stroke-linejoin:round;stroke-miterlimit:2;"><g id="Ebene-5" serif:id="Ebene 5"><path d="M483.768,414.685c-52.354,-3.318 -92.474,-48.87 -89.154,-101.224l13.888,-219.02c3.318,-52.354 48.87,-92.472 101.224,-89.152c52.354,3.318 92.472,48.87 89.154,101.224l-13.888,219.02c-3.318,52.354 -48.87,92.472 -101.224,89.152" style="fill:#f4921f;fill-rule:nonzero;"/><path d="M438.741,372.222l-2.928,6.804l0.378,0.346l6.508,-3.538l-3.958,-3.612Zm-3.478,11.38l-3.58,-3.264l7.088,-17.228l2.732,2.492l-1.53,3.682l5.542,5.056l3.528,-1.862l2.732,2.492l-16.512,8.632Z" style="fill:#1e1c1a;fill-rule:nonzero;"/><path d="M426.411,360.962l-4.34,-6.606l0.94,-0.618c4.074,-2.674 8.892,-1.718 11.55,2.332c2.662,4.048 1.626,9.304 -2.762,12.184c-4.388,2.882 -9.624,1.744 -12.284,-2.306c-2.66,-4.05 -1.134,-8.102 0.816,-10.144l1.888,2.876c-0.936,1.532 -1.422,3.526 -0.092,5.554c1.68,2.556 4.822,3.24 7.852,1.25c3.03,-1.99 3.65,-5.144 1.972,-7.7c-1.82,-2.772 -4.856,-2.61 -5.794,-1.992l-0.106,0.068l2.448,3.73l-2.088,1.372Z" style="fill:#1e1c1a;fill-rule:nonzero;"/><path d="M419.732,340.652l-5.866,4.522l0.16,0.484l7.414,0.072l-1.708,-5.078Zm-8.572,8.254l-1.544,-4.596l14.568,-11.608l1.178,3.508l-3.126,2.474l2.39,7.11l3.988,0.088l1.178,3.508l-18.632,-0.484Z" style="fill:#1e1c1a;fill-rule:nonzero;"/><path d="M423.914,326.841l0.415,3.287l-17.371,2.197l-0.416,-3.286l17.372,-2.198Z" style="fill:#1e1c1a;"/><path d="M405.884,321.189l0.284,-4.456l12.508,-5.726l0.034,-0.508l-12.1,-0.768l0.21,-3.31l17.462,1.108l-0.282,4.456l-12.51,5.726l-0.032,0.51l12.096,0.764l-0.208,3.312l-17.462,-1.108Z" style="fill:#1e1c1a;fill-rule:nonzero;"/><path d="M419.329,298.761c1.498,0.094 2.84,-1.356 2.994,-3.774c0.16,-2.546 -0.774,-3.628 -2.018,-3.706c-0.998,-0.064 -1.912,0.518 -2.432,2.784l-0.692,3.024c-0.692,3.024 -2.528,4.314 -5.02,4.156c-2.872,-0.182 -5.088,-2.752 -4.822,-6.95c0.292,-4.586 2.932,-6.718 6.174,-6.512l-0.21,3.31c-1.496,-0.096 -2.824,1.098 -2.97,3.39c-0.144,2.292 0.788,3.374 2.036,3.452c0.996,0.064 1.678,-0.406 2.148,-2.292l0.676,-2.768c0.85,-3.526 2.452,-5.086 5.322,-4.906c2.992,0.19 5.092,2.626 4.802,7.208c-0.292,4.582 -2.956,7.1 -6.198,6.892l0.21,-3.308Z" style="fill:#1e1c1a;fill-rule:nonzero;"/><path d="M411.714,278.63l-0.338,5.348l-3.12,-0.198l0.888,-14.006l3.118,0.198l-0.338,5.348l14.342,0.908l-0.21,3.312l-14.342,-0.91Z" style="fill:#1e1c1a;fill-rule:nonzero;"/><path d="M425.039,250.161c0.074,-1.146 -0.86,-2.226 -2.106,-2.306c-1.248,-0.078 -2.31,0.874 -2.384,2.02l-0.306,4.838l4.49,0.286l0.306,-4.838Zm-7.374,-0.21c0.08,-1.274 -0.736,-2.22 -1.982,-2.3c-1.372,-0.086 -2.302,0.748 -2.382,2.022l-0.292,4.582l4.364,0.278l0.292,-4.582Zm-7.734,7.432l0.524,-8.274c0.194,-3.056 2.32,-4.968 5.188,-4.786c2.618,0.166 3.628,2.022 3.628,2.022l0.124,0.008c0,0 1.252,-1.966 3.998,-1.792c2.866,0.182 4.732,2.346 4.54,5.398l-0.542,8.532l-17.46,-1.108Z" style="fill:#1e1c1a;fill-rule:nonzero;"/><path d="M420.611,227.179c-3.616,-0.23 -6.006,1.918 -6.2,4.974c-0.194,3.056 1.906,5.488 5.522,5.72c3.618,0.228 6.008,-1.922 6.2,-4.976c0.194,-3.056 -1.904,-5.49 -5.522,-5.718m0.21,-3.31c5.238,0.332 8.738,4.388 8.432,9.226c-0.308,4.838 -4.292,8.418 -9.53,8.086c-5.238,-0.332 -8.738,-4.386 -8.43,-9.224c0.306,-4.838 4.29,-8.42 9.528,-8.088" style="fill:#1e1c1a;fill-rule:nonzero;"/><path d="M421.356,211.484c0.082,-1.276 -0.97,-2.49 -2.466,-2.586c-1.62,-0.102 -2.816,0.97 -2.896,2.246l-0.3,4.71l5.364,0.338l0.298,-4.708Zm-8.99,7.48l0.518,-8.146c0.2,-3.182 2.724,-5.452 6.216,-5.228c3.368,0.212 5.336,2.766 5.282,5.574l6.348,-5.35l-0.264,4.202l-6.35,5.348l-0.064,1.018l5.986,0.382l-0.21,3.308l-17.462,-1.108Z" style="fill:#1e1c1a;fill-rule:nonzero;"/><path d="M431.223,198.041l-0.21,3.312l-17.46,-1.108l0.21,-3.311l17.46,1.107Z" style="fill:#1e1c1a;"/><path d="M414.117,191.357l0.282,-4.458l12.51,-5.724l0.034,-0.51l-12.1,-0.766l0.21,-3.31l17.462,1.108l-0.282,4.454l-12.51,5.728l-0.032,0.508l12.096,0.766l-0.21,3.312l-17.46,-1.108Z" style="fill:#1e1c1a;fill-rule:nonzero;"/><path d="M431.682,159.214l-0.008,0.126c0,0 2.14,1.798 1.914,5.362c-0.306,4.838 -4.29,8.42 -9.528,8.088c-5.238,-0.332 -8.738,-4.388 -8.432,-9.226c0.306,-4.838 3.962,-7.162 6.744,-7.626l-0.218,3.438c-1.668,0.662 -3.254,1.966 -3.406,4.384c-0.194,3.056 1.906,5.492 5.52,5.72c3.62,0.23 6.008,-1.92 6.202,-4.974c0.21,-3.312 -2.312,-5.004 -3.434,-5.078l-0.124,-0.006l-0.284,4.456l-2.494,-0.158l0.492,-7.766l9.23,0.584l-0.162,2.548l-2.012,0.128Z" style="fill:#1e1c1a;fill-rule:nonzero;"/><path d="M429.362,140.521c1.498,0.096 2.84,-1.354 2.994,-3.772c0.16,-2.546 -0.774,-3.628 -2.018,-3.708c-0.998,-0.062 -1.912,0.52 -2.432,2.784l-0.692,3.026c-0.692,3.024 -2.528,4.314 -5.02,4.156c-2.872,-0.182 -5.088,-2.752 -4.822,-6.952c0.292,-4.584 2.932,-6.718 6.174,-6.51l-0.21,3.308c-1.496,-0.094 -2.824,1.1 -2.97,3.392c-0.144,2.29 0.788,3.374 2.036,3.452c0.996,0.062 1.678,-0.404 2.148,-2.294l0.676,-2.768c0.85,-3.526 2.452,-5.084 5.322,-4.904c2.992,0.19 5.092,2.624 4.802,7.208c-0.292,4.582 -2.956,7.098 -6.198,6.892l0.21,-3.31Z" style="fill:#1e1c1a;fill-rule:nonzero;"/><path d="M421.749,120.37l-0.338,5.348l-3.12,-0.2l0.888,-14.004l3.12,0.198l-0.34,5.348l14.342,0.908l-0.21,3.312l-14.342,-0.91Z" style="fill:#1e1c1a;fill-rule:nonzero;"/><path d="M428.435,99.829c0.082,-1.276 -0.968,-2.49 -2.466,-2.586c-1.62,-0.102 -2.816,0.97 -2.896,2.246l-0.3,4.71l5.364,0.338l0.298,-4.708Zm-8.99,7.48l0.518,-8.148c0.2,-3.18 2.724,-5.45 6.216,-5.226c3.368,0.212 5.336,2.766 5.282,5.572l6.35,-5.348l-0.266,4.202l-6.35,5.348l-0.064,1.018l5.986,0.38l-0.21,3.31l-17.462,-1.108Z" style="fill:#1e1c1a;fill-rule:nonzero;"/><path d="M433.358,80.378l-7.368,0.77l-0.116,0.498l6.266,3.944l1.218,-5.212Zm-11.628,2.528l1.098,-4.72l18.494,-2.236l-0.84,3.6l-3.96,0.464l-1.704,7.302l3.346,2.166l-0.84,3.602l-15.594,-10.178Z" style="fill:#1e1c1a;fill-rule:nonzero;"/><path d="M444.103,70.918l-1.368,3.02l-15.938,-7.22l1.367,-3.02l15.939,7.22Z" style="fill:#1e1c1a;"/><path d="M442.828,55.191l4.624,-6.41l0.914,0.662c3.95,2.856 4.772,7.696 1.938,11.624c-2.836,3.928 -8.112,4.832 -12.366,1.756c-4.256,-3.076 -5.058,-8.374 -2.224,-12.302c2.834,-3.928 7.162,-3.946 9.766,-2.852l-2.014,2.794c-1.764,-0.334 -3.802,-0.074 -5.218,1.888c-1.792,2.48 -1.31,5.66 1.628,7.786c2.938,2.122 6.104,1.58 7.896,-0.902c1.938,-2.684 0.706,-5.464 -0.204,-6.122l-0.104,-0.076l-2.61,3.618l-2.026,-1.464Z" style="fill:#1e1c1a;fill-rule:nonzero;"/><path d="M445.874,38.823l2.59,-2.068l4.372,5.464l6.28,-5.016l-4.37,-5.464l2.592,-2.07l10.928,13.664l-2.594,2.07l-4.524,-5.66l-6.282,5.014l4.528,5.662l-2.594,2.068l-10.926,-13.664Z" style="fill:#1e1c1a;fill-rule:nonzero;"/><path d="M468.323,27.277l-4.85,2.268l-1.322,-2.832l12.704,-5.94l1.322,2.832l-4.852,2.268l6.086,13.028l-3.004,1.404l-6.084,-13.028Z" style="fill:#1e1c1a;fill-rule:nonzero;"/><path d="M486.43,16.798l3.694,-0.212l3.766,12.048l0.508,-0.028l2.476,-12.412l3.822,-0.22l3.894,12.04l0.508,-0.026l2.348,-12.404l3.694,-0.214l-3.446,17.722l-4.586,0.268l-3.75,-11.802l-0.512,0.032l-2.36,12.154l-4.588,0.262l-5.468,-17.208Z" style="fill:#1e1c1a;fill-rule:nonzero;"/><path d="M523.687,29.476l-0.662,-7.378l-0.494,-0.122l-4.04,6.208l5.196,1.292Zm-2.354,-11.664l4.7,1.172l1.964,18.522l-3.588,-0.894l-0.406,-3.964l-7.274,-1.81l-2.22,3.314l-3.586,-0.892l10.41,-15.448Z" style="fill:#1e1c1a;fill-rule:nonzero;"/><path d="M534.311,34.343l-0.622,-13.19l3.3,1.664l0.376,8.586l0.456,0.232l7.132,-4.802l3.3,1.662l-10.984,7.338l-2.702,5.356l-2.958,-1.49l2.702,-5.356Z" style="fill:#1e1c1a;fill-rule:nonzero;"/><path d="M545.366,41.388c-0.944,1.166 -0.542,3.1 1.34,4.626c1.982,1.604 3.404,1.47 4.188,0.498c0.63,-0.776 0.684,-1.858 -0.862,-3.594l-2.062,-2.316c-2.062,-2.316 -2.05,-4.558 -0.478,-6.504c1.808,-2.232 5.184,-2.552 8.452,0.096c3.564,2.892 3.774,6.278 1.732,8.806l-2.576,-2.088c0.944,-1.166 0.74,-2.94 -1.044,-4.386c-1.78,-1.444 -3.202,-1.308 -3.99,-0.34c-0.628,0.778 -0.642,1.606 0.624,3.08l1.864,2.158c2.38,2.732 2.724,4.94 0.914,7.174c-1.888,2.332 -5.084,2.638 -8.648,-0.254c-3.566,-2.89 -4.074,-6.518 -2.028,-9.044l2.574,2.088Z" style="fill:#1e1c1a;fill-rule:nonzero;"/><path d="M558.04,62.283l-1.957,-2.716l14.195,-10.226l1.956,2.716l-14.194,10.226Z" style="fill:#1e1c1a;"/><path d="M576.858,58.896l1.818,4.074l-8.416,10.888l0.206,0.466l11.066,-4.948l1.352,3.026l-15.972,7.142l-1.818,-4.074l8.418,-10.886l-0.208,-0.466l-11.066,4.948l-1.35,-3.028l15.97,-7.142Z" style="fill:#1e1c1a;fill-rule:nonzero;"/><path d="M575.153,91.443l10.886,-7.494l0.324,3.684l-7.102,4.854l0.046,0.508l7.842,3.526l0.326,3.686l-12.03,-5.462l-5.98,0.532l-0.292,-3.302l5.98,-0.532Z" style="fill:#1e1c1a;fill-rule:nonzero;"/><path d="M577.42,116.122c3.616,0.23 6.006,-1.918 6.2,-4.974c0.194,-3.056 -1.906,-5.488 -5.522,-5.72c-3.618,-0.228 -6.006,1.922 -6.2,4.976c-0.194,3.056 1.904,5.49 5.522,5.718m-0.21,3.31c-5.238,-0.332 -8.738,-4.388 -8.43,-9.226c0.306,-4.838 4.29,-8.418 9.528,-8.086c5.238,0.332 8.738,4.386 8.432,9.224c-0.308,4.838 -4.292,8.42 -9.53,8.088" style="fill:#1e1c1a;fill-rule:nonzero;"/><path d="M585.722,123.427l-0.21,3.308l-10.352,-0.656c-2.496,-0.158 -4.354,1.516 -4.498,3.806c-0.146,2.292 1.486,4.184 3.98,4.342l10.354,0.658l-0.21,3.312l-10.354,-0.658c-4.488,-0.284 -7.17,-3.396 -6.888,-7.852c0.282,-4.454 3.336,-7.202 7.826,-6.916l10.352,0.656Z" style="fill:#1e1c1a;fill-rule:nonzero;"/><path d="M575.526,149.939c-0.082,1.272 0.97,2.49 2.466,2.584c1.62,0.104 2.816,-0.972 2.896,-2.244l0.3,-4.71l-5.364,-0.34l-0.298,4.71Zm8.99,-7.482l-0.518,8.148c-0.2,3.184 -2.724,5.45 -6.216,5.228c-3.368,-0.214 -5.336,-2.766 -5.282,-5.574l-6.35,5.35l0.266,-4.204l6.35,-5.348l0.064,-1.018l-5.986,-0.38l0.21,-3.31l17.462,1.108Z" style="fill:#1e1c1a;fill-rule:nonzero;"/><path d="M582.967,166.874l-0.21,3.31l-14.342,-0.91l-0.532,8.4l-3.12,-0.196l0.744,-11.712l17.46,1.108Z" style="fill:#1e1c1a;fill-rule:nonzero;"/><path d="M564.362,183.828l0.21,-3.312l17.46,1.108l-0.211,3.313l-17.459,-1.109Z" style="fill:#1e1c1a;"/><path d="M581.544,189.327l-0.75,11.84l-2.994,-0.19l0.54,-8.53l-4.24,-0.268l-0.5,7.892l-2.994,-0.192l0.5,-7.89l-7.232,-0.458l0.21,-3.312l17.46,1.108Z" style="fill:#1e1c1a;fill-rule:nonzero;"/><path d="M580.598,204.241l-0.758,11.964l-2.994,-0.188l0.548,-8.656l-4.24,-0.27l-0.516,8.148l-2.994,-0.19l0.516,-8.148l-4.238,-0.268l-0.55,8.656l-2.994,-0.19l0.76,-11.966l17.46,1.108Z" style="fill:#1e1c1a;fill-rule:nonzero;"/><path d="M509.927,400.603c-0.084,-0.006 -0.168,-0.018 -0.254,-0.034l-44.83,-8.412c-0.93,-0.174 -1.624,-0.952 -1.692,-1.898c-0.066,-0.944 0.51,-1.812 1.406,-2.116l61.314,-20.906l-87.884,-23.112c-0.968,-0.256 -1.616,-1.16 -1.548,-2.158c0.07,-0.996 0.838,-1.806 1.83,-1.922l100.73,-12.03l-104.394,-28.854c-0.948,-0.262 -1.584,-1.15 -1.524,-2.13c0.06,-0.984 0.798,-1.788 1.77,-1.934l122.716,-18.336l-117.832,-17.798c-1.026,-0.154 -1.78,-1.044 -1.772,-2.078c0.01,-1.04 0.786,-1.912 1.814,-2.046l118.686,-15.444l-117.182,-18.47c-0.994,-0.154 -1.734,-1 -1.758,-2.006c-0.024,-1.004 0.674,-1.882 1.656,-2.088l103.122,-21.464l-102.778,-22.574c-0.992,-0.222 -1.68,-1.12 -1.634,-2.136c0.05,-1.012 0.82,-1.844 1.826,-1.966l103.618,-12.726l-101.162,-26.134c-0.97,-0.25 -1.624,-1.16 -1.556,-2.16c0.07,-1 0.844,-1.81 1.842,-1.924l104.326,-11.924l-94.79,-23.218c-0.998,-0.242 -1.666,-1.18 -1.578,-2.204c0.09,-1.022 0.914,-1.828 1.938,-1.894l84.8,-5.532l-71.156,-19.922c-0.984,-0.278 -1.622,-1.228 -1.508,-2.244c0.118,-1.016 0.954,-1.796 1.976,-1.842l66.574,-3.022c1.19,-0.05 2.12,0.838 2.176,1.986c0.05,1.15 -0.838,2.124 -1.986,2.176l-53.62,2.432l70.412,19.714c0.978,0.272 1.614,1.212 1.508,2.222c-0.104,1.006 -0.922,1.796 -1.934,1.86l-83.468,5.446l92.952,22.768c0.98,0.238 1.646,1.148 1.582,2.154c-0.064,1.006 -0.84,1.82 -1.84,1.936l-104.734,11.97l100.912,26.066c0.97,0.252 1.622,1.154 1.556,2.152c-0.064,0.998 -0.83,1.81 -1.822,1.932l-102.414,12.58l100.382,22.046c0.96,0.212 1.642,1.064 1.636,2.046c-0.006,0.98 -0.696,1.826 -1.658,2.028l-101.498,21.126l120.228,18.95c1.022,0.16 1.77,1.046 1.758,2.084c-0.016,1.034 -0.788,1.902 -1.814,2.034l-118.35,15.406l116.888,17.656c1.02,0.154 1.772,1.028 1.772,2.058c-0.002,1.032 -0.756,1.906 -1.776,2.058l-126.71,18.932l105.13,29.058c0.96,0.264 1.598,1.172 1.524,2.164c-0.076,0.992 -0.842,1.792 -1.83,1.91l-100.372,11.986l83.978,22.086c0.89,0.234 1.518,1.02 1.552,1.938c0.032,0.918 -0.54,1.75 -1.41,2.046l-60.352,20.576l37.044,6.95c1.13,0.214 1.874,1.302 1.662,2.43c-0.196,1.046 -1.14,1.76 -2.176,1.696" style="fill:#1e1c1a;fill-rule:nonzero;"/><path d="M538.836,383.501c1.236,-0.958 1.5,-3.008 0.344,-4.504c-0.946,-1.224 -2.274,-1.394 -3.212,-0.67l-1.292,0.998l2.772,5.246l1.388,-1.07Zm-6.928,-4.75l3.004,-2.322c1.7,-1.314 4.354,-0.974 5.93,1.064c1.892,2.45 1.43,6.066 -0.91,7.876l-3.236,2.502l-4.788,-9.12Z" style="fill:#1e1c1a;fill-rule:nonzero;"/><path d="M539.119,372.769l5.026,-4.938l1.176,1.736l-3.434,3.374l1.138,1.648l3.188,-3.128l1.188,1.722l-3.19,3.13l1.14,1.652l3.434,-3.37l1.186,1.724l-5.028,4.934l-5.824,-8.484Z" style="fill:#1e1c1a;fill-rule:nonzero;"/><path d="M549.108,372.288l1.394,-1.746l0.068,0.052c0.604,0.486 1.45,0.392 2.414,-0.816c0.698,-0.87 0.604,-1.716 0.202,-2.038c-0.336,-0.27 -0.926,-0.082 -1.664,0.428l-1.248,0.872c-1.246,0.874 -2.332,0.994 -3.206,0.296c-1.554,-1.244 -1.72,-3.488 -0.282,-5.284c1.61,-2.014 3.42,-2.214 4.762,-1.142c0.094,0.076 0.336,0.266 0.336,0.266l-1.396,1.746c-0.026,-0.02 -0.052,-0.042 -0.066,-0.052c-0.538,-0.43 -1.382,-0.336 -2.134,0.602c-0.642,0.806 -0.562,1.53 -0.094,1.906c0.268,0.214 0.578,0.24 1.316,-0.268l1.246,-0.872c1.476,-1.02 2.616,-1.208 3.556,-0.458c1.542,1.234 1.784,3.406 0.174,5.42c-1.768,2.212 -3.7,2.43 -5.11,1.302l-0.268,-0.214Z" style="fill:#1e1c1a;fill-rule:nonzero;"/><path d="M550.329,359.341l1.23,-1.862l7.466,7.076l-1.232,1.862l-7.464,-7.076Z" style="fill:#1e1c1a;fill-rule:nonzero;"/><path d="M558.472,354.644l2.14,-4.11l0.486,0.37c2.356,1.792 3.192,4.646 1.96,7.004c-1.15,2.204 -3.698,3.006 -6.054,1.778c-2.982,-1.556 -4.06,-5.022 -2.71,-7.608c1.072,-2.056 3.154,-2.71 5.268,-1.936l-1.04,1.992c-1.042,-0.232 -1.93,0.174 -2.406,1.086c-0.754,1.446 -0.134,3.414 1.766,4.406c1.37,0.716 2.758,0.28 3.354,-0.862c0.516,-0.99 0.458,-2.18 -0.348,-3.048l-1.038,1.994l-1.378,-1.066Z" style="fill:#1e1c1a;fill-rule:nonzero;"/><path d="M556.957,346.544l0.936,-2.66l6.63,0.056l0.122,-0.34l-5.548,-3.136l0.742,-2.108l8.972,5.054l-0.936,2.658l-6.636,-0.04l-0.12,0.34l5.552,3.12l-0.742,2.108l-8.972,-5.052Z" style="fill:#1e1c1a;fill-rule:nonzero;"/><path d="M560.929,333.144l0.24,-2.254l6.604,0.408l0.036,-0.342l-6.266,-3.566l0.252,-2.39l6.632,0.152l0.036,-0.34l-6.294,-3.31l0.25,-2.356l9.628,5.236l-0.298,2.816l-6.454,-0.184l-0.038,0.34l6.11,3.428l-0.3,2.82l-10.138,-0.458Z" style="fill:#1e1c1a;fill-rule:nonzero;"/><path d="M568.649,313.675l-3.726,0.364l-0.022,0.344l3.568,2.138l0.18,-2.846Zm-6.294,1.528l0.196,-3.086l10.224,-1.09l-0.142,2.262l-1.906,0.188l-0.268,4.22l1.826,1.08l-0.15,2.364l-9.78,-5.938Z" style="fill:#1e1c1a;fill-rule:nonzero;"/><path d="M562.885,306.823l0.142,-2.228l7.882,1.912l0.294,-4.632l2.12,0.514l-0.434,6.86l-10.004,-2.426Z" style="fill:#1e1c1a;fill-rule:nonzero;"/><path d="M571.333,300.677l-5.51,-6.254l-0.302,4.77l-2.118,-0.534l0.496,-7.8l2.066,0.51l5.508,6.256l0.314,-4.94l2.12,0.514l-0.506,7.972l-2.068,-0.494Z" style="fill:#1e1c1a;fill-rule:nonzero;"/></g></svg>