<?xml version="1.0" encoding="UTF-8" standalone="no"?><!DOCTYPE svg PUBLIC "-//W3C//DTD SVG 1.1//EN" "http://www.w3.org/Graphics/SVG/1.1/DTD/svg11.dtd"><svg width="100%" height="100%" viewBox="0 0 742 948" version="1.1" xmlns="http://www.w3.org/2000/svg" xmlns:xlink="http://www.w3.org/1999/xlink" xml:space="preserve" xmlns:serif="http://www.serif.com/" style="fill-rule:evenodd;clip-rule:evenodd;stroke-linejoin:round;stroke-miterlimit:2;"><g id="Ebene-4" serif:id="Ebene 4"><path d="M451.22,476.108c5.85,75.596 -89.778,144.644 -213.588,154.224c-123.81,9.578 -228.92,-43.936 -234.77,-119.53c-5.848,-75.596 89.778,-144.646 213.588,-154.226c123.812,-9.58 228.922,43.938 234.77,119.532" style="fill:#fd0;fill-rule:nonzero;"/><path d="M77.915,433.094l21.77,-5.514l0.574,7.414l-21.772,5.512l1.39,18.918l-9.268,2.348l-3.444,-45.972l32.114,-8.134l0.59,7.658l-22.844,5.786l0.89,11.984Z" style="fill:#1e1c1a;fill-rule:nonzero;"/><path d="M138.03,415.596c-1.74,-6.872 -6.264,-9.238 -11.976,-7.792c-10.56,2.674 -13.096,15.224 -10.65,24.88c1.74,6.874 6.262,9.24 11.976,7.794c10.558,-2.674 13.098,-15.224 10.65,-24.882m9.448,-2.262c3.964,15.656 -3.102,30.806 -18.708,34.758c-10.446,2.646 -19.962,-1.89 -22.812,-13.144c-3.966,-15.66 3.1,-30.808 18.702,-34.758c10.448,-2.646 19.968,1.89 22.818,13.144" style="fill:#1e1c1a;fill-rule:nonzero;"/><path d="M195.391,414.52c-0.898,8.862 -6.976,18.466 -18.66,21.428c-10.328,2.614 -19.738,-1.972 -22.594,-13.242c-3.944,-15.576 3.194,-30.79 18.482,-34.662c10.216,-2.586 18.326,2.766 20.878,9.35l-8.864,3.438c-1.742,-4.074 -5.36,-6.506 -10.64,-5.168c-9.96,2.524 -12.966,14.682 -10.398,24.814c1.75,6.916 6.246,9.246 11.764,7.848c6.332,-1.604 9.608,-7.158 10.41,-12.84l9.622,-0.966Z" style="fill:#1e1c1a;fill-rule:nonzero;"/><path d="M238.473,402.182c0.972,12.898 -5.96,19.638 -17.25,22.496c-9.708,2.46 -19.622,-2.12 -20.422,-13.31l-2.128,-28.872l9.25,-2.342l2.136,28.296c0.58,7.766 4.038,9.98 10.078,8.45c6.246,-1.582 9.508,-5.852 8.93,-13.618l-2.054,-27.964l9.25,-2.342l2.21,29.206Z" style="fill:#1e1c1a;fill-rule:nonzero;"/><path d="M270.25,378.229c-1.802,-4.634 -5.352,-6.148 -10.37,-4.878c-4.34,1.098 -7.848,4.788 -6.912,8.486c0.658,2.698 3.022,2.942 6.464,2.942l7.348,-0.022c6.174,0.014 12.622,0.766 14.54,8.514c2.68,10.75 -4.98,17.45 -15.878,20.21c-10.454,2.646 -19.432,-1.272 -21.802,-10.172l8.97,-3.106c1.722,6.37 6.618,7.352 11.846,6.03c4.752,-1.204 8.888,-4.9 7.746,-9.416c-0.792,-3.118 -3.334,-3.252 -7.652,-3.298l-7.3,-0.086c-5.5,-0.06 -11.426,-1.162 -13.168,-8.044c-2.442,-9.64 5.052,-16.722 14.994,-19.24c9.524,-2.412 17.138,1.496 20.072,9.282l-8.898,2.798Z" style="fill:#1e1c1a;fill-rule:nonzero;"/><path d="M161.336,466.163c-1.74,-6.872 -6.264,-9.238 -11.976,-7.792c-10.56,2.674 -13.096,15.222 -10.65,24.878c1.74,6.874 6.262,9.242 11.976,7.792c10.558,-2.67 13.098,-15.222 10.65,-24.878m9.448,-2.266c3.964,15.66 -3.102,30.808 -18.708,34.762c-10.446,2.644 -19.962,-1.894 -22.812,-13.144c-3.966,-15.66 3.1,-30.81 18.702,-34.762c10.448,-2.644 19.968,1.89 22.818,13.144" style="fill:#1e1c1a;fill-rule:nonzero;"/><path d="M208.219,483.389l-22.454,-27.882l-0.248,0.062l2.464,32.946l-8.492,2.148l-3.444,-45.97l9.818,-2.488l22.11,27.38l0.248,-0.064l-2.408,-32.366l8.496,-2.152l3.442,45.972l-9.532,2.414Z" style="fill:#1e1c1a;fill-rule:nonzero;"/><path d="M83.459,570.719l-6.592,1.67l-0.364,-5.14c-2.63,4.714 -6.866,8.02 -12.888,9.546c-10.324,2.616 -20.03,-2.086 -22.828,-13.138c-3.96,-15.64 3.336,-30.87 18.714,-34.764c9.46,-2.396 17.99,1.468 21.342,9.318l-9.114,3.13c-2.106,-4.298 -5.684,-6.138 -10.854,-4.828c-10.22,2.588 -13.198,14.798 -10.644,24.878c1.762,6.786 6.282,9.236 12.014,7.786c6.446,-1.634 10.586,-7.134 11.216,-13.11l-10.68,2.702l-0.56,-7.27l19.458,-4.928l1.78,24.148Z" style="fill:#1e1c1a;fill-rule:nonzero;"/><path d="M118.041,534.133l0.512,7.43l-21.77,5.512l0.914,11.99l22.848,-5.788l0.584,7.902l-32.114,8.134l-3.442,-45.972l32.112,-8.132l0.59,7.658l-22.844,5.784l0.838,10.994l21.772,-5.512Z" style="fill:#1e1c1a;fill-rule:nonzero;"/><path d="M154.491,552.731l-22.454,-27.88l-0.248,0.062l2.466,32.944l-8.494,2.152l-3.442,-45.974l9.816,-2.484l22.11,27.376l0.25,-0.064l-2.41,-32.364l8.496,-2.152l3.442,45.97l-9.532,2.414Z" style="fill:#1e1c1a;fill-rule:nonzero;"/><path d="M198.991,513.633l0.514,7.428l-21.77,5.514l0.916,11.988l22.844,-5.786l0.584,7.902l-32.114,8.134l-3.44,-45.972l32.112,-8.134l0.59,7.658l-22.844,5.786l0.838,10.994l21.77,-5.512Z" style="fill:#1e1c1a;fill-rule:nonzero;"/><path d="M224.872,509.979c6.038,-1.53 8.646,-5.636 7.436,-10.412c-0.84,-3.322 -3.588,-4.67 -8.428,-3.446l-10.712,2.716l0.994,13.854l10.71,-2.712Zm8.168,5.026l12.022,14.79l-10.166,2.574l-11.132,-14.302l-9.054,2.292l1.248,16.806l-9.246,2.342l-3.442,-45.97l21.344,-5.404c7.926,-2.008 15.006,0.75 16.802,7.844c2.098,8.278 -0.938,15.144 -8.376,19.028" style="fill:#1e1c1a;fill-rule:nonzero;"/><path d="M263.647,486.626l-0.248,0.062l-4.768,21.038l13.146,-3.33l-8.13,-17.77Zm-6.808,29.016l-2.686,11.852l-10.218,2.588l12.626,-50.042l12.168,-3.082l20.31,41.7l-9.62,2.436l-4.58,-10.01l-18,4.558Z" style="fill:#1e1c1a;fill-rule:nonzero;"/><path d="M288.227,472.02l9.268,-2.348l2.848,37.844l23.176,-5.87l0.594,8.128l-32.446,8.218l-3.44,-45.972Z" style="fill:#1e1c1a;fill-rule:nonzero;"/><path d="M324.227,462.903l9.25,-2.342l3.442,45.97l-9.248,2.342l-3.444,-45.97Z" style="fill:#1e1c1a;fill-rule:nonzero;"/><path d="M366.155,466.145c-1.8,-4.636 -5.348,-6.148 -10.368,-4.878c-4.342,1.098 -7.848,4.786 -6.914,8.486c0.66,2.696 3.024,2.94 6.466,2.938l7.346,-0.02c6.174,0.016 12.622,0.768 14.544,8.516c2.676,10.75 -4.982,17.446 -15.878,20.208c-10.454,2.646 -19.436,-1.274 -21.802,-10.172l8.966,-3.106c1.722,6.372 6.618,7.354 11.848,6.03c4.75,-1.204 8.886,-4.9 7.744,-9.416c-0.79,-3.116 -3.334,-3.252 -7.652,-3.296l-7.3,-0.09c-5.5,-0.058 -11.426,-1.158 -13.168,-8.04c-2.442,-9.64 5.052,-16.724 14.994,-19.242c9.524,-2.412 17.14,1.498 20.072,9.282l-8.898,2.8Z" style="fill:#1e1c1a;fill-rule:nonzero;"/><path d="M429.082,483.192l-8.74,2.212l-2.552,-34.01l-0.246,0.062l-8.12,36.714l-6.89,1.744l-13.304,-31.286l-0.246,0.06l2.55,34.012l-8.494,2.152l-3.444,-45.97l13.166,-3.334l11.72,29.428l0.246,-0.064l6.92,-34.15l13.99,-3.542l3.444,45.972Z" style="fill:#1e1c1a;fill-rule:nonzero;"/><path d="M243.686,618.518c1.556,-0.152 2.87,-1.746 2.686,-3.628c-0.148,-1.542 -1.18,-2.39 -2.36,-2.274l-1.624,0.158l-0.446,5.912l1.744,-0.168Zm-3.338,-7.706l3.782,-0.366c2.136,-0.21 4.2,1.49 4.448,4.056c0.3,3.08 -2.016,5.896 -4.958,6.18l-4.07,0.394l0.798,-10.264Z" style="fill:#1e1c1a;fill-rule:nonzero;"/><path d="M250.475,609.752l6.986,-0.866l-0.12,2.092l-4.772,0.59l-0.1,2.002l4.432,-0.546l-0.104,2.086l-4.43,0.55l-0.098,2l4.772,-0.59l-0.106,2.088l-6.984,0.87l0.524,-10.276Z" style="fill:#1e1c1a;fill-rule:nonzero;"/><path d="M258.28,615.606l2.208,-0.33l0.01,0.084c0.116,0.762 0.8,1.27 2.324,1.04c1.104,-0.166 1.61,-0.846 1.532,-1.354c-0.062,-0.428 -0.622,-0.69 -1.506,-0.818l-1.508,-0.208c-1.508,-0.208 -2.384,-0.862 -2.548,-1.96c-0.298,-1.972 1.108,-3.726 3.382,-4.066c2.548,-0.38 4.01,0.702 4.266,2.398c0.016,0.12 0.06,0.424 0.06,0.424l-2.204,0.332c-0.008,-0.034 -0.012,-0.068 -0.014,-0.084c-0.102,-0.68 -0.786,-1.184 -1.972,-1.008c-1.02,0.152 -1.454,0.738 -1.364,1.334c0.05,0.338 0.26,0.568 1.144,0.694l1.508,0.21c1.774,0.254 2.736,0.89 2.914,2.08c0.292,1.95 -1.008,3.708 -3.552,4.09c-2.804,0.418 -4.366,-0.736 -4.628,-2.518l-0.052,-0.34Z" style="fill:#1e1c1a;fill-rule:nonzero;"/><path d="M268.411,607.141l2.208,-0.374l-0.072,10.3l-2.2,0.372l0.064,-10.298Z" style="fill:#1e1c1a;fill-rule:nonzero;"/><path d="M277.229,610.338l4.554,-0.874l0.012,0.612c0.062,2.96 -1.66,5.386 -4.274,5.888c-2.442,0.466 -4.654,-1.03 -5.154,-3.644c-0.636,-3.304 1.414,-6.302 4.28,-6.852c2.276,-0.436 4.082,0.79 4.792,2.928l-2.208,0.422c-0.464,-0.958 -1.338,-1.404 -2.35,-1.21c-1.602,0.308 -2.758,2.016 -2.354,4.122c0.29,1.518 1.496,2.336 2.762,2.094c1.094,-0.21 1.992,-0.996 2.17,-2.166l-2.208,0.426l-0.022,-1.746Z" style="fill:#1e1c1a;fill-rule:nonzero;"/><path d="M283.2,604.292l2.748,-0.622l3.474,5.646l0.352,-0.08l-0.288,-6.362l2.176,-0.488l0.486,10.278l-2.748,0.618l-3.49,-5.64l-0.35,0.078l0.306,6.362l-2.182,0.488l-0.484,-10.278Z" style="fill:#1e1c1a;fill-rule:nonzero;"/><path d="M296.405,601.194l2.186,-0.604l2.042,6.29l0.332,-0.09l1.014,-7.14l2.314,-0.644l2.298,6.226l0.328,-0.094l0.766,-7.07l2.284,-0.634l-1.332,10.88l-2.728,0.756l-2.2,-6.072l-0.33,0.092l-0.944,6.944l-2.732,0.756l-3.298,-9.596Z" style="fill:#1e1c1a;fill-rule:nonzero;"/><path d="M316.678,601.676l-1.688,-3.338l-0.326,0.104l-0.704,4.096l2.718,-0.862Zm-3.7,-5.314l2.948,-0.934l4.712,9.136l-2.162,0.686l-0.864,-1.708l-4.028,1.274l-0.348,2.092l-2.258,0.716l2,-11.262Z" style="fill:#1e1c1a;fill-rule:nonzero;"/><path d="M319.959,594.044l2.11,-0.734l1.302,8.004l4.38,-1.53l0.348,2.15l-6.484,2.266l-1.656,-10.156Z" style="fill:#1e1c1a;fill-rule:nonzero;"/><path d="M328.186,599.667l3.412,-7.602l-4.462,1.7l-0.394,-2.15l7.306,-2.78l0.39,2.094l-3.412,7.604l4.624,-1.762l0.412,2.144l-7.466,2.838l-0.41,-2.086Z" style="fill:#1e1c1a;fill-rule:nonzero;"/></g></svg>