<?xml version="1.0" encoding="UTF-8" standalone="no"?><!DOCTYPE svg PUBLIC "-//W3C//DTD SVG 1.1//EN" "http://www.w3.org/Graphics/SVG/1.1/DTD/svg11.dtd"><svg width="100%" height="100%" viewBox="0 0 742 948" version="1.1" xmlns="http://www.w3.org/2000/svg" xmlns:xlink="http://www.w3.org/1999/xlink" xml:space="preserve" xmlns:serif="http://www.serif.com/" style="fill-rule:evenodd;clip-rule:evenodd;stroke-linejoin:round;stroke-miterlimit:2;"><g id="Ebene-6" serif:id="Ebene 6"><path d="M152.766,86.596l-24.362,265.698l265.678,24.36l24.358,-265.68l0,-0.02l-265.674,-24.358Z" style="fill:#2f3083;fill-rule:nonzero;"/><path d="M179.015,117.857c-3.24,-0.24 -8.814,-0.188 -9.224,4.394c-0.218,2.44 1.188,4.07 3.478,4.278c1.594,0.142 2.676,-0.162 3.966,-1.102c0.432,-0.362 1.18,-0.85 1.364,-2.942l0.416,-4.628Zm6.896,7.644c-0.36,2.328 -2.31,3.908 -4.6,3.704c-1.842,-0.164 -2.78,-1.456 -2.962,-3.326c-1.88,1.936 -4.456,2.662 -6.996,2.436c-3.136,-0.282 -5.716,-1.72 -5.388,-5.402c0.566,-4.618 5.526,-6.784 13.144,-6.102l0.424,-4.73c0.21,-2.34 -1.57,-3.202 -3.312,-3.356c-1.096,-0.1 -4.664,-0.068 -4.79,1.376c-0.038,0.398 1.434,0.782 1.286,2.426c-0.11,1.244 -0.984,2.018 -2.228,1.906c-1.344,-0.12 -2.002,-1.182 -1.876,-2.576c0.16,-1.792 2.47,-4.598 8.394,-4.064c6.772,0.604 6.514,3.49 6.336,5.482l-1.062,11.85c-0.136,1.494 -0.206,2.29 0.838,2.384c0.996,0.09 1.62,-1.26 1.944,-2.084l0.848,0.076Z" style="fill:#fff;fill-rule:nonzero;"/><path d="M195.361,114.152l0.102,0.01c1.094,-2.162 3.306,-4.422 6.044,-4.178c1.692,0.152 2.956,1.17 2.788,3.06c-0.112,1.246 -1.462,1.728 -2.506,1.634c-0.896,-0.08 -1.852,-1.168 -1.762,-2.164c0.034,-0.4 0.274,-0.83 0.292,-1.03c0.026,-0.298 -0.272,-0.324 -0.422,-0.338c-0.05,-0.006 -1.806,0.542 -3.102,2.682c-0.824,1.384 -1.548,3.276 -1.726,5.268l-0.848,9.458l3.834,0.344l-0.1,1.144l-11.104,-0.994l0.1,-1.146l3.388,0.302l1.562,-17.424l-3.388,-0.302l0.102,-1.146l1.544,0.138c1.842,0.164 3.788,0.29 5.622,0.002l-0.42,4.68Z" style="fill:#fff;fill-rule:nonzero;"/><path d="M211.747,115.621l0.102,0.01c1.094,-2.162 3.306,-4.422 6.044,-4.176c1.692,0.15 2.956,1.166 2.788,3.056c-0.112,1.246 -1.462,1.73 -2.506,1.636c-0.896,-0.08 -1.852,-1.17 -1.762,-2.166c0.034,-0.398 0.274,-0.828 0.292,-1.028c0.026,-0.298 -0.272,-0.326 -0.422,-0.34c-0.05,-0.006 -1.806,0.544 -3.102,2.684c-0.824,1.382 -1.548,3.276 -1.726,5.268l-0.848,9.458l3.834,0.344l-0.102,1.144l-11.102,-0.996l0.1,-1.146l3.388,0.304l1.562,-17.424l-3.388,-0.304l0.102,-1.146l1.544,0.14c1.842,0.164 3.788,0.29 5.62,0.002l-0.418,4.68Z" style="fill:#fff;fill-rule:nonzero;"/><path d="M228.089,99.619c1.196,0.108 2.442,1.322 2.328,2.618c-0.14,1.542 -1.332,2.538 -2.778,2.412c-1.442,-0.132 -2.282,-1.41 -2.152,-2.854c0.114,-1.298 1.358,-2.288 2.602,-2.176m-8.168,32.392l0.1,-1.144l3.336,0.296l1.562,-17.422l-3.336,-0.3l0.1,-1.144l1.646,0.146c1.842,0.164 3.788,0.288 5.62,0l-1.708,19.068l2.936,0.264l-0.1,1.146l-10.156,-0.91Z" style="fill:#fff;fill-rule:nonzero;"/><path d="M232.588,114.427l0.1,-1.146l8.964,0.802l-0.102,1.146l-2.638,-0.236l3.548,14.722l0.098,0.008l6.31,-13.838l-3.036,-0.274l0.1,-1.144l6.772,0.606l-0.1,1.146l-2.39,-0.214l-8.592,18.602l-1.696,-0.15l-4.948,-19.818l-2.39,-0.212Z" style="fill:#fff;fill-rule:nonzero;"/><path d="M266.926,123.322l0.152,-1.692c0.32,-3.586 -1.668,-4.918 -4.156,-5.14c-2.988,-0.268 -4.582,2.4 -4.714,2.74c-0.38,0.87 -0.63,2.002 -0.79,3.24l9.508,0.852Zm3.888,7.024c-1.41,4.542 -4.992,6.43 -9.376,6.038c-5.076,-0.456 -9.59,-4.974 -9.094,-10.502c0.528,-5.874 4.892,-10.906 10.816,-10.374c5.078,0.456 8.602,4.234 8.166,9.666l-14.09,-1.262l-0.182,2.04c-0.442,4.93 -0.15,8.97 5.276,9.456c2.84,0.254 6.396,-1.936 7.388,-5.16l1.096,0.098Z" style="fill:#fff;fill-rule:nonzero;"/><path d="M166.634,295.972c0.216,-2.44 -0.952,-4.502 -3.492,-4.728c-2.242,-0.204 -4.362,1.062 -4.586,3.552c-0.188,2.142 1.846,5.736 2.83,7.634c3.67,-1.178 4.91,-2.672 5.248,-6.458m-9.162,8.666c-3.088,0.876 -6.066,2.214 -6.396,5.9c-0.366,4.082 2.4,11.858 6.978,12.268c2.74,0.246 4.832,-0.72 7.17,-2.166l-7.752,-16.002Zm11.398,12.866c3.322,-3.47 4.952,-7.084 5.49,-11.406l-4.432,-0.396l0.1,-1.146l9.81,0.878l-0.102,1.148l-4.182,-0.376c-0.764,4.6 -2.484,9.214 -6.136,12.452l2.632,5.352l4.33,0.388l-0.1,1.146l-9.062,-0.812l-1.44,-2.99c-2.628,1.924 -6.792,3.006 -9.978,2.72c-7.82,-0.7 -9.944,-6.662 -9.528,-11.292c0.272,-3.038 2.702,-7.236 10.748,-9.628c-1.094,-2.356 -2.418,-4.936 -2.18,-7.572c0.394,-4.432 4.52,-6.22 8.402,-5.874c3.588,0.322 7.278,2.812 6.912,6.896c-0.166,1.842 -1.308,4.548 -8.204,6.44l6.92,14.072Z" style="fill:#fff;fill-rule:nonzero;"/><path d="M219.906,328.296l-0.1,1.146l-9.164,-0.82l0.106,-1.144l2.784,0.248l1.27,-14.138c0.206,-2.34 -0.882,-3.594 -2.478,-3.736c-3.084,-0.276 -5.974,3.932 -6.216,6.67l-0.94,10.456l2.642,0.236l-0.106,1.144l-9.158,-0.82l0.102,-1.144l2.636,0.234l1.27,-14.138c0.206,-2.34 -0.882,-3.592 -2.478,-3.736c-3.086,-0.276 -5.974,3.932 -6.312,7.716l-0.844,9.41l2.79,0.25l-0.104,1.144l-9.16,-0.82l0.102,-1.144l2.49,0.22l1.562,-17.424l-2.49,-0.222l0.1,-1.144l0.798,0.07c1.844,0.166 3.79,0.288 5.622,0.002l-0.422,4.728l0.096,0.01c1.996,-2.632 3.512,-4.456 7.15,-4.13c2.836,0.254 4.874,2.146 4.906,5.16l0.1,0.008c1.838,-2.594 4.056,-4.354 7.288,-4.066c1.844,0.166 5.314,1.178 4.856,6.308l-1.188,13.244l2.49,0.222Z" style="fill:#fff;fill-rule:nonzero;"/><path d="M227.31,320.228c-0.374,4.184 -0.796,9.464 4.234,9.914c5.026,0.452 5.55,-4.822 5.926,-9.004c0.366,-4.132 0.792,-9.414 -4.236,-9.866c-5.03,-0.448 -5.552,4.826 -5.924,8.956m14.688,1.316c-0.542,6.024 -5.316,10.064 -10.546,9.594c-5.228,-0.466 -9.212,-5.29 -8.67,-11.314c0.536,-6.026 5.312,-10.014 10.54,-9.548c5.23,0.47 9.216,5.244 8.676,11.268" style="fill:#fff;fill-rule:nonzero;"/><path d="M243.684,312.863l0.1,-1.146l8.966,0.802l-0.106,1.146l-2.638,-0.236l3.55,14.722l0.1,0.008l6.306,-13.838l-3.034,-0.27l0.1,-1.146l6.774,0.604l-0.104,1.146l-2.388,-0.214l-8.59,18.602l-1.698,-0.15l-4.95,-19.818l-2.388,-0.212Z" style="fill:#fff;fill-rule:nonzero;"/><path d="M277.723,321.732l0.152,-1.692c0.32,-3.586 -1.668,-4.918 -4.154,-5.14c-2.988,-0.268 -4.582,2.398 -4.714,2.738c-0.378,0.872 -0.632,2.004 -0.792,3.242l9.508,0.852Zm3.89,7.024c-1.412,4.542 -4.994,6.43 -9.374,6.036c-5.078,-0.454 -9.59,-4.974 -9.096,-10.502c0.524,-5.874 4.892,-10.904 10.818,-10.372c5.076,0.454 8.602,4.234 8.162,9.666l-14.088,-1.262l-0.184,2.038c-0.44,4.93 -0.15,8.97 5.278,9.458c2.84,0.252 6.394,-1.936 7.388,-5.16l1.096,0.098Z" style="fill:#fff;fill-rule:nonzero;"/><path d="M301.113,326.837c-0.376,4.184 -0.796,9.464 4.234,9.918c5.026,0.45 5.55,-4.824 5.924,-9.008c0.368,-4.13 0.794,-9.412 -4.234,-9.864c-5.03,-0.45 -5.552,4.824 -5.924,8.954m14.688,1.318c-0.542,6.024 -5.316,10.062 -10.546,9.594c-5.228,-0.466 -9.212,-5.292 -8.672,-11.316c0.538,-6.026 5.312,-10.012 10.542,-9.546c5.228,0.47 9.216,5.242 8.676,11.268" style="fill:#fff;fill-rule:nonzero;"/><path d="M321.719,319.853l-2.74,-0.246l0.102,-1.146l1.048,0.096c0.944,0.084 1.89,0.168 2.798,0.15c0.95,0.032 1.908,-0.032 2.822,-0.15l-0.472,5.278l0.098,0.008c1.676,-3.014 3.808,-4.978 7.444,-4.654c1.792,0.16 5.888,0.93 5.48,5.51l-1.264,14.09l2.688,0.24l-0.1,1.146l-9.164,-0.82l0.106,-1.144l2.586,0.23l1.206,-13.442c0.324,-3.634 -0.772,-4.286 -2.764,-4.462c-3.386,-0.306 -6.39,4.094 -6.724,7.828l-0.83,9.26l2.688,0.24l-0.1,1.146l-9.31,-0.834l0.102,-1.146l2.738,0.246l1.562,-17.424Z" style="fill:#fff;fill-rule:nonzero;"/><path d="M273.163,226.736c0.218,-2.44 -0.952,-4.5 -3.494,-4.728c-2.238,-0.202 -4.358,1.064 -4.584,3.554c-0.19,2.14 1.846,5.736 2.83,7.63c3.672,-1.176 4.91,-2.67 5.248,-6.456m-9.16,8.666c-3.09,0.878 -6.068,2.216 -6.398,5.902c-0.368,4.082 2.398,11.858 6.98,12.268c2.738,0.246 4.832,-0.72 7.17,-2.166l-7.752,-16.004Zm11.398,12.866c3.322,-3.468 4.95,-7.084 5.486,-11.404l-4.432,-0.396l0.104,-1.146l9.81,0.876l-0.104,1.148l-4.184,-0.374c-0.762,4.598 -2.482,9.214 -6.132,12.45l2.63,5.354l4.332,0.386l-0.102,1.146l-9.062,-0.81l-1.438,-2.99c-2.63,1.924 -6.794,3.006 -9.98,2.718c-7.818,-0.698 -9.944,-6.662 -9.528,-11.292c0.272,-3.038 2.704,-7.236 10.75,-9.626c-1.096,-2.36 -2.42,-4.936 -2.182,-7.574c0.396,-4.432 4.522,-6.22 8.404,-5.872c3.586,0.322 7.276,2.812 6.912,6.896c-0.166,1.842 -1.31,4.548 -8.208,6.44l6.924,14.07Z" style="fill:#fff;fill-rule:nonzero;"/><path d="M300.388,244.482c-0.2,2.242 -0.018,5.27 2.72,5.514c3.636,0.326 4.116,-2.24 4.392,-5.328c0.222,-2.49 0.092,-5.51 -2.896,-5.778c-2.488,-0.224 -3.792,0.864 -4.216,5.592m1.484,23.774c8.466,0.758 9.236,-3.942 9.308,-4.738c0.264,-2.938 -0.502,-4.462 -6.826,-5.028c-5.874,-0.528 -7.876,3.308 -8.026,5.002c-0.286,3.188 2.956,4.532 5.544,4.764m0.644,-13.344c6.822,0.612 8.088,1.026 9.52,2.962c0.896,1.232 1.168,2.664 1.036,4.158c-0.55,6.124 -6.122,7.83 -10.852,7.408c-7.17,-0.642 -9.286,-3.942 -9.098,-6.034c0.312,-3.486 3.722,-4.538 6.316,-4.956l0.016,-0.15c-2.508,-0.574 -5.366,-1.182 -5.046,-4.768c0.246,-2.738 3.406,-3.258 5.324,-3.386l0.008,-0.1c-2.142,-1.296 -3.484,-3.122 -3.23,-5.96c0.282,-3.138 2.858,-6.67 7.786,-6.23c2.888,0.258 4.844,1.388 5.966,3.446c0.6,-1.1 1.792,-2.65 3.436,-2.504c0.894,0.08 1.904,0.574 1.79,1.868c-0.09,0.996 -0.72,1.844 -1.764,1.75c-0.846,-0.074 -1.212,-1.616 -1.558,-1.644c-0.498,-0.046 -1.158,0.596 -1.204,1.094c-0.048,0.55 0.532,1.906 0.408,3.3c-0.42,4.682 -4.534,5.768 -5.586,5.772c-4.988,0.208 -9.572,-0.154 -9.794,2.336c-0.05,0.55 0.452,1.094 1.198,1.162l5.328,0.476Z" style="fill:#fff;fill-rule:nonzero;"/><path d="M323.803,226.855c1.196,0.108 2.442,1.324 2.328,2.622c-0.14,1.54 -1.332,2.538 -2.778,2.408c-1.444,-0.13 -2.284,-1.408 -2.152,-2.852c0.114,-1.296 1.356,-2.288 2.602,-2.178m-8.172,32.394l0.104,-1.146l3.336,0.298l1.56,-17.424l-3.336,-0.298l0.102,-1.146l1.644,0.146c1.844,0.166 3.788,0.29 5.622,0.002l-1.71,19.068l2.938,0.264l-0.104,1.144l-10.156,-0.908Z" style="fill:#fff;fill-rule:nonzero;"/><path d="M330.294,241.843l0.104,-1.146l8.962,0.802l-0.104,1.144l-2.638,-0.234l3.55,14.722l0.1,0.008l6.306,-13.838l-3.036,-0.272l0.102,-1.144l6.774,0.606l-0.104,1.144l-2.39,-0.214l-8.59,18.604l-1.696,-0.152l-4.95,-19.816l-2.39,-0.214Z" style="fill:#fff;fill-rule:nonzero;"/><path d="M365.629,250.83l0.152,-1.694c0.32,-3.584 -1.668,-4.916 -4.156,-5.138c-2.988,-0.268 -4.582,2.398 -4.712,2.738c-0.38,0.872 -0.632,2.002 -0.792,3.24l9.508,0.854Zm3.888,7.024c-1.41,4.54 -4.992,6.428 -9.374,6.034c-5.078,-0.452 -9.59,-4.974 -9.096,-10.5c0.528,-5.874 4.892,-10.904 10.818,-10.374c5.076,0.454 8.602,4.234 8.164,9.666l-14.09,-1.262l-0.184,2.04c-0.44,4.93 -0.148,8.97 5.28,9.456c2.838,0.254 6.394,-1.934 7.388,-5.16l1.094,0.1Z" style="fill:#fff;fill-rule:nonzero;"/><path d="M240.809,144.865c0.218,-2.44 -0.952,-4.502 -3.494,-4.728c-2.238,-0.2 -4.358,1.064 -4.584,3.554c-0.19,2.142 1.846,5.736 2.83,7.632c3.672,-1.178 4.91,-2.67 5.248,-6.458m-9.16,8.668c-3.088,0.874 -6.068,2.214 -6.398,5.898c-0.368,4.084 2.398,11.862 6.98,12.272c2.738,0.244 4.832,-0.722 7.17,-2.17l-7.752,-16Zm11.398,12.866c3.322,-3.47 4.95,-7.086 5.486,-11.406l-4.432,-0.396l0.104,-1.146l9.81,0.878l-0.104,1.146l-4.184,-0.374c-0.762,4.598 -2.482,9.214 -6.132,12.45l2.63,5.354l4.332,0.388l-0.102,1.144l-9.062,-0.81l-1.438,-2.992c-2.63,1.926 -6.794,3.006 -9.98,2.722c-7.818,-0.7 -9.944,-6.662 -9.528,-11.294c0.272,-3.038 2.704,-7.236 10.75,-9.626c-1.094,-2.358 -2.42,-4.934 -2.182,-7.572c0.396,-4.432 4.522,-6.222 8.404,-5.876c3.586,0.324 7.276,2.812 6.912,6.896c-0.166,1.842 -1.31,4.55 -8.206,6.44l6.922,14.074Z" style="fill:#fff;fill-rule:nonzero;"/><path d="M261.788,156.734l0.102,-1.144l9.56,0.852l-0.102,1.148l-2.938,-0.264l2.846,13.604l0.1,0.01l5.768,-13.988l1.644,0.148l3.392,14.806l0.098,0.01l5.072,-12.894l-3.434,-0.308l0.1,-1.146l7.418,0.664l-0.102,1.146l-2.736,-0.244l-7.352,18.714l-1.392,-0.126l-3.66,-15.184l-0.1,-0.01l-5.85,14.334l-1.594,-0.144l-4.002,-19.73l-2.838,-0.254Z" style="fill:#fff;fill-rule:nonzero;"/><path d="M294.865,168.529c-0.376,4.182 -0.796,9.464 4.232,9.916c5.028,0.45 5.55,-4.824 5.924,-9.006c0.372,-4.132 0.796,-9.414 -4.234,-9.866c-5.028,-0.45 -5.55,4.824 -5.922,8.956m14.688,1.314c-0.542,6.026 -5.318,10.064 -10.546,9.598c-5.228,-0.47 -9.214,-5.292 -8.672,-11.318c0.538,-6.026 5.312,-10.014 10.542,-9.544c5.228,0.468 9.214,5.24 8.676,11.264" style="fill:#fff;fill-rule:nonzero;"/><path d="M319.479,164.962l0.1,0.01c1.096,-2.162 3.308,-4.422 6.046,-4.178c1.692,0.152 2.956,1.17 2.786,3.06c-0.11,1.244 -1.46,1.726 -2.504,1.632c-0.896,-0.08 -1.852,-1.17 -1.762,-2.166c0.034,-0.398 0.274,-0.828 0.29,-1.026c0.026,-0.3 -0.27,-0.326 -0.42,-0.34c-0.052,-0.004 -1.806,0.544 -3.102,2.684c-0.826,1.384 -1.548,3.276 -1.726,5.268l-0.848,9.456l3.834,0.344l-0.104,1.146l-11.102,-0.994l0.102,-1.146l3.386,0.302l1.564,-17.424l-3.388,-0.302l0.1,-1.146l1.546,0.138c1.842,0.164 3.788,0.288 5.62,0l-0.418,4.682Z" style="fill:#fff;fill-rule:nonzero;"/><path d="M341.265,163.853l0.1,-1.146l8.166,0.73l-0.102,1.146l-3.038,-0.27l-7.406,5.358l8.434,12.298l2.09,0.186l-0.104,1.148l-9.458,-0.848l0.104,-1.146l2.488,0.222l-7.41,-10.85l9.06,-6.418l0.014,-0.146l-2.938,-0.264Zm-13.666,17.494l0.102,-1.144l2.59,0.23l2.868,-32.012l-2.59,-0.232l0.104,-1.144l0.896,0.08c1.844,0.164 3.794,0.24 5.616,0.052l-3.01,33.606l2.986,0.268l-0.102,1.144l-9.46,-0.848Z" style="fill:#fff;fill-rule:nonzero;"/><path d="M224.317,261.744c0.218,-2.44 -0.952,-4.502 -3.494,-4.728c-2.238,-0.2 -4.358,1.064 -4.584,3.554c-0.19,2.142 1.846,5.736 2.83,7.632c3.672,-1.178 4.91,-2.67 5.248,-6.458m-9.16,8.668c-3.088,0.874 -6.068,2.214 -6.398,5.898c-0.366,4.084 2.398,11.862 6.98,12.272c2.738,0.244 4.832,-0.722 7.17,-2.17l-7.752,-16Zm11.398,12.866c3.322,-3.47 4.95,-7.086 5.486,-11.406l-4.432,-0.396l0.104,-1.146l9.81,0.878l-0.104,1.146l-4.184,-0.374c-0.762,4.598 -2.482,9.214 -6.132,12.45l2.63,5.354l4.332,0.388l-0.102,1.144l-9.062,-0.81l-1.438,-2.992c-2.63,1.926 -6.794,3.006 -9.98,2.722c-7.818,-0.7 -9.942,-6.662 -9.528,-11.294c0.272,-3.038 2.704,-7.236 10.75,-9.626c-1.096,-2.358 -2.42,-4.934 -2.182,-7.572c0.396,-4.432 4.522,-6.222 8.404,-5.876c3.586,0.324 7.276,2.812 6.912,6.896c-0.166,1.842 -1.31,4.55 -8.206,6.44l6.922,14.074Z" style="fill:#fff;fill-rule:nonzero;"/><path d="M245.348,272.462l2.938,0.262l0.55,-6.124c1.294,0.118 2.538,0.23 3.8,0.14l-0.566,6.324l4.38,0.392l-0.102,1.146l-4.382,-0.394l-1.364,15.234c-0.08,0.896 -0.2,2.242 1.69,2.41c1.296,0.118 2.072,-0.716 2.954,-1.592l0.748,0.62c-1.114,1.806 -3.658,2.734 -5.648,2.556c-3.586,-0.322 -3.81,-2.296 -3.596,-4.686l1.334,-14.888l-2.84,-0.254l0.104,-1.146Z" style="fill:#fff;fill-rule:nonzero;"/><path d="M270.158,284.07c-3.24,-0.24 -8.814,-0.19 -9.224,4.392c-0.22,2.44 1.188,4.072 3.478,4.278c1.594,0.144 2.678,-0.162 3.964,-1.102c0.434,-0.36 1.18,-0.848 1.366,-2.94l0.416,-4.628Zm6.896,7.644c-0.36,2.326 -2.31,3.908 -4.6,3.704c-1.842,-0.166 -2.78,-1.456 -2.962,-3.326c-1.88,1.936 -4.456,2.66 -6.994,2.434c-3.138,-0.28 -5.718,-1.72 -5.388,-5.402c0.564,-4.618 5.524,-6.782 13.142,-6.1l0.424,-4.73c0.21,-2.34 -1.57,-3.2 -3.312,-3.356c-1.096,-0.1 -4.664,-0.068 -4.79,1.376c-0.038,0.398 1.434,0.78 1.288,2.424c-0.112,1.244 -0.984,2.018 -2.23,1.906c-1.344,-0.118 -2.002,-1.18 -1.876,-2.574c0.16,-1.792 2.47,-4.6 8.396,-4.066c6.77,0.606 6.512,3.492 6.334,5.484l-1.062,11.85c-0.136,1.494 -0.206,2.29 0.838,2.384c0.996,0.09 1.62,-1.262 1.944,-2.084l0.848,0.076Z" style="fill:#fff;fill-rule:nonzero;"/><path d="M291.853,277.785l0.104,-1.146l8.166,0.73l-0.104,1.146l-3.036,-0.272l-7.404,5.358l8.434,12.298l2.09,0.186l-0.104,1.148l-9.458,-0.848l0.102,-1.146l2.488,0.222l-7.408,-10.85l9.058,-6.418l0.012,-0.146l-2.94,-0.262Zm-13.662,17.492l0.104,-1.144l2.588,0.232l2.87,-32.012l-2.59,-0.234l0.104,-1.144l0.896,0.08c1.842,0.164 3.79,0.24 5.616,0.052l-3.01,33.606l2.986,0.268l-0.104,1.144l-9.46,-0.848Z" style="fill:#fff;fill-rule:nonzero;"/><path d="M316.089,285.775l0.152,-1.694c0.32,-3.586 -1.668,-4.916 -4.156,-5.138c-2.988,-0.268 -4.582,2.398 -4.714,2.738c-0.38,0.872 -0.63,2.002 -0.79,3.24l9.508,0.854Zm3.888,7.022c-1.41,4.542 -4.992,6.432 -9.376,6.038c-5.076,-0.454 -9.588,-4.976 -9.094,-10.504c0.526,-5.874 4.892,-10.902 10.818,-10.37c5.076,0.452 8.602,4.232 8.164,9.664l-14.09,-1.262l-0.184,2.04c-0.44,4.93 -0.148,8.97 5.278,9.458c2.84,0.254 6.396,-1.938 7.39,-5.162l1.094,0.098Z" style="fill:#fff;fill-rule:nonzero;"/><path d="M187.909,179.492c0.22,-2.44 -0.952,-4.502 -3.492,-4.728c-2.238,-0.202 -4.358,1.064 -4.582,3.552c-0.192,2.142 1.842,5.738 2.826,7.634c3.674,-1.176 4.91,-2.672 5.248,-6.458m-9.158,8.668c-3.088,0.874 -6.07,2.214 -6.4,5.898c-0.366,4.084 2.4,11.86 6.982,12.27c2.736,0.244 4.832,-0.722 7.17,-2.168l-7.752,-16Zm11.398,12.864c3.322,-3.468 4.948,-7.084 5.486,-11.404l-4.432,-0.398l0.104,-1.144l9.81,0.878l-0.106,1.148l-4.182,-0.378c-0.764,4.6 -2.48,9.216 -6.132,12.452l2.628,5.354l4.334,0.388l-0.104,1.146l-9.062,-0.814l-1.436,-2.988c-2.632,1.924 -6.796,3.004 -9.982,2.72c-7.816,-0.7 -9.94,-6.662 -9.528,-11.294c0.276,-3.036 2.706,-7.236 10.752,-9.628c-1.098,-2.356 -2.418,-4.934 -2.184,-7.572c0.398,-4.432 4.524,-6.22 8.406,-5.872c3.584,0.322 7.274,2.812 6.912,6.894c-0.166,1.844 -1.312,4.55 -8.208,6.44l6.924,14.072Z" style="fill:#fff;fill-rule:nonzero;"/><path d="M208.269,210.023l0.106,-1.144l3.832,0.344l2.868,-32.014l-3.832,-0.342l0.1,-1.146l2.14,0.19c1.844,0.166 3.794,0.24 5.618,0.054l-3.012,33.604l3.836,0.344l-0.104,1.148l-11.552,-1.038Z" style="fill:#fff;fill-rule:nonzero;"/><path d="M237.949,199.785l0.152,-1.694c0.32,-3.584 -1.668,-4.916 -4.158,-5.14c-2.988,-0.266 -4.582,2.4 -4.71,2.74c-0.382,0.872 -0.632,2.004 -0.792,3.242l9.508,0.852Zm3.886,7.024c-1.408,4.542 -4.99,6.428 -9.374,6.034c-5.078,-0.452 -9.59,-4.974 -9.096,-10.5c0.528,-5.874 4.892,-10.904 10.818,-10.374c5.076,0.456 8.602,4.234 8.166,9.668l-14.092,-1.264l-0.182,2.04c-0.44,4.93 -0.148,8.97 5.28,9.456c2.836,0.254 6.394,-1.934 7.388,-5.16l1.092,0.1Z" style="fill:#fff;fill-rule:nonzero;"/><path d="M257.954,203.986c-3.242,-0.24 -8.816,-0.188 -9.224,4.392c-0.22,2.44 1.186,4.074 3.478,4.278c1.592,0.142 2.676,-0.162 3.966,-1.102c0.432,-0.36 1.18,-0.848 1.364,-2.938l0.416,-4.63Zm6.894,7.644c-0.358,2.326 -2.308,3.908 -4.6,3.704c-1.84,-0.166 -2.778,-1.456 -2.962,-3.328c-1.88,1.938 -4.454,2.664 -6.994,2.436c-3.136,-0.282 -5.718,-1.72 -5.388,-5.402c0.564,-4.618 5.524,-6.782 13.142,-6.1l0.426,-4.73c0.21,-2.34 -1.57,-3.2 -3.312,-3.356c-1.098,-0.1 -4.664,-0.068 -4.79,1.376c-0.038,0.398 1.434,0.782 1.288,2.422c-0.112,1.246 -0.986,2.022 -2.232,1.908c-1.342,-0.118 -2.002,-1.182 -1.874,-2.576c0.16,-1.79 2.47,-4.596 8.396,-4.064c6.768,0.608 6.512,3.494 6.334,5.486l-1.064,11.848c-0.134,1.494 -0.206,2.292 0.84,2.384c0.996,0.088 1.618,-1.26 1.944,-2.084l0.846,0.076Z" style="fill:#fff;fill-rule:nonzero;"/><path d="M274.298,200.281l0.102,0.01c1.096,-2.16 3.308,-4.422 6.046,-4.176c1.692,0.15 2.958,1.166 2.788,3.058c-0.114,1.244 -1.462,1.728 -2.508,1.634c-0.894,-0.08 -1.85,-1.17 -1.762,-2.166c0.036,-0.398 0.276,-0.828 0.29,-1.028c0.028,-0.298 -0.268,-0.326 -0.42,-0.34c-0.05,-0.006 -1.802,0.544 -3.102,2.684c-0.824,1.382 -1.548,3.276 -1.726,5.268l-0.848,9.458l3.836,0.342l-0.104,1.144l-11.104,-0.994l0.104,-1.144l3.386,0.304l1.562,-17.426l-3.384,-0.304l0.1,-1.144l1.544,0.138c1.84,0.166 3.786,0.29 5.622,0.002l-0.422,4.68Z" style="fill:#fff;fill-rule:nonzero;"/><path d="M286.976,198.355l-2.74,-0.246l0.102,-1.144l1.046,0.094c0.946,0.084 1.89,0.168 2.796,0.15c0.95,0.032 1.912,-0.032 2.826,-0.15l-0.476,5.276l0.1,0.01c1.678,-3.012 3.81,-4.976 7.444,-4.652c1.794,0.16 5.89,0.93 5.478,5.508l-1.26,14.09l2.688,0.24l-0.106,1.146l-9.158,-0.82l0.1,-1.146l2.592,0.232l1.206,-13.442c0.324,-3.634 -0.772,-4.284 -2.764,-4.462c-3.386,-0.306 -6.39,4.094 -6.724,7.828l-0.83,9.26l2.688,0.24l-0.104,1.146l-9.31,-0.834l0.104,-1.146l2.74,0.246l1.562,-17.424Z" style="fill:#fff;fill-rule:nonzero;"/><path d="M193.661,158.021c-9.952,-0.912 -17.318,-9.74 -16.424,-19.698l1.194,0.108c-0.832,9.298 6.044,17.546 15.34,18.396c0.012,0.002 0.02,0.002 0.032,0.004l7.36,0.658l-0.106,1.196l-7.358,-0.66c-0.014,0 -0.026,-0.002 -0.038,-0.004" style="fill:#fff;fill-rule:nonzero;"/><path d="M194.786,161.529l5.07,-3.554l-4.358,-4.398l13.334,5.202l-14.046,2.75Z" style="fill:#fff;fill-rule:nonzero;"/><path d="M196.828,160.55l10.498,-1.906l-6.75,-0.606l-3.748,2.512Z" style="fill:#fff;fill-rule:nonzero;"/><path d="M226.452,240.177c-9.954,-0.912 -17.318,-9.74 -16.426,-19.698l1.194,0.106c-0.832,9.3 6.048,17.546 15.342,18.396c0.012,0.002 0.02,0.004 0.032,0.004l7.36,0.658l-0.106,1.196l-7.358,-0.658c-0.014,-0.002 -0.026,-0.004 -0.038,-0.004" style="fill:#fff;fill-rule:nonzero;"/><path d="M227.575,243.683l5.07,-3.552l-4.358,-4.4l13.334,5.202l-14.046,2.75Z" style="fill:#fff;fill-rule:nonzero;"/><path d="M229.617,242.705l10.498,-1.906l-6.75,-0.604l-3.748,2.51Z" style="fill:#fff;fill-rule:nonzero;"/><path d="M321.578,209.373l0.106,-1.196l3.772,0.338c9.312,0.834 17.566,-6.062 18.402,-15.37l1.194,0.104c-0.892,9.972 -9.73,17.356 -19.7,16.462l-3.774,-0.338Z" style="fill:#fff;fill-rule:nonzero;"/><path d="M327.955,205.333l-5.07,3.552l4.358,4.4l-13.334,-5.202l14.046,-2.75Z" style="fill:#fff;fill-rule:nonzero;"/><path d="M325.913,206.312l-10.498,1.906l6.75,0.606l3.748,-2.512Z" style="fill:#fff;fill-rule:nonzero;"/><path d="M337.058,289.955l0.106,-1.196l3.774,0.338c9.31,0.834 17.564,-6.062 18.4,-15.37l1.194,0.104c-0.892,9.972 -9.73,17.356 -19.7,16.462l-3.774,-0.338Z" style="fill:#fff;fill-rule:nonzero;"/><path d="M343.437,285.917l-5.07,3.552l4.358,4.4l-13.336,-5.204l14.048,-2.748Z" style="fill:#fff;fill-rule:nonzero;"/><path d="M341.394,286.896l-10.498,1.904l6.75,0.606l3.748,-2.51Z" style="fill:#fff;fill-rule:nonzero;"/><path d="M177.439,289.712l0.248,-2.766c0.304,-3.41 1.918,-6.494 4.542,-8.686c2.624,-2.192 5.946,-3.232 9.356,-2.924l6.152,0.528l-0.102,1.196l-6.154,-0.53c-3.094,-0.276 -6.106,0.664 -8.484,2.65c-2.376,1.988 -3.838,4.784 -4.116,7.872l-0.248,2.766l-1.194,-0.106Z" style="fill:#fff;fill-rule:nonzero;"/><path d="M174.596,283.439l3.554,5.07l4.398,-4.358l-5.202,13.334l-2.75,-14.046Z" style="fill:#fff;fill-rule:nonzero;"/><path d="M175.575,285.482l1.906,10.498l0.604,-6.75l-2.51,-3.748Z" style="fill:#fff;fill-rule:nonzero;"/><path d="M355.112,331.033l-6.204,-0.57l0.11,-1.194l6.202,0.568c13.174,1.178 28.012,-6.69 29.562,-23.598l13.19,-149.718c0.922,-10.282 -7.22,-19.446 -18.152,-20.448c-0.016,-0.002 -0.03,-0.004 -0.042,-0.004l-87.052,-8.046l0.11,-1.194l87.048,8.044c0.016,0.002 0.032,0.004 0.048,0.004c11.59,1.062 20.214,10.808 19.234,21.75l-13.188,149.718c-1.424,15.522 -14.694,26.138 -30.866,24.688" style="fill:#fff;fill-rule:nonzero;"/><path d="M298.38,131.953l-4.344,-4.41l5.078,-3.54l-14.054,2.71l13.32,5.24Z" style="fill:#fff;fill-rule:nonzero;"/><path d="M296.548,130.623l-9.982,-3.77l6.748,0.624l3.234,3.146Z" style="fill:#fff;fill-rule:nonzero;"/><path d="M150.559,343.814c1.558,0.144 3.146,-1.174 3.32,-3.054c0.142,-1.542 -0.708,-2.57 -1.888,-2.678l-1.626,-0.154l-1.55,5.724l1.744,0.162Zm-1.824,-8.194l3.78,0.354c2.138,0.2 3.844,2.256 3.604,4.82c-0.286,3.08 -3.092,5.406 -6.034,5.134l-4.07,-0.382l2.72,-9.926Z" style="fill:#fff;fill-rule:nonzero;"/><path d="M159.252,336.601l7.012,0.654l-0.566,2.018l-4.79,-0.448l-0.526,1.938l4.448,0.412l-0.552,2.022l-4.446,-0.416l-0.528,1.936l4.79,0.444l-0.55,2.022l-7.012,-0.654l2.72,-9.928Z" style="fill:#fff;fill-rule:nonzero;"/><path d="M165.734,344.023l2.222,0.208l-0.008,0.084c-0.07,0.768 0.472,1.422 2.012,1.568c1.114,0.1 1.77,-0.44 1.816,-0.952c0.042,-0.428 -0.44,-0.816 -1.272,-1.154l-1.416,-0.562c-1.414,-0.566 -2.11,-1.406 -2.008,-2.518c0.186,-1.984 1.97,-3.356 4.262,-3.14c2.564,0.238 3.728,1.642 3.57,3.35c-0.012,0.122 -0.042,0.428 -0.042,0.428l-2.222,-0.206c0.004,-0.034 0.006,-0.068 0.008,-0.086c0.066,-0.686 -0.48,-1.336 -1.676,-1.45c-1.028,-0.096 -1.588,0.37 -1.646,0.97c-0.03,0.34 0.116,0.612 0.948,0.948l1.414,0.564c1.664,0.672 2.446,1.524 2.334,2.722c-0.182,1.966 -1.864,3.36 -4.43,3.122c-2.822,-0.264 -4.064,-1.76 -3.898,-3.554l0.032,-0.342Z" style="fill:#fff;fill-rule:nonzero;"/><path d="M177.808,338.331l2.222,0.208l-2.72,9.926l-2.222,-0.206l2.72,-9.928Z" style="fill:#fff;fill-rule:nonzero;"/><path d="M185.68,343.812l4.62,0.43l-0.16,0.59c-0.768,2.86 -3.096,4.714 -5.748,4.466c-2.48,-0.23 -4.186,-2.286 -3.94,-4.94c0.312,-3.35 3.116,-5.662 6.026,-5.39c2.308,0.216 3.704,1.898 3.788,4.148l-2.242,-0.208c-0.178,-1.054 -0.89,-1.722 -1.918,-1.818c-1.626,-0.152 -3.216,1.168 -3.416,3.306c-0.142,1.54 0.788,2.66 2.072,2.78c1.112,0.102 2.194,-0.4 2.692,-1.474l-2.242,-0.208l0.468,-1.682Z" style="fill:#fff;fill-rule:nonzero;"/><path d="M193.541,339.8l2.804,0.26l1.558,6.446l0.358,0.032l1.694,-6.14l2.224,0.206l-2.72,9.926l-2.804,-0.262l-1.574,-6.444l-0.36,-0.034l-1.678,6.142l-2.222,-0.206l2.72,-9.926Z" style="fill:#fff;fill-rule:nonzero;"/><path d="M207.667,341.117l2.258,0.21l-0.324,6.614l0.342,0.032l3.488,-6.318l2.396,0.224l-0.068,6.636l0.344,0.032l3.23,-6.342l2.362,0.218l-5.114,9.706l-2.826,-0.264l0.104,-6.462l-0.344,-0.032l-3.35,6.16l-2.824,-0.264l0.326,-10.15Z" style="fill:#fff;fill-rule:nonzero;"/><path d="M226.605,349.095l-0.254,-3.736l-0.342,-0.032l-2.242,3.504l2.838,0.264Zm-1.34,-6.338l3.08,0.288l0.786,10.254l-2.258,-0.212l-0.134,-1.91l-4.208,-0.392l-1.134,1.792l-2.36,-0.22l6.228,-9.6Z" style="fill:#fff;fill-rule:nonzero;"/><path d="M232.962,343.474l2.222,0.208l-2.142,7.824l4.618,0.43l-0.574,2.104l-6.844,-0.638l2.72,-9.928Z" style="fill:#fff;fill-rule:nonzero;"/><path d="M238.232,352.042l6.416,-5.322l-4.756,-0.444l0.594,-2.102l7.782,0.73l-0.57,2.048l-6.416,5.322l4.928,0.46l-0.576,2.102l-7.954,-0.742l0.552,-2.052Z" style="fill:#fff;fill-rule:nonzero;"/></g></svg>