<?xml version="1.0" encoding="UTF-8" standalone="no"?><!DOCTYPE svg PUBLIC "-//W3C//DTD SVG 1.1//EN" "http://www.w3.org/Graphics/SVG/1.1/DTD/svg11.dtd"><svg width="100%" height="100%" viewBox="0 0 742 948" version="1.1" xmlns="http://www.w3.org/2000/svg" xmlns:xlink="http://www.w3.org/1999/xlink" xml:space="preserve" xmlns:serif="http://www.serif.com/" style="fill-rule:evenodd;clip-rule:evenodd;stroke-linejoin:round;stroke-miterlimit:2;"><g id="Ebene-2" serif:id="Ebene 2"><path d="M716.039,384.125l-266.024,21.496l21.518,266.346l0.022,0l266.026,-21.496l-21.52,-266.346l-0.022,0Z" style="fill:#c8e7f9;fill-rule:nonzero;"/><path d="M499.9,423.637l127.258,87.104l-1.93,2.82l-127.258,-87.104l1.93,-2.82Z" style="fill:#1e1c1a;"/><path d="M512.826,418.639c-0.068,0.004 -0.138,0.012 -0.21,0.024c-2.146,0.312 -3.724,2.64 -3.518,5.19c0.17,2.102 2.994,6.876 4.686,9.028c1.202,-2.51 3.05,-8.082 2.868,-10.344c-0.106,-1.31 -0.684,-2.474 -1.584,-3.19c-0.472,-0.376 -1.232,-0.79 -2.242,-0.708m1.354,18.47c-0.818,0.068 -1.416,-0.41 -1.618,-0.572c-1.922,-1.532 -6.58,-8.8 -6.872,-12.408c-0.348,-4.314 2.538,-8.284 6.436,-8.852c1.824,-0.244 3.616,0.234 5.074,1.396c1.634,1.304 2.678,3.34 2.86,5.59c0.232,2.878 -2.816,14.402 -5.758,14.834c-0.042,0.004 -0.082,0.01 -0.122,0.012" style="fill:#1e1c1a;fill-rule:nonzero;"/><path d="M516.709,435.448c2.486,1.252 8.022,3.216 10.288,3.08c1.352,-0.076 2.488,-0.628 3.226,-1.52c0.41,-0.494 0.87,-1.318 0.732,-2.434c-0.262,-2.116 -2.606,-3.774 -5.12,-3.624c-0.018,0 -0.038,0.002 -0.058,0.004c-2.138,0.172 -6.902,2.862 -9.068,4.494m10.67,6.48c-0.058,0.006 -0.118,0.01 -0.176,0.014c-2.886,0.174 -14.354,-3.112 -14.718,-6.066c-0.11,-0.878 0.42,-1.514 0.592,-1.722c1.57,-1.888 8.926,-6.372 12.552,-6.618c4.324,-0.26 8.234,2.706 8.72,6.618c0.226,1.816 -0.306,3.604 -1.494,5.04c-1.304,1.566 -3.292,2.558 -5.476,2.734" style="fill:#1e1c1a;fill-rule:nonzero;"/><path d="M585.726,515.364c-6.042,-17.012 -8.754,-38.904 -5.682,-55.624c2.664,-14.502 9.974,-25.286 19.588,-23.472c19.544,3.69 19.794,24.218 19.794,24.218l-11.668,-1.852c0,0 2.224,-20.17 -17.32,-23.858c-24.262,-4.58 -29.248,58.778 -8.862,88.332" style="fill:#c8e7f9;fill-rule:nonzero;"/><path d="M609.635,457.092l7.792,1.236c-0.606,-4.658 -3.224,-15.376 -14.514,-19.314c6.058,6.014 6.736,14.468 6.722,18.078m-29.556,67.048c-16.182,-23.46 -16.456,-66.044 -5.322,-83.16c4.172,-6.42 9.712,-9.184 16.018,-7.992c1.808,0.34 3.442,0.814 4.922,1.396c1.396,-0.214 2.816,-0.176 4.274,0.1c20.764,3.918 21.27,25.758 21.272,25.98l0.026,2.152l-15.502,-2.46l0.184,-1.718c0.07,-0.672 1.412,-14.786 -10.634,-20.262c-1.092,0.282 -2.154,0.778 -3.182,1.482c-4.766,3.268 -8.52,10.71 -10.304,20.408c-2.862,15.576 -0.66,37.044 5.606,54.69l-3.424,1.216c-6.466,-18.202 -8.726,-40.404 -5.758,-56.56c1.958,-10.648 6.266,-18.938 11.824,-22.752c0.04,-0.026 0.082,-0.052 0.122,-0.082c-0.034,-0.006 -0.066,-0.012 -0.102,-0.02c-4.8,-0.898 -8.944,1.246 -12.298,6.406c-12.324,18.946 -7.478,60.63 5.27,79.112l-2.992,2.064Z" style="fill:#1e1c1a;fill-rule:nonzero;"/><path d="M594.973,442.324l80.545,12.789l-12.789,80.549l-80.545,-12.788l12.789,-80.55Z" style="fill:#c8e7f9;"/><path d="M584.256,521.362l76.962,12.22l12.228,-76.958l-76.964,-12.22l-12.226,76.958Zm79.984,16.38l-84.146,-13.358l13.368,-84.14l84.144,13.358l-13.366,84.14Z" style="fill:#1e1c1a;fill-rule:nonzero;"/><path d="M580.221,408.564l120.207,19.086l-4.877,30.716l-120.207,-19.086l4.877,-30.716Z" style="fill:#c8e7f9;"/><path d="M577.422,437.77l116.618,18.516l4.31,-27.13l-116.616,-18.512l-4.312,27.126Zm119.638,22.678l-123.8,-19.658l5.454,-34.308l123.796,19.656l-5.45,34.31Z" style="fill:#1e1c1a;fill-rule:nonzero;"/><path d="M672.576,479.551c-13.542,3.814 -28.1,4.854 -42.908,2.504c-13.882,-2.206 -26.638,-7.166 -37.816,-14.22" style="fill:#c8e7f9;fill-rule:nonzero;"/><path d="M653.622,484.803c-8.038,0.65 -16.136,0.332 -24.238,-0.956c-13.802,-2.19 -26.756,-7.062 -38.5,-14.478l1.938,-3.072c11.328,7.15 23.822,11.85 37.132,13.964c14.174,2.248 28.344,1.42 42.13,-2.46l0.984,3.5c-6.412,1.804 -12.906,2.974 -19.446,3.502" style="fill:#1e1c1a;fill-rule:nonzero;"/><path d="M618.617,410.202l-6.38,39.184" style="fill:none;fill-rule:nonzero;"/><path d="M616.823,409.908l3.587,0.584l-6.381,39.184l-3.587,-0.584l6.381,-39.184Z" style="fill:#1e1c1a;"/><path d="M661.691,417.039l-6.25,39.15" style="fill:none;fill-rule:nonzero;"/><path d="M659.897,416.753l3.576,0.57l-6.238,39.152l-3.576,-0.57l6.238,-39.152Z" style="fill:#1e1c1a;"/><path d="M607.921,470.939l7.755,1.229l-2.429,15.315l-7.754,-1.23l2.428,-15.314Z" style="fill:#c8e7f9;"/><path d="M607.57,484.741l4.166,0.662l1.864,-11.722l-4.168,-0.662l-1.862,11.722Zm7.188,4.824l-11.348,-1.802l3,-18.902l11.35,1.798l-3.002,18.906Z" style="fill:#1e1c1a;fill-rule:nonzero;"/><path d="M645.495,476.906l7.754,1.229l-2.428,15.313l-7.754,-1.23l2.428,-15.312Z" style="fill:#c8e7f9;"/><path d="M645.143,490.707l4.166,0.662l1.864,-11.722l-4.166,-0.664l-1.864,11.724Zm7.188,4.818l-11.348,-1.798l3.002,-18.9l11.348,1.798l-3.002,18.9Z" style="fill:#1e1c1a;fill-rule:nonzero;"/><path d="M576.808,521.491l84.787,-7.556l7.557,84.794l-84.788,7.556l-7.556,-84.794Z" style="fill:#c8e7f9;"/><path d="M578.761,523.125l7.238,81.208l81.202,-7.24l-7.24,-81.206l-81.2,7.238Zm3.97,85.112l-7.876,-88.38l88.372,-7.876l7.878,88.378l-88.374,7.878Z" style="fill:#1e1c1a;fill-rule:nonzero;"/><path d="M655.123,528.223l-83.286,2.96l-0.608,-17.198l90.48,-3.218l0.328,4.582l-6.914,12.874Z" style="fill:#c8e7f9;fill-rule:nonzero;"/><path d="M573.44,529.465l80.672,-2.868l6.234,-11.608l-0.18,-2.506l-87.218,3.104l0.492,13.878Zm82.694,0.382l-85.896,3.054l-0.728,-20.518l93.742,-3.332l0.476,6.66l-7.594,14.136Z" style="fill:#1e1c1a;fill-rule:nonzero;"/><path d="M636.488,546.307l-27.386,2.44c-3.096,0.276 -5.856,-2.032 -6.132,-5.128c-0.274,-3.096 2.032,-5.854 5.128,-6.13l27.386,-2.442c3.096,-0.276 5.856,2.032 6.13,5.128l0,0.002c0.278,3.094 -2.03,5.854 -5.126,6.13" style="fill:#c8e7f9;fill-rule:nonzero;"/><path d="M635.675,536.838c-0.012,0 -0.022,0.002 -0.032,0.002l-27.384,2.442c-1.02,0.09 -1.946,0.576 -2.608,1.368c-0.664,0.794 -0.978,1.79 -0.888,2.808c0.09,1.018 0.578,1.946 1.37,2.608c0.784,0.656 1.77,0.972 2.778,0.89c0.012,0 0.02,-0.002 0.03,-0.002l27.386,-2.44c2.116,-0.19 3.682,-2.064 3.494,-4.178c-0.188,-2.106 -2.044,-3.668 -4.146,-3.498m-26.474,13.708c-4.068,0.328 -7.662,-2.694 -8.024,-6.764c-0.176,-1.98 0.432,-3.91 1.712,-5.44c1.28,-1.532 3.074,-2.47 5.048,-2.648l27.386,-2.442c0.02,-0.002 0.04,-0.002 0.062,-0.004c4.068,-0.33 7.662,2.694 8.024,6.766c0.364,4.096 -2.67,7.72 -6.762,8.086l-27.384,2.442c-0.022,0 -0.044,0.002 -0.062,0.004" style="fill:#1e1c1a;fill-rule:nonzero;"/><path d="M492.497,659.582c1.562,-0.124 2.9,-1.694 2.748,-3.578c-0.122,-1.542 -1.136,-2.408 -2.32,-2.314l-1.628,0.126l-0.546,5.906l1.746,-0.14Zm-3.198,-7.76l3.784,-0.298c2.138,-0.17 4.172,1.564 4.374,4.132c0.246,3.082 -2.12,5.858 -5.064,6.09l-4.076,0.322l0.982,-10.246Z" style="fill:#1e1c1a;fill-rule:nonzero;"/><path d="M499.829,650.989l7.022,-0.556l-0.216,2.086l-4.794,0.378l-0.188,1.998l4.456,-0.354l-0.2,2.086l-4.452,0.352l-0.186,1.996l4.792,-0.38l-0.194,2.086l-7.022,0.554l0.982,-10.246Z" style="fill:#1e1c1a;fill-rule:nonzero;"/><path d="M507.486,657.19l2.224,-0.176l0.006,0.086c0.062,0.77 0.71,1.32 2.254,1.2c1.112,-0.09 1.664,-0.736 1.622,-1.248c-0.03,-0.428 -0.572,-0.73 -1.45,-0.918l-1.49,-0.314c-1.492,-0.314 -2.32,-1.022 -2.412,-2.138c-0.156,-1.984 1.37,-3.64 3.662,-3.822c2.57,-0.204 3.956,0.98 4.094,2.692c0.01,0.12 0.03,0.428 0.03,0.428l-2.224,0.174c-0.002,-0.032 -0.004,-0.068 -0.006,-0.086c-0.056,-0.682 -0.704,-1.234 -1.902,-1.138c-1.03,0.082 -1.502,0.634 -1.452,1.234c0.026,0.342 0.218,0.586 1.096,0.774l1.488,0.314c1.754,0.378 2.668,1.082 2.766,2.282c0.154,1.968 -1.262,3.63 -3.832,3.834c-2.824,0.224 -4.306,-1.038 -4.446,-2.834l-0.028,-0.344Z" style="fill:#1e1c1a;fill-rule:nonzero;"/><path d="M518.408,649.516l2.224,-0.176l-0.98,10.248l-2.228,0.176l0.984,-10.248Z" style="fill:#1e1c1a;fill-rule:nonzero;"/><path d="M527.102,653.569l4.622,-0.368l-0.052,0.61c-0.268,2.95 -2.248,5.174 -4.9,5.384c-2.484,0.196 -4.516,-1.538 -4.728,-4.19c-0.266,-3.358 2.1,-6.114 5.014,-6.346c2.308,-0.182 3.976,1.236 4.444,3.44l-2.248,0.178c-0.356,-1.006 -1.17,-1.546 -2.198,-1.464c-1.628,0.13 -2.97,1.702 -2.802,3.844c0.124,1.54 1.232,2.484 2.516,2.382c1.114,-0.088 2.094,-0.768 2.402,-1.912l-2.244,0.18l0.174,-1.738Z" style="fill:#1e1c1a;fill-rule:nonzero;"/><path d="M534.159,648.27l2.808,-0.222l2.636,6.082l0.36,-0.03l0.618,-6.34l2.226,-0.176l-0.982,10.246l-2.808,0.224l-2.654,-6.082l-0.358,0.028l-0.6,6.338l-2.228,0.176l0.982,-10.244Z" style="fill:#1e1c1a;fill-rule:nonzero;"/><path d="M548.302,647.149l2.258,-0.18l0.814,6.572l0.342,-0.026l2.356,-6.824l2.4,-0.188l1.07,6.55l0.342,-0.028l2.096,-6.8l2.364,-0.19l-3.378,10.438l-2.828,0.224l-1.004,-6.386l-0.344,0.03l-2.244,6.64l-2.828,0.224l-1.416,-10.056Z" style="fill:#1e1c1a;fill-rule:nonzero;"/><path d="M568.325,651.768l-0.89,-3.636l-0.342,0.026l-1.61,3.834l2.842,-0.224Zm-2.406,-6.016l3.084,-0.242l2.53,9.966l-2.258,0.178l-0.46,-1.858l-4.214,0.334l-0.81,1.96l-2.364,0.188l4.492,-10.526Z" style="fill:#1e1c1a;fill-rule:nonzero;"/><path d="M573.625,645.141l2.226,-0.176l-0.772,8.076l4.626,-0.366l-0.21,2.172l-6.85,0.542l0.98,-10.248Z" style="fill:#1e1c1a;fill-rule:nonzero;"/><path d="M580.285,652.68l5.41,-6.34l-4.762,0.378l0.226,-2.172l7.792,-0.618l-0.212,2.12l-5.41,6.34l4.936,-0.392l-0.21,2.17l-7.964,0.634l0.194,-2.12Z" style="fill:#1e1c1a;fill-rule:nonzero;"/><path d="M594.066,626.43c-2.33,0.504 -4.65,-0.988 -5.156,-3.318l-2.16,-9.97c-0.506,-2.33 0.988,-4.65 3.318,-5.154c2.332,-0.506 4.652,0.986 5.156,3.318l2.162,9.968c0.504,2.33 -0.988,4.65 -3.32,5.156" style="fill:#1e1c1a;fill-rule:nonzero;"/><path d="M527.015,640.965c-2.332,0.506 -4.652,-0.988 -5.156,-3.318l-2.162,-9.968c-0.504,-2.33 0.988,-4.65 3.32,-5.156c2.33,-0.506 4.65,0.988 5.156,3.318l2.16,9.97c0.506,2.33 -0.988,4.65 -3.318,5.154" style="fill:#1e1c1a;fill-rule:nonzero;"/><path d="M588.124,551.444c-0.084,0.006 -0.166,0.02 -0.25,0.036c-0.496,0.108 -0.922,0.406 -1.204,0.838c-0.278,0.434 -0.372,0.946 -0.264,1.44l3.93,18.134c0.11,0.498 0.406,0.924 0.838,1.202c0.434,0.278 0.948,0.368 1.444,0.266c1.03,-0.224 1.688,-1.248 1.466,-2.28l-3.93,-18.132c-0.108,-0.496 -0.406,-0.922 -0.84,-1.204c-0.358,-0.23 -0.774,-0.336 -1.19,-0.3m4.588,26.35c-1.374,0.11 -2.74,-0.228 -3.924,-0.992c-1.424,-0.914 -2.406,-2.328 -2.76,-3.976l-3.934,-18.13c-0.358,-1.648 -0.05,-3.342 0.868,-4.766c0.916,-1.424 2.33,-2.404 3.976,-2.762c3.41,-0.77 6.786,1.434 7.526,4.844l3.93,18.132c0.74,3.41 -1.434,6.786 -4.842,7.524c-0.278,0.064 -0.558,0.104 -0.84,0.126" style="fill:#1e1c1a;fill-rule:nonzero;"/><path d="M534.349,485.02c-0.462,0.038 -0.924,0.104 -1.388,0.204l-10.248,2.222c-2.736,0.594 -5.082,2.228 -6.612,4.602c-1.526,2.37 -2.04,5.182 -1.448,7.918l8.888,41.002c1.232,5.674 6.848,9.282 12.52,8.06l10.25,-2.22c2.736,-0.594 5.082,-2.228 6.61,-4.6c1.528,-2.374 2.042,-5.188 1.45,-7.922l-8.89,-41.002c-1.13,-5.21 -5.956,-8.684 -11.132,-8.264m0.584,67.442c-6.766,0.544 -13.078,-3.996 -14.554,-10.808l-8.888,-41.002c-0.778,-3.58 -0.106,-7.258 1.89,-10.358c1.996,-3.1 5.066,-5.234 8.646,-6.01l10.246,-2.222c7.416,-1.636 14.764,3.12 16.37,10.536l8.89,41c0.778,3.582 0.108,7.262 -1.89,10.36c-1.996,3.102 -5.066,5.236 -8.646,6.012l-10.248,2.22c-0.608,0.132 -1.216,0.222 -1.816,0.272" style="fill:#1e1c1a;fill-rule:nonzero;"/><path d="M590.481,619.522l-64.508,13.984c-5.22,1.134 -10.416,-2.212 -11.548,-7.432l-18.794,-86.692c-1.132,-5.22 2.214,-10.414 7.432,-11.548l64.508,-13.984c5.22,-1.13 10.416,2.212 11.548,7.432l18.794,86.694c1.132,5.218 -2.214,10.416 -7.432,11.546" style="fill:#c8e7f9;fill-rule:nonzero;"/><path d="M568.993,515.405c-0.348,0.028 -0.7,0.08 -1.05,0.154l-64.508,13.986c-2.068,0.448 -3.842,1.682 -4.998,3.478c-1.154,1.794 -1.546,3.922 -1.096,5.988l18.794,86.69c0.45,2.07 1.684,3.844 3.48,5c1.794,1.156 3.922,1.544 5.988,1.094l64.506,-13.984c2.068,-0.446 3.842,-1.682 4.998,-3.476c1.154,-1.794 1.546,-3.922 1.096,-5.988l-18.794,-86.694c-0.854,-3.938 -4.502,-6.564 -8.416,-6.248m-44.168,120.036c-2.486,0.2 -4.962,-0.418 -7.106,-1.798c-2.58,-1.66 -4.356,-4.216 -5.004,-7.196l-18.794,-86.694c-1.338,-6.176 2.596,-12.29 8.77,-13.628l64.51,-13.986c6.208,-1.344 12.29,2.6 13.626,8.772l18.796,86.694c1.338,6.176 -2.596,12.288 -8.772,13.626l-64.506,13.984c-0.506,0.11 -1.012,0.184 -1.52,0.226" style="fill:#1e1c1a;fill-rule:nonzero;"/><path d="M528.242,621.907c-0.938,0.076 -1.808,-0.552 -2.014,-1.496l-17.69,-81.596c-0.22,-1.028 0.432,-2.042 1.46,-2.266c1.034,-0.214 2.042,0.434 2.266,1.46l17.688,81.596c0.222,1.026 -0.43,2.042 -1.458,2.264c-0.086,0.018 -0.168,0.03 -0.252,0.038" style="fill:#1e1c1a;fill-rule:nonzero;"/><path d="M541.92,618.94c-0.938,0.076 -1.808,-0.552 -2.014,-1.496l-17.69,-81.594c-0.22,-1.028 0.432,-2.042 1.46,-2.266c1.038,-0.222 2.042,0.434 2.266,1.46l17.688,81.594c0.222,1.026 -0.43,2.042 -1.46,2.264c-0.084,0.018 -0.166,0.032 -0.25,0.038" style="fill:#1e1c1a;fill-rule:nonzero;"/><path d="M569.278,613.01c-0.938,0.076 -1.808,-0.552 -2.014,-1.496l-17.69,-81.596c-0.22,-1.028 0.432,-2.042 1.46,-2.266c1.046,-0.232 2.04,0.432 2.266,1.46l17.688,81.596c0.222,1.026 -0.43,2.042 -1.46,2.264c-0.084,0.018 -0.166,0.032 -0.25,0.038" style="fill:#1e1c1a;fill-rule:nonzero;"/><path d="M582.958,610.043c-0.938,0.076 -1.808,-0.552 -2.014,-1.496l-17.692,-81.596c-0.222,-1.028 0.432,-2.042 1.46,-2.264c1.032,-0.214 2.04,0.432 2.266,1.46l17.69,81.594c0.222,1.026 -0.43,2.042 -1.46,2.264c-0.084,0.018 -0.166,0.032 -0.25,0.038" style="fill:#1e1c1a;fill-rule:nonzero;"/><path d="M555.599,615.975c-0.938,0.076 -1.808,-0.552 -2.014,-1.496l-17.69,-81.596c-0.22,-1.028 0.432,-2.042 1.46,-2.266c1.042,-0.226 2.042,0.432 2.266,1.46l17.688,81.596c0.222,1.026 -0.43,2.042 -1.46,2.264c-0.084,0.018 -0.166,0.032 -0.25,0.038" style="fill:#1e1c1a;fill-rule:nonzero;"/><path d="M475.25,465.291c-3.722,15.684 5.974,31.418 21.66,35.14c15.684,3.724 31.418,-5.974 35.14,-21.658c3.724,-15.686 -7.368,-39.366 -19.442,-42.234c-12.074,-2.866 -33.636,13.066 -37.358,28.752" style="fill:#c8e7f9;fill-rule:nonzero;"/><path d="M476.914,465.686c-3.498,14.74 5.65,29.582 20.39,33.082c14.734,3.504 29.584,-5.646 33.084,-20.388c3.462,-14.594 -6.898,-37.498 -18.174,-40.176c-10.508,-2.502 -31.642,12.072 -35.3,27.482m29.26,37.158c-3.196,0.258 -6.448,0.014 -9.658,-0.748c-16.576,-3.936 -26.864,-20.624 -22.93,-37.202c3.89,-16.37 25.98,-33.204 39.418,-30.018c12.982,3.084 24.596,27.922 20.712,44.292c-1.906,8.032 -6.826,14.838 -13.852,19.168c-4.218,2.6 -8.892,4.12 -13.69,4.508" style="fill:#1e1c1a;fill-rule:nonzero;"/><g><clipPath id="_clip1"><path d="M575.746,439.034l119.18,18.92l4.702,-29.592l-119.18,-18.922l-4.702,29.594Z" clip-rule="nonzero"/></clipPath><g clip-path="url(#_clip1)"><path d="M698.142,417.69c0.07,0.808 -0.544,1.512 -1.374,1.574c-0.828,0.06 -1.558,-0.542 -1.628,-1.35c-0.07,-0.808 0.544,-1.512 1.374,-1.574c0.828,-0.06 1.556,0.544 1.628,1.35" style="fill:#1e1c1a;fill-rule:nonzero;"/><path d="M700.463,412.034c0.07,0.806 -0.544,1.51 -1.374,1.572c-0.828,0.062 -1.558,-0.542 -1.628,-1.35c-0.07,-0.808 0.544,-1.512 1.374,-1.574c0.828,-0.06 1.558,0.544 1.628,1.352" style="fill:#1e1c1a;fill-rule:nonzero;"/><path d="M694.867,412.448c0.07,0.808 -0.544,1.512 -1.374,1.574c-0.828,0.06 -1.558,-0.542 -1.628,-1.35c-0.07,-0.808 0.544,-1.512 1.374,-1.574c0.828,-0.06 1.558,0.544 1.628,1.35" style="fill:#1e1c1a;fill-rule:nonzero;"/><path d="M699.095,428.59c0.072,0.806 -0.544,1.512 -1.372,1.574c-0.83,0.06 -1.558,-0.542 -1.628,-1.352c-0.072,-0.806 0.542,-1.512 1.372,-1.572c0.828,-0.062 1.558,0.544 1.628,1.35" style="fill:#1e1c1a;fill-rule:nonzero;"/><path d="M701.417,422.932c0.07,0.808 -0.544,1.512 -1.374,1.574c-0.828,0.06 -1.558,-0.542 -1.628,-1.352c-0.072,-0.806 0.544,-1.51 1.374,-1.572c0.828,-0.06 1.556,0.544 1.628,1.35" style="fill:#1e1c1a;fill-rule:nonzero;"/><path d="M695.821,423.348c0.07,0.806 -0.544,1.512 -1.374,1.574c-0.828,0.06 -1.558,-0.542 -1.628,-1.352c-0.072,-0.806 0.544,-1.512 1.374,-1.572c0.828,-0.062 1.556,0.544 1.628,1.35" style="fill:#1e1c1a;fill-rule:nonzero;"/><path d="M698.142,417.69c0.07,0.808 -0.544,1.512 -1.374,1.574c-0.828,0.06 -1.558,-0.542 -1.628,-1.35c-0.07,-0.808 0.544,-1.512 1.374,-1.574c0.828,-0.06 1.556,0.544 1.628,1.35" style="fill:#1e1c1a;fill-rule:nonzero;"/><path d="M700.049,439.491c0.07,0.806 -0.544,1.512 -1.374,1.572c-0.828,0.062 -1.556,-0.542 -1.628,-1.35c-0.07,-0.806 0.544,-1.512 1.374,-1.572c0.828,-0.062 1.558,0.544 1.628,1.35" style="fill:#1e1c1a;fill-rule:nonzero;"/><path d="M702.371,433.832c0.072,0.806 -0.544,1.512 -1.374,1.572c-0.828,0.062 -1.556,-0.54 -1.628,-1.35c-0.07,-0.806 0.544,-1.512 1.374,-1.572c0.828,-0.062 1.558,0.544 1.628,1.35" style="fill:#1e1c1a;fill-rule:nonzero;"/><path d="M696.774,434.248c0.072,0.806 -0.544,1.512 -1.374,1.572c-0.828,0.062 -1.556,-0.542 -1.628,-1.35c-0.07,-0.806 0.544,-1.512 1.374,-1.572c0.828,-0.062 1.558,0.544 1.628,1.35" style="fill:#1e1c1a;fill-rule:nonzero;"/><path d="M699.095,428.59c0.072,0.806 -0.544,1.512 -1.372,1.574c-0.83,0.06 -1.558,-0.542 -1.628,-1.352c-0.072,-0.806 0.542,-1.512 1.372,-1.572c0.828,-0.062 1.558,0.544 1.628,1.35" style="fill:#1e1c1a;fill-rule:nonzero;"/><path d="M701.003,450.391c0.07,0.806 -0.544,1.512 -1.374,1.572c-0.828,0.062 -1.558,-0.542 -1.628,-1.35c-0.07,-0.808 0.544,-1.512 1.374,-1.574c0.828,-0.06 1.556,0.544 1.628,1.352" style="fill:#1e1c1a;fill-rule:nonzero;"/><path d="M697.728,445.149c0.07,0.806 -0.544,1.512 -1.374,1.572c-0.828,0.062 -1.558,-0.542 -1.628,-1.35c-0.07,-0.806 0.544,-1.512 1.374,-1.574c0.828,-0.06 1.558,0.544 1.628,1.352" style="fill:#1e1c1a;fill-rule:nonzero;"/><path d="M700.049,439.491c0.07,0.806 -0.544,1.512 -1.374,1.572c-0.828,0.062 -1.556,-0.542 -1.628,-1.35c-0.07,-0.806 0.544,-1.512 1.374,-1.572c0.828,-0.062 1.558,0.544 1.628,1.35" style="fill:#1e1c1a;fill-rule:nonzero;"/><path d="M698.682,456.047c0.07,0.808 -0.544,1.512 -1.374,1.574c-0.828,0.06 -1.558,-0.542 -1.628,-1.35c-0.072,-0.808 0.544,-1.512 1.374,-1.574c0.828,-0.06 1.556,0.544 1.628,1.35" style="fill:#1e1c1a;fill-rule:nonzero;"/><path d="M701.003,450.391c0.07,0.806 -0.544,1.512 -1.374,1.572c-0.828,0.062 -1.558,-0.542 -1.628,-1.35c-0.07,-0.808 0.544,-1.512 1.374,-1.574c0.828,-0.06 1.556,0.544 1.628,1.352" style="fill:#1e1c1a;fill-rule:nonzero;"/><path d="M692.545,418.106c0.07,0.806 -0.544,1.512 -1.374,1.574c-0.828,0.06 -1.558,-0.542 -1.628,-1.352c-0.07,-0.806 0.544,-1.512 1.374,-1.572c0.828,-0.062 1.556,0.544 1.628,1.35" style="fill:#1e1c1a;fill-rule:nonzero;"/><path d="M686.949,418.522c0.07,0.806 -0.544,1.512 -1.374,1.572c-0.828,0.062 -1.558,-0.542 -1.628,-1.35c-0.07,-0.806 0.544,-1.512 1.374,-1.572c0.828,-0.062 1.556,0.544 1.628,1.35" style="fill:#1e1c1a;fill-rule:nonzero;"/><path d="M694.867,412.448c0.07,0.808 -0.544,1.512 -1.374,1.574c-0.828,0.06 -1.558,-0.542 -1.628,-1.35c-0.07,-0.808 0.544,-1.512 1.374,-1.574c0.828,-0.06 1.558,0.544 1.628,1.35" style="fill:#1e1c1a;fill-rule:nonzero;"/><path d="M689.27,412.864c0.07,0.806 -0.544,1.512 -1.374,1.574c-0.828,0.06 -1.558,-0.542 -1.628,-1.352c-0.07,-0.806 0.544,-1.512 1.374,-1.572c0.828,-0.062 1.558,0.544 1.628,1.35" style="fill:#1e1c1a;fill-rule:nonzero;"/><path d="M683.673,413.28c0.07,0.806 -0.544,1.512 -1.374,1.572c-0.828,0.062 -1.558,-0.542 -1.628,-1.35c-0.07,-0.806 0.544,-1.512 1.374,-1.572c0.828,-0.062 1.558,0.544 1.628,1.35" style="fill:#1e1c1a;fill-rule:nonzero;"/><path d="M693.498,429.006c0.072,0.806 -0.544,1.512 -1.374,1.572c-0.828,0.062 -1.556,-0.542 -1.626,-1.35c-0.072,-0.806 0.542,-1.512 1.372,-1.572c0.828,-0.062 1.558,0.544 1.628,1.35" style="fill:#1e1c1a;fill-rule:nonzero;"/><path d="M687.902,429.422c0.072,0.806 -0.544,1.512 -1.374,1.572c-0.828,0.062 -1.556,-0.542 -1.626,-1.35c-0.072,-0.806 0.542,-1.512 1.372,-1.574c0.828,-0.06 1.558,0.544 1.628,1.352" style="fill:#1e1c1a;fill-rule:nonzero;"/><path d="M695.821,423.348c0.07,0.806 -0.544,1.512 -1.374,1.574c-0.828,0.06 -1.558,-0.542 -1.628,-1.352c-0.072,-0.806 0.544,-1.512 1.374,-1.572c0.828,-0.062 1.556,0.544 1.628,1.35" style="fill:#1e1c1a;fill-rule:nonzero;"/><path d="M690.224,423.764c0.07,0.806 -0.544,1.512 -1.374,1.572c-0.828,0.062 -1.558,-0.542 -1.628,-1.35c-0.072,-0.806 0.544,-1.512 1.374,-1.572c0.828,-0.062 1.556,0.544 1.628,1.35" style="fill:#1e1c1a;fill-rule:nonzero;"/><path d="M684.627,424.18c0.07,0.806 -0.544,1.512 -1.374,1.572c-0.828,0.062 -1.558,-0.542 -1.628,-1.35c-0.072,-0.806 0.544,-1.512 1.374,-1.572c0.828,-0.062 1.556,0.542 1.628,1.35" style="fill:#1e1c1a;fill-rule:nonzero;"/><path d="M692.545,418.106c0.07,0.806 -0.544,1.512 -1.374,1.574c-0.828,0.06 -1.558,-0.542 -1.628,-1.352c-0.07,-0.806 0.544,-1.512 1.374,-1.572c0.828,-0.062 1.556,0.544 1.628,1.35" style="fill:#1e1c1a;fill-rule:nonzero;"/><path d="M686.949,418.522c0.07,0.806 -0.544,1.512 -1.374,1.572c-0.828,0.062 -1.558,-0.542 -1.628,-1.35c-0.07,-0.806 0.544,-1.512 1.374,-1.572c0.828,-0.062 1.556,0.544 1.628,1.35" style="fill:#1e1c1a;fill-rule:nonzero;"/><path d="M694.453,439.907c0.07,0.806 -0.544,1.512 -1.374,1.572c-0.828,0.062 -1.556,-0.542 -1.628,-1.35c-0.07,-0.806 0.544,-1.512 1.374,-1.574c0.828,-0.06 1.558,0.544 1.628,1.352" style="fill:#1e1c1a;fill-rule:nonzero;"/><path d="M688.856,440.321c0.07,0.808 -0.544,1.512 -1.374,1.574c-0.828,0.06 -1.556,-0.542 -1.628,-1.35c-0.07,-0.808 0.544,-1.512 1.374,-1.574c0.828,-0.06 1.558,0.544 1.628,1.35" style="fill:#1e1c1a;fill-rule:nonzero;"/><path d="M696.774,434.248c0.072,0.806 -0.544,1.512 -1.374,1.572c-0.828,0.062 -1.556,-0.542 -1.628,-1.35c-0.07,-0.806 0.544,-1.512 1.374,-1.572c0.828,-0.062 1.558,0.544 1.628,1.35" style="fill:#1e1c1a;fill-rule:nonzero;"/><path d="M691.177,434.664c0.072,0.806 -0.544,1.512 -1.374,1.572c-0.828,0.062 -1.556,-0.542 -1.628,-1.35c-0.07,-0.806 0.544,-1.512 1.374,-1.574c0.828,-0.06 1.558,0.544 1.628,1.352" style="fill:#1e1c1a;fill-rule:nonzero;"/><path d="M685.58,435.08c0.072,0.806 -0.544,1.51 -1.374,1.572c-0.828,0.06 -1.556,-0.542 -1.628,-1.35c-0.07,-0.808 0.544,-1.512 1.374,-1.574c0.828,-0.06 1.558,0.544 1.628,1.352" style="fill:#1e1c1a;fill-rule:nonzero;"/><path d="M693.498,429.006c0.072,0.806 -0.544,1.512 -1.374,1.572c-0.828,0.062 -1.556,-0.542 -1.626,-1.35c-0.072,-0.806 0.542,-1.512 1.372,-1.572c0.828,-0.062 1.558,0.544 1.628,1.35" style="fill:#1e1c1a;fill-rule:nonzero;"/><path d="M687.902,429.422c0.072,0.806 -0.544,1.512 -1.374,1.572c-0.828,0.062 -1.556,-0.542 -1.626,-1.35c-0.072,-0.806 0.542,-1.512 1.372,-1.574c0.828,-0.06 1.558,0.544 1.628,1.352" style="fill:#1e1c1a;fill-rule:nonzero;"/><path d="M695.407,450.805c0.07,0.808 -0.544,1.512 -1.374,1.574c-0.828,0.06 -1.558,-0.542 -1.628,-1.35c-0.07,-0.808 0.544,-1.512 1.374,-1.574c0.828,-0.06 1.556,0.544 1.628,1.35" style="fill:#1e1c1a;fill-rule:nonzero;"/><path d="M689.81,451.221c0.07,0.808 -0.544,1.512 -1.374,1.574c-0.828,0.06 -1.558,-0.542 -1.628,-1.352c-0.07,-0.806 0.544,-1.51 1.374,-1.572c0.828,-0.062 1.556,0.544 1.628,1.35" style="fill:#1e1c1a;fill-rule:nonzero;"/><path d="M697.728,445.149c0.07,0.806 -0.544,1.512 -1.374,1.572c-0.828,0.062 -1.558,-0.542 -1.628,-1.35c-0.07,-0.806 0.544,-1.512 1.374,-1.574c0.828,-0.06 1.558,0.544 1.628,1.352" style="fill:#1e1c1a;fill-rule:nonzero;"/><path d="M692.131,445.563c0.07,0.808 -0.544,1.512 -1.374,1.574c-0.828,0.06 -1.558,-0.542 -1.628,-1.35c-0.07,-0.808 0.544,-1.512 1.374,-1.574c0.828,-0.06 1.558,0.544 1.628,1.35" style="fill:#1e1c1a;fill-rule:nonzero;"/><path d="M686.535,445.979c0.07,0.808 -0.544,1.512 -1.374,1.574c-0.828,0.06 -1.558,-0.542 -1.628,-1.352c-0.07,-0.806 0.544,-1.51 1.374,-1.572c0.828,-0.06 1.558,0.544 1.628,1.35" style="fill:#1e1c1a;fill-rule:nonzero;"/><path d="M694.453,439.907c0.07,0.806 -0.544,1.512 -1.374,1.572c-0.828,0.062 -1.556,-0.542 -1.628,-1.35c-0.07,-0.806 0.544,-1.512 1.374,-1.574c0.828,-0.06 1.558,0.544 1.628,1.352" style="fill:#1e1c1a;fill-rule:nonzero;"/><path d="M688.856,440.321c0.07,0.808 -0.544,1.512 -1.374,1.574c-0.828,0.06 -1.556,-0.542 -1.628,-1.35c-0.07,-0.808 0.544,-1.512 1.374,-1.574c0.828,-0.06 1.558,0.544 1.628,1.35" style="fill:#1e1c1a;fill-rule:nonzero;"/><path d="M698.682,456.047c0.07,0.808 -0.544,1.512 -1.374,1.574c-0.828,0.06 -1.558,-0.542 -1.628,-1.35c-0.072,-0.808 0.544,-1.512 1.374,-1.574c0.828,-0.06 1.556,0.544 1.628,1.35" style="fill:#1e1c1a;fill-rule:nonzero;"/><path d="M693.085,456.463c0.07,0.806 -0.544,1.512 -1.374,1.574c-0.828,0.06 -1.558,-0.542 -1.628,-1.352c-0.072,-0.806 0.544,-1.512 1.374,-1.572c0.828,-0.062 1.556,0.544 1.628,1.35" style="fill:#1e1c1a;fill-rule:nonzero;"/><path d="M687.489,456.879c0.07,0.806 -0.544,1.512 -1.374,1.572c-0.828,0.062 -1.558,-0.542 -1.628,-1.35c-0.072,-0.806 0.544,-1.512 1.374,-1.572c0.828,-0.062 1.556,0.544 1.628,1.35" style="fill:#1e1c1a;fill-rule:nonzero;"/><path d="M695.407,450.805c0.07,0.808 -0.544,1.512 -1.374,1.574c-0.828,0.06 -1.558,-0.542 -1.628,-1.35c-0.07,-0.808 0.544,-1.512 1.374,-1.574c0.828,-0.06 1.556,0.544 1.628,1.35" style="fill:#1e1c1a;fill-rule:nonzero;"/><path d="M689.81,451.221c0.07,0.808 -0.544,1.512 -1.374,1.574c-0.828,0.06 -1.558,-0.542 -1.628,-1.352c-0.07,-0.806 0.544,-1.51 1.374,-1.572c0.828,-0.062 1.556,0.544 1.628,1.35" style="fill:#1e1c1a;fill-rule:nonzero;"/><path d="M680.398,408.037c0.07,0.806 -0.544,1.512 -1.374,1.572c-0.828,0.062 -1.556,-0.542 -1.628,-1.35c-0.07,-0.806 0.544,-1.512 1.374,-1.572c0.828,-0.062 1.558,0.544 1.628,1.35" style="fill:#1e1c1a;fill-rule:nonzero;"/><path d="M674.801,408.453c0.07,0.806 -0.544,1.512 -1.374,1.572c-0.828,0.062 -1.556,-0.542 -1.628,-1.35c-0.07,-0.806 0.544,-1.512 1.374,-1.572c0.828,-0.062 1.558,0.544 1.628,1.35" style="fill:#1e1c1a;fill-rule:nonzero;"/><path d="M681.352,418.938c0.07,0.806 -0.544,1.512 -1.374,1.572c-0.828,0.062 -1.558,-0.542 -1.628,-1.35c-0.07,-0.806 0.544,-1.512 1.374,-1.572c0.828,-0.062 1.556,0.544 1.628,1.35" style="fill:#1e1c1a;fill-rule:nonzero;"/><path d="M675.755,419.354c0.07,0.806 -0.544,1.51 -1.374,1.572c-0.828,0.06 -1.558,-0.542 -1.628,-1.35c-0.07,-0.808 0.544,-1.512 1.374,-1.574c0.828,-0.06 1.556,0.544 1.628,1.352" style="fill:#1e1c1a;fill-rule:nonzero;"/><path d="M683.673,413.28c0.07,0.806 -0.544,1.512 -1.374,1.572c-0.828,0.062 -1.558,-0.542 -1.628,-1.35c-0.07,-0.806 0.544,-1.512 1.374,-1.572c0.828,-0.062 1.558,0.544 1.628,1.35" style="fill:#1e1c1a;fill-rule:nonzero;"/><path d="M678.077,413.696c0.07,0.806 -0.544,1.512 -1.374,1.572c-0.828,0.062 -1.558,-0.542 -1.628,-1.35c-0.07,-0.806 0.544,-1.512 1.374,-1.572c0.828,-0.062 1.558,0.544 1.628,1.35" style="fill:#1e1c1a;fill-rule:nonzero;"/><path d="M672.48,414.112c0.07,0.806 -0.544,1.51 -1.374,1.572c-0.828,0.06 -1.558,-0.542 -1.628,-1.35c-0.07,-0.808 0.544,-1.512 1.374,-1.574c0.828,-0.06 1.558,0.544 1.628,1.352" style="fill:#1e1c1a;fill-rule:nonzero;"/><path d="M680.398,408.037c0.07,0.806 -0.544,1.512 -1.374,1.572c-0.828,0.062 -1.556,-0.542 -1.628,-1.35c-0.07,-0.806 0.544,-1.512 1.374,-1.572c0.828,-0.062 1.558,0.544 1.628,1.35" style="fill:#1e1c1a;fill-rule:nonzero;"/><path d="M674.801,408.453c0.07,0.806 -0.544,1.512 -1.374,1.572c-0.828,0.062 -1.556,-0.542 -1.628,-1.35c-0.07,-0.806 0.544,-1.512 1.374,-1.572c0.828,-0.062 1.558,0.544 1.628,1.35" style="fill:#1e1c1a;fill-rule:nonzero;"/><path d="M682.305,429.838c0.072,0.806 -0.544,1.51 -1.374,1.572c-0.828,0.06 -1.556,-0.542 -1.626,-1.35c-0.072,-0.808 0.542,-1.512 1.372,-1.574c0.828,-0.06 1.558,0.544 1.628,1.352" style="fill:#1e1c1a;fill-rule:nonzero;"/><path d="M676.708,430.252c0.072,0.808 -0.544,1.512 -1.374,1.574c-0.828,0.06 -1.556,-0.542 -1.626,-1.352c-0.072,-0.806 0.542,-1.51 1.372,-1.572c0.828,-0.06 1.558,0.544 1.628,1.35" style="fill:#1e1c1a;fill-rule:nonzero;"/><path d="M684.627,424.18c0.07,0.806 -0.544,1.512 -1.374,1.572c-0.828,0.062 -1.558,-0.542 -1.628,-1.35c-0.072,-0.806 0.544,-1.512 1.374,-1.572c0.828,-0.062 1.556,0.542 1.628,1.35" style="fill:#1e1c1a;fill-rule:nonzero;"/><path d="M679.031,424.596c0.07,0.806 -0.544,1.51 -1.374,1.572c-0.828,0.06 -1.558,-0.542 -1.628,-1.35c-0.072,-0.808 0.544,-1.512 1.374,-1.574c0.828,-0.06 1.556,0.544 1.628,1.352" style="fill:#1e1c1a;fill-rule:nonzero;"/><path d="M673.434,425.01c0.07,0.808 -0.544,1.512 -1.374,1.574c-0.828,0.06 -1.558,-0.542 -1.628,-1.352c-0.072,-0.806 0.544,-1.51 1.374,-1.572c0.828,-0.06 1.556,0.544 1.628,1.35" style="fill:#1e1c1a;fill-rule:nonzero;"/><path d="M681.352,418.938c0.07,0.806 -0.544,1.512 -1.374,1.572c-0.828,0.062 -1.558,-0.542 -1.628,-1.35c-0.07,-0.806 0.544,-1.512 1.374,-1.572c0.828,-0.062 1.556,0.544 1.628,1.35" style="fill:#1e1c1a;fill-rule:nonzero;"/><path d="M675.755,419.354c0.07,0.806 -0.544,1.51 -1.374,1.572c-0.828,0.06 -1.558,-0.542 -1.628,-1.35c-0.07,-0.808 0.544,-1.512 1.374,-1.574c0.828,-0.06 1.556,0.544 1.628,1.352" style="fill:#1e1c1a;fill-rule:nonzero;"/><path d="M683.259,440.737c0.07,0.808 -0.544,1.512 -1.374,1.574c-0.828,0.06 -1.556,-0.542 -1.628,-1.352c-0.07,-0.806 0.544,-1.51 1.374,-1.572c0.828,-0.06 1.558,0.544 1.628,1.35" style="fill:#1e1c1a;fill-rule:nonzero;"/><path d="M677.663,441.153c0.07,0.806 -0.544,1.512 -1.374,1.572c-0.828,0.062 -1.556,-0.542 -1.628,-1.35c-0.07,-0.806 0.544,-1.512 1.374,-1.572c0.828,-0.062 1.558,0.544 1.628,1.35" style="fill:#1e1c1a;fill-rule:nonzero;"/><path d="M685.58,435.08c0.072,0.806 -0.544,1.51 -1.374,1.572c-0.828,0.06 -1.556,-0.542 -1.628,-1.35c-0.07,-0.808 0.544,-1.512 1.374,-1.574c0.828,-0.06 1.558,0.544 1.628,1.352" style="fill:#1e1c1a;fill-rule:nonzero;"/><path d="M679.984,435.494c0.072,0.808 -0.544,1.512 -1.374,1.574c-0.828,0.06 -1.556,-0.542 -1.628,-1.352c-0.07,-0.806 0.544,-1.51 1.374,-1.572c0.828,-0.06 1.558,0.544 1.628,1.35" style="fill:#1e1c1a;fill-rule:nonzero;"/><path d="M674.387,435.91c0.072,0.806 -0.544,1.512 -1.374,1.572c-0.828,0.062 -1.556,-0.54 -1.628,-1.35c-0.07,-0.806 0.544,-1.512 1.374,-1.572c0.828,-0.062 1.558,0.544 1.628,1.35" style="fill:#1e1c1a;fill-rule:nonzero;"/><path d="M682.305,429.838c0.072,0.806 -0.544,1.51 -1.374,1.572c-0.828,0.06 -1.556,-0.542 -1.626,-1.35c-0.072,-0.808 0.542,-1.512 1.372,-1.574c0.828,-0.06 1.558,0.544 1.628,1.352" style="fill:#1e1c1a;fill-rule:nonzero;"/><path d="M676.708,430.252c0.072,0.808 -0.544,1.512 -1.374,1.574c-0.828,0.06 -1.556,-0.542 -1.626,-1.352c-0.072,-0.806 0.542,-1.51 1.372,-1.572c0.828,-0.06 1.558,0.544 1.628,1.35" style="fill:#1e1c1a;fill-rule:nonzero;"/><path d="M684.213,451.637c0.07,0.806 -0.544,1.512 -1.374,1.572c-0.828,0.062 -1.558,-0.542 -1.628,-1.35c-0.07,-0.806 0.544,-1.512 1.374,-1.572c0.828,-0.062 1.556,0.544 1.628,1.35" style="fill:#1e1c1a;fill-rule:nonzero;"/><path d="M678.617,452.053c0.07,0.806 -0.544,1.512 -1.374,1.572c-0.828,0.062 -1.558,-0.542 -1.628,-1.35c-0.07,-0.806 0.544,-1.512 1.374,-1.572c0.828,-0.062 1.556,0.544 1.628,1.35" style="fill:#1e1c1a;fill-rule:nonzero;"/><path d="M686.535,445.979c0.07,0.808 -0.544,1.512 -1.374,1.574c-0.828,0.06 -1.558,-0.542 -1.628,-1.352c-0.07,-0.806 0.544,-1.51 1.374,-1.572c0.828,-0.06 1.558,0.544 1.628,1.35" style="fill:#1e1c1a;fill-rule:nonzero;"/><path d="M680.938,446.395c0.07,0.806 -0.544,1.512 -1.374,1.572c-0.828,0.062 -1.558,-0.542 -1.628,-1.35c-0.07,-0.806 0.544,-1.512 1.374,-1.572c0.828,-0.062 1.558,0.544 1.628,1.35" style="fill:#1e1c1a;fill-rule:nonzero;"/><path d="M675.341,446.811c0.07,0.806 -0.544,1.512 -1.374,1.572c-0.828,0.062 -1.558,-0.542 -1.628,-1.35c-0.07,-0.806 0.544,-1.512 1.374,-1.572c0.828,-0.062 1.558,0.544 1.628,1.35" style="fill:#1e1c1a;fill-rule:nonzero;"/><path d="M683.259,440.737c0.07,0.808 -0.544,1.512 -1.374,1.574c-0.828,0.06 -1.556,-0.542 -1.628,-1.352c-0.07,-0.806 0.544,-1.51 1.374,-1.572c0.828,-0.06 1.558,0.544 1.628,1.35" style="fill:#1e1c1a;fill-rule:nonzero;"/><path d="M677.663,441.153c0.07,0.806 -0.544,1.512 -1.374,1.572c-0.828,0.062 -1.556,-0.542 -1.628,-1.35c-0.07,-0.806 0.544,-1.512 1.374,-1.572c0.828,-0.062 1.558,0.544 1.628,1.35" style="fill:#1e1c1a;fill-rule:nonzero;"/><path d="M687.489,456.879c0.07,0.806 -0.544,1.512 -1.374,1.572c-0.828,0.062 -1.558,-0.542 -1.628,-1.35c-0.072,-0.806 0.544,-1.512 1.374,-1.572c0.828,-0.062 1.556,0.544 1.628,1.35" style="fill:#1e1c1a;fill-rule:nonzero;"/><path d="M681.892,457.295c0.07,0.806 -0.544,1.512 -1.374,1.572c-0.828,0.062 -1.558,-0.542 -1.628,-1.35c-0.072,-0.806 0.544,-1.512 1.374,-1.572c0.828,-0.062 1.556,0.544 1.628,1.35" style="fill:#1e1c1a;fill-rule:nonzero;"/><path d="M676.295,457.711c0.07,0.806 -0.544,1.51 -1.374,1.572c-0.828,0.062 -1.558,-0.542 -1.628,-1.35c-0.072,-0.808 0.544,-1.512 1.374,-1.574c0.828,-0.06 1.556,0.544 1.628,1.352" style="fill:#1e1c1a;fill-rule:nonzero;"/><path d="M684.213,451.637c0.07,0.806 -0.544,1.512 -1.374,1.572c-0.828,0.062 -1.558,-0.542 -1.628,-1.35c-0.07,-0.806 0.544,-1.512 1.374,-1.572c0.828,-0.062 1.556,0.544 1.628,1.35" style="fill:#1e1c1a;fill-rule:nonzero;"/><path d="M678.617,452.053c0.07,0.806 -0.544,1.512 -1.374,1.572c-0.828,0.062 -1.558,-0.542 -1.628,-1.35c-0.07,-0.806 0.544,-1.512 1.374,-1.572c0.828,-0.062 1.556,0.544 1.628,1.35" style="fill:#1e1c1a;fill-rule:nonzero;"/><path d="M669.205,408.869c0.07,0.806 -0.544,1.51 -1.374,1.572c-0.828,0.062 -1.556,-0.542 -1.628,-1.35c-0.07,-0.808 0.544,-1.512 1.374,-1.574c0.828,-0.06 1.558,0.544 1.628,1.352" style="fill:#1e1c1a;fill-rule:nonzero;"/><path d="M663.608,409.284c0.07,0.808 -0.544,1.512 -1.374,1.574c-0.828,0.06 -1.556,-0.542 -1.628,-1.35c-0.07,-0.808 0.544,-1.512 1.374,-1.574c0.828,-0.06 1.558,0.544 1.628,1.35" style="fill:#1e1c1a;fill-rule:nonzero;"/><path d="M670.159,419.768c0.07,0.808 -0.544,1.512 -1.374,1.574c-0.828,0.06 -1.558,-0.542 -1.628,-1.35c-0.07,-0.808 0.544,-1.512 1.374,-1.574c0.828,-0.06 1.556,0.544 1.628,1.35" style="fill:#1e1c1a;fill-rule:nonzero;"/><path d="M664.562,420.184c0.07,0.806 -0.544,1.512 -1.374,1.574c-0.828,0.06 -1.558,-0.542 -1.628,-1.352c-0.07,-0.806 0.544,-1.512 1.374,-1.572c0.828,-0.062 1.556,0.544 1.628,1.35" style="fill:#1e1c1a;fill-rule:nonzero;"/><path d="M672.48,414.112c0.07,0.806 -0.544,1.51 -1.374,1.572c-0.828,0.06 -1.558,-0.542 -1.628,-1.35c-0.07,-0.808 0.544,-1.512 1.374,-1.574c0.828,-0.06 1.558,0.544 1.628,1.352" style="fill:#1e1c1a;fill-rule:nonzero;"/><path d="M666.883,414.526c0.07,0.808 -0.544,1.512 -1.374,1.574c-0.828,0.06 -1.558,-0.542 -1.628,-1.35c-0.07,-0.808 0.544,-1.512 1.374,-1.574c0.828,-0.06 1.558,0.544 1.628,1.35" style="fill:#1e1c1a;fill-rule:nonzero;"/><path d="M661.287,414.942c0.07,0.806 -0.544,1.512 -1.374,1.574c-0.828,0.06 -1.558,-0.542 -1.628,-1.352c-0.07,-0.806 0.544,-1.512 1.374,-1.572c0.828,-0.062 1.558,0.544 1.628,1.35" style="fill:#1e1c1a;fill-rule:nonzero;"/><path d="M669.205,408.869c0.07,0.806 -0.544,1.51 -1.374,1.572c-0.828,0.062 -1.556,-0.542 -1.628,-1.35c-0.07,-0.808 0.544,-1.512 1.374,-1.574c0.828,-0.06 1.558,0.544 1.628,1.352" style="fill:#1e1c1a;fill-rule:nonzero;"/><path d="M663.608,409.284c0.07,0.808 -0.544,1.512 -1.374,1.574c-0.828,0.06 -1.556,-0.542 -1.628,-1.35c-0.07,-0.808 0.544,-1.512 1.374,-1.574c0.828,-0.06 1.558,0.544 1.628,1.35" style="fill:#1e1c1a;fill-rule:nonzero;"/><path d="M671.112,430.668c0.072,0.806 -0.544,1.512 -1.374,1.574c-0.828,0.06 -1.556,-0.542 -1.626,-1.352c-0.072,-0.806 0.542,-1.512 1.372,-1.572c0.828,-0.062 1.558,0.544 1.628,1.35" style="fill:#1e1c1a;fill-rule:nonzero;"/><path d="M665.515,431.084c0.072,0.806 -0.544,1.512 -1.374,1.572c-0.828,0.062 -1.556,-0.542 -1.626,-1.35c-0.072,-0.806 0.542,-1.512 1.372,-1.572c0.828,-0.062 1.558,0.544 1.628,1.35" style="fill:#1e1c1a;fill-rule:nonzero;"/><path d="M673.434,425.01c0.07,0.808 -0.544,1.512 -1.374,1.574c-0.828,0.06 -1.558,-0.542 -1.628,-1.352c-0.072,-0.806 0.544,-1.51 1.374,-1.572c0.828,-0.06 1.556,0.544 1.628,1.35" style="fill:#1e1c1a;fill-rule:nonzero;"/><path d="M667.837,425.426c0.07,0.806 -0.544,1.512 -1.374,1.574c-0.828,0.06 -1.558,-0.542 -1.628,-1.352c-0.072,-0.806 0.544,-1.512 1.374,-1.572c0.828,-0.062 1.556,0.544 1.628,1.35" style="fill:#1e1c1a;fill-rule:nonzero;"/><path d="M662.241,425.842c0.07,0.806 -0.544,1.512 -1.374,1.572c-0.828,0.062 -1.558,-0.542 -1.628,-1.35c-0.072,-0.806 0.544,-1.512 1.374,-1.572c0.828,-0.062 1.556,0.544 1.628,1.35" style="fill:#1e1c1a;fill-rule:nonzero;"/><path d="M670.159,419.768c0.07,0.808 -0.544,1.512 -1.374,1.574c-0.828,0.06 -1.558,-0.542 -1.628,-1.35c-0.07,-0.808 0.544,-1.512 1.374,-1.574c0.828,-0.06 1.556,0.544 1.628,1.35" style="fill:#1e1c1a;fill-rule:nonzero;"/><path d="M664.562,420.184c0.07,0.806 -0.544,1.512 -1.374,1.574c-0.828,0.06 -1.558,-0.542 -1.628,-1.352c-0.07,-0.806 0.544,-1.512 1.374,-1.572c0.828,-0.062 1.556,0.544 1.628,1.35" style="fill:#1e1c1a;fill-rule:nonzero;"/><path d="M672.066,441.569c0.07,0.806 -0.544,1.512 -1.374,1.572c-0.828,0.062 -1.556,-0.542 -1.628,-1.35c-0.07,-0.806 0.544,-1.512 1.374,-1.572c0.828,-0.062 1.558,0.544 1.628,1.35" style="fill:#1e1c1a;fill-rule:nonzero;"/><path d="M666.469,441.985c0.07,0.806 -0.544,1.512 -1.374,1.572c-0.828,0.062 -1.556,-0.542 -1.628,-1.35c-0.07,-0.806 0.544,-1.512 1.374,-1.574c0.828,-0.06 1.558,0.544 1.628,1.352" style="fill:#1e1c1a;fill-rule:nonzero;"/><path d="M674.387,435.91c0.072,0.806 -0.544,1.512 -1.374,1.572c-0.828,0.062 -1.556,-0.54 -1.628,-1.35c-0.07,-0.806 0.544,-1.512 1.374,-1.572c0.828,-0.062 1.558,0.544 1.628,1.35" style="fill:#1e1c1a;fill-rule:nonzero;"/><path d="M668.79,436.326c0.072,0.806 -0.544,1.512 -1.374,1.572c-0.828,0.062 -1.556,-0.542 -1.628,-1.35c-0.07,-0.806 0.544,-1.512 1.374,-1.572c0.828,-0.062 1.558,0.544 1.628,1.35" style="fill:#1e1c1a;fill-rule:nonzero;"/><path d="M663.194,436.743c0.072,0.806 -0.544,1.512 -1.374,1.572c-0.828,0.062 -1.556,-0.542 -1.628,-1.35c-0.07,-0.806 0.544,-1.512 1.374,-1.574c0.828,-0.06 1.558,0.544 1.628,1.352" style="fill:#1e1c1a;fill-rule:nonzero;"/><path d="M671.112,430.668c0.072,0.806 -0.544,1.512 -1.374,1.574c-0.828,0.06 -1.556,-0.542 -1.626,-1.352c-0.072,-0.806 0.542,-1.512 1.372,-1.572c0.828,-0.062 1.558,0.544 1.628,1.35" style="fill:#1e1c1a;fill-rule:nonzero;"/><path d="M665.515,431.084c0.072,0.806 -0.544,1.512 -1.374,1.572c-0.828,0.062 -1.556,-0.542 -1.626,-1.35c-0.072,-0.806 0.542,-1.512 1.372,-1.572c0.828,-0.062 1.558,0.544 1.628,1.35" style="fill:#1e1c1a;fill-rule:nonzero;"/><path d="M673.02,452.469c0.07,0.806 -0.544,1.51 -1.374,1.572c-0.828,0.062 -1.558,-0.542 -1.628,-1.35c-0.07,-0.808 0.544,-1.512 1.374,-1.574c0.828,-0.06 1.556,0.544 1.628,1.352" style="fill:#1e1c1a;fill-rule:nonzero;"/><path d="M667.423,452.883c0.07,0.808 -0.544,1.512 -1.374,1.574c-0.828,0.06 -1.558,-0.542 -1.628,-1.35c-0.07,-0.808 0.544,-1.512 1.374,-1.574c0.828,-0.06 1.556,0.544 1.628,1.35" style="fill:#1e1c1a;fill-rule:nonzero;"/><path d="M675.341,446.811c0.07,0.806 -0.544,1.512 -1.374,1.572c-0.828,0.062 -1.558,-0.542 -1.628,-1.35c-0.07,-0.806 0.544,-1.512 1.374,-1.572c0.828,-0.062 1.558,0.544 1.628,1.35" style="fill:#1e1c1a;fill-rule:nonzero;"/><path d="M669.745,447.227c0.07,0.806 -0.544,1.512 -1.374,1.572c-0.828,0.062 -1.558,-0.542 -1.628,-1.35c-0.07,-0.806 0.544,-1.512 1.374,-1.574c0.828,-0.06 1.558,0.544 1.628,1.352" style="fill:#1e1c1a;fill-rule:nonzero;"/><path d="M664.148,447.641c0.07,0.808 -0.544,1.512 -1.374,1.574c-0.828,0.06 -1.558,-0.542 -1.628,-1.35c-0.07,-0.808 0.544,-1.512 1.374,-1.574c0.828,-0.06 1.558,0.544 1.628,1.35" style="fill:#1e1c1a;fill-rule:nonzero;"/><path d="M672.066,441.569c0.07,0.806 -0.544,1.512 -1.374,1.572c-0.828,0.062 -1.556,-0.542 -1.628,-1.35c-0.07,-0.806 0.544,-1.512 1.374,-1.572c0.828,-0.062 1.558,0.544 1.628,1.35" style="fill:#1e1c1a;fill-rule:nonzero;"/><path d="M666.469,441.985c0.07,0.806 -0.544,1.512 -1.374,1.572c-0.828,0.062 -1.556,-0.542 -1.628,-1.35c-0.07,-0.806 0.544,-1.512 1.374,-1.574c0.828,-0.06 1.558,0.544 1.628,1.352" style="fill:#1e1c1a;fill-rule:nonzero;"/><path d="M676.295,457.711c0.07,0.806 -0.544,1.51 -1.374,1.572c-0.828,0.062 -1.558,-0.542 -1.628,-1.35c-0.072,-0.808 0.544,-1.512 1.374,-1.574c0.828,-0.06 1.556,0.544 1.628,1.352" style="fill:#1e1c1a;fill-rule:nonzero;"/><path d="M670.699,458.125c0.07,0.808 -0.544,1.512 -1.374,1.574c-0.828,0.06 -1.558,-0.542 -1.628,-1.35c-0.072,-0.808 0.544,-1.512 1.374,-1.574c0.828,-0.06 1.556,0.544 1.628,1.35" style="fill:#1e1c1a;fill-rule:nonzero;"/><path d="M665.102,458.541c0.07,0.806 -0.544,1.512 -1.374,1.574c-0.828,0.06 -1.558,-0.542 -1.628,-1.352c-0.072,-0.806 0.544,-1.512 1.374,-1.572c0.828,-0.062 1.556,0.544 1.628,1.35" style="fill:#1e1c1a;fill-rule:nonzero;"/><path d="M673.02,452.469c0.07,0.806 -0.544,1.51 -1.374,1.572c-0.828,0.062 -1.558,-0.542 -1.628,-1.35c-0.07,-0.808 0.544,-1.512 1.374,-1.574c0.828,-0.06 1.556,0.544 1.628,1.352" style="fill:#1e1c1a;fill-rule:nonzero;"/><path d="M667.423,452.883c0.07,0.808 -0.544,1.512 -1.374,1.574c-0.828,0.06 -1.558,-0.542 -1.628,-1.35c-0.07,-0.808 0.544,-1.512 1.374,-1.574c0.828,-0.06 1.556,0.544 1.628,1.35" style="fill:#1e1c1a;fill-rule:nonzero;"/><path d="M658.011,409.7c0.07,0.808 -0.544,1.512 -1.374,1.574c-0.828,0.06 -1.558,-0.542 -1.628,-1.352c-0.07,-0.806 0.544,-1.512 1.374,-1.572c0.828,-0.062 1.558,0.544 1.628,1.35" style="fill:#1e1c1a;fill-rule:nonzero;"/><path d="M652.414,410.116c0.07,0.806 -0.544,1.512 -1.374,1.572c-0.828,0.062 -1.558,-0.542 -1.628,-1.35c-0.07,-0.806 0.544,-1.512 1.374,-1.572c0.828,-0.062 1.558,0.544 1.628,1.35" style="fill:#1e1c1a;fill-rule:nonzero;"/><path d="M658.965,420.6c0.07,0.806 -0.544,1.512 -1.374,1.572c-0.828,0.062 -1.558,-0.542 -1.628,-1.35c-0.07,-0.806 0.544,-1.512 1.374,-1.572c0.828,-0.062 1.556,0.544 1.628,1.35" style="fill:#1e1c1a;fill-rule:nonzero;"/><path d="M653.369,421.016c0.07,0.806 -0.544,1.512 -1.374,1.572c-0.828,0.062 -1.558,-0.542 -1.628,-1.35c-0.072,-0.806 0.544,-1.512 1.374,-1.572c0.828,-0.062 1.556,0.542 1.628,1.35" style="fill:#1e1c1a;fill-rule:nonzero;"/><path d="M661.287,414.942c0.07,0.806 -0.544,1.512 -1.374,1.574c-0.828,0.06 -1.558,-0.542 -1.628,-1.352c-0.07,-0.806 0.544,-1.512 1.374,-1.572c0.828,-0.062 1.558,0.544 1.628,1.35" style="fill:#1e1c1a;fill-rule:nonzero;"/><path d="M655.69,415.358c0.07,0.806 -0.544,1.512 -1.374,1.572c-0.828,0.062 -1.558,-0.542 -1.628,-1.35c-0.07,-0.806 0.544,-1.512 1.374,-1.572c0.828,-0.062 1.556,0.544 1.628,1.35" style="fill:#1e1c1a;fill-rule:nonzero;"/><path d="M650.093,415.774c0.07,0.806 -0.544,1.512 -1.374,1.572c-0.828,0.062 -1.558,-0.542 -1.628,-1.35c-0.07,-0.806 0.544,-1.512 1.374,-1.572c0.828,-0.062 1.556,0.544 1.628,1.35" style="fill:#1e1c1a;fill-rule:nonzero;"/><path d="M658.011,409.7c0.07,0.808 -0.544,1.512 -1.374,1.574c-0.828,0.06 -1.558,-0.542 -1.628,-1.352c-0.07,-0.806 0.544,-1.512 1.374,-1.572c0.828,-0.062 1.558,0.544 1.628,1.35" style="fill:#1e1c1a;fill-rule:nonzero;"/><path d="M652.414,410.116c0.07,0.806 -0.544,1.512 -1.374,1.572c-0.828,0.062 -1.558,-0.542 -1.628,-1.35c-0.07,-0.806 0.544,-1.512 1.374,-1.572c0.828,-0.062 1.558,0.544 1.628,1.35" style="fill:#1e1c1a;fill-rule:nonzero;"/><path d="M659.918,431.5c0.072,0.806 -0.544,1.512 -1.374,1.572c-0.828,0.062 -1.556,-0.542 -1.626,-1.35c-0.072,-0.806 0.542,-1.512 1.372,-1.574c0.828,-0.06 1.558,0.544 1.628,1.352" style="fill:#1e1c1a;fill-rule:nonzero;"/><path d="M654.322,431.916c0.072,0.806 -0.544,1.51 -1.374,1.572c-0.828,0.06 -1.556,-0.542 -1.628,-1.35c-0.07,-0.808 0.544,-1.512 1.374,-1.574c0.828,-0.06 1.558,0.544 1.628,1.352" style="fill:#1e1c1a;fill-rule:nonzero;"/><path d="M662.241,425.842c0.07,0.806 -0.544,1.512 -1.374,1.572c-0.828,0.062 -1.558,-0.542 -1.628,-1.35c-0.072,-0.806 0.544,-1.512 1.374,-1.572c0.828,-0.062 1.556,0.544 1.628,1.35" style="fill:#1e1c1a;fill-rule:nonzero;"/><path d="M656.643,426.258c0.072,0.806 -0.544,1.512 -1.372,1.572c-0.83,0.062 -1.558,-0.542 -1.628,-1.35c-0.072,-0.806 0.542,-1.512 1.372,-1.572c0.828,-0.062 1.558,0.542 1.628,1.35" style="fill:#1e1c1a;fill-rule:nonzero;"/><path d="M651.046,426.674c0.072,0.806 -0.544,1.51 -1.372,1.572c-0.83,0.06 -1.558,-0.542 -1.628,-1.35c-0.072,-0.808 0.542,-1.512 1.372,-1.574c0.828,-0.06 1.558,0.544 1.628,1.352" style="fill:#1e1c1a;fill-rule:nonzero;"/><path d="M658.965,420.6c0.07,0.806 -0.544,1.512 -1.374,1.572c-0.828,0.062 -1.558,-0.542 -1.628,-1.35c-0.07,-0.806 0.544,-1.512 1.374,-1.572c0.828,-0.062 1.556,0.544 1.628,1.35" style="fill:#1e1c1a;fill-rule:nonzero;"/><path d="M653.369,421.016c0.07,0.806 -0.544,1.512 -1.374,1.572c-0.828,0.062 -1.558,-0.542 -1.628,-1.35c-0.072,-0.806 0.544,-1.512 1.374,-1.572c0.828,-0.062 1.556,0.542 1.628,1.35" style="fill:#1e1c1a;fill-rule:nonzero;"/><path d="M660.872,442.399c0.07,0.808 -0.544,1.512 -1.374,1.574c-0.828,0.06 -1.556,-0.542 -1.628,-1.35c-0.07,-0.808 0.544,-1.512 1.374,-1.574c0.828,-0.06 1.558,0.544 1.628,1.35" style="fill:#1e1c1a;fill-rule:nonzero;"/><path d="M655.276,442.815c0.07,0.808 -0.544,1.512 -1.374,1.574c-0.828,0.06 -1.558,-0.542 -1.628,-1.352c-0.07,-0.806 0.544,-1.51 1.374,-1.572c0.828,-0.06 1.558,0.544 1.628,1.35" style="fill:#1e1c1a;fill-rule:nonzero;"/><path d="M663.194,436.743c0.072,0.806 -0.544,1.512 -1.374,1.572c-0.828,0.062 -1.556,-0.542 -1.628,-1.35c-0.07,-0.806 0.544,-1.512 1.374,-1.574c0.828,-0.06 1.558,0.544 1.628,1.352" style="fill:#1e1c1a;fill-rule:nonzero;"/><path d="M657.597,437.159c0.07,0.806 -0.544,1.51 -1.374,1.572c-0.828,0.06 -1.556,-0.542 -1.628,-1.35c-0.07,-0.808 0.544,-1.512 1.374,-1.574c0.828,-0.06 1.558,0.544 1.628,1.352" style="fill:#1e1c1a;fill-rule:nonzero;"/><path d="M652,437.573c0.07,0.808 -0.544,1.512 -1.374,1.574c-0.828,0.06 -1.556,-0.542 -1.628,-1.352c-0.07,-0.806 0.544,-1.51 1.374,-1.572c0.828,-0.06 1.558,0.544 1.628,1.35" style="fill:#1e1c1a;fill-rule:nonzero;"/><path d="M659.918,431.5c0.072,0.806 -0.544,1.512 -1.374,1.572c-0.828,0.062 -1.556,-0.542 -1.626,-1.35c-0.072,-0.806 0.542,-1.512 1.372,-1.574c0.828,-0.06 1.558,0.544 1.628,1.352" style="fill:#1e1c1a;fill-rule:nonzero;"/><path d="M654.322,431.916c0.072,0.806 -0.544,1.51 -1.374,1.572c-0.828,0.06 -1.556,-0.542 -1.628,-1.35c-0.07,-0.808 0.544,-1.512 1.374,-1.574c0.828,-0.06 1.558,0.544 1.628,1.352" style="fill:#1e1c1a;fill-rule:nonzero;"/><path d="M661.827,453.299c0.07,0.808 -0.544,1.512 -1.374,1.574c-0.828,0.06 -1.558,-0.542 -1.628,-1.352c-0.07,-0.806 0.544,-1.51 1.374,-1.572c0.828,-0.062 1.556,0.544 1.628,1.35" style="fill:#1e1c1a;fill-rule:nonzero;"/><path d="M656.23,453.715c0.07,0.806 -0.544,1.512 -1.374,1.572c-0.828,0.062 -1.558,-0.542 -1.628,-1.35c-0.07,-0.806 0.544,-1.512 1.374,-1.572c0.828,-0.062 1.556,0.544 1.628,1.35" style="fill:#1e1c1a;fill-rule:nonzero;"/><path d="M664.148,447.641c0.07,0.808 -0.544,1.512 -1.374,1.574c-0.828,0.06 -1.558,-0.542 -1.628,-1.35c-0.07,-0.808 0.544,-1.512 1.374,-1.574c0.828,-0.06 1.558,0.544 1.628,1.35" style="fill:#1e1c1a;fill-rule:nonzero;"/><path d="M658.551,448.057c0.07,0.808 -0.544,1.512 -1.374,1.574c-0.828,0.06 -1.558,-0.542 -1.628,-1.352c-0.07,-0.806 0.544,-1.51 1.374,-1.572c0.828,-0.062 1.558,0.544 1.628,1.35" style="fill:#1e1c1a;fill-rule:nonzero;"/><path d="M652.955,448.473c0.07,0.806 -0.544,1.512 -1.374,1.572c-0.828,0.062 -1.558,-0.542 -1.628,-1.35c-0.07,-0.806 0.544,-1.512 1.374,-1.572c0.828,-0.062 1.556,0.544 1.628,1.35" style="fill:#1e1c1a;fill-rule:nonzero;"/><path d="M660.872,442.399c0.07,0.808 -0.544,1.512 -1.374,1.574c-0.828,0.06 -1.556,-0.542 -1.628,-1.35c-0.07,-0.808 0.544,-1.512 1.374,-1.574c0.828,-0.06 1.558,0.544 1.628,1.35" style="fill:#1e1c1a;fill-rule:nonzero;"/><path d="M655.276,442.815c0.07,0.808 -0.544,1.512 -1.374,1.574c-0.828,0.06 -1.558,-0.542 -1.628,-1.352c-0.07,-0.806 0.544,-1.51 1.374,-1.572c0.828,-0.06 1.558,0.544 1.628,1.35" style="fill:#1e1c1a;fill-rule:nonzero;"/><path d="M665.102,458.541c0.07,0.806 -0.544,1.512 -1.374,1.574c-0.828,0.06 -1.558,-0.542 -1.628,-1.352c-0.072,-0.806 0.544,-1.512 1.374,-1.572c0.828,-0.062 1.556,0.544 1.628,1.35" style="fill:#1e1c1a;fill-rule:nonzero;"/><path d="M659.505,458.957c0.07,0.806 -0.544,1.512 -1.374,1.572c-0.828,0.062 -1.558,-0.542 -1.628,-1.35c-0.072,-0.806 0.544,-1.512 1.374,-1.572c0.828,-0.062 1.556,0.544 1.628,1.35" style="fill:#1e1c1a;fill-rule:nonzero;"/><path d="M653.908,459.373c0.072,0.806 -0.544,1.512 -1.372,1.572c-0.83,0.062 -1.558,-0.542 -1.628,-1.35c-0.072,-0.806 0.542,-1.512 1.372,-1.572c0.828,-0.062 1.558,0.544 1.628,1.35" style="fill:#1e1c1a;fill-rule:nonzero;"/><path d="M661.827,453.299c0.07,0.808 -0.544,1.512 -1.374,1.574c-0.828,0.06 -1.558,-0.542 -1.628,-1.352c-0.07,-0.806 0.544,-1.51 1.374,-1.572c0.828,-0.062 1.556,0.544 1.628,1.35" style="fill:#1e1c1a;fill-rule:nonzero;"/><path d="M656.23,453.715c0.07,0.806 -0.544,1.512 -1.374,1.572c-0.828,0.062 -1.558,-0.542 -1.628,-1.35c-0.07,-0.806 0.544,-1.512 1.374,-1.572c0.828,-0.062 1.556,0.544 1.628,1.35" style="fill:#1e1c1a;fill-rule:nonzero;"/><path d="M646.818,410.532c0.07,0.806 -0.544,1.512 -1.374,1.572c-0.828,0.062 -1.558,-0.542 -1.628,-1.35c-0.07,-0.806 0.544,-1.512 1.374,-1.572c0.828,-0.062 1.558,0.544 1.628,1.35" style="fill:#1e1c1a;fill-rule:nonzero;"/><path d="M641.221,410.948c0.07,0.806 -0.544,1.51 -1.374,1.572c-0.828,0.062 -1.558,-0.542 -1.628,-1.35c-0.07,-0.808 0.544,-1.512 1.374,-1.574c0.828,-0.06 1.558,0.544 1.628,1.352" style="fill:#1e1c1a;fill-rule:nonzero;"/><path d="M647.772,421.432c0.07,0.806 -0.544,1.51 -1.374,1.572c-0.828,0.06 -1.558,-0.542 -1.628,-1.35c-0.072,-0.808 0.544,-1.512 1.374,-1.574c0.828,-0.06 1.556,0.544 1.628,1.352" style="fill:#1e1c1a;fill-rule:nonzero;"/><path d="M642.175,421.846c0.07,0.808 -0.544,1.512 -1.374,1.574c-0.828,0.06 -1.558,-0.542 -1.628,-1.35c-0.072,-0.808 0.544,-1.512 1.374,-1.574c0.828,-0.06 1.556,0.544 1.628,1.35" style="fill:#1e1c1a;fill-rule:nonzero;"/><path d="M650.093,415.774c0.07,0.806 -0.544,1.512 -1.374,1.572c-0.828,0.062 -1.558,-0.542 -1.628,-1.35c-0.07,-0.806 0.544,-1.512 1.374,-1.572c0.828,-0.062 1.556,0.544 1.628,1.35" style="fill:#1e1c1a;fill-rule:nonzero;"/><path d="M644.497,416.19c0.07,0.806 -0.544,1.51 -1.374,1.572c-0.828,0.06 -1.558,-0.542 -1.628,-1.35c-0.07,-0.808 0.544,-1.512 1.374,-1.574c0.828,-0.06 1.556,0.544 1.628,1.352" style="fill:#1e1c1a;fill-rule:nonzero;"/><path d="M638.9,416.604c0.07,0.808 -0.544,1.512 -1.374,1.574c-0.828,0.06 -1.558,-0.542 -1.628,-1.35c-0.07,-0.808 0.544,-1.512 1.374,-1.574c0.828,-0.06 1.556,0.544 1.628,1.35" style="fill:#1e1c1a;fill-rule:nonzero;"/><path d="M646.818,410.532c0.07,0.806 -0.544,1.512 -1.374,1.572c-0.828,0.062 -1.558,-0.542 -1.628,-1.35c-0.07,-0.806 0.544,-1.512 1.374,-1.572c0.828,-0.062 1.558,0.544 1.628,1.35" style="fill:#1e1c1a;fill-rule:nonzero;"/><path d="M641.221,410.948c0.07,0.806 -0.544,1.51 -1.374,1.572c-0.828,0.062 -1.558,-0.542 -1.628,-1.35c-0.07,-0.808 0.544,-1.512 1.374,-1.574c0.828,-0.06 1.558,0.544 1.628,1.352" style="fill:#1e1c1a;fill-rule:nonzero;"/><path d="M648.725,432.33c0.072,0.808 -0.544,1.512 -1.374,1.574c-0.828,0.06 -1.556,-0.542 -1.628,-1.352c-0.07,-0.806 0.544,-1.51 1.374,-1.572c0.828,-0.06 1.558,0.544 1.628,1.35" style="fill:#1e1c1a;fill-rule:nonzero;"/><path d="M643.128,432.746c0.072,0.806 -0.544,1.512 -1.374,1.572c-0.828,0.062 -1.556,-0.54 -1.628,-1.35c-0.07,-0.806 0.544,-1.512 1.374,-1.572c0.828,-0.062 1.558,0.544 1.628,1.35" style="fill:#1e1c1a;fill-rule:nonzero;"/><path d="M651.046,426.674c0.072,0.806 -0.544,1.51 -1.372,1.572c-0.83,0.06 -1.558,-0.542 -1.628,-1.35c-0.072,-0.808 0.542,-1.512 1.372,-1.574c0.828,-0.06 1.558,0.544 1.628,1.352" style="fill:#1e1c1a;fill-rule:nonzero;"/><path d="M645.45,427.088c0.072,0.808 -0.544,1.512 -1.374,1.574c-0.828,0.06 -1.556,-0.542 -1.626,-1.352c-0.072,-0.806 0.542,-1.51 1.372,-1.572c0.828,-0.06 1.558,0.544 1.628,1.35" style="fill:#1e1c1a;fill-rule:nonzero;"/><path d="M639.853,427.504c0.072,0.806 -0.544,1.512 -1.374,1.574c-0.828,0.06 -1.556,-0.542 -1.626,-1.352c-0.072,-0.806 0.542,-1.512 1.372,-1.572c0.828,-0.062 1.558,0.544 1.628,1.35" style="fill:#1e1c1a;fill-rule:nonzero;"/><path d="M647.772,421.432c0.07,0.806 -0.544,1.51 -1.374,1.572c-0.828,0.06 -1.558,-0.542 -1.628,-1.35c-0.072,-0.808 0.544,-1.512 1.374,-1.574c0.828,-0.06 1.556,0.544 1.628,1.352" style="fill:#1e1c1a;fill-rule:nonzero;"/><path d="M642.175,421.846c0.07,0.808 -0.544,1.512 -1.374,1.574c-0.828,0.06 -1.558,-0.542 -1.628,-1.35c-0.072,-0.808 0.544,-1.512 1.374,-1.574c0.828,-0.06 1.556,0.544 1.628,1.35" style="fill:#1e1c1a;fill-rule:nonzero;"/><path d="M649.679,443.231c0.07,0.806 -0.544,1.512 -1.374,1.572c-0.828,0.062 -1.558,-0.542 -1.628,-1.35c-0.07,-0.806 0.544,-1.512 1.374,-1.572c0.828,-0.062 1.558,0.544 1.628,1.35" style="fill:#1e1c1a;fill-rule:nonzero;"/><path d="M644.082,443.647c0.07,0.806 -0.544,1.512 -1.374,1.572c-0.828,0.062 -1.558,-0.542 -1.628,-1.35c-0.07,-0.806 0.544,-1.512 1.374,-1.572c0.828,-0.062 1.558,0.544 1.628,1.35" style="fill:#1e1c1a;fill-rule:nonzero;"/><path d="M652,437.573c0.07,0.808 -0.544,1.512 -1.374,1.574c-0.828,0.06 -1.556,-0.542 -1.628,-1.352c-0.07,-0.806 0.544,-1.51 1.374,-1.572c0.828,-0.06 1.558,0.544 1.628,1.35" style="fill:#1e1c1a;fill-rule:nonzero;"/><path d="M646.404,437.989c0.07,0.806 -0.544,1.512 -1.374,1.572c-0.828,0.062 -1.556,-0.54 -1.628,-1.35c-0.07,-0.806 0.544,-1.512 1.374,-1.572c0.828,-0.062 1.558,0.544 1.628,1.35" style="fill:#1e1c1a;fill-rule:nonzero;"/><path d="M640.807,438.405c0.07,0.806 -0.544,1.512 -1.374,1.572c-0.828,0.062 -1.556,-0.542 -1.628,-1.35c-0.07,-0.806 0.544,-1.512 1.374,-1.572c0.828,-0.062 1.558,0.544 1.628,1.35" style="fill:#1e1c1a;fill-rule:nonzero;"/><path d="M648.725,432.33c0.072,0.808 -0.544,1.512 -1.374,1.574c-0.828,0.06 -1.556,-0.542 -1.628,-1.352c-0.07,-0.806 0.544,-1.51 1.374,-1.572c0.828,-0.06 1.558,0.544 1.628,1.35" style="fill:#1e1c1a;fill-rule:nonzero;"/><path d="M643.128,432.746c0.072,0.806 -0.544,1.512 -1.374,1.572c-0.828,0.062 -1.556,-0.54 -1.628,-1.35c-0.07,-0.806 0.544,-1.512 1.374,-1.572c0.828,-0.062 1.558,0.544 1.628,1.35" style="fill:#1e1c1a;fill-rule:nonzero;"/><path d="M650.633,454.131c0.07,0.806 -0.544,1.512 -1.374,1.572c-0.828,0.062 -1.558,-0.542 -1.628,-1.35c-0.072,-0.806 0.544,-1.512 1.374,-1.572c0.828,-0.062 1.556,0.544 1.628,1.35" style="fill:#1e1c1a;fill-rule:nonzero;"/><path d="M645.037,454.547c0.07,0.806 -0.544,1.51 -1.374,1.572c-0.828,0.062 -1.558,-0.542 -1.628,-1.35c-0.072,-0.808 0.544,-1.512 1.374,-1.574c0.828,-0.06 1.556,0.544 1.628,1.352" style="fill:#1e1c1a;fill-rule:nonzero;"/><path d="M652.955,448.473c0.07,0.806 -0.544,1.512 -1.374,1.572c-0.828,0.062 -1.558,-0.542 -1.628,-1.35c-0.07,-0.806 0.544,-1.512 1.374,-1.572c0.828,-0.062 1.556,0.544 1.628,1.35" style="fill:#1e1c1a;fill-rule:nonzero;"/><path d="M647.358,448.889c0.07,0.806 -0.544,1.512 -1.374,1.572c-0.828,0.062 -1.558,-0.542 -1.628,-1.35c-0.07,-0.806 0.544,-1.512 1.374,-1.572c0.828,-0.062 1.556,0.544 1.628,1.35" style="fill:#1e1c1a;fill-rule:nonzero;"/><path d="M641.761,449.305c0.07,0.806 -0.544,1.512 -1.374,1.572c-0.828,0.062 -1.558,-0.542 -1.628,-1.35c-0.07,-0.806 0.544,-1.512 1.374,-1.574c0.828,-0.06 1.556,0.544 1.628,1.352" style="fill:#1e1c1a;fill-rule:nonzero;"/><path d="M649.679,443.231c0.07,0.806 -0.544,1.512 -1.374,1.572c-0.828,0.062 -1.558,-0.542 -1.628,-1.35c-0.07,-0.806 0.544,-1.512 1.374,-1.572c0.828,-0.062 1.558,0.544 1.628,1.35" style="fill:#1e1c1a;fill-rule:nonzero;"/><path d="M644.082,443.647c0.07,0.806 -0.544,1.512 -1.374,1.572c-0.828,0.062 -1.558,-0.542 -1.628,-1.35c-0.07,-0.806 0.544,-1.512 1.374,-1.572c0.828,-0.062 1.558,0.544 1.628,1.35" style="fill:#1e1c1a;fill-rule:nonzero;"/><path d="M653.908,459.373c0.072,0.806 -0.544,1.512 -1.372,1.572c-0.83,0.062 -1.558,-0.542 -1.628,-1.35c-0.072,-0.806 0.542,-1.512 1.372,-1.572c0.828,-0.062 1.558,0.544 1.628,1.35" style="fill:#1e1c1a;fill-rule:nonzero;"/><path d="M650.633,454.131c0.07,0.806 -0.544,1.512 -1.374,1.572c-0.828,0.062 -1.558,-0.542 -1.628,-1.35c-0.072,-0.806 0.544,-1.512 1.374,-1.572c0.828,-0.062 1.556,0.544 1.628,1.35" style="fill:#1e1c1a;fill-rule:nonzero;"/><path d="M645.037,454.547c0.07,0.806 -0.544,1.51 -1.374,1.572c-0.828,0.062 -1.558,-0.542 -1.628,-1.35c-0.072,-0.808 0.544,-1.512 1.374,-1.574c0.828,-0.06 1.556,0.544 1.628,1.352" style="fill:#1e1c1a;fill-rule:nonzero;"/><path d="M635.624,411.362c0.07,0.808 -0.544,1.512 -1.374,1.574c-0.828,0.06 -1.558,-0.542 -1.628,-1.35c-0.07,-0.808 0.544,-1.512 1.374,-1.574c0.828,-0.06 1.558,0.544 1.628,1.35" style="fill:#1e1c1a;fill-rule:nonzero;"/><path d="M630.028,411.778c0.07,0.806 -0.544,1.512 -1.374,1.574c-0.828,0.06 -1.558,-0.542 -1.628,-1.352c-0.07,-0.806 0.544,-1.512 1.374,-1.572c0.828,-0.062 1.558,0.544 1.628,1.35" style="fill:#1e1c1a;fill-rule:nonzero;"/><path d="M636.579,422.262c0.07,0.806 -0.544,1.512 -1.374,1.574c-0.828,0.06 -1.558,-0.542 -1.628,-1.352c-0.072,-0.806 0.544,-1.512 1.374,-1.572c0.828,-0.062 1.556,0.544 1.628,1.35" style="fill:#1e1c1a;fill-rule:nonzero;"/><path d="M630.982,422.678c0.07,0.806 -0.544,1.512 -1.374,1.572c-0.828,0.062 -1.558,-0.542 -1.628,-1.35c-0.072,-0.806 0.544,-1.512 1.374,-1.572c0.828,-0.062 1.556,0.544 1.628,1.35" style="fill:#1e1c1a;fill-rule:nonzero;"/><path d="M638.9,416.604c0.07,0.808 -0.544,1.512 -1.374,1.574c-0.828,0.06 -1.558,-0.542 -1.628,-1.35c-0.07,-0.808 0.544,-1.512 1.374,-1.574c0.828,-0.06 1.556,0.544 1.628,1.35" style="fill:#1e1c1a;fill-rule:nonzero;"/><path d="M633.303,417.02c0.07,0.806 -0.544,1.512 -1.374,1.574c-0.828,0.06 -1.558,-0.542 -1.628,-1.352c-0.07,-0.806 0.544,-1.512 1.374,-1.572c0.828,-0.062 1.556,0.544 1.628,1.35" style="fill:#1e1c1a;fill-rule:nonzero;"/><path d="M627.706,417.436c0.07,0.806 -0.544,1.512 -1.374,1.572c-0.828,0.062 -1.558,-0.542 -1.628,-1.35c-0.07,-0.806 0.544,-1.512 1.374,-1.572c0.828,-0.062 1.556,0.544 1.628,1.35" style="fill:#1e1c1a;fill-rule:nonzero;"/><path d="M635.624,411.362c0.07,0.808 -0.544,1.512 -1.374,1.574c-0.828,0.06 -1.558,-0.542 -1.628,-1.35c-0.07,-0.808 0.544,-1.512 1.374,-1.574c0.828,-0.06 1.558,0.544 1.628,1.35" style="fill:#1e1c1a;fill-rule:nonzero;"/><path d="M630.028,411.778c0.07,0.806 -0.544,1.512 -1.374,1.574c-0.828,0.06 -1.558,-0.542 -1.628,-1.352c-0.07,-0.806 0.544,-1.512 1.374,-1.572c0.828,-0.062 1.558,0.544 1.628,1.35" style="fill:#1e1c1a;fill-rule:nonzero;"/><path d="M637.532,433.162c0.072,0.806 -0.544,1.512 -1.374,1.572c-0.828,0.062 -1.556,-0.542 -1.628,-1.35c-0.07,-0.806 0.544,-1.512 1.374,-1.572c0.828,-0.062 1.558,0.544 1.628,1.35" style="fill:#1e1c1a;fill-rule:nonzero;"/><path d="M631.935,433.578c0.072,0.806 -0.544,1.512 -1.374,1.572c-0.828,0.062 -1.556,-0.542 -1.628,-1.35c-0.07,-0.806 0.544,-1.512 1.374,-1.574c0.828,-0.06 1.558,0.544 1.628,1.352" style="fill:#1e1c1a;fill-rule:nonzero;"/><path d="M639.853,427.504c0.072,0.806 -0.544,1.512 -1.374,1.574c-0.828,0.06 -1.556,-0.542 -1.626,-1.352c-0.072,-0.806 0.542,-1.512 1.372,-1.572c0.828,-0.062 1.558,0.544 1.628,1.35" style="fill:#1e1c1a;fill-rule:nonzero;"/><path d="M634.256,427.92c0.072,0.806 -0.544,1.512 -1.374,1.572c-0.828,0.062 -1.556,-0.542 -1.626,-1.35c-0.072,-0.806 0.542,-1.512 1.372,-1.572c0.828,-0.062 1.558,0.544 1.628,1.35" style="fill:#1e1c1a;fill-rule:nonzero;"/><path d="M628.66,428.336c0.072,0.806 -0.544,1.512 -1.374,1.572c-0.828,0.062 -1.556,-0.542 -1.626,-1.35c-0.072,-0.806 0.542,-1.512 1.372,-1.574c0.828,-0.06 1.558,0.544 1.628,1.352" style="fill:#1e1c1a;fill-rule:nonzero;"/><path d="M636.579,422.262c0.07,0.806 -0.544,1.512 -1.374,1.574c-0.828,0.06 -1.558,-0.542 -1.628,-1.352c-0.072,-0.806 0.544,-1.512 1.374,-1.572c0.828,-0.062 1.556,0.544 1.628,1.35" style="fill:#1e1c1a;fill-rule:nonzero;"/><path d="M630.982,422.678c0.07,0.806 -0.544,1.512 -1.374,1.572c-0.828,0.062 -1.558,-0.542 -1.628,-1.35c-0.072,-0.806 0.544,-1.512 1.374,-1.572c0.828,-0.062 1.556,0.544 1.628,1.35" style="fill:#1e1c1a;fill-rule:nonzero;"/><path d="M638.486,444.063c0.07,0.806 -0.544,1.512 -1.374,1.572c-0.828,0.062 -1.558,-0.542 -1.628,-1.35c-0.07,-0.806 0.544,-1.512 1.374,-1.574c0.828,-0.06 1.558,0.544 1.628,1.352" style="fill:#1e1c1a;fill-rule:nonzero;"/><path d="M632.889,444.477c0.07,0.808 -0.544,1.512 -1.374,1.574c-0.828,0.06 -1.558,-0.542 -1.628,-1.35c-0.07,-0.808 0.544,-1.512 1.374,-1.574c0.828,-0.06 1.558,0.544 1.628,1.35" style="fill:#1e1c1a;fill-rule:nonzero;"/><path d="M640.807,438.405c0.07,0.806 -0.544,1.512 -1.374,1.572c-0.828,0.062 -1.556,-0.542 -1.628,-1.35c-0.07,-0.806 0.544,-1.512 1.374,-1.572c0.828,-0.062 1.558,0.544 1.628,1.35" style="fill:#1e1c1a;fill-rule:nonzero;"/><path d="M635.21,438.821c0.07,0.806 -0.544,1.512 -1.374,1.572c-0.828,0.062 -1.556,-0.542 -1.628,-1.35c-0.07,-0.806 0.544,-1.512 1.374,-1.574c0.828,-0.06 1.558,0.544 1.628,1.352" style="fill:#1e1c1a;fill-rule:nonzero;"/><path d="M629.614,439.235c0.07,0.808 -0.544,1.512 -1.374,1.574c-0.828,0.06 -1.556,-0.542 -1.628,-1.35c-0.07,-0.808 0.544,-1.512 1.374,-1.574c0.828,-0.06 1.558,0.544 1.628,1.35" style="fill:#1e1c1a;fill-rule:nonzero;"/><path d="M637.532,433.162c0.072,0.806 -0.544,1.512 -1.374,1.572c-0.828,0.062 -1.556,-0.542 -1.628,-1.35c-0.07,-0.806 0.544,-1.512 1.374,-1.572c0.828,-0.062 1.558,0.544 1.628,1.35" style="fill:#1e1c1a;fill-rule:nonzero;"/><path d="M631.935,433.578c0.072,0.806 -0.544,1.512 -1.374,1.572c-0.828,0.062 -1.556,-0.542 -1.628,-1.35c-0.07,-0.806 0.544,-1.512 1.374,-1.574c0.828,-0.06 1.558,0.544 1.628,1.352" style="fill:#1e1c1a;fill-rule:nonzero;"/><path d="M639.44,454.961c0.07,0.808 -0.544,1.512 -1.374,1.574c-0.828,0.06 -1.558,-0.542 -1.628,-1.35c-0.072,-0.808 0.544,-1.512 1.374,-1.574c0.828,-0.06 1.556,0.544 1.628,1.35" style="fill:#1e1c1a;fill-rule:nonzero;"/><path d="M633.843,455.377c0.07,0.808 -0.544,1.512 -1.374,1.574c-0.828,0.06 -1.558,-0.542 -1.628,-1.352c-0.072,-0.806 0.544,-1.512 1.374,-1.572c0.828,-0.062 1.556,0.544 1.628,1.35" style="fill:#1e1c1a;fill-rule:nonzero;"/><path d="M641.761,449.305c0.07,0.806 -0.544,1.512 -1.374,1.572c-0.828,0.062 -1.558,-0.542 -1.628,-1.35c-0.07,-0.806 0.544,-1.512 1.374,-1.574c0.828,-0.06 1.556,0.544 1.628,1.352" style="fill:#1e1c1a;fill-rule:nonzero;"/><path d="M636.164,449.719c0.07,0.808 -0.544,1.512 -1.374,1.574c-0.828,0.06 -1.558,-0.542 -1.628,-1.35c-0.07,-0.808 0.544,-1.512 1.374,-1.574c0.828,-0.06 1.556,0.544 1.628,1.35" style="fill:#1e1c1a;fill-rule:nonzero;"/><path d="M630.568,450.135c0.07,0.808 -0.544,1.512 -1.374,1.574c-0.828,0.06 -1.558,-0.542 -1.628,-1.352c-0.07,-0.806 0.544,-1.51 1.374,-1.572c0.828,-0.062 1.556,0.544 1.628,1.35" style="fill:#1e1c1a;fill-rule:nonzero;"/><path d="M638.486,444.063c0.07,0.806 -0.544,1.512 -1.374,1.572c-0.828,0.062 -1.558,-0.542 -1.628,-1.35c-0.07,-0.806 0.544,-1.512 1.374,-1.574c0.828,-0.06 1.558,0.544 1.628,1.352" style="fill:#1e1c1a;fill-rule:nonzero;"/><path d="M632.889,444.477c0.07,0.808 -0.544,1.512 -1.374,1.574c-0.828,0.06 -1.558,-0.542 -1.628,-1.35c-0.07,-0.808 0.544,-1.512 1.374,-1.574c0.828,-0.06 1.558,0.544 1.628,1.35" style="fill:#1e1c1a;fill-rule:nonzero;"/><path d="M639.44,454.961c0.07,0.808 -0.544,1.512 -1.374,1.574c-0.828,0.06 -1.558,-0.542 -1.628,-1.35c-0.072,-0.808 0.544,-1.512 1.374,-1.574c0.828,-0.06 1.556,0.544 1.628,1.35" style="fill:#1e1c1a;fill-rule:nonzero;"/><path d="M633.843,455.377c0.07,0.808 -0.544,1.512 -1.374,1.574c-0.828,0.06 -1.558,-0.542 -1.628,-1.352c-0.072,-0.806 0.544,-1.512 1.374,-1.572c0.828,-0.062 1.556,0.544 1.628,1.35" style="fill:#1e1c1a;fill-rule:nonzero;"/><path d="M624.431,412.194c0.07,0.806 -0.544,1.512 -1.374,1.572c-0.828,0.062 -1.558,-0.542 -1.628,-1.35c-0.07,-0.806 0.544,-1.512 1.374,-1.572c0.828,-0.062 1.558,0.544 1.628,1.35" style="fill:#1e1c1a;fill-rule:nonzero;"/><path d="M618.834,412.61c0.07,0.806 -0.544,1.512 -1.374,1.572c-0.828,0.062 -1.558,-0.542 -1.628,-1.35c-0.07,-0.806 0.544,-1.512 1.374,-1.572c0.828,-0.062 1.558,0.544 1.628,1.35" style="fill:#1e1c1a;fill-rule:nonzero;"/><path d="M625.385,423.094c0.07,0.806 -0.544,1.512 -1.374,1.572c-0.828,0.062 -1.558,-0.542 -1.628,-1.35c-0.072,-0.806 0.544,-1.512 1.374,-1.572c0.828,-0.062 1.556,0.542 1.628,1.35" style="fill:#1e1c1a;fill-rule:nonzero;"/><path d="M619.789,423.51c0.07,0.806 -0.544,1.51 -1.374,1.572c-0.828,0.06 -1.558,-0.542 -1.628,-1.35c-0.072,-0.808 0.544,-1.512 1.374,-1.574c0.828,-0.06 1.556,0.544 1.628,1.352" style="fill:#1e1c1a;fill-rule:nonzero;"/><path d="M627.706,417.436c0.07,0.806 -0.544,1.512 -1.374,1.572c-0.828,0.062 -1.558,-0.542 -1.628,-1.35c-0.07,-0.806 0.544,-1.512 1.374,-1.572c0.828,-0.062 1.556,0.544 1.628,1.35" style="fill:#1e1c1a;fill-rule:nonzero;"/><path d="M622.11,417.852c0.07,0.806 -0.544,1.512 -1.374,1.572c-0.828,0.062 -1.558,-0.542 -1.628,-1.35c-0.07,-0.806 0.544,-1.512 1.374,-1.572c0.828,-0.062 1.556,0.544 1.628,1.35" style="fill:#1e1c1a;fill-rule:nonzero;"/><path d="M616.513,418.268c0.07,0.806 -0.544,1.51 -1.374,1.572c-0.828,0.06 -1.558,-0.542 -1.628,-1.35c-0.07,-0.808 0.544,-1.512 1.374,-1.574c0.828,-0.06 1.556,0.544 1.628,1.352" style="fill:#1e1c1a;fill-rule:nonzero;"/><path d="M624.431,412.194c0.07,0.806 -0.544,1.512 -1.374,1.572c-0.828,0.062 -1.558,-0.542 -1.628,-1.35c-0.07,-0.806 0.544,-1.512 1.374,-1.572c0.828,-0.062 1.558,0.544 1.628,1.35" style="fill:#1e1c1a;fill-rule:nonzero;"/><path d="M618.834,412.61c0.07,0.806 -0.544,1.512 -1.374,1.572c-0.828,0.062 -1.558,-0.542 -1.628,-1.35c-0.07,-0.806 0.544,-1.512 1.374,-1.572c0.828,-0.062 1.558,0.544 1.628,1.35" style="fill:#1e1c1a;fill-rule:nonzero;"/><path d="M626.338,433.994c0.072,0.806 -0.544,1.51 -1.374,1.572c-0.828,0.06 -1.556,-0.542 -1.628,-1.35c-0.07,-0.808 0.544,-1.512 1.374,-1.574c0.828,-0.06 1.558,0.544 1.628,1.352" style="fill:#1e1c1a;fill-rule:nonzero;"/><path d="M620.742,434.409c0.072,0.808 -0.544,1.512 -1.374,1.574c-0.828,0.06 -1.556,-0.542 -1.628,-1.352c-0.07,-0.806 0.544,-1.51 1.374,-1.572c0.828,-0.06 1.558,0.544 1.628,1.35" style="fill:#1e1c1a;fill-rule:nonzero;"/><path d="M628.66,428.336c0.072,0.806 -0.544,1.512 -1.374,1.572c-0.828,0.062 -1.556,-0.542 -1.626,-1.35c-0.072,-0.806 0.542,-1.512 1.372,-1.574c0.828,-0.06 1.558,0.544 1.628,1.352" style="fill:#1e1c1a;fill-rule:nonzero;"/><path d="M623.063,428.752c0.072,0.806 -0.544,1.51 -1.374,1.572c-0.828,0.06 -1.556,-0.542 -1.626,-1.35c-0.072,-0.808 0.542,-1.512 1.372,-1.574c0.828,-0.06 1.558,0.544 1.628,1.352" style="fill:#1e1c1a;fill-rule:nonzero;"/><path d="M617.466,429.166c0.072,0.808 -0.544,1.512 -1.374,1.574c-0.828,0.06 -1.556,-0.542 -1.626,-1.352c-0.072,-0.806 0.542,-1.51 1.372,-1.572c0.828,-0.06 1.558,0.544 1.628,1.35" style="fill:#1e1c1a;fill-rule:nonzero;"/><path d="M625.385,423.094c0.07,0.806 -0.544,1.512 -1.374,1.572c-0.828,0.062 -1.558,-0.542 -1.628,-1.35c-0.072,-0.806 0.544,-1.512 1.374,-1.572c0.828,-0.062 1.556,0.542 1.628,1.35" style="fill:#1e1c1a;fill-rule:nonzero;"/><path d="M619.789,423.51c0.07,0.806 -0.544,1.51 -1.374,1.572c-0.828,0.06 -1.558,-0.542 -1.628,-1.35c-0.072,-0.808 0.544,-1.512 1.374,-1.574c0.828,-0.06 1.556,0.544 1.628,1.352" style="fill:#1e1c1a;fill-rule:nonzero;"/><path d="M627.292,444.893c0.07,0.808 -0.544,1.512 -1.374,1.574c-0.828,0.06 -1.558,-0.542 -1.628,-1.352c-0.07,-0.806 0.544,-1.51 1.374,-1.572c0.828,-0.06 1.558,0.544 1.628,1.35" style="fill:#1e1c1a;fill-rule:nonzero;"/><path d="M621.696,445.309c0.07,0.806 -0.544,1.512 -1.374,1.572c-0.828,0.062 -1.558,-0.542 -1.628,-1.35c-0.07,-0.806 0.544,-1.512 1.374,-1.572c0.828,-0.062 1.558,0.544 1.628,1.35" style="fill:#1e1c1a;fill-rule:nonzero;"/><path d="M629.614,439.235c0.07,0.808 -0.544,1.512 -1.374,1.574c-0.828,0.06 -1.556,-0.542 -1.628,-1.35c-0.07,-0.808 0.544,-1.512 1.374,-1.574c0.828,-0.06 1.558,0.544 1.628,1.35" style="fill:#1e1c1a;fill-rule:nonzero;"/><path d="M624.017,439.651c0.07,0.808 -0.544,1.512 -1.374,1.574c-0.828,0.06 -1.556,-0.542 -1.628,-1.352c-0.07,-0.806 0.544,-1.51 1.374,-1.572c0.828,-0.06 1.558,0.544 1.628,1.35" style="fill:#1e1c1a;fill-rule:nonzero;"/><path d="M618.42,440.067c0.07,0.806 -0.544,1.512 -1.374,1.572c-0.828,0.062 -1.556,-0.54 -1.628,-1.35c-0.07,-0.806 0.544,-1.512 1.374,-1.572c0.828,-0.062 1.558,0.544 1.628,1.35" style="fill:#1e1c1a;fill-rule:nonzero;"/><path d="M626.338,433.994c0.072,0.806 -0.544,1.51 -1.374,1.572c-0.828,0.06 -1.556,-0.542 -1.628,-1.35c-0.07,-0.808 0.544,-1.512 1.374,-1.574c0.828,-0.06 1.558,0.544 1.628,1.352" style="fill:#1e1c1a;fill-rule:nonzero;"/><path d="M620.742,434.409c0.072,0.808 -0.544,1.512 -1.374,1.574c-0.828,0.06 -1.556,-0.542 -1.628,-1.352c-0.07,-0.806 0.544,-1.51 1.374,-1.572c0.828,-0.06 1.558,0.544 1.628,1.35" style="fill:#1e1c1a;fill-rule:nonzero;"/><path d="M628.247,455.793c0.07,0.806 -0.544,1.512 -1.374,1.572c-0.828,0.062 -1.558,-0.542 -1.628,-1.35c-0.072,-0.806 0.544,-1.512 1.374,-1.572c0.828,-0.062 1.556,0.544 1.628,1.35" style="fill:#1e1c1a;fill-rule:nonzero;"/><path d="M622.65,456.209c0.07,0.806 -0.544,1.512 -1.374,1.572c-0.828,0.062 -1.558,-0.542 -1.628,-1.35c-0.072,-0.806 0.544,-1.512 1.374,-1.572c0.828,-0.062 1.556,0.544 1.628,1.35" style="fill:#1e1c1a;fill-rule:nonzero;"/><path d="M630.568,450.135c0.07,0.808 -0.544,1.512 -1.374,1.574c-0.828,0.06 -1.558,-0.542 -1.628,-1.352c-0.07,-0.806 0.544,-1.51 1.374,-1.572c0.828,-0.062 1.556,0.544 1.628,1.35" style="fill:#1e1c1a;fill-rule:nonzero;"/><path d="M624.971,450.551c0.07,0.806 -0.544,1.512 -1.374,1.572c-0.828,0.062 -1.558,-0.542 -1.628,-1.35c-0.07,-0.806 0.544,-1.512 1.374,-1.572c0.828,-0.062 1.556,0.544 1.628,1.35" style="fill:#1e1c1a;fill-rule:nonzero;"/><path d="M619.374,450.967c0.07,0.806 -0.544,1.512 -1.374,1.572c-0.828,0.062 -1.558,-0.542 -1.628,-1.35c-0.07,-0.806 0.544,-1.512 1.374,-1.572c0.828,-0.062 1.556,0.544 1.628,1.35" style="fill:#1e1c1a;fill-rule:nonzero;"/><path d="M627.292,444.893c0.07,0.808 -0.544,1.512 -1.374,1.574c-0.828,0.06 -1.558,-0.542 -1.628,-1.352c-0.07,-0.806 0.544,-1.51 1.374,-1.572c0.828,-0.06 1.558,0.544 1.628,1.35" style="fill:#1e1c1a;fill-rule:nonzero;"/><path d="M621.696,445.309c0.07,0.806 -0.544,1.512 -1.374,1.572c-0.828,0.062 -1.558,-0.542 -1.628,-1.35c-0.07,-0.806 0.544,-1.512 1.374,-1.572c0.828,-0.062 1.558,0.544 1.628,1.35" style="fill:#1e1c1a;fill-rule:nonzero;"/><path d="M628.247,455.793c0.07,0.806 -0.544,1.512 -1.374,1.572c-0.828,0.062 -1.558,-0.542 -1.628,-1.35c-0.072,-0.806 0.544,-1.512 1.374,-1.572c0.828,-0.062 1.556,0.544 1.628,1.35" style="fill:#1e1c1a;fill-rule:nonzero;"/><path d="M622.65,456.209c0.07,0.806 -0.544,1.512 -1.374,1.572c-0.828,0.062 -1.558,-0.542 -1.628,-1.35c-0.072,-0.806 0.544,-1.512 1.374,-1.572c0.828,-0.062 1.556,0.544 1.628,1.35" style="fill:#1e1c1a;fill-rule:nonzero;"/><path d="M613.238,413.026c0.07,0.806 -0.544,1.51 -1.374,1.572c-0.828,0.06 -1.558,-0.542 -1.628,-1.35c-0.07,-0.808 0.544,-1.512 1.374,-1.574c0.828,-0.06 1.558,0.544 1.628,1.352" style="fill:#1e1c1a;fill-rule:nonzero;"/><path d="M607.641,413.44c0.07,0.808 -0.544,1.512 -1.374,1.574c-0.828,0.06 -1.558,-0.542 -1.628,-1.35c-0.07,-0.808 0.544,-1.512 1.374,-1.574c0.828,-0.06 1.558,0.544 1.628,1.35" style="fill:#1e1c1a;fill-rule:nonzero;"/><path d="M609.962,407.784c0.07,0.806 -0.544,1.51 -1.374,1.572c-0.828,0.062 -1.556,-0.542 -1.628,-1.35c-0.07,-0.808 0.544,-1.512 1.374,-1.574c0.828,-0.06 1.558,0.544 1.628,1.352" style="fill:#1e1c1a;fill-rule:nonzero;"/><path d="M604.366,408.198c0.07,0.808 -0.544,1.512 -1.374,1.574c-0.828,0.06 -1.558,-0.542 -1.628,-1.35c-0.07,-0.808 0.544,-1.512 1.374,-1.574c0.828,-0.06 1.558,0.544 1.628,1.35" style="fill:#1e1c1a;fill-rule:nonzero;"/><path d="M614.192,423.924c0.07,0.808 -0.544,1.512 -1.374,1.574c-0.828,0.06 -1.558,-0.542 -1.628,-1.352c-0.072,-0.806 0.544,-1.51 1.374,-1.572c0.828,-0.06 1.556,0.544 1.628,1.35" style="fill:#1e1c1a;fill-rule:nonzero;"/><path d="M608.595,424.34c0.07,0.806 -0.544,1.512 -1.374,1.574c-0.828,0.06 -1.558,-0.542 -1.628,-1.352c-0.072,-0.806 0.544,-1.512 1.374,-1.572c0.828,-0.062 1.556,0.544 1.628,1.35" style="fill:#1e1c1a;fill-rule:nonzero;"/><path d="M616.513,418.268c0.07,0.806 -0.544,1.51 -1.374,1.572c-0.828,0.06 -1.558,-0.542 -1.628,-1.35c-0.07,-0.808 0.544,-1.512 1.374,-1.574c0.828,-0.06 1.556,0.544 1.628,1.352" style="fill:#1e1c1a;fill-rule:nonzero;"/><path d="M610.916,418.682c0.07,0.808 -0.544,1.512 -1.374,1.574c-0.828,0.06 -1.558,-0.542 -1.628,-1.35c-0.07,-0.808 0.544,-1.512 1.374,-1.574c0.828,-0.06 1.556,0.544 1.628,1.35" style="fill:#1e1c1a;fill-rule:nonzero;"/><path d="M605.32,419.098c0.07,0.806 -0.544,1.512 -1.374,1.574c-0.828,0.06 -1.558,-0.542 -1.628,-1.352c-0.07,-0.806 0.544,-1.512 1.374,-1.572c0.828,-0.062 1.556,0.544 1.628,1.35" style="fill:#1e1c1a;fill-rule:nonzero;"/><path d="M613.238,413.026c0.07,0.806 -0.544,1.51 -1.374,1.572c-0.828,0.06 -1.558,-0.542 -1.628,-1.35c-0.07,-0.808 0.544,-1.512 1.374,-1.574c0.828,-0.06 1.558,0.544 1.628,1.352" style="fill:#1e1c1a;fill-rule:nonzero;"/><path d="M607.641,413.44c0.07,0.808 -0.544,1.512 -1.374,1.574c-0.828,0.06 -1.558,-0.542 -1.628,-1.35c-0.07,-0.808 0.544,-1.512 1.374,-1.574c0.828,-0.06 1.558,0.544 1.628,1.35" style="fill:#1e1c1a;fill-rule:nonzero;"/><path d="M615.145,434.825c0.072,0.806 -0.544,1.512 -1.374,1.572c-0.828,0.062 -1.556,-0.54 -1.628,-1.35c-0.07,-0.806 0.544,-1.512 1.374,-1.572c0.828,-0.062 1.558,0.544 1.628,1.35" style="fill:#1e1c1a;fill-rule:nonzero;"/><path d="M609.548,435.241c0.072,0.806 -0.544,1.512 -1.374,1.572c-0.828,0.062 -1.556,-0.542 -1.628,-1.35c-0.07,-0.806 0.544,-1.512 1.374,-1.572c0.828,-0.062 1.558,0.544 1.628,1.35" style="fill:#1e1c1a;fill-rule:nonzero;"/><path d="M617.466,429.166c0.072,0.808 -0.544,1.512 -1.374,1.574c-0.828,0.06 -1.556,-0.542 -1.626,-1.352c-0.072,-0.806 0.542,-1.51 1.372,-1.572c0.828,-0.06 1.558,0.544 1.628,1.35" style="fill:#1e1c1a;fill-rule:nonzero;"/><path d="M611.87,429.582c0.072,0.806 -0.544,1.512 -1.374,1.574c-0.828,0.06 -1.556,-0.542 -1.626,-1.352c-0.072,-0.806 0.542,-1.512 1.372,-1.572c0.828,-0.062 1.558,0.544 1.628,1.35" style="fill:#1e1c1a;fill-rule:nonzero;"/><path d="M606.273,429.998c0.072,0.806 -0.544,1.512 -1.374,1.572c-0.828,0.062 -1.556,-0.542 -1.626,-1.35c-0.072,-0.806 0.542,-1.512 1.372,-1.572c0.828,-0.062 1.558,0.544 1.628,1.35" style="fill:#1e1c1a;fill-rule:nonzero;"/><path d="M614.192,423.924c0.07,0.808 -0.544,1.512 -1.374,1.574c-0.828,0.06 -1.558,-0.542 -1.628,-1.352c-0.072,-0.806 0.544,-1.51 1.374,-1.572c0.828,-0.06 1.556,0.544 1.628,1.35" style="fill:#1e1c1a;fill-rule:nonzero;"/><path d="M608.595,424.34c0.07,0.806 -0.544,1.512 -1.374,1.574c-0.828,0.06 -1.558,-0.542 -1.628,-1.352c-0.072,-0.806 0.544,-1.512 1.374,-1.572c0.828,-0.062 1.556,0.544 1.628,1.35" style="fill:#1e1c1a;fill-rule:nonzero;"/><path d="M616.099,445.725c0.07,0.806 -0.544,1.512 -1.374,1.572c-0.828,0.062 -1.558,-0.542 -1.628,-1.35c-0.07,-0.806 0.544,-1.512 1.374,-1.572c0.828,-0.062 1.558,0.544 1.628,1.35" style="fill:#1e1c1a;fill-rule:nonzero;"/><path d="M610.502,446.141c0.07,0.806 -0.544,1.512 -1.374,1.572c-0.828,0.062 -1.558,-0.542 -1.628,-1.35c-0.07,-0.806 0.544,-1.512 1.374,-1.574c0.828,-0.06 1.558,0.544 1.628,1.352" style="fill:#1e1c1a;fill-rule:nonzero;"/><path d="M618.42,440.067c0.07,0.806 -0.544,1.512 -1.374,1.572c-0.828,0.062 -1.556,-0.54 -1.628,-1.35c-0.07,-0.806 0.544,-1.512 1.374,-1.572c0.828,-0.062 1.558,0.544 1.628,1.35" style="fill:#1e1c1a;fill-rule:nonzero;"/><path d="M612.824,440.483c0.07,0.806 -0.544,1.512 -1.374,1.572c-0.828,0.062 -1.556,-0.542 -1.628,-1.35c-0.07,-0.806 0.544,-1.512 1.374,-1.572c0.828,-0.062 1.558,0.544 1.628,1.35" style="fill:#1e1c1a;fill-rule:nonzero;"/><path d="M607.227,440.899c0.07,0.806 -0.544,1.512 -1.374,1.572c-0.828,0.062 -1.556,-0.542 -1.628,-1.35c-0.07,-0.806 0.544,-1.512 1.374,-1.574c0.828,-0.06 1.558,0.544 1.628,1.352" style="fill:#1e1c1a;fill-rule:nonzero;"/><path d="M615.145,434.825c0.072,0.806 -0.544,1.512 -1.374,1.572c-0.828,0.062 -1.556,-0.54 -1.628,-1.35c-0.07,-0.806 0.544,-1.512 1.374,-1.572c0.828,-0.062 1.558,0.544 1.628,1.35" style="fill:#1e1c1a;fill-rule:nonzero;"/><path d="M609.548,435.241c0.072,0.806 -0.544,1.512 -1.374,1.572c-0.828,0.062 -1.556,-0.542 -1.628,-1.35c-0.07,-0.806 0.544,-1.512 1.374,-1.572c0.828,-0.062 1.558,0.544 1.628,1.35" style="fill:#1e1c1a;fill-rule:nonzero;"/><path d="M617.053,456.625c0.07,0.806 -0.544,1.51 -1.374,1.572c-0.828,0.062 -1.558,-0.542 -1.628,-1.35c-0.072,-0.808 0.544,-1.512 1.374,-1.574c0.828,-0.06 1.556,0.544 1.628,1.352" style="fill:#1e1c1a;fill-rule:nonzero;"/><path d="M611.456,457.039c0.07,0.808 -0.544,1.512 -1.374,1.574c-0.828,0.06 -1.558,-0.542 -1.628,-1.35c-0.072,-0.808 0.544,-1.512 1.374,-1.574c0.828,-0.06 1.556,0.544 1.628,1.35" style="fill:#1e1c1a;fill-rule:nonzero;"/><path d="M619.374,450.967c0.07,0.806 -0.544,1.512 -1.374,1.572c-0.828,0.062 -1.558,-0.542 -1.628,-1.35c-0.07,-0.806 0.544,-1.512 1.374,-1.572c0.828,-0.062 1.556,0.544 1.628,1.35" style="fill:#1e1c1a;fill-rule:nonzero;"/><path d="M613.778,451.383c0.07,0.806 -0.544,1.51 -1.374,1.572c-0.828,0.062 -1.558,-0.542 -1.628,-1.35c-0.07,-0.808 0.544,-1.512 1.374,-1.574c0.828,-0.06 1.556,0.544 1.628,1.352" style="fill:#1e1c1a;fill-rule:nonzero;"/><path d="M608.181,451.797c0.07,0.808 -0.544,1.512 -1.374,1.574c-0.828,0.06 -1.558,-0.542 -1.628,-1.35c-0.07,-0.808 0.544,-1.512 1.374,-1.574c0.828,-0.06 1.556,0.544 1.628,1.35" style="fill:#1e1c1a;fill-rule:nonzero;"/><path d="M616.099,445.725c0.07,0.806 -0.544,1.512 -1.374,1.572c-0.828,0.062 -1.558,-0.542 -1.628,-1.35c-0.07,-0.806 0.544,-1.512 1.374,-1.572c0.828,-0.062 1.558,0.544 1.628,1.35" style="fill:#1e1c1a;fill-rule:nonzero;"/><path d="M610.502,446.141c0.07,0.806 -0.544,1.512 -1.374,1.572c-0.828,0.062 -1.558,-0.542 -1.628,-1.35c-0.07,-0.806 0.544,-1.512 1.374,-1.574c0.828,-0.06 1.558,0.544 1.628,1.352" style="fill:#1e1c1a;fill-rule:nonzero;"/><path d="M617.053,456.625c0.07,0.806 -0.544,1.51 -1.374,1.572c-0.828,0.062 -1.558,-0.542 -1.628,-1.35c-0.072,-0.808 0.544,-1.512 1.374,-1.574c0.828,-0.06 1.556,0.544 1.628,1.352" style="fill:#1e1c1a;fill-rule:nonzero;"/><path d="M611.456,457.039c0.07,0.808 -0.544,1.512 -1.374,1.574c-0.828,0.06 -1.558,-0.542 -1.628,-1.35c-0.072,-0.808 0.544,-1.512 1.374,-1.574c0.828,-0.06 1.556,0.544 1.628,1.35" style="fill:#1e1c1a;fill-rule:nonzero;"/><path d="M602.044,413.856c0.07,0.806 -0.544,1.512 -1.374,1.574c-0.828,0.06 -1.558,-0.542 -1.628,-1.352c-0.07,-0.806 0.544,-1.512 1.374,-1.572c0.828,-0.062 1.556,0.544 1.628,1.35" style="fill:#1e1c1a;fill-rule:nonzero;"/><path d="M596.448,414.272c0.07,0.806 -0.544,1.512 -1.374,1.572c-0.828,0.062 -1.558,-0.542 -1.628,-1.35c-0.07,-0.806 0.544,-1.512 1.374,-1.572c0.828,-0.062 1.556,0.544 1.628,1.35" style="fill:#1e1c1a;fill-rule:nonzero;"/><path d="M604.366,408.198c0.07,0.808 -0.544,1.512 -1.374,1.574c-0.828,0.06 -1.558,-0.542 -1.628,-1.35c-0.07,-0.808 0.544,-1.512 1.374,-1.574c0.828,-0.06 1.558,0.544 1.628,1.35" style="fill:#1e1c1a;fill-rule:nonzero;"/><path d="M598.769,408.614c0.07,0.808 -0.544,1.512 -1.374,1.574c-0.828,0.06 -1.558,-0.542 -1.628,-1.352c-0.07,-0.806 0.544,-1.51 1.374,-1.572c0.828,-0.062 1.558,0.544 1.628,1.35" style="fill:#1e1c1a;fill-rule:nonzero;"/><path d="M593.172,409.03c0.07,0.806 -0.544,1.512 -1.374,1.572c-0.828,0.062 -1.558,-0.542 -1.628,-1.35c-0.07,-0.806 0.544,-1.512 1.374,-1.572c0.828,-0.062 1.558,0.544 1.628,1.35" style="fill:#1e1c1a;fill-rule:nonzero;"/><path d="M602.997,424.756c0.072,0.806 -0.544,1.512 -1.372,1.572c-0.83,0.062 -1.558,-0.542 -1.628,-1.35c-0.072,-0.806 0.542,-1.512 1.372,-1.572c0.828,-0.062 1.558,0.544 1.628,1.35" style="fill:#1e1c1a;fill-rule:nonzero;"/><path d="M597.401,425.172c0.072,0.806 -0.544,1.512 -1.372,1.572c-0.83,0.062 -1.558,-0.542 -1.628,-1.35c-0.072,-0.806 0.542,-1.512 1.372,-1.572c0.828,-0.062 1.558,0.542 1.628,1.35" style="fill:#1e1c1a;fill-rule:nonzero;"/><path d="M605.32,419.098c0.07,0.806 -0.544,1.512 -1.374,1.574c-0.828,0.06 -1.558,-0.542 -1.628,-1.352c-0.07,-0.806 0.544,-1.512 1.374,-1.572c0.828,-0.062 1.556,0.544 1.628,1.35" style="fill:#1e1c1a;fill-rule:nonzero;"/><path d="M599.723,419.514c0.07,0.806 -0.544,1.512 -1.374,1.572c-0.828,0.062 -1.558,-0.542 -1.628,-1.35c-0.072,-0.806 0.544,-1.512 1.374,-1.572c0.828,-0.062 1.556,0.544 1.628,1.35" style="fill:#1e1c1a;fill-rule:nonzero;"/><path d="M594.126,419.93c0.07,0.806 -0.544,1.512 -1.374,1.572c-0.828,0.062 -1.558,-0.542 -1.628,-1.35c-0.072,-0.806 0.544,-1.512 1.374,-1.572c0.828,-0.062 1.556,0.542 1.628,1.35" style="fill:#1e1c1a;fill-rule:nonzero;"/><path d="M602.044,413.856c0.07,0.806 -0.544,1.512 -1.374,1.574c-0.828,0.06 -1.558,-0.542 -1.628,-1.352c-0.07,-0.806 0.544,-1.512 1.374,-1.572c0.828,-0.062 1.556,0.544 1.628,1.35" style="fill:#1e1c1a;fill-rule:nonzero;"/><path d="M596.448,414.272c0.07,0.806 -0.544,1.512 -1.374,1.572c-0.828,0.062 -1.558,-0.542 -1.628,-1.35c-0.07,-0.806 0.544,-1.512 1.374,-1.572c0.828,-0.062 1.556,0.544 1.628,1.35" style="fill:#1e1c1a;fill-rule:nonzero;"/><path d="M603.952,435.657c0.07,0.806 -0.544,1.512 -1.374,1.572c-0.828,0.062 -1.556,-0.542 -1.628,-1.35c-0.07,-0.806 0.544,-1.512 1.374,-1.574c0.828,-0.06 1.558,0.544 1.628,1.352" style="fill:#1e1c1a;fill-rule:nonzero;"/><path d="M598.355,436.073c0.07,0.806 -0.544,1.51 -1.374,1.572c-0.828,0.06 -1.556,-0.542 -1.628,-1.35c-0.07,-0.808 0.544,-1.512 1.374,-1.574c0.828,-0.06 1.558,0.544 1.628,1.352" style="fill:#1e1c1a;fill-rule:nonzero;"/><path d="M606.273,429.998c0.072,0.806 -0.544,1.512 -1.374,1.572c-0.828,0.062 -1.556,-0.542 -1.626,-1.35c-0.072,-0.806 0.542,-1.512 1.372,-1.572c0.828,-0.062 1.558,0.544 1.628,1.35" style="fill:#1e1c1a;fill-rule:nonzero;"/><path d="M600.676,430.414c0.072,0.806 -0.544,1.512 -1.374,1.572c-0.828,0.062 -1.556,-0.542 -1.628,-1.35c-0.07,-0.806 0.544,-1.512 1.374,-1.574c0.828,-0.06 1.558,0.544 1.628,1.352" style="fill:#1e1c1a;fill-rule:nonzero;"/><path d="M595.08,430.83c0.072,0.806 -0.544,1.51 -1.374,1.572c-0.828,0.06 -1.556,-0.542 -1.628,-1.35c-0.07,-0.808 0.544,-1.512 1.374,-1.574c0.828,-0.06 1.558,0.544 1.628,1.352" style="fill:#1e1c1a;fill-rule:nonzero;"/><path d="M602.997,424.756c0.072,0.806 -0.544,1.512 -1.372,1.572c-0.83,0.062 -1.558,-0.542 -1.628,-1.35c-0.072,-0.806 0.542,-1.512 1.372,-1.572c0.828,-0.062 1.558,0.544 1.628,1.35" style="fill:#1e1c1a;fill-rule:nonzero;"/><path d="M597.401,425.172c0.072,0.806 -0.544,1.512 -1.372,1.572c-0.83,0.062 -1.558,-0.542 -1.628,-1.35c-0.072,-0.806 0.542,-1.512 1.372,-1.572c0.828,-0.062 1.558,0.542 1.628,1.35" style="fill:#1e1c1a;fill-rule:nonzero;"/><path d="M604.906,446.555c0.07,0.808 -0.544,1.512 -1.374,1.574c-0.828,0.06 -1.558,-0.542 -1.628,-1.35c-0.07,-0.808 0.544,-1.512 1.374,-1.574c0.828,-0.06 1.558,0.544 1.628,1.35" style="fill:#1e1c1a;fill-rule:nonzero;"/><path d="M599.309,446.971c0.07,0.808 -0.544,1.512 -1.374,1.574c-0.828,0.06 -1.558,-0.542 -1.628,-1.352c-0.07,-0.806 0.544,-1.51 1.374,-1.572c0.828,-0.062 1.556,0.544 1.628,1.35" style="fill:#1e1c1a;fill-rule:nonzero;"/><path d="M607.227,440.899c0.07,0.806 -0.544,1.512 -1.374,1.572c-0.828,0.062 -1.556,-0.542 -1.628,-1.35c-0.07,-0.806 0.544,-1.512 1.374,-1.574c0.828,-0.06 1.558,0.544 1.628,1.352" style="fill:#1e1c1a;fill-rule:nonzero;"/><path d="M601.63,441.313c0.07,0.808 -0.544,1.512 -1.374,1.574c-0.828,0.06 -1.558,-0.542 -1.628,-1.35c-0.07,-0.808 0.544,-1.512 1.374,-1.574c0.828,-0.06 1.558,0.544 1.628,1.35" style="fill:#1e1c1a;fill-rule:nonzero;"/><path d="M596.034,441.729c0.07,0.808 -0.544,1.512 -1.374,1.574c-0.828,0.06 -1.558,-0.542 -1.628,-1.352c-0.07,-0.806 0.544,-1.51 1.374,-1.572c0.828,-0.06 1.558,0.544 1.628,1.35" style="fill:#1e1c1a;fill-rule:nonzero;"/><path d="M603.952,435.657c0.07,0.806 -0.544,1.512 -1.374,1.572c-0.828,0.062 -1.556,-0.542 -1.628,-1.35c-0.07,-0.806 0.544,-1.512 1.374,-1.574c0.828,-0.06 1.558,0.544 1.628,1.352" style="fill:#1e1c1a;fill-rule:nonzero;"/><path d="M598.355,436.073c0.07,0.806 -0.544,1.51 -1.374,1.572c-0.828,0.06 -1.556,-0.542 -1.628,-1.35c-0.07,-0.808 0.544,-1.512 1.374,-1.574c0.828,-0.06 1.558,0.544 1.628,1.352" style="fill:#1e1c1a;fill-rule:nonzero;"/><path d="M605.86,457.455c0.07,0.806 -0.544,1.512 -1.374,1.574c-0.828,0.06 -1.558,-0.542 -1.628,-1.352c-0.072,-0.806 0.544,-1.512 1.374,-1.572c0.828,-0.062 1.556,0.544 1.628,1.35" style="fill:#1e1c1a;fill-rule:nonzero;"/><path d="M600.262,457.871c0.072,0.806 -0.544,1.512 -1.372,1.572c-0.83,0.062 -1.558,-0.542 -1.628,-1.35c-0.072,-0.806 0.542,-1.512 1.372,-1.572c0.828,-0.062 1.558,0.544 1.628,1.35" style="fill:#1e1c1a;fill-rule:nonzero;"/><path d="M608.181,451.797c0.07,0.808 -0.544,1.512 -1.374,1.574c-0.828,0.06 -1.558,-0.542 -1.628,-1.35c-0.07,-0.808 0.544,-1.512 1.374,-1.574c0.828,-0.06 1.556,0.544 1.628,1.35" style="fill:#1e1c1a;fill-rule:nonzero;"/><path d="M602.584,452.213c0.07,0.808 -0.544,1.512 -1.374,1.574c-0.828,0.06 -1.558,-0.542 -1.628,-1.352c-0.07,-0.806 0.544,-1.51 1.374,-1.572c0.828,-0.062 1.556,0.544 1.628,1.35" style="fill:#1e1c1a;fill-rule:nonzero;"/><path d="M596.988,452.629c0.07,0.806 -0.544,1.512 -1.374,1.572c-0.828,0.062 -1.558,-0.542 -1.628,-1.35c-0.072,-0.806 0.544,-1.512 1.374,-1.572c0.828,-0.062 1.556,0.544 1.628,1.35" style="fill:#1e1c1a;fill-rule:nonzero;"/><path d="M604.906,446.555c0.07,0.808 -0.544,1.512 -1.374,1.574c-0.828,0.06 -1.558,-0.542 -1.628,-1.35c-0.07,-0.808 0.544,-1.512 1.374,-1.574c0.828,-0.06 1.558,0.544 1.628,1.35" style="fill:#1e1c1a;fill-rule:nonzero;"/><path d="M599.309,446.971c0.07,0.808 -0.544,1.512 -1.374,1.574c-0.828,0.06 -1.558,-0.542 -1.628,-1.352c-0.07,-0.806 0.544,-1.51 1.374,-1.572c0.828,-0.062 1.556,0.544 1.628,1.35" style="fill:#1e1c1a;fill-rule:nonzero;"/><path d="M605.86,457.455c0.07,0.806 -0.544,1.512 -1.374,1.574c-0.828,0.06 -1.558,-0.542 -1.628,-1.352c-0.072,-0.806 0.544,-1.512 1.374,-1.572c0.828,-0.062 1.556,0.544 1.628,1.35" style="fill:#1e1c1a;fill-rule:nonzero;"/><path d="M600.262,457.871c0.072,0.806 -0.544,1.512 -1.372,1.572c-0.83,0.062 -1.558,-0.542 -1.628,-1.35c-0.072,-0.806 0.542,-1.512 1.372,-1.572c0.828,-0.062 1.558,0.544 1.628,1.35" style="fill:#1e1c1a;fill-rule:nonzero;"/><path d="M590.851,414.688c0.07,0.806 -0.544,1.512 -1.374,1.572c-0.828,0.062 -1.558,-0.542 -1.628,-1.35c-0.07,-0.806 0.544,-1.512 1.374,-1.572c0.828,-0.062 1.556,0.544 1.628,1.35" style="fill:#1e1c1a;fill-rule:nonzero;"/><path d="M585.254,415.104c0.07,0.806 -0.544,1.51 -1.374,1.572c-0.828,0.06 -1.558,-0.542 -1.628,-1.35c-0.07,-0.808 0.544,-1.512 1.374,-1.574c0.828,-0.06 1.556,0.544 1.628,1.352" style="fill:#1e1c1a;fill-rule:nonzero;"/><path d="M593.172,409.03c0.07,0.806 -0.544,1.512 -1.374,1.572c-0.828,0.062 -1.558,-0.542 -1.628,-1.35c-0.07,-0.806 0.544,-1.512 1.374,-1.572c0.828,-0.062 1.558,0.544 1.628,1.35" style="fill:#1e1c1a;fill-rule:nonzero;"/><path d="M587.576,409.446c0.07,0.806 -0.544,1.512 -1.374,1.572c-0.828,0.062 -1.558,-0.542 -1.628,-1.35c-0.07,-0.806 0.544,-1.512 1.374,-1.572c0.828,-0.062 1.558,0.544 1.628,1.35" style="fill:#1e1c1a;fill-rule:nonzero;"/><path d="M581.979,409.862c0.07,0.806 -0.544,1.51 -1.374,1.572c-0.828,0.062 -1.558,-0.542 -1.628,-1.35c-0.07,-0.808 0.544,-1.512 1.374,-1.574c0.828,-0.06 1.558,0.544 1.628,1.352" style="fill:#1e1c1a;fill-rule:nonzero;"/><path d="M591.804,425.588c0.072,0.806 -0.544,1.51 -1.374,1.572c-0.828,0.06 -1.556,-0.542 -1.626,-1.35c-0.072,-0.808 0.542,-1.512 1.372,-1.574c0.828,-0.06 1.558,0.544 1.628,1.352" style="fill:#1e1c1a;fill-rule:nonzero;"/><path d="M586.207,426.002c0.072,0.808 -0.544,1.512 -1.374,1.574c-0.828,0.06 -1.556,-0.542 -1.626,-1.352c-0.072,-0.806 0.542,-1.51 1.372,-1.572c0.828,-0.06 1.558,0.544 1.628,1.35" style="fill:#1e1c1a;fill-rule:nonzero;"/><path d="M594.126,419.93c0.07,0.806 -0.544,1.512 -1.374,1.572c-0.828,0.062 -1.558,-0.542 -1.628,-1.35c-0.072,-0.806 0.544,-1.512 1.374,-1.572c0.828,-0.062 1.556,0.542 1.628,1.35" style="fill:#1e1c1a;fill-rule:nonzero;"/><path d="M588.53,420.346c0.07,0.806 -0.544,1.51 -1.374,1.572c-0.828,0.06 -1.558,-0.542 -1.628,-1.35c-0.072,-0.808 0.544,-1.512 1.374,-1.574c0.828,-0.06 1.556,0.544 1.628,1.352" style="fill:#1e1c1a;fill-rule:nonzero;"/><path d="M582.933,420.76c0.07,0.808 -0.544,1.512 -1.374,1.574c-0.828,0.06 -1.558,-0.542 -1.628,-1.35c-0.072,-0.808 0.544,-1.512 1.374,-1.574c0.828,-0.06 1.556,0.544 1.628,1.35" style="fill:#1e1c1a;fill-rule:nonzero;"/><path d="M590.851,414.688c0.07,0.806 -0.544,1.512 -1.374,1.572c-0.828,0.062 -1.558,-0.542 -1.628,-1.35c-0.07,-0.806 0.544,-1.512 1.374,-1.572c0.828,-0.062 1.556,0.544 1.628,1.35" style="fill:#1e1c1a;fill-rule:nonzero;"/><path d="M585.254,415.104c0.07,0.806 -0.544,1.51 -1.374,1.572c-0.828,0.06 -1.558,-0.542 -1.628,-1.35c-0.07,-0.808 0.544,-1.512 1.374,-1.574c0.828,-0.06 1.556,0.544 1.628,1.352" style="fill:#1e1c1a;fill-rule:nonzero;"/><path d="M592.758,436.487c0.07,0.808 -0.544,1.512 -1.374,1.574c-0.828,0.06 -1.556,-0.542 -1.628,-1.352c-0.07,-0.806 0.544,-1.51 1.374,-1.572c0.828,-0.06 1.558,0.544 1.628,1.35" style="fill:#1e1c1a;fill-rule:nonzero;"/><path d="M587.162,436.903c0.07,0.806 -0.544,1.512 -1.374,1.572c-0.828,0.062 -1.556,-0.54 -1.628,-1.35c-0.07,-0.806 0.544,-1.512 1.374,-1.572c0.828,-0.062 1.558,0.544 1.628,1.35" style="fill:#1e1c1a;fill-rule:nonzero;"/><path d="M595.08,430.83c0.072,0.806 -0.544,1.51 -1.374,1.572c-0.828,0.06 -1.556,-0.542 -1.628,-1.35c-0.07,-0.808 0.544,-1.512 1.374,-1.574c0.828,-0.06 1.558,0.544 1.628,1.352" style="fill:#1e1c1a;fill-rule:nonzero;"/><path d="M589.483,431.244c0.072,0.808 -0.544,1.512 -1.374,1.574c-0.828,0.06 -1.556,-0.542 -1.628,-1.352c-0.07,-0.806 0.544,-1.51 1.374,-1.572c0.828,-0.06 1.558,0.544 1.628,1.35" style="fill:#1e1c1a;fill-rule:nonzero;"/><path d="M583.886,431.66c0.072,0.806 -0.544,1.512 -1.374,1.572c-0.828,0.062 -1.556,-0.54 -1.628,-1.35c-0.07,-0.806 0.544,-1.512 1.374,-1.572c0.828,-0.062 1.558,0.544 1.628,1.35" style="fill:#1e1c1a;fill-rule:nonzero;"/><path d="M591.804,425.588c0.072,0.806 -0.544,1.51 -1.374,1.572c-0.828,0.06 -1.556,-0.542 -1.626,-1.35c-0.072,-0.808 0.542,-1.512 1.372,-1.574c0.828,-0.06 1.558,0.544 1.628,1.352" style="fill:#1e1c1a;fill-rule:nonzero;"/><path d="M586.207,426.002c0.072,0.808 -0.544,1.512 -1.374,1.574c-0.828,0.06 -1.556,-0.542 -1.626,-1.352c-0.072,-0.806 0.542,-1.51 1.372,-1.572c0.828,-0.06 1.558,0.544 1.628,1.35" style="fill:#1e1c1a;fill-rule:nonzero;"/><path d="M593.712,447.387c0.07,0.806 -0.544,1.512 -1.374,1.572c-0.828,0.062 -1.558,-0.542 -1.628,-1.35c-0.07,-0.806 0.544,-1.512 1.374,-1.572c0.828,-0.062 1.556,0.544 1.628,1.35" style="fill:#1e1c1a;fill-rule:nonzero;"/><path d="M588.116,447.803c0.07,0.806 -0.544,1.512 -1.374,1.572c-0.828,0.062 -1.558,-0.542 -1.628,-1.35c-0.07,-0.806 0.544,-1.512 1.374,-1.572c0.828,-0.062 1.556,0.544 1.628,1.35" style="fill:#1e1c1a;fill-rule:nonzero;"/><path d="M596.034,441.729c0.07,0.808 -0.544,1.512 -1.374,1.574c-0.828,0.06 -1.558,-0.542 -1.628,-1.352c-0.07,-0.806 0.544,-1.51 1.374,-1.572c0.828,-0.06 1.558,0.544 1.628,1.35" style="fill:#1e1c1a;fill-rule:nonzero;"/><path d="M590.437,442.145c0.07,0.806 -0.544,1.512 -1.374,1.572c-0.828,0.062 -1.558,-0.542 -1.628,-1.35c-0.07,-0.806 0.544,-1.512 1.374,-1.572c0.828,-0.062 1.558,0.544 1.628,1.35" style="fill:#1e1c1a;fill-rule:nonzero;"/><path d="M584.84,442.561c0.07,0.806 -0.544,1.512 -1.374,1.572c-0.828,0.062 -1.558,-0.542 -1.628,-1.35c-0.07,-0.806 0.544,-1.512 1.374,-1.572c0.828,-0.062 1.558,0.544 1.628,1.35" style="fill:#1e1c1a;fill-rule:nonzero;"/><path d="M592.758,436.487c0.07,0.808 -0.544,1.512 -1.374,1.574c-0.828,0.06 -1.556,-0.542 -1.628,-1.352c-0.07,-0.806 0.544,-1.51 1.374,-1.572c0.828,-0.06 1.558,0.544 1.628,1.35" style="fill:#1e1c1a;fill-rule:nonzero;"/><path d="M587.162,436.903c0.07,0.806 -0.544,1.512 -1.374,1.572c-0.828,0.062 -1.556,-0.54 -1.628,-1.35c-0.07,-0.806 0.544,-1.512 1.374,-1.572c0.828,-0.062 1.558,0.544 1.628,1.35" style="fill:#1e1c1a;fill-rule:nonzero;"/><path d="M594.665,458.287c0.072,0.806 -0.544,1.512 -1.372,1.572c-0.83,0.062 -1.558,-0.542 -1.628,-1.35c-0.072,-0.806 0.542,-1.512 1.372,-1.572c0.828,-0.062 1.558,0.544 1.628,1.35" style="fill:#1e1c1a;fill-rule:nonzero;"/><path d="M589.069,458.703c0.072,0.806 -0.544,1.51 -1.374,1.572c-0.828,0.06 -1.556,-0.542 -1.626,-1.35c-0.072,-0.808 0.542,-1.512 1.372,-1.574c0.828,-0.06 1.558,0.544 1.628,1.352" style="fill:#1e1c1a;fill-rule:nonzero;"/><path d="M596.988,452.629c0.07,0.806 -0.544,1.512 -1.374,1.572c-0.828,0.062 -1.558,-0.542 -1.628,-1.35c-0.072,-0.806 0.544,-1.512 1.374,-1.572c0.828,-0.062 1.556,0.544 1.628,1.35" style="fill:#1e1c1a;fill-rule:nonzero;"/><path d="M591.391,453.045c0.07,0.806 -0.544,1.512 -1.374,1.572c-0.828,0.062 -1.558,-0.542 -1.628,-1.35c-0.072,-0.806 0.544,-1.512 1.374,-1.572c0.828,-0.062 1.556,0.544 1.628,1.35" style="fill:#1e1c1a;fill-rule:nonzero;"/><path d="M585.794,453.461c0.07,0.806 -0.544,1.51 -1.374,1.572c-0.828,0.062 -1.558,-0.542 -1.628,-1.35c-0.072,-0.808 0.544,-1.512 1.374,-1.574c0.828,-0.06 1.556,0.544 1.628,1.352" style="fill:#1e1c1a;fill-rule:nonzero;"/><path d="M593.712,447.387c0.07,0.806 -0.544,1.512 -1.374,1.572c-0.828,0.062 -1.558,-0.542 -1.628,-1.35c-0.07,-0.806 0.544,-1.512 1.374,-1.572c0.828,-0.062 1.556,0.544 1.628,1.35" style="fill:#1e1c1a;fill-rule:nonzero;"/><path d="M588.116,447.803c0.07,0.806 -0.544,1.512 -1.374,1.572c-0.828,0.062 -1.558,-0.542 -1.628,-1.35c-0.07,-0.806 0.544,-1.512 1.374,-1.572c0.828,-0.062 1.556,0.544 1.628,1.35" style="fill:#1e1c1a;fill-rule:nonzero;"/><path d="M594.665,458.287c0.072,0.806 -0.544,1.512 -1.372,1.572c-0.83,0.062 -1.558,-0.542 -1.628,-1.35c-0.072,-0.806 0.542,-1.512 1.372,-1.572c0.828,-0.062 1.558,0.544 1.628,1.35" style="fill:#1e1c1a;fill-rule:nonzero;"/><path d="M589.069,458.703c0.072,0.806 -0.544,1.51 -1.374,1.572c-0.828,0.06 -1.556,-0.542 -1.626,-1.35c-0.072,-0.808 0.542,-1.512 1.372,-1.574c0.828,-0.06 1.558,0.544 1.628,1.352" style="fill:#1e1c1a;fill-rule:nonzero;"/><path d="M579.658,415.518c0.07,0.808 -0.544,1.512 -1.374,1.574c-0.828,0.06 -1.558,-0.542 -1.628,-1.35c-0.07,-0.808 0.544,-1.512 1.374,-1.574c0.828,-0.06 1.556,0.544 1.628,1.35" style="fill:#1e1c1a;fill-rule:nonzero;"/><path d="M581.979,409.862c0.07,0.806 -0.544,1.51 -1.374,1.572c-0.828,0.062 -1.558,-0.542 -1.628,-1.35c-0.07,-0.808 0.544,-1.512 1.374,-1.574c0.828,-0.06 1.558,0.544 1.628,1.352" style="fill:#1e1c1a;fill-rule:nonzero;"/><path d="M576.382,410.276c0.07,0.808 -0.544,1.512 -1.374,1.574c-0.828,0.06 -1.558,-0.542 -1.628,-1.35c-0.07,-0.808 0.544,-1.512 1.374,-1.574c0.828,-0.06 1.558,0.544 1.628,1.35" style="fill:#1e1c1a;fill-rule:nonzero;"/><path d="M580.611,426.418c0.072,0.806 -0.544,1.512 -1.374,1.574c-0.828,0.06 -1.556,-0.542 -1.626,-1.352c-0.072,-0.806 0.542,-1.512 1.372,-1.572c0.828,-0.062 1.558,0.544 1.628,1.35" style="fill:#1e1c1a;fill-rule:nonzero;"/><path d="M582.933,420.76c0.07,0.808 -0.544,1.512 -1.374,1.574c-0.828,0.06 -1.558,-0.542 -1.628,-1.35c-0.072,-0.808 0.544,-1.512 1.374,-1.574c0.828,-0.06 1.556,0.544 1.628,1.35" style="fill:#1e1c1a;fill-rule:nonzero;"/><path d="M577.336,421.176c0.07,0.806 -0.544,1.512 -1.374,1.574c-0.828,0.06 -1.558,-0.542 -1.628,-1.352c-0.072,-0.806 0.544,-1.512 1.374,-1.572c0.828,-0.062 1.556,0.544 1.628,1.35" style="fill:#1e1c1a;fill-rule:nonzero;"/><path d="M579.658,415.518c0.07,0.808 -0.544,1.512 -1.374,1.574c-0.828,0.06 -1.558,-0.542 -1.628,-1.35c-0.07,-0.808 0.544,-1.512 1.374,-1.574c0.828,-0.06 1.556,0.544 1.628,1.35" style="fill:#1e1c1a;fill-rule:nonzero;"/><path d="M581.565,437.319c0.07,0.806 -0.544,1.512 -1.374,1.572c-0.828,0.062 -1.556,-0.542 -1.628,-1.35c-0.07,-0.806 0.544,-1.512 1.374,-1.572c0.828,-0.062 1.558,0.544 1.628,1.35" style="fill:#1e1c1a;fill-rule:nonzero;"/><path d="M575.968,437.735c0.07,0.806 -0.544,1.512 -1.374,1.572c-0.828,0.062 -1.556,-0.542 -1.628,-1.35c-0.07,-0.806 0.544,-1.512 1.374,-1.574c0.828,-0.06 1.558,0.544 1.628,1.352" style="fill:#1e1c1a;fill-rule:nonzero;"/><path d="M583.886,431.66c0.072,0.806 -0.544,1.512 -1.374,1.572c-0.828,0.062 -1.556,-0.54 -1.628,-1.35c-0.07,-0.806 0.544,-1.512 1.374,-1.572c0.828,-0.062 1.558,0.544 1.628,1.35" style="fill:#1e1c1a;fill-rule:nonzero;"/><path d="M578.289,432.076c0.072,0.806 -0.544,1.512 -1.374,1.572c-0.828,0.062 -1.556,-0.542 -1.628,-1.35c-0.07,-0.806 0.544,-1.512 1.374,-1.572c0.828,-0.062 1.558,0.544 1.628,1.35" style="fill:#1e1c1a;fill-rule:nonzero;"/><path d="M580.611,426.418c0.072,0.806 -0.544,1.512 -1.374,1.574c-0.828,0.06 -1.556,-0.542 -1.626,-1.352c-0.072,-0.806 0.542,-1.512 1.372,-1.572c0.828,-0.062 1.558,0.544 1.628,1.35" style="fill:#1e1c1a;fill-rule:nonzero;"/><path d="M582.519,448.219c0.07,0.806 -0.544,1.512 -1.374,1.572c-0.828,0.062 -1.558,-0.542 -1.628,-1.35c-0.07,-0.806 0.544,-1.512 1.374,-1.574c0.828,-0.06 1.556,0.544 1.628,1.352" style="fill:#1e1c1a;fill-rule:nonzero;"/><path d="M576.922,448.633c0.07,0.808 -0.544,1.512 -1.374,1.574c-0.828,0.06 -1.558,-0.542 -1.628,-1.35c-0.07,-0.808 0.544,-1.512 1.374,-1.574c0.828,-0.06 1.556,0.544 1.628,1.35" style="fill:#1e1c1a;fill-rule:nonzero;"/><path d="M584.84,442.561c0.07,0.806 -0.544,1.512 -1.374,1.572c-0.828,0.062 -1.558,-0.542 -1.628,-1.35c-0.07,-0.806 0.544,-1.512 1.374,-1.572c0.828,-0.062 1.558,0.544 1.628,1.35" style="fill:#1e1c1a;fill-rule:nonzero;"/><path d="M579.244,442.977c0.07,0.806 -0.544,1.512 -1.374,1.572c-0.828,0.062 -1.558,-0.542 -1.628,-1.35c-0.07,-0.806 0.544,-1.512 1.374,-1.574c0.828,-0.06 1.558,0.544 1.628,1.352" style="fill:#1e1c1a;fill-rule:nonzero;"/><path d="M581.565,437.319c0.07,0.806 -0.544,1.512 -1.374,1.572c-0.828,0.062 -1.556,-0.542 -1.628,-1.35c-0.07,-0.806 0.544,-1.512 1.374,-1.572c0.828,-0.062 1.558,0.544 1.628,1.35" style="fill:#1e1c1a;fill-rule:nonzero;"/><path d="M575.968,437.735c0.07,0.806 -0.544,1.512 -1.374,1.572c-0.828,0.062 -1.556,-0.542 -1.628,-1.35c-0.07,-0.806 0.544,-1.512 1.374,-1.574c0.828,-0.06 1.558,0.544 1.628,1.352" style="fill:#1e1c1a;fill-rule:nonzero;"/><path d="M583.472,459.118c0.072,0.808 -0.544,1.512 -1.374,1.574c-0.828,0.06 -1.556,-0.542 -1.626,-1.35c-0.072,-0.808 0.542,-1.512 1.372,-1.574c0.828,-0.06 1.558,0.544 1.628,1.35" style="fill:#1e1c1a;fill-rule:nonzero;"/><path d="M585.794,453.461c0.07,0.806 -0.544,1.51 -1.374,1.572c-0.828,0.062 -1.558,-0.542 -1.628,-1.35c-0.072,-0.808 0.544,-1.512 1.374,-1.574c0.828,-0.06 1.556,0.544 1.628,1.352" style="fill:#1e1c1a;fill-rule:nonzero;"/><path d="M580.198,453.875c0.07,0.808 -0.544,1.512 -1.374,1.574c-0.828,0.06 -1.558,-0.542 -1.628,-1.35c-0.072,-0.808 0.544,-1.512 1.374,-1.574c0.828,-0.06 1.556,0.544 1.628,1.35" style="fill:#1e1c1a;fill-rule:nonzero;"/><path d="M582.519,448.219c0.07,0.806 -0.544,1.512 -1.374,1.572c-0.828,0.062 -1.558,-0.542 -1.628,-1.35c-0.07,-0.806 0.544,-1.512 1.374,-1.574c0.828,-0.06 1.556,0.544 1.628,1.352" style="fill:#1e1c1a;fill-rule:nonzero;"/><path d="M576.922,448.633c0.07,0.808 -0.544,1.512 -1.374,1.574c-0.828,0.06 -1.558,-0.542 -1.628,-1.35c-0.07,-0.808 0.544,-1.512 1.374,-1.574c0.828,-0.06 1.556,0.544 1.628,1.35" style="fill:#1e1c1a;fill-rule:nonzero;"/><path d="M583.472,459.118c0.072,0.808 -0.544,1.512 -1.374,1.574c-0.828,0.06 -1.556,-0.542 -1.626,-1.35c-0.072,-0.808 0.542,-1.512 1.372,-1.574c0.828,-0.06 1.558,0.544 1.628,1.35" style="fill:#1e1c1a;fill-rule:nonzero;"/></g></g></g></svg>