<?xml version="1.0" encoding="UTF-8" standalone="no"?><!DOCTYPE svg PUBLIC "-//W3C//DTD SVG 1.1//EN" "http://www.w3.org/Graphics/SVG/1.1/DTD/svg11.dtd"><svg width="100%" height="100%" viewBox="0 0 742 948" version="1.1" xmlns="http://www.w3.org/2000/svg" xmlns:xlink="http://www.w3.org/1999/xlink" xml:space="preserve" xmlns:serif="http://www.serif.com/" style="fill-rule:evenodd;clip-rule:evenodd;stroke-linejoin:round;stroke-miterlimit:2;"><g id="Ebene-3" serif:id="Ebene 3"><path d="M311.43,913.395l22.598,-397.288l145.818,8.295l-22.598,397.287l-145.818,-8.294Z" style="fill:#106936;"/><path d="M435.195,767.686c-0.258,4.54 2.49,7.676 6.704,7.916c4.052,0.23 7.292,-2.404 7.558,-7.104c0.268,-4.698 -2.652,-7.686 -6.704,-7.916c-4.052,-0.23 -7.29,2.404 -7.558,7.104m21.316,-1.226c-0.4,7.022 -5.516,9.278 -5.516,9.278l-0.02,0.38l4.43,0.252l-0.442,7.778l-37.814,-2.152l0.442,-7.776l14.098,0.8l0.018,-0.324c0,0 -3.676,-3.028 -3.288,-9.834c0.406,-7.132 5.82,-12.784 14.79,-12.274c8.968,0.51 13.706,6.74 13.302,13.872" style="fill:#fff;fill-rule:nonzero;"/><path d="M450.869,725.596l-1.62,-0.092c0,0 -1.712,1.476 -1.992,6.39c-0.196,3.46 0.18,6.408 2.286,6.526c2.16,0.124 2.812,-2.766 3.008,-6.222c0.272,-4.754 -1.682,-6.602 -1.682,-6.602m-9.034,8.266c0.348,-6.104 2.766,-8.622 2.766,-8.622l-3.942,-0.224c-1.998,-0.114 -4.178,1.01 -4.432,5.494c-0.132,2.322 0.482,5.824 3.076,5.972l-0.456,7.994c-6.37,-0.414 -8.916,-6.196 -8.454,-14.298c0.47,-8.268 3.9,-13.328 10.708,-12.942l8.426,0.482c2.27,0.128 2.948,-0.376 3.018,-1.618c0.044,-0.756 -0.15,-1.146 -0.15,-1.146l6.482,0.368c0,0 0.486,1.004 0.35,3.382c-0.302,5.292 -4.152,6.32 -4.152,6.32l-0.022,0.378c0.162,0.008 3.66,2.32 3.206,10.318c-0.342,5.996 -3.176,11.036 -8.792,10.718c-5.89,-0.336 -8,-6.092 -7.632,-12.576" style="fill:#fff;fill-rule:nonzero;"/><path d="M421.432,706.687l0.442,-7.776l37.814,2.148l-0.442,7.776l-37.814,-2.148Z" style="fill:#fff;"/><path d="M453.905,672.221l-1.62,-0.092c0,0 -1.712,1.476 -1.992,6.392c-0.196,3.458 0.18,6.406 2.286,6.524c2.16,0.124 2.812,-2.766 3.008,-6.222c0.272,-4.754 -1.682,-6.602 -1.682,-6.602m-9.034,8.268c0.348,-6.104 2.766,-8.624 2.766,-8.624l-3.942,-0.224c-1.998,-0.114 -4.178,1.01 -4.432,5.494c-0.132,2.322 0.482,5.826 3.076,5.972l-0.456,7.994c-6.37,-0.414 -8.916,-6.196 -8.454,-14.298c0.47,-8.266 3.9,-13.328 10.708,-12.94l8.426,0.48c2.27,0.128 2.948,-0.376 3.018,-1.618c0.044,-0.756 -0.148,-1.146 -0.148,-1.146l6.48,0.368c0,0 0.486,1.004 0.35,3.382c-0.302,5.292 -4.152,6.32 -4.152,6.32l-0.022,0.378c0.162,0.01 3.66,2.32 3.206,10.318c-0.342,5.996 -3.176,11.038 -8.792,10.718c-5.89,-0.336 -8,-6.092 -7.632,-12.574" style="fill:#fff;fill-rule:nonzero;"/><path d="M449.893,633.188c-4.7,-0.268 -7.18,2.356 -7.414,6.458c-0.258,4.54 2.58,7.032 6.632,7.262l13.614,0.776l-0.442,7.778l-27.012,-1.536l0.442,-7.78l4.486,0.256l0.024,-0.432c0,0 -4.906,-2.396 -4.472,-10.01c0.362,-6.376 4.212,-11.142 12.424,-10.674l15.772,0.896l-0.442,7.78l-13.612,-0.774Z" style="fill:#fff;fill-rule:nonzero;"/><path d="M437.687,601.924c0.608,-10.696 8.15,-14.656 12.474,-14.41l-0.456,7.994c0,0 -4.974,0.748 -5.318,6.796c-0.27,4.754 2.766,7.584 6.924,7.822c4.16,0.236 7.5,-2.232 7.77,-6.986c0.344,-6.048 -4.514,-7.354 -4.514,-7.354l0.454,-7.996c4.322,0.246 11.366,5.036 10.758,15.732c-0.508,8.914 -5.954,15.108 -14.922,14.598c-8.968,-0.51 -13.676,-7.284 -13.17,-16.196" style="fill:#fff;fill-rule:nonzero;"/><path d="M450.713,573.018l0.808,-14.208c-2.16,-0.122 -5.414,1.806 -5.696,6.774c-0.278,4.864 2.728,7.31 4.888,7.434m4.748,0.378c2.972,0.17 6.076,-2.038 6.36,-7.008c0.262,-4.592 -2.358,-6.204 -2.358,-6.204l0.486,-8.536c0,0 8.66,2.118 7.922,15.082c-0.512,9.022 -5.906,15.22 -14.928,14.706c-9.02,-0.512 -13.676,-7.282 -13.17,-16.196c0.504,-8.858 5.898,-15.054 14.92,-14.54c0.972,0.054 2.044,0.278 2.044,0.278l-1.276,22.418Z" style="fill:#fff;fill-rule:nonzero;"/><path d="M384.972,861.036l-0.224,3.944l-4.484,-0.256l-6.758,-7.916l0.24,-4.214l5.402,0.308l0.48,-8.428l6.266,0.354l-0.478,8.43l9.508,0.54c4.32,0.246 5.422,-1.968 5.594,-4.992c0.138,-2.432 -0.748,-3.998 -0.748,-3.998l6.482,0.368c0,0 0.858,2.054 0.684,5.134c-0.44,7.722 -3.866,11.756 -11.43,11.326l-10.534,-0.6Z" style="fill:#fff;fill-rule:nonzero;"/><path d="M380.959,816.311l8.59,0.49c0,0 -0.91,1.684 -1.08,4.654c-0.298,5.24 2.906,8.024 7.118,8.264l11.938,0.68l-0.442,7.778l-27.01,-1.538l0.442,-7.778l4.97,0.284l0.024,-0.434c0,0 -5.39,-2.422 -4.974,-9.712c0.072,-1.298 0.424,-2.688 0.424,-2.688" style="fill:#fff;fill-rule:nonzero;"/><path d="M402.287,791.995l-1.62,-0.092c0,0 -1.712,1.476 -1.992,6.392c-0.196,3.458 0.18,6.406 2.286,6.526c2.16,0.122 2.812,-2.768 3.008,-6.224c0.272,-4.754 -1.682,-6.602 -1.682,-6.602m-9.034,8.268c0.348,-6.104 2.768,-8.624 2.768,-8.624l-3.944,-0.224c-1.998,-0.114 -4.178,1.01 -4.432,5.494c-0.132,2.322 0.482,5.826 3.076,5.972l-0.456,7.996c-6.37,-0.416 -8.916,-6.198 -8.454,-14.3c0.47,-8.266 3.9,-13.328 10.708,-12.94l8.426,0.48c2.27,0.128 2.948,-0.376 3.018,-1.618c0.044,-0.756 -0.148,-1.146 -0.148,-1.146l6.48,0.368c0,0 0.486,1.004 0.35,3.382c-0.302,5.292 -4.152,6.32 -4.152,6.32l-0.022,0.378c0.162,0.01 3.66,2.32 3.206,10.318c-0.342,5.996 -3.174,11.038 -8.792,10.718c-5.89,-0.336 -8,-6.092 -7.632,-12.574" style="fill:#fff;fill-rule:nonzero;"/><path d="M411.614,758.544l-0.648,11.4l-27.574,8.348l0.472,-8.318l20.824,-5.916l0.022,-0.378l-20.018,-8.238l0.472,-8.318l26.45,11.42Z" style="fill:#fff;fill-rule:nonzero;"/><path d="M396.67,735.417l0.808,-14.208c-2.16,-0.122 -5.414,1.808 -5.696,6.776c-0.278,4.864 2.728,7.308 4.888,7.432m4.748,0.38c2.972,0.168 6.078,-2.038 6.36,-7.008c0.262,-4.592 -2.358,-6.206 -2.358,-6.206l0.486,-8.536c0,0 8.66,2.12 7.922,15.084c-0.512,9.022 -5.906,15.22 -14.928,14.706c-9.02,-0.512 -13.676,-7.282 -13.17,-16.196c0.504,-8.858 5.898,-15.054 14.92,-14.54c0.972,0.054 2.044,0.276 2.044,0.276l-1.276,22.42Z" style="fill:#fff;fill-rule:nonzero;"/><path d="M376.772,704.15l0.442,-7.775l37.814,2.149l-0.442,7.775l-37.814,-2.149Z" style="fill:#fff;"/><path d="M369.696,717.11l-0.592,10.424l-27.424,5.702l0.462,-8.102l19.912,-3.256l0.018,-0.324l-19.352,-6.574l0.55,-9.67l19.972,-4.338l0.02,-0.324l-19.414,-5.496l0.46,-8.102l26.598,8.774l-0.592,10.426l-19.37,4.21l-0.016,0.272l18.768,6.378Z" style="fill:#fff;fill-rule:nonzero;"/><path d="M351.611,667.299c-0.27,4.754 2.766,7.584 6.924,7.82c4.16,0.236 7.498,-2.23 7.77,-6.984c0.27,-4.752 -2.768,-7.582 -6.928,-7.818c-4.158,-0.236 -7.496,2.23 -7.766,6.982m-6.7,-0.38c0.508,-8.914 5.956,-15.108 14.922,-14.596c8.968,0.51 13.676,7.278 13.17,16.192c-0.508,8.914 -5.954,15.108 -14.922,14.598c-8.966,-0.51 -13.678,-7.282 -13.17,-16.194" style="fill:#fff;fill-rule:nonzero;"/><path d="M347.65,623.553l8.59,0.488c0,0 -0.91,1.684 -1.08,4.654c-0.298,5.24 2.906,8.024 7.118,8.264l11.94,0.68l-0.444,7.778l-27.01,-1.536l0.442,-7.78l4.97,0.284l0.024,-0.434c0,0 -5.39,-2.422 -4.974,-9.712c0.072,-1.298 0.424,-2.686 0.424,-2.686" style="fill:#fff;fill-rule:nonzero;"/><path d="M362.376,600.922l14.596,-11.742l-0.522,9.182l-13.922,11.35l13.234,0.752l-0.442,7.778l-37.814,-2.152l0.442,-7.778l23.444,1.334l-12.004,-11.902l0.518,-9.13l12.47,12.308Z" style="fill:#fff;fill-rule:nonzero;"/><path d="M337.917,902.307c1.564,0.088 3.106,-1.284 3.212,-3.17c0.092,-1.544 -0.794,-2.54 -1.978,-2.61l-1.63,-0.096l-1.35,5.772l1.746,0.104Zm-2.104,-8.124l3.79,0.218c2.142,0.126 3.918,2.124 3.768,4.696c-0.18,3.086 -2.904,5.51 -5.852,5.338l-4.084,-0.24l2.378,-10.012Z" style="fill:#fff;fill-rule:nonzero;"/><path d="M346.358,894.797l7.032,0.412l-0.5,2.034l-4.8,-0.282l-0.46,1.956l4.462,0.258l-0.484,2.04l-4.458,-0.262l-0.458,1.952l4.8,0.278l-0.48,2.04l-7.03,-0.412l2.376,-10.014Z" style="fill:#fff;fill-rule:nonzero;"/><path d="M353.093,901.989l2.226,0.13l-0.004,0.086c-0.044,0.772 0.522,1.408 2.066,1.498c1.116,0.066 1.752,-0.502 1.78,-1.012c0.028,-0.43 -0.468,-0.802 -1.31,-1.112l-1.434,-0.512c-1.434,-0.516 -2.158,-1.332 -2.096,-2.448c0.118,-1.988 1.854,-3.42 4.15,-3.284c2.574,0.15 3.784,1.51 3.686,3.226c-0.006,0.122 -0.028,0.428 -0.028,0.428l-2.226,-0.13c0.002,-0.036 0.004,-0.072 0.004,-0.086c0.04,-0.686 -0.526,-1.322 -1.728,-1.39c-1.03,-0.062 -1.574,0.424 -1.608,1.024c-0.02,0.344 0.138,0.612 0.98,0.916l1.432,0.516c1.686,0.612 2.496,1.438 2.428,2.638c-0.116,1.97 -1.748,3.422 -4.322,3.272c-2.828,-0.164 -4.122,-1.616 -4.016,-3.416l0.02,-0.344Z" style="fill:#fff;fill-rule:nonzero;"/><path d="M364.963,895.883l2.226,0.13l-2.374,10.018l-2.23,-0.13l2.378,-10.018Z" style="fill:#fff;fill-rule:nonzero;"/><path d="M373.02,901.088l4.628,0.27l-0.134,0.596c-0.668,2.884 -2.936,4.818 -5.59,4.662c-2.488,-0.146 -4.266,-2.14 -4.11,-4.8c0.196,-3.36 2.918,-5.766 5.834,-5.596c2.314,0.136 3.77,1.768 3.932,4.016l-2.25,-0.132c-0.214,-1.046 -0.948,-1.69 -1.978,-1.752c-1.63,-0.092 -3.176,1.278 -3.302,3.424c-0.086,1.544 0.88,2.632 2.168,2.704c1.114,0.068 2.178,-0.474 2.638,-1.562l-2.246,-0.132l0.41,-1.698Z" style="fill:#fff;fill-rule:nonzero;"/><path d="M380.737,896.807l2.812,0.164l1.776,6.384l0.364,0.022l1.478,-6.196l2.232,0.132l-2.378,10.014l-2.812,-0.164l-1.796,-6.388l-0.358,-0.018l-1.464,6.196l-2.23,-0.13l2.376,-10.016Z" style="fill:#fff;fill-rule:nonzero;"/><path d="M394.9,897.633l2.262,0.132l-0.096,6.624l0.344,0.02l3.27,-6.436l2.402,0.14l0.162,6.634l0.344,0.018l3.008,-6.446l2.366,0.138l-4.774,9.874l-2.832,-0.166l-0.122,-6.462l-0.342,-0.02l-3.136,6.274l-2.83,-0.166l-0.026,-10.158Z" style="fill:#fff;fill-rule:nonzero;"/><path d="M414.101,904.954l-0.382,-3.726l-0.344,-0.02l-2.12,3.58l2.846,0.166Zm-1.558,-6.29l3.088,0.184l1.14,10.218l-2.262,-0.132l-0.2,-1.906l-4.22,-0.244l-1.072,1.83l-2.366,-0.138l5.892,-9.812Z" style="fill:#fff;fill-rule:nonzero;"/><path d="M420.259,899.116l2.23,0.13l-1.872,7.896l4.632,0.27l-0.504,2.124l-6.86,-0.402l2.374,-10.018Z" style="fill:#fff;fill-rule:nonzero;"/><path d="M425.824,907.495l6.226,-5.538l-4.768,-0.278l0.524,-2.124l7.802,0.462l-0.5,2.068l-6.228,5.536l4.942,0.29l-0.504,2.124l-7.976,-0.466l0.482,-2.074Z" style="fill:#fff;fill-rule:nonzero;"/></g></svg>