<svg id="Ebene_3" data-name="Ebene 3" xmlns="http://www.w3.org/2000/svg" viewBox="0 0 464.87 318.91"><defs><style>.cls-1{fill:#016930;}.cls-2{fill:#fff;}</style></defs><title>Zeichenfläche 3</title><rect class="cls-1" x="246.52" y="111.26" width="73.03" height="198.96" transform="translate(12.43 -15.73) rotate(3.26)"/><path class="cls-2" d="M313.47,234.52a5.3,5.3,0,0,1-2.75,4.64v.19l2.21.12-.22,3.89-18.91-1.07.22-3.89,7.05.4v-.16a6,6,0,0,1-1.64-4.92c.2-3.57,2.91-6.39,7.39-6.14S313.68,231,313.47,234.52Zm-10.65.61a3.58,3.58,0,1,0,3.78-3.55A3.47,3.47,0,0,0,302.82,235.13Z"/><path class="cls-2" d="M306.14,218.22c.17-3.05,1.38-4.31,1.38-4.31l-2-.11c-1-.06-2.09.5-2.22,2.74-.06,1.16.24,2.92,1.54,3l-.23,4c-3.18-.21-4.46-3.1-4.23-7.15s2-6.67,5.36-6.47l4.21.24c1.14.06,1.48-.19,1.51-.81a1.28,1.28,0,0,0-.07-.57l3.24.18a3.78,3.78,0,0,1,.17,1.69,3.21,3.21,0,0,1-2.07,3.16l0,.19c.09,0,1.84,1.16,1.61,5.16-.17,3-1.59,5.52-4.4,5.36S306,221.46,306.14,218.22Zm4.51-4.13-.81-.05s-.85.74-1,3.2c-.1,1.73.09,3.2,1.14,3.26s1.41-1.38,1.5-3.11C311.63,215,310.65,214.09,310.65,214.09Z"/><path class="cls-2" d="M315.06,201.82l-.22,3.89-18.91-1.08.23-3.89Z"/><path class="cls-2" d="M307.65,191.53c.18-3.05,1.39-4.31,1.39-4.31l-2-.11c-1-.06-2.09.5-2.22,2.75-.07,1.16.24,2.91,1.54,3l-.23,4c-3.19-.21-4.46-3.1-4.23-7.15s1.95-6.66,5.36-6.47l4.21.24c1.13.06,1.47-.19,1.51-.81a1.18,1.18,0,0,0-.08-.57l3.25.18a3.78,3.78,0,0,1,.17,1.69,3.21,3.21,0,0,1-2.08,3.16v.19c.08,0,1.83,1.16,1.61,5.16-.17,3-1.59,5.52-4.4,5.36S307.47,194.77,307.65,191.53Zm4.52-4.13-.81-.05s-.86.74-1,3.2c-.09,1.73.09,3.2,1.15,3.26s1.4-1.38,1.5-3.11C313.15,188.32,312.17,187.4,312.17,187.4Z"/><path class="cls-2" d="M310.16,167.88a3.16,3.16,0,0,0-3.7,3.23,3.21,3.21,0,0,0,3.31,3.63l6.81.39-.22,3.89-13.51-.77.23-3.89,2.24.13v-.22s-2.45-1.19-2.24-5c.19-3.19,2.11-5.57,6.22-5.34l7.88.45-.22,3.89Z"/><path class="cls-2" d="M304.06,152.25c.31-5.35,4.08-7.33,6.24-7.2l-.23,4a3.38,3.38,0,0,0-2.66,3.4,3.68,3.68,0,1,0,7.35.42,3.39,3.39,0,0,0-2.26-3.68l.23-4c2.16.13,5.68,2.52,5.38,7.87-.26,4.46-3,7.55-7.46,7.3S303.81,156.71,304.06,152.25Z"/><path class="cls-2" d="M313,138c1.48.08,3-1,3.18-3.51a3.31,3.31,0,0,0-1.18-3.1l.24-4.27s4.33,1.06,4,7.54c-.25,4.52-2.95,7.61-7.46,7.36s-6.84-3.64-6.58-8.1,2.94-7.53,7.45-7.27a8.7,8.7,0,0,1,1,.14Zm-2.37-.19.4-7.11c-1.08-.06-2.71.91-2.85,3.39S309.49,137.74,310.58,137.8Z"/><path class="cls-2" d="M277.7,281.81l-.11,2-2.24-.13-3.38-4,.12-2.1,2.7.15.24-4.21,3.14.17-.24,4.22,4.75.27c2.16.12,2.71-1,2.8-2.5a3.89,3.89,0,0,0-.38-2l3.24.19a6.32,6.32,0,0,1,.35,2.56c-.22,3.87-1.94,5.88-5.72,5.67Z"/><path class="cls-2" d="M275.7,259.44l4.29.25a6.1,6.1,0,0,0-.54,2.33,3.59,3.59,0,0,0,3.56,4.13l6,.34-.22,3.89-13.51-.77.23-3.89,2.48.14v-.22a4.85,4.85,0,0,1-2.48-4.85A7.76,7.76,0,0,1,275.7,259.44Z"/><path class="cls-2" d="M281.85,251.42c.17-3,1.38-4.31,1.38-4.31l-2-.11c-1-.06-2.09.5-2.22,2.74-.07,1.16.24,2.92,1.54,3l-.23,4c-3.18-.21-4.46-3.1-4.23-7.15s1.95-6.67,5.36-6.47l4.21.24c1.14.06,1.47-.19,1.51-.81a1.28,1.28,0,0,0-.07-.57l3.24.18a3.78,3.78,0,0,1,.17,1.69,3.21,3.21,0,0,1-2.08,3.16v.19c.08,0,1.83,1.16,1.61,5.16-.17,3-1.59,5.52-4.4,5.36S281.66,254.66,281.85,251.42Zm4.51-4.13-.81,0s-.85.74-1,3.2c-.1,1.73.09,3.2,1.14,3.26s1.4-1.38,1.5-3.11C287.34,248.21,286.36,247.29,286.36,247.29Z"/><path class="cls-2" d="M291,230.56l-.33,5.7-13.79,4.17.24-4.15,10.41-3v-.19l-10-4.12.24-4.16Z"/><path class="cls-2" d="M285.93,219.19c1.48.08,3-1,3.18-3.51a3.31,3.31,0,0,0-1.18-3.1l.24-4.27s4.33,1.06,4,7.54c-.25,4.52-2.95,7.61-7.46,7.36s-6.84-3.64-6.59-8.1,2.95-7.53,7.46-7.27a8.7,8.7,0,0,1,1,.14Zm-2.38-.19.41-7.11c-1.08-.06-2.71.91-2.85,3.39S282.47,218.94,283.55,219Z"/><path class="cls-2" d="M292.73,200.55l-.22,3.89-18.91-1.08.23-3.88Z"/><path class="cls-2" d="M270.07,209.84l-.3,5.22-13.71,2.85.23-4,10-1.63v-.16l-9.67-3.29.27-4.84,10-2.17v-.16l-9.71-2.74.23-4.06,13.3,4.39-.29,5.21-9.69,2.11v.13Z"/><path class="cls-2" d="M257.67,184.75c.26-4.46,3-7.56,7.46-7.3s6.84,3.64,6.59,8.1-3,7.55-7.46,7.3S257.42,189.2,257.67,184.75Zm3.35.19a3.68,3.68,0,1,0,3.89-3.49A3.48,3.48,0,0,0,261,184.94Z"/><path class="cls-2" d="M259,163.07l4.3.24a5.88,5.88,0,0,0-.54,2.33,3.58,3.58,0,0,0,3.56,4.13l6,.34-.22,3.89-13.51-.77.22-3.89,2.49.14v-.21a4.87,4.87,0,0,1-2.49-4.86A8.76,8.76,0,0,1,259,163.07Z"/><path class="cls-2" d="M266.41,151.75l7.3-5.87-.27,4.59-7,5.67,6.62.38-.22,3.89L254,159.33l.22-3.88,11.73.66-6-6,.26-4.56Z"/><path class="cls-2" d="M253.13,298.38l1.89.11a2.12,2.12,0,0,1,1.88,2.35,2.85,2.85,0,0,1-2.92,2.67l-2-.12Zm1.05,4.06a1.61,1.61,0,0,0,1.6-1.58,1.11,1.11,0,0,0-1-1.31l-.81-.05-.68,2.89Z"/><path class="cls-2" d="M258.4,298.69l3.51.2-.25,1-2.4-.14-.23,1,2.23.13-.24,1-2.23-.13-.23,1,2.4.14-.24,1-3.51-.21Z"/><path class="cls-2" d="M261.77,302.28l1.11.07v0c0,.39.26.71,1,.75.56,0,.87-.25.89-.51s-.23-.4-.66-.55l-.71-.26c-.72-.26-1.08-.66-1.05-1.22a1.82,1.82,0,0,1,2.07-1.64c1.29.07,1.9.75,1.85,1.61,0,.06,0,.21,0,.21l-1.11-.06v0c0-.35-.26-.67-.86-.7s-.79.21-.81.51.07.31.49.46l.72.26c.84.3,1.25.72,1.21,1.32a1.82,1.82,0,0,1-2.16,1.63c-1.41-.08-2.06-.8-2-1.71Z"/><path class="cls-2" d="M267.7,299.23l1.11.07-1.18,5-1.12-.07Z"/><path class="cls-2" d="M271.73,301.83,274,302l-.06.3a2.8,2.8,0,0,1-2.8,2.33,2.17,2.17,0,0,1-2.05-2.4,2.86,2.86,0,0,1,2.91-2.8,2,2,0,0,1,2,2l-1.13-.07a1,1,0,0,0-1-.87,1.67,1.67,0,0,0-1.65,1.71,1.19,1.19,0,0,0,1.09,1.35,1.32,1.32,0,0,0,1.32-.78l-1.13-.07Z"/><path class="cls-2" d="M275.59,299.69l1.4.09.89,3.19h.18l.74-3.1,1.12.07-1.19,5-1.41-.08-.9-3.19h-.17l-.74,3.1-1.11-.07Z"/><path class="cls-2" d="M282.67,300.11l1.13.06-.05,3.31h.17l1.64-3.21,1.2.07.08,3.31H287l1.51-3.22,1.18.07-2.39,4.93-1.41-.08-.06-3.23h-.18l-1.56,3.14-1.42-.09Z"/><path class="cls-2" d="M291.49,300.62l1.54.09.57,5.11-1.13-.06-.1-1-2.11-.12-.53.92-1.19-.07Zm.78,3.15-.19-1.87h-.17l-1.06,1.79Z"/><path class="cls-2" d="M295.35,300.85l1.11.06-.93,3.95,2.31.13-.25,1.07-3.43-.2Z"/><path class="cls-2" d="M298.13,305l3.11-2.77-2.38-.14.26-1.06,3.9.23-.25,1-3.11,2.77,2.47.14-.25,1.07-4-.24Z"/></svg>