<svg id="Ebene_4" data-name="Ebene 4" xmlns="http://www.w3.org/2000/svg" viewBox="0 0 464.87 318.91"><defs><style>.cls-1{fill:#ffde00;}.cls-2{fill:#1d1d1b;}</style></defs><title>Zeichenfläche 3</title><ellipse class="cls-1" cx="142.43" cy="249.91" rx="112.42" ry="68.64" transform="translate(-18.85 11.73) rotate(-4.42)"/><path class="cls-2" d="M67.86,219.73,78.75,217l.29,3.7-10.89,2.76.7,9.46-4.64,1.17-1.72-23L78.55,207l.29,3.83-11.42,2.89Z"/><path class="cls-2" d="M102.65,209.85c2,7.83-1.56,15.41-9.36,17.38-5.22,1.33-10-.94-11.4-6.57-2-7.83,1.55-15.4,9.35-17.38C96.46,202,101.22,204.23,102.65,209.85ZM97.92,211c-.87-3.43-3.13-4.62-6-3.89-5.28,1.34-6.54,7.61-5.32,12.44.87,3.44,3.13,4.62,6,3.9C97.88,222.09,99.15,215.81,97.92,211Z"/><path class="cls-2" d="M126.6,210.45a12.29,12.29,0,0,1-9.33,10.71c-5.16,1.31-9.87-1-11.29-6.62-2-7.79,1.59-15.4,9.24-17.33,5.1-1.3,9.16,1.38,10.44,4.67l-4.44,1.72A4.22,4.22,0,0,0,115.9,201c-5,1.26-6.48,7.34-5.2,12.41.88,3.45,3.13,4.62,5.89,3.92,3.16-.8,4.8-3.58,5.2-6.42Z"/><path class="cls-2" d="M148.14,204.28c.49,6.45-3,9.82-8.62,11.24-4.85,1.23-9.81-1.05-10.21-6.65l-1.07-14.44,4.63-1.17,1.07,14.15c.29,3.88,2,5,5,4.23s4.75-2.93,4.46-6.81l-1-14,4.63-1.18Z"/><path class="cls-2" d="M164,192.3c-.9-2.32-2.67-3.07-5.18-2.44-2.17.55-3.93,2.4-3.46,4.24.33,1.35,1.51,1.48,3.23,1.48l3.68,0c3.08,0,6.31.39,7.27,4.26,1.34,5.38-2.49,8.73-7.94,10.11-5.23,1.32-9.72-.64-10.9-5.09l4.48-1.55c.86,3.18,3.31,3.67,5.92,3,2.38-.6,4.45-2.45,3.88-4.71-.4-1.55-1.67-1.62-3.83-1.65l-3.65,0c-2.75,0-5.71-.58-6.58-4-1.22-4.82,2.52-8.36,7.5-9.62,4.76-1.21,8.56.75,10,4.64Z"/><path class="cls-2" d="M114.3,235.13c2,7.83-1.55,15.41-9.35,17.39-5.23,1.32-10-1-11.41-6.58-2-7.83,1.55-15.4,9.35-17.38C108.11,227.24,112.87,229.51,114.3,235.13Zm-4.72,1.14c-.87-3.44-3.14-4.62-6-3.9-5.28,1.34-6.55,7.61-5.33,12.44.87,3.44,3.13,4.62,6,3.9C109.53,247.37,110.8,241.1,109.58,236.27Z"/><path class="cls-2" d="M133,244.88l-11.23-13.94-.12,0,1.23,16.47-4.25,1.08-1.72-23,4.91-1.24,11,13.69.13,0-1.21-16.19,4.25-1.07,1.72,23Z"/><path class="cls-2" d="M70.64,288.55l-3.3.83-.18-2.57a9.76,9.76,0,0,1-6.45,4.77c-5.16,1.31-10-1-11.41-6.57-2-7.82,1.67-15.43,9.36-17.38,4.73-1.2,9,.74,10.67,4.66l-4.56,1.57a4.29,4.29,0,0,0-5.43-2.42c-5.11,1.3-6.59,7.4-5.32,12.44.88,3.39,3.14,4.62,6,3.89a7.52,7.52,0,0,0,5.61-6.55l-5.34,1.35L60,278.94l9.73-2.47Z"/><path class="cls-2" d="M87.93,270.25l.25,3.72L77.3,276.72l.46,6,11.42-2.9.29,4-16,4.06-1.73-23,16.06-4.07.3,3.83-11.43,2.89L77,273Z"/><path class="cls-2" d="M106.15,279.55,94.93,265.61l-.13,0L96,282.11l-4.24,1.08-1.72-23L95,259,106,272.65l.12,0L105,256.44l4.25-1.08,1.72,23Z"/><path class="cls-2" d="M128.4,260l.26,3.72-10.89,2.75.46,6,11.42-2.9.3,4-16.06,4.06-1.72-23,16.06-4.07.29,3.83-11.42,2.89.42,5.5Z"/><path class="cls-2" d="M145.43,260.69l6,7.39-5.09,1.29-5.56-7.15-4.53,1.15.63,8.4-4.63,1.17-1.72-23,10.67-2.7c4-1,7.51.38,8.41,3.92A7.86,7.86,0,0,1,145.43,260.69Zm-4.09-2.51c3-.77,4.33-2.82,3.72-5.21-.42-1.66-1.79-2.34-4.21-1.72l-5.36,1.35.5,6.93Z"/><path class="cls-2" d="M157.33,261,156,266.93l-5.11,1.3,6.32-25,6.08-1.55,10.16,20.85-4.81,1.22-2.29-5Zm3.4-14.51-.12,0-2.39,10.52,6.58-1.67Z"/><path class="cls-2" d="M173,239.2l4.63-1.18,1.43,18.92L190.67,254l.29,4.06-16.22,4.11Z"/><path class="cls-2" d="M191,234.64l4.63-1.17,1.72,23-4.63,1.17Z"/><path class="cls-2" d="M212,236.26c-.9-2.32-2.67-3.08-5.18-2.44-2.17.55-3.92,2.39-3.46,4.24.33,1.35,1.52,1.47,3.24,1.47h3.67c3.09,0,6.31.39,7.27,4.26,1.34,5.37-2.49,8.72-7.94,10.1-5.22,1.33-9.72-.63-10.9-5.08l4.48-1.56c.87,3.19,3.31,3.68,5.93,3,2.37-.6,4.44-2.45,3.87-4.71-.39-1.56-1.67-1.62-3.83-1.65l-3.65,0c-2.75,0-5.71-.58-6.58-4-1.22-4.82,2.53-8.36,7.5-9.62,4.76-1.21,8.57.75,10,4.64Z"/><path class="cls-2" d="M243.45,244.78l-4.37,1.11-1.28-17-.12,0-4.06,18.36-3.45.87-6.65-15.64-.12,0,1.27,17-4.24,1.07-1.72-23,6.58-1.67,5.86,14.71.12,0,3.46-17.07,7-1.77Z"/><path class="cls-2" d="M149.08,308.59l1.89-.18a2.13,2.13,0,0,1,2.23,2,2.85,2.85,0,0,1-2.48,3.09l-2,.19Zm1.67,3.85a1.61,1.61,0,0,0,1.34-1.81,1.12,1.12,0,0,0-1.18-1.14l-.81.08-.22,3Z"/><path class="cls-2" d="M154.14,308.06l3.5-.43-.06,1.05-2.39.29-.05,1,2.22-.27-.05,1-2.22.28-.05,1,2.39-.3-.05,1-3.5.43Z"/><path class="cls-2" d="M158.05,311l1.1-.17v.05c.05.38.4.63,1.16.52.55-.09.8-.43.76-.68s-.31-.35-.75-.41l-.75-.1c-.76-.11-1.2-.43-1.28-1a1.83,1.83,0,0,1,1.69-2c1.28-.19,2,.35,2.14,1.2a1.69,1.69,0,0,0,0,.21l-1.11.17v0c-.05-.34-.39-.59-1-.51s-.72.37-.68.67.13.28.57.35l.76.1c.88.13,1.36.45,1.45,1a1.83,1.83,0,0,1-1.77,2.05c-1.4.21-2.19-.37-2.32-1.26Z"/><path class="cls-2" d="M163.11,306.76l1.11-.19,0,5.15-1.1.19Z"/><path class="cls-2" d="M167.52,308.35l2.28-.43v.3a2.78,2.78,0,0,1-2.13,2.95,2.18,2.18,0,0,1-2.58-1.82,2.87,2.87,0,0,1,2.14-3.43,2,2,0,0,1,2.4,1.46l-1.11.22a1,1,0,0,0-1.17-.61,1.67,1.67,0,0,0-1.18,2.06,1.19,1.19,0,0,0,1.38,1.05,1.32,1.32,0,0,0,1.09-1.08l-1.11.21Z"/><path class="cls-2" d="M170.51,305.33l1.37-.31,1.74,2.82.17,0-.14-3.18,1.09-.24.24,5.14-1.37.31L171.86,307l-.17,0,.15,3.18-1.09.24Z"/><path class="cls-2" d="M177.11,303.78l1.09-.3,1,3.15.17-.05.51-3.57,1.15-.32,1.15,3.11.17-.05.38-3.53,1.14-.32-.66,5.44-1.37.38-1.1-3-.16,0-.48,3.47-1.36.38Z"/><path class="cls-2" d="M185.4,301.37l1.47-.47,2.36,4.57-1.08.34-.44-.85-2,.63-.17,1.05-1.13.36Zm1.85,2.65-.85-1.67-.16.06-.35,2Z"/><path class="cls-2" d="M188.89,300.21l1.05-.37.65,4,2.19-.76.18,1.07-3.25,1.14Z"/><path class="cls-2" d="M193,303l1.71-3.8-2.24.85-.19-1.08,3.65-1.39.2,1-1.71,3.8,2.31-.88.21,1.07-3.73,1.42Z"/></svg>