<?xml version="1.0" encoding="UTF-8" standalone="no"?><!DOCTYPE svg PUBLIC "-//W3C//DTD SVG 1.1//EN" "http://www.w3.org/Graphics/SVG/1.1/DTD/svg11.dtd"><svg width="100%" height="100%" viewBox="0 0 930 638" version="1.1" xmlns="http://www.w3.org/2000/svg" xmlns:xlink="http://www.w3.org/1999/xlink" xml:space="preserve" xmlns:serif="http://www.serif.com/" style="fill-rule:evenodd;clip-rule:evenodd;stroke-linejoin:round;stroke-miterlimit:2;"><g id="Ebene-6" serif:id="Ebene 6"><path d="M23.887,94.092l-24.36,265.7l265.678,24.358l24.358,-265.7l-265.656,-24.358l-0.02,0Z" style="fill:#2f3083;fill-rule:nonzero;"/><path d="M50.138,125.353c-3.24,-0.24 -8.814,-0.186 -9.226,4.396c-0.218,2.44 1.19,4.07 3.48,4.276c1.594,0.142 2.676,-0.162 3.964,-1.102c0.434,-0.362 1.182,-0.848 1.366,-2.94l0.416,-4.63Zm6.896,7.644c-0.362,2.328 -2.31,3.908 -4.6,3.706c-1.842,-0.166 -2.78,-1.456 -2.962,-3.328c-1.88,1.938 -4.456,2.664 -6.996,2.436c-3.136,-0.282 -5.716,-1.718 -5.388,-5.402c0.564,-4.616 5.526,-6.782 13.144,-6.102l0.424,-4.73c0.21,-2.34 -1.57,-3.2 -3.312,-3.356c-1.096,-0.098 -4.664,-0.068 -4.79,1.376c-0.038,0.398 1.432,0.784 1.286,2.428c-0.11,1.242 -0.984,2.018 -2.228,1.904c-1.344,-0.12 -2.002,-1.182 -1.876,-2.576c0.16,-1.792 2.47,-4.596 8.394,-4.064c6.772,0.606 6.514,3.492 6.336,5.484l-1.062,11.85c-0.136,1.492 -0.206,2.29 0.838,2.384c0.996,0.09 1.62,-1.26 1.944,-2.086l0.848,0.076Z" style="fill:#fff;fill-rule:nonzero;"/><path d="M66.483,121.65l0.102,0.008c1.094,-2.16 3.306,-4.422 6.044,-4.176c1.692,0.15 2.956,1.17 2.788,3.06c-0.112,1.244 -1.462,1.726 -2.506,1.632c-0.896,-0.08 -1.852,-1.168 -1.762,-2.164c0.034,-0.398 0.274,-0.83 0.292,-1.028c0.026,-0.3 -0.272,-0.326 -0.422,-0.34c-0.05,-0.004 -1.806,0.544 -3.102,2.684c-0.824,1.382 -1.548,3.276 -1.726,5.266l-0.848,9.458l3.834,0.344l-0.102,1.146l-11.102,-0.994l0.1,-1.146l3.388,0.302l1.562,-17.424l-3.388,-0.302l0.102,-1.146l1.544,0.136c1.842,0.166 3.788,0.29 5.62,0.002l-0.418,4.682Z" style="fill:#fff;fill-rule:nonzero;"/><path d="M82.869,123.118l0.1,0.008c1.096,-2.16 3.308,-4.422 6.046,-4.176c1.692,0.15 2.956,1.168 2.788,3.058c-0.112,1.244 -1.462,1.728 -2.506,1.634c-0.896,-0.08 -1.852,-1.17 -1.762,-2.166c0.034,-0.398 0.274,-0.828 0.292,-1.026c0.026,-0.3 -0.272,-0.328 -0.422,-0.342c-0.05,-0.004 -1.806,0.544 -3.102,2.684c-0.824,1.382 -1.548,3.278 -1.726,5.27l-0.848,9.456l3.834,0.344l-0.102,1.146l-11.102,-0.996l0.1,-1.146l3.386,0.304l1.564,-17.424l-3.388,-0.304l0.102,-1.146l1.544,0.138c1.842,0.166 3.788,0.29 5.62,0.002l-0.418,4.682Z" style="fill:#fff;fill-rule:nonzero;"/><path d="M99.211,107.114c1.196,0.108 2.442,1.322 2.328,2.62c-0.14,1.542 -1.332,2.538 -2.778,2.41c-1.442,-0.132 -2.282,-1.41 -2.152,-2.854c0.114,-1.296 1.358,-2.288 2.602,-2.176m-8.17,32.394l0.102,-1.146l3.336,0.298l1.562,-17.424l-3.336,-0.298l0.1,-1.146l1.646,0.146c1.842,0.166 3.788,0.29 5.62,0.002l-1.71,19.068l2.938,0.264l-0.1,1.144l-10.158,-0.908Z" style="fill:#fff;fill-rule:nonzero;"/><path d="M103.71,121.923l0.1,-1.144l8.964,0.8l-0.102,1.146l-2.638,-0.236l3.548,14.722l0.098,0.008l6.31,-13.838l-3.036,-0.272l0.1,-1.146l6.772,0.606l-0.1,1.146l-2.392,-0.212l-8.592,18.602l-1.694,-0.152l-4.948,-19.816l-2.39,-0.214Z" style="fill:#fff;fill-rule:nonzero;"/><path d="M138.049,130.82l0.152,-1.694c0.32,-3.586 -1.668,-4.916 -4.156,-5.138c-2.988,-0.268 -4.582,2.4 -4.714,2.738c-0.38,0.87 -0.63,2.002 -0.79,3.24l9.508,0.854Zm3.888,7.022c-1.41,4.542 -4.992,6.432 -9.376,6.038c-5.076,-0.454 -9.59,-4.974 -9.094,-10.502c0.528,-5.874 4.892,-10.904 10.816,-10.372c5.078,0.454 8.602,4.232 8.166,9.664l-14.09,-1.26l-0.182,2.04c-0.442,4.93 -0.152,8.97 5.276,9.456c2.84,0.254 6.396,-1.938 7.388,-5.16l1.096,0.096Z" style="fill:#fff;fill-rule:nonzero;"/><path d="M37.757,303.468c0.216,-2.44 -0.952,-4.502 -3.494,-4.728c-2.24,-0.202 -4.36,1.062 -4.584,3.552c-0.188,2.142 1.846,5.738 2.83,7.634c3.67,-1.178 4.91,-2.67 5.248,-6.458m-9.162,8.668c-3.088,0.874 -6.066,2.214 -6.396,5.898c-0.366,4.084 2.398,11.86 6.978,12.27c2.74,0.244 4.832,-0.722 7.17,-2.168l-7.752,-16Zm11.398,12.864c3.322,-3.468 4.952,-7.084 5.49,-11.406l-4.432,-0.396l0.1,-1.144l9.81,0.878l-0.102,1.148l-4.182,-0.378c-0.764,4.6 -2.484,9.216 -6.136,12.452l2.632,5.354l4.33,0.388l-0.1,1.146l-9.062,-0.814l-1.44,-2.988c-2.628,1.924 -6.792,3.006 -9.978,2.718c-7.82,-0.698 -9.944,-6.66 -9.528,-11.292c0.27,-3.036 2.702,-7.236 10.748,-9.628c-1.094,-2.356 -2.42,-4.934 -2.18,-7.572c0.394,-4.432 4.52,-6.22 8.402,-5.874c3.588,0.324 7.278,2.814 6.912,6.896c-0.166,1.842 -1.308,4.55 -8.204,6.44l6.92,14.072Z" style="fill:#fff;fill-rule:nonzero;"/><path d="M91.028,335.794l-0.102,1.146l-9.162,-0.82l0.104,-1.146l2.786,0.25l1.27,-14.138c0.206,-2.342 -0.882,-3.594 -2.478,-3.738c-3.084,-0.276 -5.974,3.932 -6.216,6.672l-0.94,10.454l2.642,0.236l-0.106,1.146l-9.158,-0.82l0.102,-1.146l2.636,0.236l1.27,-14.138c0.206,-2.34 -0.882,-3.594 -2.478,-3.736c-3.086,-0.278 -5.974,3.93 -6.312,7.714l-0.844,9.41l2.79,0.25l-0.104,1.146l-9.16,-0.82l0.102,-1.146l2.488,0.222l1.564,-17.424l-2.49,-0.222l0.1,-1.146l0.798,0.072c1.844,0.164 3.79,0.286 5.622,0l-0.422,4.73l0.096,0.008c1.996,-2.63 3.512,-4.454 7.15,-4.128c2.836,0.254 4.874,2.144 4.904,5.16l0.102,0.008c1.838,-2.596 4.054,-4.354 7.288,-4.066c1.844,0.164 5.314,1.178 4.856,6.306l-1.188,13.244l2.49,0.224Z" style="fill:#fff;fill-rule:nonzero;"/><path d="M98.433,327.726c-0.376,4.182 -0.796,9.464 4.234,9.914c5.026,0.452 5.55,-4.822 5.924,-9.004c0.368,-4.132 0.794,-9.416 -4.234,-9.866c-5.03,-0.45 -5.552,4.824 -5.924,8.956m14.688,1.314c-0.542,6.026 -5.316,10.064 -10.546,9.596c-5.228,-0.468 -9.212,-5.29 -8.67,-11.316c0.536,-6.026 5.31,-10.014 10.54,-9.548c5.23,0.472 9.216,5.246 8.676,11.268" style="fill:#fff;fill-rule:nonzero;"/><path d="M114.807,320.359l0.1,-1.144l8.966,0.8l-0.106,1.146l-2.638,-0.236l3.55,14.724l0.1,0.006l6.306,-13.838l-3.034,-0.27l0.1,-1.146l6.774,0.604l-0.104,1.146l-2.39,-0.212l-8.588,18.602l-1.698,-0.152l-4.95,-19.816l-2.388,-0.214Z" style="fill:#fff;fill-rule:nonzero;"/><path d="M148.846,329.23l0.152,-1.694c0.32,-3.586 -1.668,-4.916 -4.154,-5.138c-2.988,-0.268 -4.582,2.398 -4.714,2.736c-0.38,0.874 -0.632,2.004 -0.792,3.242l9.508,0.854Zm3.89,7.022c-1.412,4.542 -4.994,6.432 -9.374,6.036c-5.078,-0.452 -9.59,-4.974 -9.096,-10.5c0.524,-5.876 4.892,-10.904 10.816,-10.372c5.078,0.452 8.604,4.232 8.164,9.664l-14.088,-1.262l-0.184,2.04c-0.44,4.93 -0.15,8.97 5.276,9.458c2.842,0.252 6.396,-1.938 7.39,-5.162l1.096,0.098Z" style="fill:#fff;fill-rule:nonzero;"/><path d="M172.235,334.335c-0.376,4.182 -0.798,9.464 4.234,9.916c5.026,0.452 5.548,-4.824 5.924,-9.006c0.368,-4.132 0.792,-9.412 -4.234,-9.864c-5.03,-0.45 -5.552,4.822 -5.924,8.954m14.686,1.316c-0.54,6.026 -5.314,10.062 -10.544,9.596c-5.228,-0.468 -9.212,-5.292 -8.672,-11.318c0.538,-6.024 5.312,-10.012 10.542,-9.544c5.228,0.468 9.216,5.242 8.674,11.266" style="fill:#fff;fill-rule:nonzero;"/><path d="M192.842,327.349l-2.74,-0.244l0.102,-1.146l1.046,0.094c0.946,0.084 1.892,0.17 2.8,0.15c0.95,0.034 1.908,-0.032 2.822,-0.148l-0.472,5.276l0.096,0.01c1.678,-3.014 3.81,-4.98 7.444,-4.654c1.794,0.16 5.89,0.93 5.482,5.51l-1.264,14.09l2.688,0.24l-0.102,1.146l-9.162,-0.82l0.106,-1.146l2.586,0.23l1.206,-13.442c0.324,-3.634 -0.772,-4.284 -2.764,-4.462c-3.386,-0.306 -6.39,4.094 -6.724,7.83l-0.83,9.26l2.688,0.24l-0.1,1.146l-9.31,-0.834l0.1,-1.146l2.74,0.244l1.562,-17.424Z" style="fill:#fff;fill-rule:nonzero;"/><path d="M144.285,234.232c0.218,-2.44 -0.952,-4.5 -3.494,-4.726c-2.238,-0.202 -4.358,1.062 -4.584,3.552c-0.19,2.142 1.846,5.738 2.83,7.632c3.672,-1.176 4.91,-2.672 5.248,-6.458m-9.16,8.668c-3.09,0.876 -6.07,2.216 -6.398,5.9c-0.368,4.084 2.398,11.86 6.98,12.27c2.738,0.244 4.832,-0.722 7.17,-2.168l-7.752,-16.002Zm11.396,12.866c3.324,-3.468 4.952,-7.086 5.488,-11.406l-4.432,-0.396l0.104,-1.146l9.81,0.878l-0.104,1.146l-4.184,-0.374c-0.762,4.598 -2.482,9.216 -6.132,12.45l2.63,5.354l4.332,0.388l-0.104,1.144l-9.06,-0.81l-1.438,-2.99c-2.63,1.926 -6.794,3.006 -9.98,2.72c-7.818,-0.7 -9.944,-6.662 -9.528,-11.294c0.272,-3.038 2.704,-7.236 10.75,-9.626c-1.096,-2.358 -2.42,-4.936 -2.182,-7.572c0.396,-4.432 4.522,-6.22 8.404,-5.874c3.586,0.324 7.276,2.812 6.912,6.896c-0.166,1.842 -1.31,4.55 -8.208,6.44l6.922,14.072Z" style="fill:#fff;fill-rule:nonzero;"/><path d="M171.511,251.98c-0.2,2.24 -0.018,5.268 2.718,5.514c3.638,0.324 4.118,-2.242 4.394,-5.328c0.222,-2.49 0.092,-5.512 -2.896,-5.78c-2.488,-0.224 -3.792,0.866 -4.216,5.594m1.484,23.772c8.464,0.758 9.236,-3.942 9.308,-4.738c0.264,-2.938 -0.502,-4.462 -6.826,-5.028c-5.874,-0.526 -7.876,3.308 -8.026,5.004c-0.286,3.186 2.956,4.532 5.544,4.762m0.644,-13.342c6.822,0.612 8.088,1.026 9.52,2.96c0.896,1.234 1.168,2.664 1.036,4.158c-0.55,6.126 -6.122,7.832 -10.852,7.41c-7.17,-0.644 -9.286,-3.944 -9.098,-6.034c0.312,-3.486 3.722,-4.538 6.316,-4.958l0.014,-0.148c-2.506,-0.576 -5.364,-1.184 -5.044,-4.768c0.246,-2.74 3.406,-3.258 5.324,-3.388l0.008,-0.098c-2.142,-1.296 -3.484,-3.122 -3.23,-5.96c0.282,-3.14 2.858,-6.672 7.784,-6.23c2.89,0.258 4.844,1.388 5.968,3.446c0.6,-1.102 1.792,-2.65 3.436,-2.504c0.894,0.08 1.904,0.572 1.79,1.868c-0.09,0.996 -0.72,1.844 -1.764,1.75c-0.846,-0.076 -1.212,-1.616 -1.558,-1.644c-0.498,-0.048 -1.158,0.596 -1.204,1.094c-0.048,0.55 0.532,1.906 0.408,3.3c-0.42,4.68 -4.534,5.766 -5.586,5.772c-4.988,0.206 -9.572,-0.156 -9.794,2.336c-0.05,0.548 0.452,1.094 1.198,1.162l5.328,0.476Z" style="fill:#fff;fill-rule:nonzero;"/><path d="M194.925,234.353c1.196,0.108 2.442,1.324 2.328,2.62c-0.14,1.542 -1.332,2.538 -2.778,2.41c-1.442,-0.13 -2.282,-1.408 -2.152,-2.852c0.114,-1.298 1.356,-2.29 2.602,-2.178m-8.17,32.392l0.102,-1.146l3.336,0.298l1.562,-17.422l-3.338,-0.3l0.104,-1.146l1.644,0.148c1.842,0.164 3.788,0.288 5.62,0l-1.708,19.068l2.936,0.264l-0.102,1.146l-10.156,-0.91Z" style="fill:#fff;fill-rule:nonzero;"/><path d="M201.416,249.339l0.104,-1.144l8.962,0.8l-0.104,1.146l-2.638,-0.236l3.55,14.722l0.098,0.008l6.308,-13.838l-3.036,-0.27l0.102,-1.146l6.772,0.606l-0.102,1.146l-2.39,-0.214l-8.59,18.604l-1.696,-0.154l-4.95,-19.816l-2.39,-0.214Z" style="fill:#fff;fill-rule:nonzero;"/><path d="M236.751,258.325l0.152,-1.692c0.32,-3.586 -1.668,-4.918 -4.156,-5.14c-2.988,-0.268 -4.582,2.398 -4.714,2.738c-0.38,0.872 -0.63,2.004 -0.79,3.242l9.508,0.852Zm3.888,7.024c-1.41,4.542 -4.992,6.428 -9.374,6.036c-5.078,-0.454 -9.59,-4.974 -9.096,-10.502c0.528,-5.874 4.892,-10.904 10.818,-10.372c5.076,0.454 8.6,4.234 8.164,9.666l-14.09,-1.262l-0.184,2.038c-0.44,4.93 -0.148,8.972 5.28,9.456c2.838,0.254 6.394,-1.934 7.386,-5.158l1.096,0.098Z" style="fill:#fff;fill-rule:nonzero;"/><path d="M111.932,152.363c0.218,-2.44 -0.952,-4.502 -3.494,-4.73c-2.238,-0.2 -4.358,1.066 -4.584,3.556c-0.19,2.14 1.846,5.734 2.83,7.63c3.672,-1.178 4.91,-2.67 5.248,-6.456m-9.16,8.666c-3.09,0.876 -6.07,2.214 -6.398,5.9c-0.368,4.082 2.398,11.86 6.98,12.27c2.738,0.246 4.832,-0.72 7.17,-2.168l-7.752,-16.002Zm11.396,12.866c3.324,-3.47 4.952,-7.084 5.488,-11.404l-4.432,-0.396l0.104,-1.146l9.81,0.876l-0.104,1.148l-4.184,-0.374c-0.762,4.598 -2.482,9.212 -6.132,12.45l2.63,5.354l4.332,0.386l-0.104,1.146l-9.06,-0.81l-1.438,-2.992c-2.63,1.924 -6.794,3.006 -9.98,2.72c-7.818,-0.7 -9.944,-6.662 -9.528,-11.292c0.272,-3.038 2.704,-7.236 10.75,-9.626c-1.094,-2.36 -2.42,-4.936 -2.182,-7.574c0.396,-4.432 4.522,-6.222 8.404,-5.874c3.586,0.322 7.276,2.812 6.912,6.896c-0.166,1.842 -1.31,4.548 -8.208,6.44l6.922,14.072Z" style="fill:#fff;fill-rule:nonzero;"/><path d="M132.91,164.232l0.102,-1.146l9.56,0.854l-0.102,1.148l-2.938,-0.264l2.846,13.604l0.1,0.008l5.768,-13.988l1.644,0.148l3.392,14.808l0.098,0.008l5.072,-12.892l-3.436,-0.31l0.102,-1.144l7.418,0.664l-0.102,1.146l-2.736,-0.246l-7.352,18.716l-1.392,-0.128l-3.66,-15.182l-0.1,-0.01l-5.85,14.332l-1.594,-0.144l-4.002,-19.73l-2.838,-0.252Z" style="fill:#fff;fill-rule:nonzero;"/><path d="M165.987,176.025c-0.376,4.184 -0.796,9.464 4.232,9.916c5.028,0.45 5.55,-4.824 5.924,-9.006c0.372,-4.13 0.796,-9.414 -4.234,-9.864c-5.028,-0.45 -5.55,4.824 -5.922,8.954m14.688,1.316c-0.542,6.024 -5.318,10.064 -10.546,9.596c-5.228,-0.468 -9.214,-5.292 -8.674,-11.316c0.54,-6.026 5.314,-10.014 10.544,-9.546c5.226,0.468 9.214,5.242 8.676,11.266" style="fill:#fff;fill-rule:nonzero;"/><path d="M190.602,172.458l0.1,0.01c1.096,-2.16 3.308,-4.422 6.046,-4.176c1.692,0.15 2.956,1.168 2.786,3.058c-0.112,1.246 -1.46,1.728 -2.504,1.634c-0.896,-0.08 -1.852,-1.17 -1.762,-2.166c0.034,-0.398 0.274,-0.828 0.29,-1.028c0.026,-0.298 -0.272,-0.324 -0.42,-0.338c-0.052,-0.006 -1.806,0.544 -3.102,2.684c-0.826,1.382 -1.548,3.274 -1.726,5.266l-0.848,9.458l3.834,0.344l-0.104,1.144l-11.104,-0.994l0.104,-1.144l3.386,0.302l1.564,-17.426l-3.388,-0.302l0.1,-1.144l1.546,0.136c1.842,0.166 3.788,0.29 5.62,0.002l-0.418,4.68Z" style="fill:#fff;fill-rule:nonzero;"/><path d="M212.387,171.349l0.102,-1.144l8.164,0.73l-0.1,1.146l-3.038,-0.272l-7.406,5.358l8.434,12.3l2.088,0.186l-0.102,1.146l-9.458,-0.846l0.102,-1.146l2.488,0.222l-7.408,-10.852l9.058,-6.416l0.014,-0.148l-2.938,-0.264Zm-13.666,17.496l0.104,-1.146l2.588,0.232l2.87,-32.014l-2.59,-0.23l0.104,-1.146l0.896,0.08c1.842,0.166 3.792,0.24 5.616,0.052l-3.01,33.606l2.986,0.268l-0.104,1.146l-9.46,-0.848Z" style="fill:#fff;fill-rule:nonzero;"/><path d="M95.439,269.241c0.218,-2.44 -0.952,-4.502 -3.494,-4.73c-2.238,-0.2 -4.358,1.066 -4.584,3.556c-0.19,2.14 1.846,5.734 2.83,7.63c3.672,-1.178 4.91,-2.67 5.248,-6.456m-9.16,8.666c-3.088,0.876 -6.068,2.214 -6.398,5.9c-0.368,4.082 2.398,11.86 6.98,12.27c2.738,0.246 4.832,-0.72 7.17,-2.168l-7.752,-16.002Zm11.398,12.866c3.322,-3.47 4.95,-7.084 5.486,-11.404l-4.432,-0.396l0.104,-1.146l9.81,0.876l-0.104,1.148l-4.184,-0.374c-0.762,4.598 -2.482,9.212 -6.132,12.45l2.63,5.354l4.332,0.386l-0.102,1.146l-9.062,-0.81l-1.438,-2.992c-2.63,1.924 -6.794,3.006 -9.98,2.72c-7.818,-0.7 -9.944,-6.662 -9.528,-11.292c0.272,-3.038 2.704,-7.236 10.75,-9.626c-1.096,-2.36 -2.42,-4.936 -2.182,-7.574c0.396,-4.432 4.522,-6.222 8.404,-5.874c3.586,0.322 7.276,2.812 6.912,6.896c-0.166,1.842 -1.31,4.548 -8.208,6.44l6.924,14.072Z" style="fill:#fff;fill-rule:nonzero;"/><path d="M116.471,279.96l2.938,0.262l0.55,-6.126c1.294,0.118 2.538,0.23 3.8,0.14l-0.568,6.324l4.382,0.394l-0.102,1.146l-4.382,-0.394l-1.364,15.234c-0.08,0.896 -0.202,2.24 1.69,2.41c1.296,0.118 2.072,-0.718 2.954,-1.592l0.748,0.62c-1.114,1.806 -3.658,2.734 -5.65,2.554c-3.584,-0.32 -3.808,-2.296 -3.594,-4.686l1.334,-14.886l-2.84,-0.256l0.104,-1.144Z" style="fill:#fff;fill-rule:nonzero;"/><path d="M141.28,291.566c-3.24,-0.24 -8.814,-0.188 -9.224,4.394c-0.22,2.44 1.188,4.072 3.478,4.276c1.594,0.144 2.676,-0.162 3.964,-1.102c0.434,-0.36 1.18,-0.846 1.366,-2.938l0.416,-4.63Zm6.896,7.644c-0.36,2.326 -2.31,3.91 -4.6,3.704c-1.842,-0.164 -2.78,-1.454 -2.962,-3.326c-1.88,1.938 -4.456,2.662 -6.994,2.436c-3.138,-0.282 -5.718,-1.72 -5.388,-5.404c0.564,-4.616 5.524,-6.782 13.142,-6.098l0.424,-4.732c0.21,-2.34 -1.57,-3.2 -3.312,-3.356c-1.096,-0.098 -4.664,-0.068 -4.79,1.376c-0.038,0.398 1.434,0.782 1.286,2.426c-0.11,1.242 -0.984,2.018 -2.228,1.906c-1.344,-0.12 -2.002,-1.182 -1.876,-2.576c0.16,-1.792 2.47,-4.598 8.394,-4.066c6.772,0.608 6.514,3.494 6.336,5.486l-1.062,11.85c-0.136,1.492 -0.206,2.29 0.838,2.384c0.996,0.09 1.62,-1.262 1.944,-2.086l0.848,0.076Z" style="fill:#fff;fill-rule:nonzero;"/><path d="M162.976,285.281l0.104,-1.144l8.166,0.73l-0.104,1.144l-3.036,-0.272l-7.404,5.358l8.434,12.3l2.088,0.186l-0.102,1.146l-9.458,-0.846l0.102,-1.146l2.488,0.222l-7.408,-10.852l9.058,-6.416l0.012,-0.148l-2.94,-0.262Zm-13.662,17.494l0.104,-1.146l2.588,0.234l2.868,-32.014l-2.588,-0.232l0.104,-1.146l0.896,0.08c1.842,0.166 3.79,0.24 5.616,0.052l-3.01,33.606l2.986,0.268l-0.104,1.146l-9.46,-0.848Z" style="fill:#fff;fill-rule:nonzero;"/><path d="M187.211,293.271l0.152,-1.692c0.32,-3.586 -1.668,-4.918 -4.156,-5.14c-2.988,-0.268 -4.582,2.398 -4.714,2.74c-0.38,0.87 -0.63,2.002 -0.79,3.24l9.508,0.852Zm3.888,7.024c-1.41,4.542 -4.992,6.43 -9.376,6.038c-5.076,-0.456 -9.588,-4.976 -9.094,-10.504c0.526,-5.874 4.892,-10.904 10.816,-10.372c5.078,0.454 8.602,4.234 8.166,9.666l-14.09,-1.264l-0.184,2.04c-0.44,4.93 -0.148,8.97 5.278,9.458c2.84,0.254 6.396,-1.936 7.388,-5.16l1.096,0.098Z" style="fill:#fff;fill-rule:nonzero;"/><path d="M59.031,186.989c0.22,-2.44 -0.952,-4.502 -3.492,-4.728c-2.238,-0.202 -4.358,1.062 -4.582,3.552c-0.192,2.142 1.842,5.736 2.826,7.632c3.674,-1.174 4.91,-2.672 5.248,-6.456m-9.158,8.666c-3.088,0.876 -6.07,2.214 -6.4,5.9c-0.366,4.082 2.4,11.858 6.982,12.268c2.736,0.246 4.832,-0.72 7.17,-2.166l-7.752,-16.002Zm11.398,12.866c3.322,-3.468 4.948,-7.084 5.484,-11.404l-4.43,-0.398l0.104,-1.146l9.81,0.88l-0.106,1.146l-4.182,-0.376c-0.764,4.6 -2.48,9.214 -6.132,12.452l2.628,5.352l4.334,0.388l-0.104,1.146l-9.062,-0.812l-1.436,-2.99c-2.632,1.924 -6.796,3.006 -9.982,2.72c-7.816,-0.698 -9.94,-6.662 -9.528,-11.292c0.274,-3.038 2.706,-7.236 10.752,-9.628c-1.098,-2.358 -2.42,-4.936 -2.184,-7.572c0.398,-4.432 4.524,-6.22 8.406,-5.874c3.584,0.322 7.274,2.812 6.912,6.896c-0.166,1.842 -1.312,4.548 -8.208,6.44l6.924,14.072Z" style="fill:#fff;fill-rule:nonzero;"/><path d="M79.392,217.521l0.104,-1.146l3.834,0.344l2.868,-32.012l-3.832,-0.344l0.1,-1.146l2.14,0.192c1.844,0.164 3.794,0.24 5.618,0.052l-3.012,33.606l3.836,0.344l-0.104,1.146l-11.552,-1.036Z" style="fill:#fff;fill-rule:nonzero;"/><path d="M109.071,207.282l0.152,-1.694c0.32,-3.586 -1.668,-4.918 -4.158,-5.14c-2.988,-0.268 -4.582,2.4 -4.71,2.738c-0.382,0.872 -0.632,2.004 -0.792,3.242l9.508,0.854Zm3.886,7.022c-1.408,4.542 -4.99,6.43 -9.374,6.036c-5.078,-0.452 -9.59,-4.974 -9.096,-10.502c0.528,-5.874 4.892,-10.902 10.818,-10.372c5.076,0.454 8.602,4.234 8.166,9.666l-14.092,-1.262l-0.182,2.038c-0.442,4.93 -0.148,8.972 5.28,9.458c2.836,0.254 6.394,-1.936 7.388,-5.16l1.092,0.098Z" style="fill:#fff;fill-rule:nonzero;"/><path d="M129.076,211.484c-3.242,-0.24 -8.816,-0.19 -9.224,4.392c-0.22,2.44 1.186,4.072 3.478,4.278c1.592,0.14 2.674,-0.164 3.966,-1.102c0.432,-0.36 1.18,-0.848 1.364,-2.94l0.416,-4.628Zm6.894,7.642c-0.358,2.326 -2.31,3.91 -4.6,3.704c-1.84,-0.164 -2.778,-1.456 -2.962,-3.326c-1.88,1.938 -4.454,2.662 -6.994,2.436c-3.136,-0.282 -5.718,-1.72 -5.388,-5.404c0.564,-4.616 5.524,-6.782 13.142,-6.098l0.426,-4.732c0.21,-2.34 -1.57,-3.2 -3.312,-3.356c-1.098,-0.098 -4.664,-0.068 -4.79,1.376c-0.038,0.4 1.434,0.782 1.288,2.424c-0.112,1.244 -0.986,2.02 -2.232,1.908c-1.342,-0.118 -2.002,-1.182 -1.874,-2.576c0.16,-1.792 2.47,-4.598 8.396,-4.066c6.768,0.608 6.512,3.494 6.334,5.486l-1.064,11.85c-0.134,1.494 -0.206,2.29 0.84,2.382c0.996,0.09 1.618,-1.26 1.944,-2.082l0.846,0.074Z" style="fill:#fff;fill-rule:nonzero;"/><path d="M145.42,207.779l0.102,0.008c1.096,-2.16 3.308,-4.42 6.046,-4.176c1.692,0.152 2.958,1.168 2.788,3.058c-0.114,1.244 -1.462,1.728 -2.508,1.634c-0.894,-0.08 -1.85,-1.17 -1.762,-2.166c0.036,-0.398 0.276,-0.828 0.29,-1.026c0.028,-0.3 -0.268,-0.328 -0.42,-0.342c-0.05,-0.004 -1.804,0.544 -3.102,2.684c-0.824,1.382 -1.548,3.278 -1.726,5.27l-0.848,9.456l3.836,0.342l-0.104,1.146l-11.104,-0.994l0.104,-1.146l3.386,0.304l1.562,-17.424l-3.384,-0.304l0.1,-1.146l1.544,0.14c1.84,0.164 3.786,0.288 5.622,0l-0.422,4.682Z" style="fill:#fff;fill-rule:nonzero;"/><path d="M158.099,205.851l-2.74,-0.244l0.102,-1.146l1.046,0.094c0.946,0.084 1.89,0.17 2.796,0.15c0.95,0.034 1.912,-0.032 2.826,-0.148l-0.478,5.276l0.102,0.01c1.678,-3.012 3.81,-4.978 7.444,-4.652c1.794,0.16 5.89,0.928 5.478,5.508l-1.26,14.09l2.688,0.24l-0.106,1.144l-9.158,-0.818l0.1,-1.146l2.592,0.23l1.204,-13.442c0.326,-3.634 -0.77,-4.282 -2.762,-4.462c-3.386,-0.306 -6.39,4.094 -6.724,7.83l-0.83,9.26l2.688,0.24l-0.104,1.144l-9.312,-0.834l0.106,-1.144l2.74,0.246l1.562,-17.426Z" style="fill:#fff;fill-rule:nonzero;"/><path d="M64.783,165.519c-9.952,-0.912 -17.318,-9.74 -16.424,-19.698l1.194,0.106c-0.832,9.3 6.044,17.546 15.34,18.396c0.012,0.002 0.02,0.002 0.032,0.004l7.36,0.658l-0.106,1.196l-7.358,-0.658c-0.014,-0.002 -0.026,-0.004 -0.038,-0.004" style="fill:#fff;fill-rule:nonzero;"/><path d="M65.908,169.025l5.07,-3.552l-4.358,-4.4l13.334,5.202l-14.046,2.75Z" style="fill:#fff;fill-rule:nonzero;"/><path d="M67.95,168.046l10.498,-1.906l-6.75,-0.604l-3.748,2.51Z" style="fill:#fff;fill-rule:nonzero;"/><path d="M97.574,247.673c-9.954,-0.912 -17.318,-9.74 -16.426,-19.698l1.194,0.106c-0.832,9.3 6.048,17.548 15.342,18.398c0.012,0.002 0.02,0.002 0.032,0.004l7.358,0.658l-0.104,1.196l-7.36,-0.66c-0.014,-0.002 -0.024,-0.002 -0.036,-0.004" style="fill:#fff;fill-rule:nonzero;"/><path d="M98.697,251.181l5.07,-3.554l-4.358,-4.4l13.334,5.204l-14.046,2.75Z" style="fill:#fff;fill-rule:nonzero;"/><path d="M100.739,250.2l10.498,-1.904l-6.75,-0.606l-3.748,2.51Z" style="fill:#fff;fill-rule:nonzero;"/><path d="M192.699,216.868l0.106,-1.194l3.774,0.338c9.31,0.834 17.564,-6.062 18.4,-15.372l1.194,0.104c-0.892,9.974 -9.73,17.356 -19.7,16.462l-3.774,-0.338Z" style="fill:#fff;fill-rule:nonzero;"/><path d="M199.077,212.831l-5.07,3.552l4.358,4.4l-13.334,-5.202l14.046,-2.75Z" style="fill:#fff;fill-rule:nonzero;"/><path d="M197.034,213.81l-10.498,1.904l6.75,0.606l3.748,-2.51Z" style="fill:#fff;fill-rule:nonzero;"/><path d="M208.181,297.45l0.106,-1.194l3.772,0.338c9.312,0.834 17.566,-6.062 18.402,-15.372l1.194,0.104c-0.892,9.974 -9.73,17.356 -19.7,16.462l-3.774,-0.338Z" style="fill:#fff;fill-rule:nonzero;"/><path d="M214.559,293.413l-5.068,3.552l4.356,4.4l-13.336,-5.202l14.048,-2.75Z" style="fill:#fff;fill-rule:nonzero;"/><path d="M212.517,294.392l-10.498,1.906l6.75,0.606l3.748,-2.512Z" style="fill:#fff;fill-rule:nonzero;"/><path d="M48.562,297.208l0.248,-2.764c0.304,-3.41 1.918,-6.494 4.542,-8.686c2.624,-2.192 5.944,-3.232 9.354,-2.924l6.154,0.526l-0.102,1.196l-6.154,-0.53c-3.094,-0.276 -6.106,0.664 -8.484,2.652c-2.376,1.988 -3.838,4.782 -4.116,7.872l-0.248,2.764l-1.194,-0.106Z" style="fill:#fff;fill-rule:nonzero;"/><path d="M45.718,290.937l3.554,5.068l4.398,-4.356l-5.202,13.334l-2.75,-14.046Z" style="fill:#fff;fill-rule:nonzero;"/><path d="M46.697,292.978l1.906,10.5l0.604,-6.75l-2.51,-3.75Z" style="fill:#fff;fill-rule:nonzero;"/><path d="M226.234,338.529l-6.204,-0.568l0.11,-1.194l6.202,0.568c13.174,1.178 28.012,-6.69 29.562,-23.6l13.19,-149.718c0.922,-10.28 -7.22,-19.446 -18.152,-20.448c-0.016,-0.002 -0.03,-0.002 -0.042,-0.004l-87.052,-8.044l0.11,-1.196l87.048,8.046c0.016,0 0.032,0.002 0.048,0.004c11.59,1.062 20.214,10.808 19.234,21.75l-13.188,149.716c-1.424,15.524 -14.694,26.138 -30.866,24.688" style="fill:#fff;fill-rule:nonzero;"/><path d="M169.502,139.448l-4.344,-4.408l5.078,-3.54l-14.054,2.71l13.32,5.238Z" style="fill:#fff;fill-rule:nonzero;"/><path d="M167.67,138.118l-9.982,-3.77l6.748,0.624l3.234,3.146Z" style="fill:#fff;fill-rule:nonzero;"/><path d="M21.682,351.31c1.558,0.144 3.146,-1.172 3.32,-3.054c0.142,-1.542 -0.708,-2.57 -1.888,-2.678l-1.626,-0.152l-1.552,5.722l1.746,0.162Zm-1.824,-8.192l3.78,0.352c2.138,0.2 3.844,2.256 3.604,4.822c-0.286,3.078 -3.092,5.406 -6.034,5.134l-4.07,-0.382l2.72,-9.926Z" style="fill:#fff;fill-rule:nonzero;"/><path d="M30.374,344.097l7.012,0.654l-0.566,2.018l-4.79,-0.448l-0.526,1.938l4.448,0.414l-0.552,2.02l-4.446,-0.414l-0.528,1.934l4.79,0.446l-0.55,2.022l-7.012,-0.656l2.72,-9.928Z" style="fill:#fff;fill-rule:nonzero;"/><path d="M36.856,351.519l2.222,0.208l-0.008,0.084c-0.07,0.77 0.472,1.422 2.012,1.57c1.112,0.1 1.77,-0.442 1.816,-0.952c0.042,-0.428 -0.442,-0.818 -1.274,-1.154l-1.414,-0.564c-1.414,-0.566 -2.112,-1.404 -2.008,-2.518c0.186,-1.984 1.97,-3.354 4.262,-3.14c2.564,0.24 3.728,1.642 3.57,3.352c-0.012,0.12 -0.042,0.428 -0.042,0.428l-2.222,-0.208c0.002,-0.034 0.006,-0.068 0.008,-0.086c0.066,-0.684 -0.48,-1.336 -1.676,-1.448c-1.028,-0.096 -1.588,0.368 -1.646,0.968c-0.03,0.34 0.116,0.614 0.948,0.948l1.414,0.566c1.664,0.672 2.446,1.522 2.334,2.722c-0.182,1.964 -1.864,3.36 -4.43,3.12c-2.822,-0.262 -4.064,-1.76 -3.898,-3.554l0.032,-0.342Z" style="fill:#fff;fill-rule:nonzero;"/><path d="M48.931,345.827l2.222,0.208l-2.72,9.928l-2.222,-0.208l2.72,-9.928Z" style="fill:#fff;fill-rule:nonzero;"/><path d="M56.803,351.308l4.62,0.432l-0.16,0.59c-0.768,2.858 -3.096,4.712 -5.748,4.466c-2.48,-0.232 -4.186,-2.288 -3.94,-4.94c0.312,-3.352 3.116,-5.664 6.024,-5.392c2.31,0.216 3.706,1.898 3.79,4.148l-2.242,-0.206c-0.178,-1.056 -0.89,-1.724 -1.918,-1.82c-1.626,-0.152 -3.216,1.168 -3.416,3.308c-0.142,1.538 0.788,2.658 2.072,2.778c1.112,0.104 2.194,-0.4 2.692,-1.474l-2.242,-0.206l0.468,-1.684Z" style="fill:#fff;fill-rule:nonzero;"/><path d="M64.663,347.296l2.804,0.262l1.558,6.444l0.358,0.032l1.694,-6.14l2.224,0.208l-2.72,9.926l-2.804,-0.262l-1.574,-6.444l-0.36,-0.034l-1.678,6.14l-2.222,-0.206l2.72,-9.926Z" style="fill:#fff;fill-rule:nonzero;"/><path d="M78.789,348.613l2.258,0.21l-0.324,6.614l0.342,0.032l3.488,-6.316l2.396,0.222l-0.068,6.636l0.344,0.032l3.23,-6.34l2.362,0.218l-5.114,9.704l-2.826,-0.262l0.104,-6.462l-0.344,-0.032l-3.35,6.158l-2.824,-0.262l0.326,-10.152Z" style="fill:#fff;fill-rule:nonzero;"/><path d="M97.728,356.593l-0.254,-3.736l-0.342,-0.032l-2.242,3.502l2.838,0.266Zm-1.34,-6.34l3.08,0.29l0.786,10.254l-2.258,-0.212l-0.134,-1.912l-4.208,-0.39l-1.134,1.792l-2.36,-0.22l6.228,-9.602Z" style="fill:#fff;fill-rule:nonzero;"/><path d="M104.084,350.972l2.222,0.208l-2.142,7.824l4.618,0.428l-0.574,2.106l-6.844,-0.638l2.72,-9.928Z" style="fill:#fff;fill-rule:nonzero;"/><path d="M109.354,359.538l6.416,-5.32l-4.758,-0.444l0.594,-2.102l7.784,0.728l-0.57,2.05l-6.416,5.32l4.928,0.462l-0.576,2.1l-7.954,-0.74l0.552,-2.054Z" style="fill:#fff;fill-rule:nonzero;"/></g></svg>