<?xml version="1.0" encoding="UTF-8" standalone="no"?><!DOCTYPE svg PUBLIC "-//W3C//DTD SVG 1.1//EN" "http://www.w3.org/Graphics/SVG/1.1/DTD/svg11.dtd"><svg width="100%" height="100%" viewBox="0 0 930 638" version="1.1" xmlns="http://www.w3.org/2000/svg" xmlns:xlink="http://www.w3.org/1999/xlink" xml:space="preserve" xmlns:serif="http://www.serif.com/" style="fill-rule:evenodd;clip-rule:evenodd;stroke-linejoin:round;stroke-miterlimit:2;"><g><g id="Ebene-2" serif:id="Ebene 2"><path d="M634.046,177.12l266.044,-21.496l21.52,266.346l-266.044,21.496l-21.52,-266.346Z" style="fill:#c8e7f9;"/><path d="M683.931,195.137l127.258,87.104l-1.93,2.82l-127.258,-87.104l1.93,-2.82Z" style="fill:#1e1c1a;"/><path d="M696.857,190.137c-0.068,0.006 -0.138,0.014 -0.21,0.026c-2.146,0.312 -3.724,2.64 -3.518,5.19c0.17,2.102 2.994,6.876 4.686,9.028c1.202,-2.51 3.05,-8.084 2.868,-10.344c-0.106,-1.31 -0.684,-2.474 -1.584,-3.192c-0.472,-0.374 -1.232,-0.79 -2.242,-0.708m1.354,18.472c-0.818,0.068 -1.416,-0.41 -1.618,-0.572c-1.922,-1.532 -6.58,-8.8 -6.872,-12.408c-0.348,-4.314 2.54,-8.284 6.436,-8.852c1.824,-0.244 3.616,0.234 5.074,1.396c1.636,1.302 2.678,3.34 2.86,5.588c0.232,2.878 -2.816,14.404 -5.758,14.834c-0.04,0.006 -0.082,0.012 -0.122,0.014" style="fill:#1e1c1a;fill-rule:nonzero;"/><path d="M700.741,206.948c2.486,1.252 8.022,3.216 10.288,3.08c1.352,-0.076 2.488,-0.63 3.226,-1.52c0.41,-0.494 0.87,-1.32 0.732,-2.434c-0.262,-2.116 -2.606,-3.776 -5.12,-3.626l-0.058,0.006c-2.138,0.172 -6.902,2.862 -9.068,4.494m10.67,6.48c-0.058,0.004 -0.116,0.01 -0.176,0.012c-2.886,0.174 -14.354,-3.11 -14.716,-6.064c-0.112,-0.878 0.418,-1.514 0.59,-1.722c1.57,-1.888 8.926,-6.372 12.554,-6.618c4.322,-0.262 8.232,2.706 8.718,6.618c0.226,1.814 -0.306,3.604 -1.494,5.04c-1.304,1.566 -3.292,2.558 -5.476,2.734" style="fill:#1e1c1a;fill-rule:nonzero;"/><path d="M769.757,286.864c-6.042,-17.012 -8.754,-38.904 -5.682,-55.624c2.664,-14.502 9.974,-25.286 19.588,-23.472c19.544,3.69 19.794,24.218 19.794,24.218l-11.668,-1.854c0,0 2.224,-20.168 -17.32,-23.858c-24.262,-4.58 -29.248,58.78 -8.862,88.334" style="fill:#c8e7f9;fill-rule:nonzero;"/><path d="M793.666,228.592l7.792,1.234c-0.606,-4.656 -3.224,-15.374 -14.514,-19.312c6.058,6.014 6.736,14.468 6.722,18.078m-29.556,67.048c-16.182,-23.46 -16.456,-66.046 -5.322,-83.16c4.172,-6.42 9.712,-9.184 16.018,-7.992c1.808,0.34 3.442,0.814 4.922,1.394c1.396,-0.212 2.816,-0.174 4.274,0.1c20.764,3.92 21.27,25.758 21.272,25.982l0.026,2.152l-15.502,-2.46l0.184,-1.718c0.07,-0.672 1.412,-14.786 -10.634,-20.264c-1.092,0.284 -2.154,0.78 -3.182,1.484c-4.766,3.268 -8.52,10.708 -10.304,20.408c-2.862,15.576 -0.66,37.044 5.606,54.69l-3.424,1.216c-6.466,-18.204 -8.726,-40.404 -5.758,-56.562c1.958,-10.646 6.266,-18.938 11.824,-22.75l0.122,-0.082c-0.034,-0.006 -0.066,-0.014 -0.102,-0.02c-4.8,-0.9 -8.944,1.246 -12.298,6.406c-12.324,18.944 -7.478,60.63 5.27,79.112l-2.992,2.064Z" style="fill:#1e1c1a;fill-rule:nonzero;"/><path d="M779.004,213.824l80.545,12.789l-12.789,80.549l-80.545,-12.788l12.789,-80.55Z" style="fill:#c8e7f9;"/><path d="M768.287,292.862l76.962,12.22l12.228,-76.958l-76.964,-12.22l-12.226,76.958Zm79.984,16.38l-84.146,-13.36l13.368,-84.14l84.144,13.36l-13.366,84.14Z" style="fill:#1e1c1a;fill-rule:nonzero;"/><path d="M764.252,180.062l120.208,19.085l-4.878,30.719l-120.207,-19.086l4.877,-30.718Z" style="fill:#c8e7f9;"/><path d="M761.453,209.27l116.618,18.516l4.31,-27.13l-116.616,-18.512l-4.312,27.126Zm119.638,22.676l-123.8,-19.656l5.454,-34.31l123.796,19.658l-5.45,34.308Z" style="fill:#1e1c1a;fill-rule:nonzero;"/><path d="M856.607,251.051c-13.542,3.814 -28.1,4.854 -42.906,2.502c-13.884,-2.204 -26.64,-7.164 -37.818,-14.218" style="fill:#c8e7f9;fill-rule:nonzero;"/><path d="M837.653,256.303c-8.036,0.648 -16.136,0.332 -24.238,-0.956c-13.802,-2.19 -26.756,-7.062 -38.5,-14.478l1.938,-3.072c11.328,7.15 23.822,11.85 37.132,13.962c14.174,2.25 28.344,1.422 42.13,-2.458l0.986,3.498c-6.414,1.806 -12.908,2.974 -19.448,3.504" style="fill:#1e1c1a;fill-rule:nonzero;"/><path d="M802.649,181.701l-6.38,39.184" style="fill:none;fill-rule:nonzero;"/><path d="M800.854,181.408l3.587,0.584l-6.381,39.184l-3.588,-0.584l6.382,-39.184Z" style="fill:#1e1c1a;"/><path d="M845.722,188.539l-6.25,39.15" style="fill:none;fill-rule:nonzero;"/><path d="M843.928,188.253l3.579,0.57l-6.241,39.152l-3.58,-0.571l6.242,-39.151Z" style="fill:#1e1c1a;"/><path d="M791.953,242.439l7.757,1.232l-2.431,15.312l-7.758,-1.232l2.432,-15.312Z" style="fill:#c8e7f9;"/><path d="M791.601,256.241l4.166,0.662l1.864,-11.722l-4.168,-0.664l-1.862,11.724Zm7.188,4.822l-11.348,-1.802l3,-18.9l11.35,1.798l-3.002,18.904Z" style="fill:#1e1c1a;fill-rule:nonzero;"/><path d="M829.526,248.404l7.754,1.229l-2.428,15.315l-7.754,-1.23l2.428,-15.314Z" style="fill:#c8e7f9;"/><path d="M829.174,262.205l4.166,0.664l1.864,-11.724l-4.166,-0.662l-1.864,11.722Zm7.188,4.82l-11.348,-1.798l3.002,-18.9l11.348,1.798l-3.002,18.9Z" style="fill:#1e1c1a;fill-rule:nonzero;"/><path d="M760.839,292.991l84.787,-7.556l7.557,84.792l-84.788,7.556l-7.556,-84.792Z" style="fill:#c8e7f9;"/><path d="M762.792,294.623l7.238,81.208l81.202,-7.238l-7.24,-81.208l-81.2,7.238Zm3.97,85.114l-7.874,-88.38l88.37,-7.876l7.878,88.378l-88.374,7.878Z" style="fill:#1e1c1a;fill-rule:nonzero;"/><path d="M839.155,299.721l-83.286,2.96l-0.608,-17.198l90.48,-3.218l0.328,4.584l-6.914,12.872Z" style="fill:#c8e7f9;fill-rule:nonzero;"/><path d="M757.471,300.963l80.672,-2.868l6.234,-11.606l-0.18,-2.506l-87.218,3.104l0.492,13.876Zm82.694,0.382l-85.896,3.056l-0.728,-20.518l93.742,-3.332l0.476,6.66l-7.594,14.134Z" style="fill:#1e1c1a;fill-rule:nonzero;"/><path d="M820.519,317.807l-27.386,2.44c-3.096,0.276 -5.856,-2.032 -6.132,-5.128c-0.274,-3.098 2.032,-5.854 5.128,-6.132l27.386,-2.44c3.096,-0.278 5.856,2.032 6.13,5.128c0.278,3.096 -2.03,5.854 -5.126,6.132" style="fill:#c8e7f9;fill-rule:nonzero;"/><path d="M819.706,308.336c-0.012,0.002 -0.022,0.002 -0.032,0.004l-27.384,2.442c-1.018,0.09 -1.946,0.576 -2.608,1.368c-0.664,0.792 -0.978,1.79 -0.888,2.808c0.092,1.018 0.578,1.944 1.37,2.608c0.784,0.656 1.77,0.972 2.778,0.89c0.012,-0.002 0.02,-0.002 0.03,-0.002l27.386,-2.442c2.116,-0.188 3.682,-2.062 3.494,-4.178c-0.188,-2.104 -2.044,-3.668 -4.146,-3.498m-26.474,13.708c-4.068,0.33 -7.662,-2.694 -8.024,-6.764c-0.176,-1.98 0.432,-3.908 1.712,-5.438c1.28,-1.532 3.074,-2.47 5.05,-2.648l27.384,-2.442c0.02,-0.002 0.04,-0.004 0.062,-0.006c4.068,-0.328 7.662,2.696 8.024,6.768c0.364,4.096 -2.67,7.72 -6.762,8.086l-27.384,2.44c-0.022,0.002 -0.044,0.004 -0.062,0.004" style="fill:#1e1c1a;fill-rule:nonzero;"/><path d="M676.529,431.082c1.562,-0.124 2.9,-1.694 2.748,-3.578c-0.122,-1.544 -1.136,-2.408 -2.32,-2.314l-1.628,0.126l-0.546,5.904l1.746,-0.138Zm-3.198,-7.76l3.784,-0.298c2.138,-0.17 4.172,1.564 4.374,4.132c0.246,3.082 -2.12,5.856 -5.064,6.09l-4.076,0.322l0.982,-10.246Z" style="fill:#1e1c1a;fill-rule:nonzero;"/><path d="M683.86,422.489l7.022,-0.556l-0.216,2.086l-4.794,0.378l-0.186,1.998l4.454,-0.354l-0.2,2.084l-4.452,0.352l-0.186,1.996l4.792,-0.378l-0.194,2.086l-7.022,0.554l0.982,-10.246Z" style="fill:#1e1c1a;fill-rule:nonzero;"/><path d="M691.517,428.69l2.224,-0.176l0.006,0.086c0.062,0.77 0.71,1.32 2.254,1.2c1.112,-0.09 1.664,-0.736 1.622,-1.248c-0.03,-0.428 -0.572,-0.73 -1.45,-0.92l-1.49,-0.314c-1.492,-0.314 -2.32,-1.022 -2.412,-2.136c-0.156,-1.986 1.37,-3.64 3.662,-3.822c2.57,-0.204 3.956,0.978 4.094,2.692c0.01,0.118 0.03,0.428 0.03,0.428l-2.224,0.174c-0.002,-0.032 -0.004,-0.068 -0.006,-0.086c-0.056,-0.684 -0.704,-1.234 -1.902,-1.138c-1.03,0.08 -1.502,0.634 -1.452,1.234c0.026,0.342 0.218,0.586 1.096,0.774l1.488,0.314c1.754,0.378 2.668,1.082 2.766,2.282c0.156,1.966 -1.262,3.63 -3.832,3.834c-2.824,0.224 -4.306,-1.038 -4.446,-2.834l-0.028,-0.344Z" style="fill:#1e1c1a;fill-rule:nonzero;"/><path d="M702.439,421.016l2.224,-0.176l-0.98,10.248l-2.226,0.176l0.982,-10.248Z" style="fill:#1e1c1a;fill-rule:nonzero;"/><path d="M711.133,425.067l4.622,-0.366l-0.052,0.608c-0.268,2.95 -2.248,5.176 -4.9,5.384c-2.484,0.198 -4.516,-1.536 -4.728,-4.19c-0.266,-3.356 2.1,-6.114 5.014,-6.344c2.308,-0.184 3.976,1.236 4.444,3.438l-2.248,0.178c-0.356,-1.006 -1.17,-1.544 -2.198,-1.462c-1.628,0.13 -2.97,1.702 -2.802,3.844c0.126,1.54 1.232,2.484 2.516,2.382c1.114,-0.088 2.094,-0.768 2.402,-1.912l-2.242,0.178l0.172,-1.738Z" style="fill:#1e1c1a;fill-rule:nonzero;"/><path d="M718.19,419.77l2.808,-0.224l2.636,6.084l0.36,-0.03l0.618,-6.34l2.228,-0.176l-0.984,10.244l-2.808,0.224l-2.654,-6.08l-0.358,0.028l-0.6,6.338l-2.228,0.176l0.982,-10.244Z" style="fill:#1e1c1a;fill-rule:nonzero;"/><path d="M732.333,418.649l2.258,-0.18l0.814,6.57l0.342,-0.026l2.356,-6.822l2.4,-0.188l1.07,6.548l0.342,-0.026l2.096,-6.802l2.364,-0.188l-3.378,10.436l-2.828,0.224l-1.004,-6.384l-0.342,0.028l-2.246,6.642l-2.828,0.224l-1.416,-10.056Z" style="fill:#1e1c1a;fill-rule:nonzero;"/><path d="M752.356,423.268l-0.89,-3.638l-0.342,0.026l-1.61,3.836l2.842,-0.224Zm-2.406,-6.016l3.084,-0.244l2.53,9.968l-2.258,0.178l-0.46,-1.858l-4.214,0.334l-0.81,1.96l-2.364,0.188l4.492,-10.526Z" style="fill:#1e1c1a;fill-rule:nonzero;"/><path d="M757.657,416.641l2.226,-0.176l-0.772,8.074l4.626,-0.364l-0.21,2.172l-6.85,0.54l0.98,-10.246Z" style="fill:#1e1c1a;fill-rule:nonzero;"/><path d="M764.316,424.18l5.41,-6.342l-4.762,0.378l0.226,-2.172l7.794,-0.616l-0.214,2.118l-5.41,6.342l4.936,-0.392l-0.21,2.17l-7.964,0.632l0.194,-2.118Z" style="fill:#1e1c1a;fill-rule:nonzero;"/><path d="M778.097,397.93c-2.33,0.504 -4.65,-0.988 -5.156,-3.32l-2.16,-9.968c-0.506,-2.33 0.988,-4.65 3.318,-5.156c2.332,-0.504 4.652,0.988 5.156,3.32l2.162,9.968c0.504,2.33 -0.988,4.65 -3.32,5.156" style="fill:#1e1c1a;fill-rule:nonzero;"/><path d="M711.046,412.465c-2.332,0.506 -4.652,-0.988 -5.156,-3.318l-2.162,-9.968c-0.504,-2.33 0.988,-4.65 3.32,-5.156c2.33,-0.506 4.65,0.988 5.156,3.318l2.16,9.968c0.506,2.332 -0.988,4.65 -3.318,5.156" style="fill:#1e1c1a;fill-rule:nonzero;"/><path d="M772.156,322.942c-0.084,0.008 -0.166,0.02 -0.25,0.038c-0.496,0.106 -0.922,0.404 -1.204,0.838c-0.278,0.434 -0.372,0.946 -0.264,1.44l3.93,18.134c0.11,0.496 0.408,0.924 0.838,1.202c0.434,0.278 0.948,0.368 1.444,0.266c1.032,-0.224 1.688,-1.248 1.466,-2.282l-3.93,-18.13c-0.108,-0.496 -0.406,-0.924 -0.84,-1.204c-0.358,-0.232 -0.774,-0.336 -1.19,-0.302m4.588,26.352c-1.374,0.11 -2.74,-0.228 -3.924,-0.992c-1.424,-0.916 -2.406,-2.328 -2.76,-3.978l-3.934,-18.13c-0.358,-1.648 -0.05,-3.34 0.868,-4.764c0.916,-1.424 2.33,-2.404 3.976,-2.762c3.41,-0.772 6.786,1.434 7.526,4.844l3.93,18.132c0.74,3.41 -1.434,6.784 -4.842,7.524c-0.278,0.064 -0.558,0.102 -0.84,0.126" style="fill:#1e1c1a;fill-rule:nonzero;"/><path d="M718.38,256.518c-0.462,0.038 -0.924,0.106 -1.388,0.206l-10.248,2.222c-2.736,0.594 -5.082,2.226 -6.612,4.6c-1.526,2.372 -2.04,5.184 -1.448,7.92l8.888,41.002c1.232,5.674 6.848,9.282 12.52,8.06l10.25,-2.22c2.736,-0.594 5.082,-2.23 6.61,-4.6c1.528,-2.374 2.042,-5.188 1.45,-7.922l-8.89,-41.002c-1.13,-5.21 -5.956,-8.684 -11.132,-8.266m0.584,67.442c-6.766,0.546 -13.078,-3.994 -14.554,-10.808l-8.888,-41c-0.778,-3.58 -0.106,-7.26 1.89,-10.358c1.996,-3.1 5.066,-5.234 8.646,-6.01l10.246,-2.224c7.416,-1.636 14.764,3.12 16.37,10.536l8.89,41.002c0.778,3.582 0.108,7.262 -1.89,10.36c-1.996,3.102 -5.066,5.236 -8.646,6.012l-10.248,2.22c-0.608,0.132 -1.216,0.22 -1.816,0.27" style="fill:#1e1c1a;fill-rule:nonzero;"/><path d="M774.512,391.022l-64.508,13.984c-5.22,1.132 -10.416,-2.212 -11.546,-7.432l-18.796,-86.692c-1.132,-5.22 2.214,-10.416 7.434,-11.548l64.506,-13.984c5.22,-1.132 10.416,2.214 11.548,7.432l18.794,86.694c1.132,5.218 -2.214,10.414 -7.432,11.546" style="fill:#c8e7f9;fill-rule:nonzero;"/><path d="M753.024,286.903c-0.348,0.03 -0.7,0.08 -1.05,0.156l-64.508,13.986c-2.068,0.448 -3.842,1.682 -4.998,3.478c-1.154,1.792 -1.546,3.922 -1.096,5.988l18.794,86.69c0.45,2.07 1.684,3.844 3.48,5c1.794,1.156 3.922,1.544 5.988,1.094l64.506,-13.984c2.068,-0.448 3.842,-1.682 4.998,-3.476c1.154,-1.796 1.546,-3.922 1.096,-5.988l-18.794,-86.694c-0.854,-3.94 -4.502,-6.566 -8.416,-6.25m-44.168,120.038c-2.486,0.2 -4.962,-0.418 -7.106,-1.798c-2.58,-1.66 -4.356,-4.216 -5.004,-7.198l-18.794,-86.692c-1.338,-6.176 2.596,-12.29 8.77,-13.628l64.51,-13.986c6.208,-1.344 12.29,2.598 13.626,8.77l18.796,86.696c1.338,6.174 -2.596,12.288 -8.77,13.626l-64.508,13.984c-0.504,0.11 -1.012,0.184 -1.52,0.226" style="fill:#1e1c1a;fill-rule:nonzero;"/><path d="M712.273,393.407c-0.938,0.076 -1.808,-0.554 -2.014,-1.498l-17.69,-81.594c-0.22,-1.03 0.432,-2.042 1.46,-2.266c1.034,-0.214 2.042,0.434 2.266,1.46l17.688,81.594c0.222,1.028 -0.43,2.042 -1.458,2.264c-0.086,0.02 -0.168,0.032 -0.252,0.04" style="fill:#1e1c1a;fill-rule:nonzero;"/><path d="M725.951,390.44c-0.938,0.076 -1.808,-0.554 -2.014,-1.498l-17.69,-81.592c-0.22,-1.03 0.432,-2.042 1.46,-2.266c1.038,-0.222 2.042,0.434 2.266,1.46l17.688,81.592c0.222,1.028 -0.43,2.044 -1.458,2.264c-0.086,0.02 -0.168,0.032 -0.252,0.04" style="fill:#1e1c1a;fill-rule:nonzero;"/><path d="M753.309,384.51c-0.938,0.076 -1.808,-0.552 -2.014,-1.498l-17.69,-81.594c-0.22,-1.028 0.432,-2.042 1.46,-2.266c1.046,-0.232 2.042,0.432 2.266,1.46l17.688,81.596c0.222,1.026 -0.43,2.042 -1.458,2.262c-0.086,0.02 -0.168,0.032 -0.252,0.04" style="fill:#1e1c1a;fill-rule:nonzero;"/><path d="M766.99,381.543c-0.938,0.076 -1.808,-0.554 -2.014,-1.498l-17.692,-81.594c-0.222,-1.028 0.432,-2.042 1.46,-2.266c1.032,-0.214 2.042,0.434 2.266,1.46l17.69,81.594c0.222,1.028 -0.43,2.044 -1.46,2.264c-0.084,0.02 -0.166,0.032 -0.25,0.04" style="fill:#1e1c1a;fill-rule:nonzero;"/><path d="M739.63,387.475c-0.938,0.076 -1.808,-0.554 -2.014,-1.498l-17.69,-81.594c-0.22,-1.03 0.432,-2.042 1.46,-2.266c1.042,-0.226 2.042,0.432 2.266,1.46l17.688,81.594c0.222,1.028 -0.43,2.044 -1.458,2.264c-0.086,0.02 -0.168,0.032 -0.252,0.04" style="fill:#1e1c1a;fill-rule:nonzero;"/><path d="M659.282,236.789c-3.722,15.686 5.974,31.42 21.66,35.142c15.684,3.724 31.418,-5.974 35.14,-21.66c3.724,-15.684 -7.368,-39.364 -19.442,-42.232c-12.074,-2.866 -33.636,13.066 -37.358,28.75" style="fill:#c8e7f9;fill-rule:nonzero;"/><path d="M660.945,237.184c-3.498,14.742 5.65,29.584 20.39,33.084c14.734,3.504 29.584,-5.648 33.084,-20.388c3.462,-14.596 -6.898,-37.498 -18.174,-40.176c-10.508,-2.502 -31.642,12.072 -35.3,27.48m29.26,37.16c-3.196,0.258 -6.448,0.012 -9.658,-0.748c-16.576,-3.936 -26.864,-20.624 -22.93,-37.202c3.89,-16.37 25.98,-33.204 39.418,-30.018c12.982,3.084 24.596,27.92 20.712,44.292c-1.906,8.032 -6.826,14.838 -13.852,19.168c-4.218,2.6 -8.892,4.12 -13.69,4.508" style="fill:#1e1c1a;fill-rule:nonzero;"/><g><clipPath id="_clip1"><path d="M759.775,210.532l119.184,18.922l4.7,-29.594l-119.18,-18.922l-4.704,29.594Z" clip-rule="nonzero"/></clipPath><g clip-path="url(#_clip1)"><path d="M882.173,189.19c0.07,0.806 -0.544,1.512 -1.374,1.572c-0.828,0.062 -1.558,-0.54 -1.628,-1.35c-0.07,-0.806 0.544,-1.512 1.374,-1.572c0.828,-0.062 1.558,0.544 1.628,1.35" style="fill:#1e1c1a;fill-rule:nonzero;"/><path d="M884.494,183.532c0.07,0.808 -0.544,1.512 -1.374,1.574c-0.828,0.06 -1.556,-0.542 -1.628,-1.352c-0.07,-0.806 0.544,-1.51 1.374,-1.572c0.828,-0.06 1.558,0.544 1.628,1.35" style="fill:#1e1c1a;fill-rule:nonzero;"/><path d="M878.898,183.948c0.07,0.806 -0.544,1.512 -1.374,1.574c-0.828,0.06 -1.556,-0.542 -1.628,-1.352c-0.07,-0.806 0.544,-1.512 1.374,-1.572c0.828,-0.062 1.558,0.544 1.628,1.35" style="fill:#1e1c1a;fill-rule:nonzero;"/><path d="M883.127,200.09c0.07,0.806 -0.544,1.512 -1.374,1.572c-0.828,0.062 -1.558,-0.542 -1.628,-1.35c-0.072,-0.806 0.544,-1.512 1.374,-1.572c0.828,-0.062 1.556,0.544 1.628,1.35" style="fill:#1e1c1a;fill-rule:nonzero;"/><path d="M885.449,194.432c0.07,0.806 -0.544,1.512 -1.374,1.572c-0.828,0.062 -1.558,-0.54 -1.628,-1.35c-0.07,-0.806 0.544,-1.512 1.374,-1.572c0.828,-0.062 1.556,0.544 1.628,1.35" style="fill:#1e1c1a;fill-rule:nonzero;"/><path d="M879.852,194.848c0.07,0.806 -0.544,1.512 -1.374,1.572c-0.828,0.062 -1.558,-0.542 -1.628,-1.35c-0.07,-0.806 0.544,-1.512 1.374,-1.572c0.828,-0.062 1.556,0.544 1.628,1.35" style="fill:#1e1c1a;fill-rule:nonzero;"/><path d="M882.173,189.19c0.07,0.806 -0.544,1.512 -1.374,1.572c-0.828,0.062 -1.558,-0.54 -1.628,-1.35c-0.07,-0.806 0.544,-1.512 1.374,-1.572c0.828,-0.062 1.558,0.544 1.628,1.35" style="fill:#1e1c1a;fill-rule:nonzero;"/><path d="M884.08,210.991c0.072,0.806 -0.544,1.51 -1.374,1.572c-0.828,0.062 -1.556,-0.542 -1.628,-1.35c-0.07,-0.808 0.544,-1.512 1.374,-1.574c0.828,-0.06 1.558,0.544 1.628,1.352" style="fill:#1e1c1a;fill-rule:nonzero;"/><path d="M886.402,205.332c0.072,0.806 -0.544,1.512 -1.374,1.572c-0.828,0.062 -1.556,-0.542 -1.626,-1.35c-0.072,-0.806 0.542,-1.512 1.372,-1.572c0.828,-0.062 1.558,0.544 1.628,1.35" style="fill:#1e1c1a;fill-rule:nonzero;"/><path d="M880.805,205.748c0.072,0.806 -0.544,1.51 -1.374,1.572c-0.828,0.062 -1.556,-0.542 -1.626,-1.35c-0.072,-0.808 0.542,-1.512 1.372,-1.574c0.828,-0.06 1.558,0.544 1.628,1.352" style="fill:#1e1c1a;fill-rule:nonzero;"/><path d="M883.127,200.09c0.07,0.806 -0.544,1.512 -1.374,1.572c-0.828,0.062 -1.558,-0.542 -1.628,-1.35c-0.072,-0.806 0.544,-1.512 1.374,-1.572c0.828,-0.062 1.556,0.544 1.628,1.35" style="fill:#1e1c1a;fill-rule:nonzero;"/><path d="M885.034,221.889c0.07,0.808 -0.544,1.512 -1.374,1.574c-0.828,0.06 -1.558,-0.542 -1.628,-1.35c-0.07,-0.808 0.544,-1.512 1.374,-1.574c0.828,-0.06 1.558,0.544 1.628,1.35" style="fill:#1e1c1a;fill-rule:nonzero;"/><path d="M881.759,216.647c0.07,0.808 -0.544,1.512 -1.374,1.574c-0.828,0.06 -1.556,-0.542 -1.628,-1.35c-0.07,-0.808 0.544,-1.512 1.374,-1.574c0.828,-0.06 1.558,0.544 1.628,1.35" style="fill:#1e1c1a;fill-rule:nonzero;"/><path d="M884.08,210.991c0.072,0.806 -0.544,1.51 -1.374,1.572c-0.828,0.062 -1.556,-0.542 -1.628,-1.35c-0.07,-0.808 0.544,-1.512 1.374,-1.574c0.828,-0.06 1.558,0.544 1.628,1.352" style="fill:#1e1c1a;fill-rule:nonzero;"/><path d="M882.713,227.547c0.07,0.806 -0.544,1.512 -1.374,1.574c-0.828,0.06 -1.558,-0.542 -1.628,-1.352c-0.07,-0.806 0.544,-1.512 1.374,-1.572c0.828,-0.062 1.556,0.544 1.628,1.35" style="fill:#1e1c1a;fill-rule:nonzero;"/><path d="M885.034,221.889c0.07,0.808 -0.544,1.512 -1.374,1.574c-0.828,0.06 -1.558,-0.542 -1.628,-1.35c-0.07,-0.808 0.544,-1.512 1.374,-1.574c0.828,-0.06 1.558,0.544 1.628,1.35" style="fill:#1e1c1a;fill-rule:nonzero;"/><path d="M876.576,189.606c0.07,0.806 -0.544,1.512 -1.374,1.572c-0.828,0.062 -1.558,-0.542 -1.628,-1.35c-0.07,-0.806 0.544,-1.512 1.374,-1.572c0.828,-0.062 1.558,0.544 1.628,1.35" style="fill:#1e1c1a;fill-rule:nonzero;"/><path d="M870.98,190.022c0.07,0.806 -0.544,1.512 -1.374,1.572c-0.828,0.062 -1.558,-0.542 -1.628,-1.35c-0.07,-0.806 0.544,-1.512 1.374,-1.574c0.828,-0.06 1.558,0.544 1.628,1.352" style="fill:#1e1c1a;fill-rule:nonzero;"/><path d="M878.898,183.948c0.07,0.806 -0.544,1.512 -1.374,1.574c-0.828,0.06 -1.556,-0.542 -1.628,-1.352c-0.07,-0.806 0.544,-1.512 1.374,-1.572c0.828,-0.062 1.558,0.544 1.628,1.35" style="fill:#1e1c1a;fill-rule:nonzero;"/><path d="M873.301,184.364c0.07,0.806 -0.544,1.512 -1.374,1.572c-0.828,0.062 -1.556,-0.542 -1.628,-1.35c-0.07,-0.806 0.544,-1.512 1.374,-1.572c0.828,-0.062 1.558,0.544 1.628,1.35" style="fill:#1e1c1a;fill-rule:nonzero;"/><path d="M867.704,184.78c0.07,0.806 -0.544,1.512 -1.374,1.572c-0.828,0.062 -1.558,-0.542 -1.628,-1.35c-0.07,-0.806 0.544,-1.512 1.374,-1.574c0.828,-0.06 1.558,0.544 1.628,1.352" style="fill:#1e1c1a;fill-rule:nonzero;"/><path d="M877.531,200.506c0.07,0.806 -0.544,1.512 -1.374,1.572c-0.828,0.062 -1.558,-0.542 -1.628,-1.35c-0.072,-0.806 0.544,-1.512 1.374,-1.574c0.828,-0.06 1.556,0.544 1.628,1.352" style="fill:#1e1c1a;fill-rule:nonzero;"/><path d="M871.934,200.92c0.07,0.808 -0.544,1.512 -1.374,1.574c-0.828,0.06 -1.558,-0.542 -1.628,-1.35c-0.072,-0.808 0.544,-1.512 1.374,-1.574c0.828,-0.06 1.556,0.544 1.628,1.35" style="fill:#1e1c1a;fill-rule:nonzero;"/><path d="M879.852,194.848c0.07,0.806 -0.544,1.512 -1.374,1.572c-0.828,0.062 -1.558,-0.542 -1.628,-1.35c-0.07,-0.806 0.544,-1.512 1.374,-1.572c0.828,-0.062 1.556,0.544 1.628,1.35" style="fill:#1e1c1a;fill-rule:nonzero;"/><path d="M874.255,195.264c0.07,0.806 -0.544,1.512 -1.374,1.572c-0.828,0.062 -1.558,-0.542 -1.628,-1.35c-0.07,-0.806 0.544,-1.512 1.374,-1.574c0.828,-0.06 1.556,0.544 1.628,1.352" style="fill:#1e1c1a;fill-rule:nonzero;"/><path d="M868.658,195.678c0.07,0.808 -0.544,1.512 -1.374,1.574c-0.828,0.06 -1.558,-0.542 -1.628,-1.35c-0.07,-0.808 0.544,-1.512 1.374,-1.574c0.828,-0.06 1.556,0.544 1.628,1.35" style="fill:#1e1c1a;fill-rule:nonzero;"/><path d="M876.576,189.606c0.07,0.806 -0.544,1.512 -1.374,1.572c-0.828,0.062 -1.558,-0.542 -1.628,-1.35c-0.07,-0.806 0.544,-1.512 1.374,-1.572c0.828,-0.062 1.558,0.544 1.628,1.35" style="fill:#1e1c1a;fill-rule:nonzero;"/><path d="M870.98,190.022c0.07,0.806 -0.544,1.512 -1.374,1.572c-0.828,0.062 -1.558,-0.542 -1.628,-1.35c-0.07,-0.806 0.544,-1.512 1.374,-1.574c0.828,-0.06 1.558,0.544 1.628,1.352" style="fill:#1e1c1a;fill-rule:nonzero;"/><path d="M878.484,211.405c0.072,0.808 -0.544,1.512 -1.374,1.574c-0.828,0.06 -1.556,-0.542 -1.628,-1.35c-0.07,-0.808 0.544,-1.512 1.374,-1.574c0.828,-0.06 1.558,0.544 1.628,1.35" style="fill:#1e1c1a;fill-rule:nonzero;"/><path d="M872.887,211.821c0.072,0.806 -0.544,1.512 -1.374,1.574c-0.828,0.06 -1.556,-0.542 -1.628,-1.352c-0.07,-0.806 0.544,-1.512 1.374,-1.572c0.828,-0.062 1.558,0.544 1.628,1.35" style="fill:#1e1c1a;fill-rule:nonzero;"/><path d="M880.805,205.748c0.072,0.806 -0.544,1.51 -1.374,1.572c-0.828,0.062 -1.556,-0.542 -1.626,-1.35c-0.072,-0.808 0.542,-1.512 1.372,-1.574c0.828,-0.06 1.558,0.544 1.628,1.352" style="fill:#1e1c1a;fill-rule:nonzero;"/><path d="M875.208,206.162c0.072,0.808 -0.544,1.512 -1.374,1.574c-0.828,0.06 -1.556,-0.542 -1.626,-1.35c-0.072,-0.808 0.542,-1.512 1.372,-1.574c0.828,-0.06 1.558,0.544 1.628,1.35" style="fill:#1e1c1a;fill-rule:nonzero;"/><path d="M869.612,206.578c0.072,0.808 -0.544,1.512 -1.374,1.574c-0.828,0.06 -1.556,-0.542 -1.626,-1.352c-0.072,-0.806 0.542,-1.51 1.372,-1.572c0.828,-0.062 1.558,0.544 1.628,1.35" style="fill:#1e1c1a;fill-rule:nonzero;"/><path d="M877.531,200.506c0.07,0.806 -0.544,1.512 -1.374,1.572c-0.828,0.062 -1.558,-0.542 -1.628,-1.35c-0.072,-0.806 0.544,-1.512 1.374,-1.574c0.828,-0.06 1.556,0.544 1.628,1.352" style="fill:#1e1c1a;fill-rule:nonzero;"/><path d="M871.934,200.92c0.07,0.808 -0.544,1.512 -1.374,1.574c-0.828,0.06 -1.558,-0.542 -1.628,-1.35c-0.072,-0.808 0.544,-1.512 1.374,-1.574c0.828,-0.06 1.556,0.544 1.628,1.35" style="fill:#1e1c1a;fill-rule:nonzero;"/><path d="M879.438,222.305c0.07,0.806 -0.544,1.512 -1.374,1.574c-0.828,0.06 -1.558,-0.542 -1.628,-1.352c-0.07,-0.806 0.544,-1.512 1.374,-1.572c0.828,-0.062 1.558,0.544 1.628,1.35" style="fill:#1e1c1a;fill-rule:nonzero;"/><path d="M873.841,222.721c0.07,0.806 -0.544,1.512 -1.374,1.572c-0.828,0.062 -1.558,-0.542 -1.628,-1.35c-0.07,-0.806 0.544,-1.512 1.374,-1.572c0.828,-0.062 1.558,0.544 1.628,1.35" style="fill:#1e1c1a;fill-rule:nonzero;"/><path d="M881.759,216.647c0.07,0.808 -0.544,1.512 -1.374,1.574c-0.828,0.06 -1.556,-0.542 -1.628,-1.35c-0.07,-0.808 0.544,-1.512 1.374,-1.574c0.828,-0.06 1.558,0.544 1.628,1.35" style="fill:#1e1c1a;fill-rule:nonzero;"/><path d="M876.162,217.063c0.07,0.806 -0.544,1.512 -1.374,1.574c-0.828,0.06 -1.556,-0.542 -1.628,-1.352c-0.07,-0.806 0.544,-1.512 1.374,-1.572c0.828,-0.062 1.558,0.544 1.628,1.35" style="fill:#1e1c1a;fill-rule:nonzero;"/><path d="M870.566,217.479c0.07,0.806 -0.544,1.512 -1.374,1.572c-0.828,0.062 -1.556,-0.542 -1.628,-1.35c-0.07,-0.806 0.544,-1.512 1.374,-1.572c0.828,-0.062 1.558,0.544 1.628,1.35" style="fill:#1e1c1a;fill-rule:nonzero;"/><path d="M878.484,211.405c0.072,0.808 -0.544,1.512 -1.374,1.574c-0.828,0.06 -1.556,-0.542 -1.628,-1.35c-0.07,-0.808 0.544,-1.512 1.374,-1.574c0.828,-0.06 1.558,0.544 1.628,1.35" style="fill:#1e1c1a;fill-rule:nonzero;"/><path d="M872.887,211.821c0.072,0.806 -0.544,1.512 -1.374,1.574c-0.828,0.06 -1.556,-0.542 -1.628,-1.352c-0.07,-0.806 0.544,-1.512 1.374,-1.572c0.828,-0.062 1.558,0.544 1.628,1.35" style="fill:#1e1c1a;fill-rule:nonzero;"/><path d="M882.713,227.547c0.07,0.806 -0.544,1.512 -1.374,1.574c-0.828,0.06 -1.558,-0.542 -1.628,-1.352c-0.07,-0.806 0.544,-1.512 1.374,-1.572c0.828,-0.062 1.556,0.544 1.628,1.35" style="fill:#1e1c1a;fill-rule:nonzero;"/><path d="M877.116,227.963c0.07,0.806 -0.544,1.512 -1.374,1.572c-0.828,0.062 -1.558,-0.542 -1.628,-1.35c-0.07,-0.806 0.544,-1.512 1.374,-1.572c0.828,-0.062 1.556,0.544 1.628,1.35" style="fill:#1e1c1a;fill-rule:nonzero;"/><path d="M871.52,228.379c0.07,0.806 -0.544,1.512 -1.374,1.572c-0.828,0.062 -1.558,-0.542 -1.628,-1.35c-0.07,-0.806 0.544,-1.512 1.374,-1.572c0.828,-0.062 1.556,0.542 1.628,1.35" style="fill:#1e1c1a;fill-rule:nonzero;"/><path d="M879.438,222.305c0.07,0.806 -0.544,1.512 -1.374,1.574c-0.828,0.06 -1.558,-0.542 -1.628,-1.352c-0.07,-0.806 0.544,-1.512 1.374,-1.572c0.828,-0.062 1.558,0.544 1.628,1.35" style="fill:#1e1c1a;fill-rule:nonzero;"/><path d="M873.841,222.721c0.07,0.806 -0.544,1.512 -1.374,1.572c-0.828,0.062 -1.558,-0.542 -1.628,-1.35c-0.07,-0.806 0.544,-1.512 1.374,-1.572c0.828,-0.062 1.558,0.544 1.628,1.35" style="fill:#1e1c1a;fill-rule:nonzero;"/><path d="M864.429,179.537c0.07,0.806 -0.544,1.512 -1.374,1.572c-0.828,0.062 -1.556,-0.542 -1.628,-1.35c-0.07,-0.806 0.544,-1.512 1.374,-1.572c0.828,-0.062 1.558,0.542 1.628,1.35" style="fill:#1e1c1a;fill-rule:nonzero;"/><path d="M858.832,179.953c0.07,0.806 -0.544,1.51 -1.374,1.572c-0.828,0.06 -1.556,-0.542 -1.628,-1.35c-0.07,-0.808 0.544,-1.512 1.374,-1.574c0.828,-0.06 1.558,0.544 1.628,1.352" style="fill:#1e1c1a;fill-rule:nonzero;"/><path d="M865.383,190.438c0.07,0.806 -0.544,1.51 -1.374,1.572c-0.828,0.06 -1.558,-0.542 -1.628,-1.35c-0.07,-0.808 0.544,-1.512 1.374,-1.574c0.828,-0.06 1.556,0.544 1.628,1.352" style="fill:#1e1c1a;fill-rule:nonzero;"/><path d="M859.786,190.852c0.07,0.808 -0.544,1.512 -1.374,1.574c-0.828,0.06 -1.558,-0.542 -1.628,-1.352c-0.07,-0.806 0.544,-1.51 1.374,-1.572c0.828,-0.06 1.556,0.544 1.628,1.35" style="fill:#1e1c1a;fill-rule:nonzero;"/><path d="M867.704,184.78c0.07,0.806 -0.544,1.512 -1.374,1.572c-0.828,0.062 -1.558,-0.542 -1.628,-1.35c-0.07,-0.806 0.544,-1.512 1.374,-1.574c0.828,-0.06 1.558,0.544 1.628,1.352" style="fill:#1e1c1a;fill-rule:nonzero;"/><path d="M862.108,185.196c0.07,0.806 -0.544,1.51 -1.374,1.572c-0.828,0.06 -1.558,-0.542 -1.628,-1.35c-0.07,-0.808 0.544,-1.512 1.374,-1.574c0.828,-0.06 1.558,0.544 1.628,1.352" style="fill:#1e1c1a;fill-rule:nonzero;"/><path d="M856.511,185.61c0.07,0.808 -0.544,1.512 -1.374,1.574c-0.828,0.06 -1.558,-0.542 -1.628,-1.352c-0.07,-0.806 0.544,-1.51 1.374,-1.572c0.828,-0.06 1.558,0.544 1.628,1.35" style="fill:#1e1c1a;fill-rule:nonzero;"/><path d="M864.429,179.537c0.07,0.806 -0.544,1.512 -1.374,1.572c-0.828,0.062 -1.556,-0.542 -1.628,-1.35c-0.07,-0.806 0.544,-1.512 1.374,-1.572c0.828,-0.062 1.558,0.542 1.628,1.35" style="fill:#1e1c1a;fill-rule:nonzero;"/><path d="M858.832,179.953c0.07,0.806 -0.544,1.51 -1.374,1.572c-0.828,0.06 -1.556,-0.542 -1.628,-1.35c-0.07,-0.808 0.544,-1.512 1.374,-1.574c0.828,-0.06 1.558,0.544 1.628,1.352" style="fill:#1e1c1a;fill-rule:nonzero;"/><path d="M866.336,201.336c0.072,0.808 -0.544,1.512 -1.372,1.574c-0.83,0.06 -1.558,-0.542 -1.628,-1.352c-0.072,-0.806 0.542,-1.51 1.372,-1.572c0.828,-0.06 1.558,0.544 1.628,1.35" style="fill:#1e1c1a;fill-rule:nonzero;"/><path d="M860.74,201.752c0.072,0.806 -0.544,1.512 -1.372,1.572c-0.83,0.062 -1.558,-0.542 -1.628,-1.35c-0.072,-0.806 0.542,-1.512 1.372,-1.572c0.828,-0.062 1.558,0.544 1.628,1.35" style="fill:#1e1c1a;fill-rule:nonzero;"/><path d="M868.658,195.678c0.07,0.808 -0.544,1.512 -1.374,1.574c-0.828,0.06 -1.558,-0.542 -1.628,-1.35c-0.07,-0.808 0.544,-1.512 1.374,-1.574c0.828,-0.06 1.556,0.544 1.628,1.35" style="fill:#1e1c1a;fill-rule:nonzero;"/><path d="M863.062,196.094c0.07,0.808 -0.544,1.512 -1.374,1.574c-0.828,0.06 -1.558,-0.542 -1.628,-1.352c-0.072,-0.806 0.544,-1.51 1.374,-1.572c0.828,-0.06 1.556,0.544 1.628,1.35" style="fill:#1e1c1a;fill-rule:nonzero;"/><path d="M857.465,196.51c0.07,0.806 -0.544,1.512 -1.374,1.572c-0.828,0.062 -1.558,-0.542 -1.628,-1.35c-0.072,-0.806 0.544,-1.512 1.374,-1.572c0.828,-0.062 1.556,0.544 1.628,1.35" style="fill:#1e1c1a;fill-rule:nonzero;"/><path d="M865.383,190.438c0.07,0.806 -0.544,1.51 -1.374,1.572c-0.828,0.06 -1.558,-0.542 -1.628,-1.35c-0.07,-0.808 0.544,-1.512 1.374,-1.574c0.828,-0.06 1.556,0.544 1.628,1.352" style="fill:#1e1c1a;fill-rule:nonzero;"/><path d="M859.786,190.852c0.07,0.808 -0.544,1.512 -1.374,1.574c-0.828,0.06 -1.558,-0.542 -1.628,-1.352c-0.07,-0.806 0.544,-1.51 1.374,-1.572c0.828,-0.06 1.556,0.544 1.628,1.35" style="fill:#1e1c1a;fill-rule:nonzero;"/><path d="M867.29,212.237c0.07,0.806 -0.544,1.512 -1.374,1.572c-0.828,0.062 -1.556,-0.542 -1.628,-1.35c-0.07,-0.806 0.544,-1.512 1.374,-1.572c0.828,-0.062 1.558,0.544 1.628,1.35" style="fill:#1e1c1a;fill-rule:nonzero;"/><path d="M861.694,212.653c0.07,0.806 -0.544,1.512 -1.374,1.572c-0.828,0.062 -1.556,-0.542 -1.628,-1.35c-0.07,-0.806 0.544,-1.512 1.374,-1.572c0.828,-0.062 1.558,0.544 1.628,1.35" style="fill:#1e1c1a;fill-rule:nonzero;"/><path d="M869.612,206.578c0.072,0.808 -0.544,1.512 -1.374,1.574c-0.828,0.06 -1.556,-0.542 -1.626,-1.352c-0.072,-0.806 0.542,-1.51 1.372,-1.572c0.828,-0.062 1.558,0.544 1.628,1.35" style="fill:#1e1c1a;fill-rule:nonzero;"/><path d="M864.015,206.994c0.072,0.806 -0.544,1.512 -1.374,1.572c-0.828,0.062 -1.556,-0.542 -1.628,-1.35c-0.07,-0.806 0.544,-1.512 1.374,-1.572c0.828,-0.062 1.558,0.544 1.628,1.35" style="fill:#1e1c1a;fill-rule:nonzero;"/><path d="M858.418,207.41c0.072,0.806 -0.544,1.512 -1.374,1.572c-0.828,0.062 -1.556,-0.542 -1.628,-1.35c-0.07,-0.806 0.544,-1.512 1.374,-1.572c0.828,-0.062 1.558,0.544 1.628,1.35" style="fill:#1e1c1a;fill-rule:nonzero;"/><path d="M866.336,201.336c0.072,0.808 -0.544,1.512 -1.372,1.574c-0.83,0.06 -1.558,-0.542 -1.628,-1.352c-0.072,-0.806 0.542,-1.51 1.372,-1.572c0.828,-0.06 1.558,0.544 1.628,1.35" style="fill:#1e1c1a;fill-rule:nonzero;"/><path d="M860.74,201.752c0.072,0.806 -0.544,1.512 -1.372,1.572c-0.83,0.062 -1.558,-0.542 -1.628,-1.35c-0.072,-0.806 0.542,-1.512 1.372,-1.572c0.828,-0.062 1.558,0.544 1.628,1.35" style="fill:#1e1c1a;fill-rule:nonzero;"/><path d="M868.244,223.137c0.07,0.806 -0.544,1.512 -1.374,1.572c-0.828,0.062 -1.558,-0.542 -1.628,-1.35c-0.07,-0.806 0.544,-1.512 1.374,-1.572c0.828,-0.062 1.558,0.542 1.628,1.35" style="fill:#1e1c1a;fill-rule:nonzero;"/><path d="M862.648,223.553c0.07,0.806 -0.544,1.51 -1.374,1.572c-0.828,0.06 -1.558,-0.542 -1.628,-1.35c-0.07,-0.808 0.544,-1.512 1.374,-1.574c0.828,-0.06 1.556,0.544 1.628,1.352" style="fill:#1e1c1a;fill-rule:nonzero;"/><path d="M870.566,217.479c0.07,0.806 -0.544,1.512 -1.374,1.572c-0.828,0.062 -1.556,-0.542 -1.628,-1.35c-0.07,-0.806 0.544,-1.512 1.374,-1.572c0.828,-0.062 1.558,0.544 1.628,1.35" style="fill:#1e1c1a;fill-rule:nonzero;"/><path d="M864.969,217.895c0.07,0.806 -0.544,1.512 -1.374,1.572c-0.828,0.062 -1.558,-0.542 -1.628,-1.35c-0.07,-0.806 0.544,-1.512 1.374,-1.572c0.828,-0.062 1.558,0.544 1.628,1.35" style="fill:#1e1c1a;fill-rule:nonzero;"/><path d="M859.372,218.311c0.07,0.806 -0.544,1.51 -1.374,1.572c-0.828,0.06 -1.558,-0.542 -1.628,-1.35c-0.07,-0.808 0.544,-1.512 1.374,-1.574c0.828,-0.06 1.558,0.544 1.628,1.352" style="fill:#1e1c1a;fill-rule:nonzero;"/><path d="M867.29,212.237c0.07,0.806 -0.544,1.512 -1.374,1.572c-0.828,0.062 -1.556,-0.542 -1.628,-1.35c-0.07,-0.806 0.544,-1.512 1.374,-1.572c0.828,-0.062 1.558,0.544 1.628,1.35" style="fill:#1e1c1a;fill-rule:nonzero;"/><path d="M861.694,212.653c0.07,0.806 -0.544,1.512 -1.374,1.572c-0.828,0.062 -1.556,-0.542 -1.628,-1.35c-0.07,-0.806 0.544,-1.512 1.374,-1.572c0.828,-0.062 1.558,0.544 1.628,1.35" style="fill:#1e1c1a;fill-rule:nonzero;"/><path d="M871.52,228.379c0.07,0.806 -0.544,1.512 -1.374,1.572c-0.828,0.062 -1.558,-0.542 -1.628,-1.35c-0.07,-0.806 0.544,-1.512 1.374,-1.572c0.828,-0.062 1.556,0.542 1.628,1.35" style="fill:#1e1c1a;fill-rule:nonzero;"/><path d="M865.923,228.795c0.07,0.806 -0.544,1.51 -1.374,1.572c-0.828,0.06 -1.558,-0.542 -1.628,-1.35c-0.07,-0.808 0.544,-1.512 1.374,-1.574c0.828,-0.06 1.556,0.544 1.628,1.352" style="fill:#1e1c1a;fill-rule:nonzero;"/><path d="M860.326,229.209c0.07,0.808 -0.544,1.512 -1.374,1.574c-0.828,0.06 -1.558,-0.542 -1.628,-1.352c-0.072,-0.806 0.544,-1.51 1.374,-1.572c0.828,-0.06 1.556,0.544 1.628,1.35" style="fill:#1e1c1a;fill-rule:nonzero;"/><path d="M868.244,223.137c0.07,0.806 -0.544,1.512 -1.374,1.572c-0.828,0.062 -1.558,-0.542 -1.628,-1.35c-0.07,-0.806 0.544,-1.512 1.374,-1.572c0.828,-0.062 1.558,0.542 1.628,1.35" style="fill:#1e1c1a;fill-rule:nonzero;"/><path d="M862.648,223.553c0.07,0.806 -0.544,1.51 -1.374,1.572c-0.828,0.06 -1.558,-0.542 -1.628,-1.35c-0.07,-0.808 0.544,-1.512 1.374,-1.574c0.828,-0.06 1.556,0.544 1.628,1.352" style="fill:#1e1c1a;fill-rule:nonzero;"/><path d="M853.236,180.367c0.07,0.808 -0.544,1.512 -1.374,1.574c-0.828,0.06 -1.556,-0.542 -1.628,-1.352c-0.07,-0.806 0.544,-1.51 1.374,-1.572c0.828,-0.06 1.558,0.544 1.628,1.35" style="fill:#1e1c1a;fill-rule:nonzero;"/><path d="M847.639,180.783c0.07,0.806 -0.544,1.512 -1.374,1.574c-0.828,0.06 -1.556,-0.542 -1.628,-1.352c-0.07,-0.806 0.544,-1.512 1.374,-1.572c0.828,-0.062 1.558,0.544 1.628,1.35" style="fill:#1e1c1a;fill-rule:nonzero;"/><path d="M854.19,191.268c0.07,0.806 -0.544,1.512 -1.374,1.572c-0.828,0.062 -1.558,-0.54 -1.628,-1.35c-0.07,-0.806 0.544,-1.512 1.374,-1.572c0.828,-0.062 1.556,0.544 1.628,1.35" style="fill:#1e1c1a;fill-rule:nonzero;"/><path d="M848.593,191.684c0.07,0.806 -0.544,1.512 -1.374,1.572c-0.828,0.062 -1.558,-0.542 -1.628,-1.35c-0.07,-0.806 0.544,-1.512 1.374,-1.572c0.828,-0.062 1.556,0.544 1.628,1.35" style="fill:#1e1c1a;fill-rule:nonzero;"/><path d="M856.511,185.61c0.07,0.808 -0.544,1.512 -1.374,1.574c-0.828,0.06 -1.558,-0.542 -1.628,-1.352c-0.07,-0.806 0.544,-1.51 1.374,-1.572c0.828,-0.06 1.558,0.544 1.628,1.35" style="fill:#1e1c1a;fill-rule:nonzero;"/><path d="M850.914,186.026c0.07,0.806 -0.544,1.512 -1.374,1.574c-0.828,0.06 -1.558,-0.542 -1.628,-1.352c-0.07,-0.806 0.544,-1.512 1.374,-1.572c0.828,-0.062 1.558,0.544 1.628,1.35" style="fill:#1e1c1a;fill-rule:nonzero;"/><path d="M845.318,186.442c0.07,0.806 -0.544,1.512 -1.374,1.572c-0.828,0.062 -1.558,-0.542 -1.628,-1.35c-0.07,-0.806 0.544,-1.512 1.374,-1.572c0.828,-0.062 1.558,0.544 1.628,1.35" style="fill:#1e1c1a;fill-rule:nonzero;"/><path d="M853.236,180.367c0.07,0.808 -0.544,1.512 -1.374,1.574c-0.828,0.06 -1.556,-0.542 -1.628,-1.352c-0.07,-0.806 0.544,-1.51 1.374,-1.572c0.828,-0.06 1.558,0.544 1.628,1.35" style="fill:#1e1c1a;fill-rule:nonzero;"/><path d="M847.639,180.783c0.07,0.806 -0.544,1.512 -1.374,1.574c-0.828,0.06 -1.556,-0.542 -1.628,-1.352c-0.07,-0.806 0.544,-1.512 1.374,-1.572c0.828,-0.062 1.558,0.544 1.628,1.35" style="fill:#1e1c1a;fill-rule:nonzero;"/><path d="M855.143,202.168c0.072,0.806 -0.544,1.512 -1.374,1.572c-0.828,0.062 -1.556,-0.542 -1.626,-1.35c-0.072,-0.806 0.542,-1.512 1.372,-1.572c0.828,-0.062 1.558,0.544 1.628,1.35" style="fill:#1e1c1a;fill-rule:nonzero;"/><path d="M849.546,202.584c0.072,0.806 -0.544,1.512 -1.374,1.572c-0.828,0.062 -1.556,-0.542 -1.626,-1.35c-0.072,-0.806 0.542,-1.512 1.372,-1.574c0.828,-0.06 1.558,0.544 1.628,1.352" style="fill:#1e1c1a;fill-rule:nonzero;"/><path d="M857.465,196.51c0.07,0.806 -0.544,1.512 -1.374,1.572c-0.828,0.062 -1.558,-0.542 -1.628,-1.35c-0.072,-0.806 0.544,-1.512 1.374,-1.572c0.828,-0.062 1.556,0.544 1.628,1.35" style="fill:#1e1c1a;fill-rule:nonzero;"/><path d="M851.868,196.926c0.07,0.806 -0.544,1.512 -1.374,1.572c-0.828,0.062 -1.558,-0.542 -1.628,-1.35c-0.072,-0.806 0.544,-1.512 1.374,-1.572c0.828,-0.062 1.556,0.544 1.628,1.35" style="fill:#1e1c1a;fill-rule:nonzero;"/><path d="M846.272,197.342c0.07,0.806 -0.544,1.512 -1.374,1.572c-0.828,0.062 -1.558,-0.542 -1.628,-1.35c-0.072,-0.806 0.544,-1.512 1.374,-1.574c0.828,-0.06 1.556,0.544 1.628,1.352" style="fill:#1e1c1a;fill-rule:nonzero;"/><path d="M854.19,191.268c0.07,0.806 -0.544,1.512 -1.374,1.572c-0.828,0.062 -1.558,-0.54 -1.628,-1.35c-0.07,-0.806 0.544,-1.512 1.374,-1.572c0.828,-0.062 1.556,0.544 1.628,1.35" style="fill:#1e1c1a;fill-rule:nonzero;"/><path d="M848.593,191.684c0.07,0.806 -0.544,1.512 -1.374,1.572c-0.828,0.062 -1.558,-0.542 -1.628,-1.35c-0.07,-0.806 0.544,-1.512 1.374,-1.572c0.828,-0.062 1.556,0.544 1.628,1.35" style="fill:#1e1c1a;fill-rule:nonzero;"/><path d="M856.097,213.069c0.07,0.806 -0.544,1.51 -1.374,1.572c-0.828,0.062 -1.556,-0.542 -1.628,-1.35c-0.07,-0.808 0.544,-1.512 1.374,-1.574c0.828,-0.06 1.558,0.544 1.628,1.352" style="fill:#1e1c1a;fill-rule:nonzero;"/><path d="M850.5,213.483c0.07,0.808 -0.544,1.512 -1.374,1.574c-0.828,0.06 -1.556,-0.542 -1.628,-1.35c-0.07,-0.808 0.544,-1.512 1.374,-1.574c0.828,-0.06 1.558,0.544 1.628,1.35" style="fill:#1e1c1a;fill-rule:nonzero;"/><path d="M858.418,207.41c0.072,0.806 -0.544,1.512 -1.374,1.572c-0.828,0.062 -1.556,-0.542 -1.628,-1.35c-0.07,-0.806 0.544,-1.512 1.374,-1.572c0.828,-0.062 1.558,0.544 1.628,1.35" style="fill:#1e1c1a;fill-rule:nonzero;"/><path d="M852.822,207.826c0.072,0.806 -0.544,1.51 -1.374,1.572c-0.828,0.062 -1.556,-0.542 -1.628,-1.35c-0.07,-0.808 0.544,-1.512 1.374,-1.574c0.828,-0.06 1.558,0.544 1.628,1.352" style="fill:#1e1c1a;fill-rule:nonzero;"/><path d="M847.225,208.241c0.072,0.808 -0.544,1.512 -1.374,1.574c-0.828,0.06 -1.556,-0.542 -1.628,-1.35c-0.07,-0.808 0.544,-1.512 1.374,-1.574c0.828,-0.06 1.558,0.544 1.628,1.35" style="fill:#1e1c1a;fill-rule:nonzero;"/><path d="M855.143,202.168c0.072,0.806 -0.544,1.512 -1.374,1.572c-0.828,0.062 -1.556,-0.542 -1.626,-1.35c-0.072,-0.806 0.542,-1.512 1.372,-1.572c0.828,-0.062 1.558,0.544 1.628,1.35" style="fill:#1e1c1a;fill-rule:nonzero;"/><path d="M849.546,202.584c0.072,0.806 -0.544,1.512 -1.374,1.572c-0.828,0.062 -1.556,-0.542 -1.626,-1.35c-0.072,-0.806 0.542,-1.512 1.372,-1.574c0.828,-0.06 1.558,0.544 1.628,1.352" style="fill:#1e1c1a;fill-rule:nonzero;"/><path d="M857.051,223.967c0.07,0.808 -0.544,1.512 -1.374,1.574c-0.828,0.06 -1.558,-0.542 -1.628,-1.352c-0.07,-0.806 0.544,-1.51 1.374,-1.572c0.828,-0.06 1.556,0.544 1.628,1.35" style="fill:#1e1c1a;fill-rule:nonzero;"/><path d="M851.454,224.383c0.07,0.806 -0.544,1.512 -1.374,1.574c-0.828,0.06 -1.558,-0.542 -1.628,-1.352c-0.07,-0.806 0.544,-1.512 1.374,-1.572c0.828,-0.062 1.556,0.544 1.628,1.35" style="fill:#1e1c1a;fill-rule:nonzero;"/><path d="M859.372,218.311c0.07,0.806 -0.544,1.51 -1.374,1.572c-0.828,0.06 -1.558,-0.542 -1.628,-1.35c-0.07,-0.808 0.544,-1.512 1.374,-1.574c0.828,-0.06 1.558,0.544 1.628,1.352" style="fill:#1e1c1a;fill-rule:nonzero;"/><path d="M853.776,218.725c0.07,0.808 -0.544,1.512 -1.374,1.574c-0.828,0.06 -1.558,-0.542 -1.628,-1.35c-0.07,-0.808 0.544,-1.512 1.374,-1.574c0.828,-0.06 1.558,0.544 1.628,1.35" style="fill:#1e1c1a;fill-rule:nonzero;"/><path d="M848.179,219.141c0.07,0.806 -0.544,1.512 -1.374,1.574c-0.828,0.06 -1.558,-0.542 -1.628,-1.352c-0.07,-0.806 0.544,-1.512 1.374,-1.572c0.828,-0.062 1.558,0.544 1.628,1.35" style="fill:#1e1c1a;fill-rule:nonzero;"/><path d="M856.097,213.069c0.07,0.806 -0.544,1.51 -1.374,1.572c-0.828,0.062 -1.556,-0.542 -1.628,-1.35c-0.07,-0.808 0.544,-1.512 1.374,-1.574c0.828,-0.06 1.558,0.544 1.628,1.352" style="fill:#1e1c1a;fill-rule:nonzero;"/><path d="M850.5,213.483c0.07,0.808 -0.544,1.512 -1.374,1.574c-0.828,0.06 -1.556,-0.542 -1.628,-1.35c-0.07,-0.808 0.544,-1.512 1.374,-1.574c0.828,-0.06 1.558,0.544 1.628,1.35" style="fill:#1e1c1a;fill-rule:nonzero;"/><path d="M860.326,229.209c0.07,0.808 -0.544,1.512 -1.374,1.574c-0.828,0.06 -1.558,-0.542 -1.628,-1.352c-0.072,-0.806 0.544,-1.51 1.374,-1.572c0.828,-0.06 1.556,0.544 1.628,1.35" style="fill:#1e1c1a;fill-rule:nonzero;"/><path d="M854.73,229.625c0.07,0.806 -0.544,1.512 -1.374,1.574c-0.828,0.06 -1.558,-0.542 -1.628,-1.352c-0.072,-0.806 0.544,-1.512 1.374,-1.572c0.828,-0.062 1.556,0.544 1.628,1.35" style="fill:#1e1c1a;fill-rule:nonzero;"/><path d="M849.133,230.041c0.07,0.806 -0.544,1.512 -1.374,1.572c-0.828,0.062 -1.558,-0.542 -1.628,-1.35c-0.072,-0.806 0.544,-1.512 1.374,-1.572c0.828,-0.062 1.556,0.544 1.628,1.35" style="fill:#1e1c1a;fill-rule:nonzero;"/><path d="M857.051,223.967c0.07,0.808 -0.544,1.512 -1.374,1.574c-0.828,0.06 -1.558,-0.542 -1.628,-1.352c-0.07,-0.806 0.544,-1.51 1.374,-1.572c0.828,-0.06 1.556,0.544 1.628,1.35" style="fill:#1e1c1a;fill-rule:nonzero;"/><path d="M851.454,224.383c0.07,0.806 -0.544,1.512 -1.374,1.574c-0.828,0.06 -1.558,-0.542 -1.628,-1.352c-0.07,-0.806 0.544,-1.512 1.374,-1.572c0.828,-0.062 1.556,0.544 1.628,1.35" style="fill:#1e1c1a;fill-rule:nonzero;"/><path d="M842.042,181.199c0.07,0.806 -0.544,1.512 -1.374,1.572c-0.828,0.062 -1.556,-0.542 -1.628,-1.35c-0.07,-0.806 0.544,-1.512 1.374,-1.572c0.828,-0.062 1.558,0.544 1.628,1.35" style="fill:#1e1c1a;fill-rule:nonzero;"/><path d="M836.446,181.616c0.07,0.806 -0.544,1.512 -1.374,1.572c-0.828,0.062 -1.556,-0.542 -1.628,-1.35c-0.07,-0.806 0.544,-1.512 1.374,-1.572c0.828,-0.062 1.558,0.542 1.628,1.35" style="fill:#1e1c1a;fill-rule:nonzero;"/><path d="M842.996,192.1c0.07,0.806 -0.544,1.512 -1.374,1.572c-0.828,0.062 -1.558,-0.542 -1.628,-1.35c-0.07,-0.806 0.544,-1.512 1.374,-1.574c0.828,-0.06 1.556,0.544 1.628,1.352" style="fill:#1e1c1a;fill-rule:nonzero;"/><path d="M837.4,192.514c0.07,0.808 -0.544,1.512 -1.374,1.574c-0.828,0.06 -1.558,-0.542 -1.628,-1.35c-0.07,-0.808 0.544,-1.512 1.374,-1.574c0.828,-0.06 1.556,0.544 1.628,1.35" style="fill:#1e1c1a;fill-rule:nonzero;"/><path d="M845.318,186.442c0.07,0.806 -0.544,1.512 -1.374,1.572c-0.828,0.062 -1.558,-0.542 -1.628,-1.35c-0.07,-0.806 0.544,-1.512 1.374,-1.572c0.828,-0.062 1.558,0.544 1.628,1.35" style="fill:#1e1c1a;fill-rule:nonzero;"/><path d="M839.721,186.858c0.07,0.806 -0.544,1.512 -1.374,1.572c-0.828,0.062 -1.558,-0.542 -1.628,-1.35c-0.07,-0.806 0.544,-1.512 1.374,-1.574c0.828,-0.06 1.558,0.544 1.628,1.352" style="fill:#1e1c1a;fill-rule:nonzero;"/><path d="M834.124,187.274c0.07,0.806 -0.544,1.51 -1.374,1.572c-0.828,0.06 -1.558,-0.542 -1.628,-1.35c-0.07,-0.808 0.544,-1.512 1.374,-1.574c0.828,-0.06 1.558,0.544 1.628,1.352" style="fill:#1e1c1a;fill-rule:nonzero;"/><path d="M842.042,181.199c0.07,0.806 -0.544,1.512 -1.374,1.572c-0.828,0.062 -1.556,-0.542 -1.628,-1.35c-0.07,-0.806 0.544,-1.512 1.374,-1.572c0.828,-0.062 1.558,0.544 1.628,1.35" style="fill:#1e1c1a;fill-rule:nonzero;"/><path d="M836.446,181.616c0.07,0.806 -0.544,1.512 -1.374,1.572c-0.828,0.062 -1.556,-0.542 -1.628,-1.35c-0.07,-0.806 0.544,-1.512 1.374,-1.572c0.828,-0.062 1.558,0.542 1.628,1.35" style="fill:#1e1c1a;fill-rule:nonzero;"/><path d="M843.949,202.998c0.072,0.808 -0.544,1.512 -1.374,1.574c-0.828,0.06 -1.556,-0.542 -1.626,-1.35c-0.072,-0.808 0.542,-1.512 1.372,-1.574c0.828,-0.06 1.558,0.544 1.628,1.35" style="fill:#1e1c1a;fill-rule:nonzero;"/><path d="M838.353,203.414c0.072,0.808 -0.544,1.512 -1.374,1.574c-0.828,0.06 -1.556,-0.542 -1.626,-1.352c-0.072,-0.806 0.542,-1.51 1.372,-1.572c0.828,-0.062 1.558,0.544 1.628,1.35" style="fill:#1e1c1a;fill-rule:nonzero;"/><path d="M846.272,197.342c0.07,0.806 -0.544,1.512 -1.374,1.572c-0.828,0.062 -1.558,-0.542 -1.628,-1.35c-0.072,-0.806 0.544,-1.512 1.374,-1.574c0.828,-0.06 1.556,0.544 1.628,1.352" style="fill:#1e1c1a;fill-rule:nonzero;"/><path d="M840.675,197.756c0.07,0.808 -0.544,1.512 -1.374,1.574c-0.828,0.06 -1.558,-0.542 -1.628,-1.35c-0.072,-0.808 0.544,-1.512 1.374,-1.574c0.828,-0.06 1.556,0.544 1.628,1.35" style="fill:#1e1c1a;fill-rule:nonzero;"/><path d="M835.078,198.172c0.07,0.808 -0.544,1.512 -1.374,1.574c-0.828,0.06 -1.558,-0.542 -1.628,-1.352c-0.072,-0.806 0.544,-1.51 1.374,-1.572c0.828,-0.06 1.556,0.544 1.628,1.35" style="fill:#1e1c1a;fill-rule:nonzero;"/><path d="M842.996,192.1c0.07,0.806 -0.544,1.512 -1.374,1.572c-0.828,0.062 -1.558,-0.542 -1.628,-1.35c-0.07,-0.806 0.544,-1.512 1.374,-1.574c0.828,-0.06 1.556,0.544 1.628,1.352" style="fill:#1e1c1a;fill-rule:nonzero;"/><path d="M837.4,192.514c0.07,0.808 -0.544,1.512 -1.374,1.574c-0.828,0.06 -1.558,-0.542 -1.628,-1.35c-0.07,-0.808 0.544,-1.512 1.374,-1.574c0.828,-0.06 1.556,0.544 1.628,1.35" style="fill:#1e1c1a;fill-rule:nonzero;"/><path d="M844.904,213.899c0.07,0.806 -0.544,1.512 -1.374,1.574c-0.828,0.06 -1.556,-0.542 -1.628,-1.352c-0.07,-0.806 0.544,-1.512 1.374,-1.572c0.828,-0.062 1.558,0.544 1.628,1.35" style="fill:#1e1c1a;fill-rule:nonzero;"/><path d="M839.307,214.315c0.07,0.806 -0.544,1.512 -1.374,1.572c-0.828,0.062 -1.556,-0.542 -1.628,-1.35c-0.07,-0.806 0.544,-1.512 1.374,-1.572c0.828,-0.062 1.558,0.544 1.628,1.35" style="fill:#1e1c1a;fill-rule:nonzero;"/><path d="M847.225,208.241c0.072,0.808 -0.544,1.512 -1.374,1.574c-0.828,0.06 -1.556,-0.542 -1.628,-1.35c-0.07,-0.808 0.544,-1.512 1.374,-1.574c0.828,-0.06 1.558,0.544 1.628,1.35" style="fill:#1e1c1a;fill-rule:nonzero;"/><path d="M841.628,208.657c0.072,0.808 -0.544,1.512 -1.374,1.574c-0.828,0.06 -1.556,-0.542 -1.628,-1.352c-0.07,-0.806 0.544,-1.51 1.374,-1.572c0.828,-0.062 1.558,0.544 1.628,1.35" style="fill:#1e1c1a;fill-rule:nonzero;"/><path d="M836.032,209.073c0.072,0.806 -0.544,1.512 -1.374,1.572c-0.828,0.062 -1.556,-0.542 -1.628,-1.35c-0.07,-0.806 0.544,-1.512 1.374,-1.572c0.828,-0.062 1.558,0.544 1.628,1.35" style="fill:#1e1c1a;fill-rule:nonzero;"/><path d="M843.949,202.998c0.072,0.808 -0.544,1.512 -1.374,1.574c-0.828,0.06 -1.556,-0.542 -1.626,-1.35c-0.072,-0.808 0.542,-1.512 1.372,-1.574c0.828,-0.06 1.558,0.544 1.628,1.35" style="fill:#1e1c1a;fill-rule:nonzero;"/><path d="M838.353,203.414c0.072,0.808 -0.544,1.512 -1.374,1.574c-0.828,0.06 -1.556,-0.542 -1.626,-1.352c-0.072,-0.806 0.542,-1.51 1.372,-1.572c0.828,-0.062 1.558,0.544 1.628,1.35" style="fill:#1e1c1a;fill-rule:nonzero;"/><path d="M845.858,224.799c0.07,0.806 -0.544,1.512 -1.374,1.572c-0.828,0.062 -1.558,-0.542 -1.628,-1.35c-0.07,-0.806 0.544,-1.512 1.374,-1.572c0.828,-0.062 1.556,0.544 1.628,1.35" style="fill:#1e1c1a;fill-rule:nonzero;"/><path d="M840.261,225.215c0.07,0.806 -0.544,1.512 -1.374,1.572c-0.828,0.062 -1.558,-0.542 -1.628,-1.35c-0.07,-0.806 0.544,-1.512 1.374,-1.572c0.828,-0.062 1.556,0.542 1.628,1.35" style="fill:#1e1c1a;fill-rule:nonzero;"/><path d="M848.179,219.141c0.07,0.806 -0.544,1.512 -1.374,1.574c-0.828,0.06 -1.558,-0.542 -1.628,-1.352c-0.07,-0.806 0.544,-1.512 1.374,-1.572c0.828,-0.062 1.558,0.544 1.628,1.35" style="fill:#1e1c1a;fill-rule:nonzero;"/><path d="M842.582,219.557c0.07,0.806 -0.544,1.512 -1.374,1.572c-0.828,0.062 -1.558,-0.542 -1.628,-1.35c-0.07,-0.806 0.544,-1.512 1.374,-1.572c0.828,-0.062 1.558,0.544 1.628,1.35" style="fill:#1e1c1a;fill-rule:nonzero;"/><path d="M836.986,219.973c0.07,0.806 -0.544,1.512 -1.374,1.572c-0.828,0.062 -1.558,-0.542 -1.628,-1.35c-0.07,-0.806 0.544,-1.512 1.374,-1.572c0.828,-0.062 1.558,0.542 1.628,1.35" style="fill:#1e1c1a;fill-rule:nonzero;"/><path d="M844.904,213.899c0.07,0.806 -0.544,1.512 -1.374,1.574c-0.828,0.06 -1.556,-0.542 -1.628,-1.352c-0.07,-0.806 0.544,-1.512 1.374,-1.572c0.828,-0.062 1.558,0.544 1.628,1.35" style="fill:#1e1c1a;fill-rule:nonzero;"/><path d="M839.307,214.315c0.07,0.806 -0.544,1.512 -1.374,1.572c-0.828,0.062 -1.556,-0.542 -1.628,-1.35c-0.07,-0.806 0.544,-1.512 1.374,-1.572c0.828,-0.062 1.558,0.544 1.628,1.35" style="fill:#1e1c1a;fill-rule:nonzero;"/><path d="M849.133,230.041c0.07,0.806 -0.544,1.512 -1.374,1.572c-0.828,0.062 -1.558,-0.542 -1.628,-1.35c-0.072,-0.806 0.544,-1.512 1.374,-1.572c0.828,-0.062 1.556,0.544 1.628,1.35" style="fill:#1e1c1a;fill-rule:nonzero;"/><path d="M843.536,230.457c0.07,0.806 -0.544,1.512 -1.374,1.572c-0.828,0.062 -1.558,-0.542 -1.628,-1.35c-0.072,-0.806 0.544,-1.512 1.374,-1.574c0.828,-0.06 1.556,0.544 1.628,1.352" style="fill:#1e1c1a;fill-rule:nonzero;"/><path d="M837.94,230.873c0.07,0.806 -0.544,1.51 -1.374,1.572c-0.828,0.06 -1.558,-0.542 -1.628,-1.35c-0.072,-0.808 0.544,-1.512 1.374,-1.574c0.828,-0.06 1.556,0.544 1.628,1.352" style="fill:#1e1c1a;fill-rule:nonzero;"/><path d="M845.858,224.799c0.07,0.806 -0.544,1.512 -1.374,1.572c-0.828,0.062 -1.558,-0.542 -1.628,-1.35c-0.07,-0.806 0.544,-1.512 1.374,-1.572c0.828,-0.062 1.556,0.544 1.628,1.35" style="fill:#1e1c1a;fill-rule:nonzero;"/><path d="M840.261,225.215c0.07,0.806 -0.544,1.512 -1.374,1.572c-0.828,0.062 -1.558,-0.542 -1.628,-1.35c-0.07,-0.806 0.544,-1.512 1.374,-1.572c0.828,-0.062 1.556,0.542 1.628,1.35" style="fill:#1e1c1a;fill-rule:nonzero;"/><path d="M830.849,182.032c0.07,0.806 -0.544,1.51 -1.374,1.572c-0.828,0.06 -1.556,-0.542 -1.628,-1.35c-0.07,-0.808 0.544,-1.512 1.374,-1.574c0.828,-0.06 1.558,0.544 1.628,1.352" style="fill:#1e1c1a;fill-rule:nonzero;"/><path d="M825.252,182.446c0.07,0.808 -0.544,1.512 -1.374,1.574c-0.828,0.06 -1.556,-0.542 -1.628,-1.352c-0.07,-0.806 0.544,-1.51 1.374,-1.572c0.828,-0.06 1.558,0.544 1.628,1.35" style="fill:#1e1c1a;fill-rule:nonzero;"/><path d="M831.803,192.93c0.07,0.808 -0.544,1.512 -1.374,1.574c-0.828,0.06 -1.558,-0.542 -1.628,-1.352c-0.07,-0.806 0.544,-1.51 1.374,-1.572c0.828,-0.06 1.556,0.544 1.628,1.35" style="fill:#1e1c1a;fill-rule:nonzero;"/><path d="M826.206,193.346c0.07,0.806 -0.544,1.512 -1.374,1.572c-0.828,0.062 -1.558,-0.54 -1.628,-1.35c-0.07,-0.806 0.544,-1.512 1.374,-1.572c0.828,-0.062 1.556,0.544 1.628,1.35" style="fill:#1e1c1a;fill-rule:nonzero;"/><path d="M834.124,187.274c0.07,0.806 -0.544,1.51 -1.374,1.572c-0.828,0.06 -1.558,-0.542 -1.628,-1.35c-0.07,-0.808 0.544,-1.512 1.374,-1.574c0.828,-0.06 1.558,0.544 1.628,1.352" style="fill:#1e1c1a;fill-rule:nonzero;"/><path d="M828.528,187.688c0.07,0.808 -0.544,1.512 -1.374,1.574c-0.828,0.06 -1.558,-0.542 -1.628,-1.352c-0.07,-0.806 0.544,-1.51 1.374,-1.572c0.828,-0.06 1.558,0.544 1.628,1.35" style="fill:#1e1c1a;fill-rule:nonzero;"/><path d="M822.931,188.104c0.07,0.806 -0.544,1.512 -1.374,1.572c-0.828,0.062 -1.558,-0.54 -1.628,-1.35c-0.07,-0.806 0.544,-1.512 1.374,-1.572c0.828,-0.062 1.558,0.544 1.628,1.35" style="fill:#1e1c1a;fill-rule:nonzero;"/><path d="M830.849,182.032c0.07,0.806 -0.544,1.51 -1.374,1.572c-0.828,0.06 -1.556,-0.542 -1.628,-1.35c-0.07,-0.808 0.544,-1.512 1.374,-1.574c0.828,-0.06 1.558,0.544 1.628,1.352" style="fill:#1e1c1a;fill-rule:nonzero;"/><path d="M825.252,182.446c0.07,0.808 -0.544,1.512 -1.374,1.574c-0.828,0.06 -1.556,-0.542 -1.628,-1.352c-0.07,-0.806 0.544,-1.51 1.374,-1.572c0.828,-0.06 1.558,0.544 1.628,1.35" style="fill:#1e1c1a;fill-rule:nonzero;"/><path d="M832.756,203.83c0.072,0.806 -0.544,1.512 -1.374,1.572c-0.828,0.062 -1.556,-0.542 -1.626,-1.35c-0.072,-0.806 0.542,-1.512 1.372,-1.572c0.828,-0.062 1.558,0.544 1.628,1.35" style="fill:#1e1c1a;fill-rule:nonzero;"/><path d="M827.159,204.246c0.072,0.806 -0.544,1.512 -1.374,1.572c-0.828,0.062 -1.556,-0.542 -1.626,-1.35c-0.072,-0.806 0.542,-1.512 1.372,-1.572c0.828,-0.062 1.558,0.544 1.628,1.35" style="fill:#1e1c1a;fill-rule:nonzero;"/><path d="M835.078,198.172c0.07,0.808 -0.544,1.512 -1.374,1.574c-0.828,0.06 -1.558,-0.542 -1.628,-1.352c-0.072,-0.806 0.544,-1.51 1.374,-1.572c0.828,-0.06 1.556,0.544 1.628,1.35" style="fill:#1e1c1a;fill-rule:nonzero;"/><path d="M829.482,198.588c0.07,0.806 -0.544,1.512 -1.374,1.572c-0.828,0.062 -1.558,-0.542 -1.628,-1.35c-0.072,-0.806 0.544,-1.512 1.374,-1.572c0.828,-0.062 1.556,0.544 1.628,1.35" style="fill:#1e1c1a;fill-rule:nonzero;"/><path d="M823.885,199.004c0.07,0.806 -0.544,1.512 -1.374,1.572c-0.828,0.062 -1.558,-0.542 -1.628,-1.35c-0.072,-0.806 0.544,-1.512 1.374,-1.572c0.828,-0.062 1.556,0.544 1.628,1.35" style="fill:#1e1c1a;fill-rule:nonzero;"/><path d="M831.803,192.93c0.07,0.808 -0.544,1.512 -1.374,1.574c-0.828,0.06 -1.558,-0.542 -1.628,-1.352c-0.07,-0.806 0.544,-1.51 1.374,-1.572c0.828,-0.06 1.556,0.544 1.628,1.35" style="fill:#1e1c1a;fill-rule:nonzero;"/><path d="M826.206,193.346c0.07,0.806 -0.544,1.512 -1.374,1.572c-0.828,0.062 -1.558,-0.54 -1.628,-1.35c-0.07,-0.806 0.544,-1.512 1.374,-1.572c0.828,-0.062 1.556,0.544 1.628,1.35" style="fill:#1e1c1a;fill-rule:nonzero;"/><path d="M833.71,214.731c0.07,0.806 -0.544,1.512 -1.374,1.572c-0.828,0.062 -1.556,-0.542 -1.628,-1.35c-0.07,-0.806 0.544,-1.512 1.374,-1.572c0.828,-0.062 1.558,0.544 1.628,1.35" style="fill:#1e1c1a;fill-rule:nonzero;"/><path d="M828.114,215.147c0.07,0.806 -0.544,1.51 -1.374,1.572c-0.828,0.06 -1.556,-0.542 -1.628,-1.35c-0.07,-0.808 0.544,-1.512 1.374,-1.574c0.828,-0.06 1.558,0.544 1.628,1.352" style="fill:#1e1c1a;fill-rule:nonzero;"/><path d="M836.032,209.073c0.072,0.806 -0.544,1.512 -1.374,1.572c-0.828,0.062 -1.556,-0.542 -1.628,-1.35c-0.07,-0.806 0.544,-1.512 1.374,-1.572c0.828,-0.062 1.558,0.544 1.628,1.35" style="fill:#1e1c1a;fill-rule:nonzero;"/><path d="M830.435,209.489c0.072,0.806 -0.544,1.512 -1.374,1.572c-0.828,0.062 -1.556,-0.542 -1.628,-1.35c-0.07,-0.806 0.544,-1.512 1.374,-1.572c0.828,-0.062 1.558,0.544 1.628,1.35" style="fill:#1e1c1a;fill-rule:nonzero;"/><path d="M824.838,209.905c0.072,0.806 -0.544,1.51 -1.374,1.572c-0.828,0.062 -1.556,-0.542 -1.628,-1.35c-0.07,-0.808 0.544,-1.512 1.374,-1.574c0.828,-0.06 1.558,0.544 1.628,1.352" style="fill:#1e1c1a;fill-rule:nonzero;"/><path d="M832.756,203.83c0.072,0.806 -0.544,1.512 -1.374,1.572c-0.828,0.062 -1.556,-0.542 -1.626,-1.35c-0.072,-0.806 0.542,-1.512 1.372,-1.572c0.828,-0.062 1.558,0.544 1.628,1.35" style="fill:#1e1c1a;fill-rule:nonzero;"/><path d="M827.159,204.246c0.072,0.806 -0.544,1.512 -1.374,1.572c-0.828,0.062 -1.556,-0.542 -1.626,-1.35c-0.072,-0.806 0.542,-1.512 1.372,-1.572c0.828,-0.062 1.558,0.544 1.628,1.35" style="fill:#1e1c1a;fill-rule:nonzero;"/><path d="M834.664,225.631c0.07,0.806 -0.544,1.51 -1.374,1.572c-0.828,0.06 -1.558,-0.542 -1.628,-1.35c-0.07,-0.808 0.544,-1.512 1.374,-1.574c0.828,-0.06 1.556,0.544 1.628,1.352" style="fill:#1e1c1a;fill-rule:nonzero;"/><path d="M829.068,226.045c0.07,0.808 -0.544,1.512 -1.374,1.574c-0.828,0.06 -1.558,-0.542 -1.628,-1.352c-0.07,-0.806 0.544,-1.51 1.374,-1.572c0.828,-0.06 1.556,0.544 1.628,1.35" style="fill:#1e1c1a;fill-rule:nonzero;"/><path d="M836.986,219.973c0.07,0.806 -0.544,1.512 -1.374,1.572c-0.828,0.062 -1.558,-0.542 -1.628,-1.35c-0.07,-0.806 0.544,-1.512 1.374,-1.572c0.828,-0.062 1.558,0.542 1.628,1.35" style="fill:#1e1c1a;fill-rule:nonzero;"/><path d="M831.389,220.389c0.07,0.806 -0.544,1.51 -1.374,1.572c-0.828,0.06 -1.558,-0.542 -1.628,-1.35c-0.07,-0.808 0.544,-1.512 1.374,-1.574c0.828,-0.06 1.558,0.544 1.628,1.352" style="fill:#1e1c1a;fill-rule:nonzero;"/><path d="M825.792,220.803c0.07,0.808 -0.544,1.512 -1.374,1.574c-0.828,0.06 -1.558,-0.542 -1.628,-1.35c-0.07,-0.808 0.544,-1.512 1.374,-1.574c0.828,-0.06 1.558,0.544 1.628,1.35" style="fill:#1e1c1a;fill-rule:nonzero;"/><path d="M833.71,214.731c0.07,0.806 -0.544,1.512 -1.374,1.572c-0.828,0.062 -1.556,-0.542 -1.628,-1.35c-0.07,-0.806 0.544,-1.512 1.374,-1.572c0.828,-0.062 1.558,0.544 1.628,1.35" style="fill:#1e1c1a;fill-rule:nonzero;"/><path d="M828.114,215.147c0.07,0.806 -0.544,1.51 -1.374,1.572c-0.828,0.06 -1.556,-0.542 -1.628,-1.35c-0.07,-0.808 0.544,-1.512 1.374,-1.574c0.828,-0.06 1.558,0.544 1.628,1.352" style="fill:#1e1c1a;fill-rule:nonzero;"/><path d="M837.94,230.873c0.07,0.806 -0.544,1.51 -1.374,1.572c-0.828,0.06 -1.558,-0.542 -1.628,-1.35c-0.072,-0.808 0.544,-1.512 1.374,-1.574c0.828,-0.06 1.556,0.544 1.628,1.352" style="fill:#1e1c1a;fill-rule:nonzero;"/><path d="M834.664,225.631c0.07,0.806 -0.544,1.51 -1.374,1.572c-0.828,0.06 -1.558,-0.542 -1.628,-1.35c-0.07,-0.808 0.544,-1.512 1.374,-1.574c0.828,-0.06 1.556,0.544 1.628,1.352" style="fill:#1e1c1a;fill-rule:nonzero;"/><path d="M829.068,226.045c0.07,0.808 -0.544,1.512 -1.374,1.574c-0.828,0.06 -1.558,-0.542 -1.628,-1.352c-0.07,-0.806 0.544,-1.51 1.374,-1.572c0.828,-0.06 1.556,0.544 1.628,1.35" style="fill:#1e1c1a;fill-rule:nonzero;"/><path d="M819.656,182.862c0.07,0.806 -0.544,1.512 -1.374,1.574c-0.828,0.06 -1.556,-0.542 -1.628,-1.352c-0.07,-0.806 0.544,-1.512 1.374,-1.572c0.828,-0.062 1.558,0.544 1.628,1.35" style="fill:#1e1c1a;fill-rule:nonzero;"/><path d="M814.059,183.278c0.07,0.806 -0.544,1.512 -1.374,1.572c-0.828,0.062 -1.558,-0.542 -1.628,-1.35c-0.07,-0.806 0.544,-1.512 1.374,-1.572c0.828,-0.062 1.558,0.544 1.628,1.35" style="fill:#1e1c1a;fill-rule:nonzero;"/><path d="M820.61,193.762c0.07,0.806 -0.544,1.512 -1.374,1.572c-0.828,0.062 -1.558,-0.542 -1.628,-1.35c-0.07,-0.806 0.544,-1.512 1.374,-1.572c0.828,-0.062 1.556,0.544 1.628,1.35" style="fill:#1e1c1a;fill-rule:nonzero;"/><path d="M815.013,194.178c0.07,0.806 -0.544,1.512 -1.374,1.572c-0.828,0.062 -1.558,-0.542 -1.628,-1.35c-0.07,-0.806 0.544,-1.512 1.374,-1.574c0.828,-0.06 1.556,0.544 1.628,1.352" style="fill:#1e1c1a;fill-rule:nonzero;"/><path d="M822.931,188.104c0.07,0.806 -0.544,1.512 -1.374,1.572c-0.828,0.062 -1.558,-0.54 -1.628,-1.35c-0.07,-0.806 0.544,-1.512 1.374,-1.572c0.828,-0.062 1.558,0.544 1.628,1.35" style="fill:#1e1c1a;fill-rule:nonzero;"/><path d="M817.334,188.52c0.07,0.806 -0.544,1.512 -1.374,1.572c-0.828,0.062 -1.558,-0.542 -1.628,-1.35c-0.07,-0.806 0.544,-1.512 1.374,-1.572c0.828,-0.062 1.558,0.544 1.628,1.35" style="fill:#1e1c1a;fill-rule:nonzero;"/><path d="M811.738,188.936c0.07,0.806 -0.544,1.512 -1.374,1.572c-0.828,0.062 -1.558,-0.542 -1.628,-1.35c-0.07,-0.806 0.544,-1.512 1.374,-1.574c0.828,-0.06 1.556,0.544 1.628,1.352" style="fill:#1e1c1a;fill-rule:nonzero;"/><path d="M819.656,182.862c0.07,0.806 -0.544,1.512 -1.374,1.574c-0.828,0.06 -1.556,-0.542 -1.628,-1.352c-0.07,-0.806 0.544,-1.512 1.374,-1.572c0.828,-0.062 1.558,0.544 1.628,1.35" style="fill:#1e1c1a;fill-rule:nonzero;"/><path d="M814.059,183.278c0.07,0.806 -0.544,1.512 -1.374,1.572c-0.828,0.062 -1.558,-0.542 -1.628,-1.35c-0.07,-0.806 0.544,-1.512 1.374,-1.572c0.828,-0.062 1.558,0.544 1.628,1.35" style="fill:#1e1c1a;fill-rule:nonzero;"/><path d="M821.563,204.662c0.072,0.806 -0.544,1.512 -1.374,1.572c-0.828,0.062 -1.556,-0.542 -1.626,-1.35c-0.072,-0.808 0.542,-1.512 1.372,-1.574c0.828,-0.06 1.558,0.544 1.628,1.352" style="fill:#1e1c1a;fill-rule:nonzero;"/><path d="M815.966,205.076c0.072,0.808 -0.544,1.512 -1.374,1.574c-0.828,0.06 -1.556,-0.542 -1.626,-1.35c-0.072,-0.808 0.542,-1.512 1.372,-1.574c0.828,-0.06 1.558,0.544 1.628,1.35" style="fill:#1e1c1a;fill-rule:nonzero;"/><path d="M823.885,199.004c0.07,0.806 -0.544,1.512 -1.374,1.572c-0.828,0.062 -1.558,-0.542 -1.628,-1.35c-0.072,-0.806 0.544,-1.512 1.374,-1.572c0.828,-0.062 1.556,0.544 1.628,1.35" style="fill:#1e1c1a;fill-rule:nonzero;"/><path d="M818.288,199.42c0.07,0.806 -0.544,1.512 -1.374,1.572c-0.828,0.062 -1.558,-0.542 -1.628,-1.35c-0.072,-0.806 0.544,-1.512 1.374,-1.574c0.828,-0.06 1.556,0.544 1.628,1.352" style="fill:#1e1c1a;fill-rule:nonzero;"/><path d="M812.691,199.834c0.072,0.808 -0.544,1.512 -1.372,1.574c-0.83,0.06 -1.558,-0.542 -1.628,-1.35c-0.072,-0.808 0.542,-1.512 1.372,-1.574c0.828,-0.06 1.558,0.544 1.628,1.35" style="fill:#1e1c1a;fill-rule:nonzero;"/><path d="M820.61,193.762c0.07,0.806 -0.544,1.512 -1.374,1.572c-0.828,0.062 -1.558,-0.542 -1.628,-1.35c-0.07,-0.806 0.544,-1.512 1.374,-1.572c0.828,-0.062 1.556,0.544 1.628,1.35" style="fill:#1e1c1a;fill-rule:nonzero;"/><path d="M815.013,194.178c0.07,0.806 -0.544,1.512 -1.374,1.572c-0.828,0.062 -1.558,-0.542 -1.628,-1.35c-0.07,-0.806 0.544,-1.512 1.374,-1.574c0.828,-0.06 1.556,0.544 1.628,1.352" style="fill:#1e1c1a;fill-rule:nonzero;"/><path d="M822.517,215.561c0.07,0.808 -0.544,1.512 -1.374,1.574c-0.828,0.06 -1.556,-0.542 -1.628,-1.35c-0.07,-0.808 0.544,-1.512 1.374,-1.574c0.828,-0.06 1.558,0.544 1.628,1.35" style="fill:#1e1c1a;fill-rule:nonzero;"/><path d="M816.92,215.977c0.07,0.806 -0.544,1.512 -1.374,1.574c-0.828,0.06 -1.556,-0.542 -1.628,-1.352c-0.07,-0.806 0.544,-1.512 1.374,-1.572c0.828,-0.062 1.558,0.544 1.628,1.35" style="fill:#1e1c1a;fill-rule:nonzero;"/><path d="M824.838,209.905c0.072,0.806 -0.544,1.51 -1.374,1.572c-0.828,0.062 -1.556,-0.542 -1.628,-1.35c-0.07,-0.808 0.544,-1.512 1.374,-1.574c0.828,-0.06 1.558,0.544 1.628,1.352" style="fill:#1e1c1a;fill-rule:nonzero;"/><path d="M819.241,210.319c0.072,0.808 -0.544,1.512 -1.374,1.574c-0.828,0.06 -1.556,-0.542 -1.628,-1.35c-0.07,-0.808 0.544,-1.512 1.374,-1.574c0.828,-0.06 1.558,0.544 1.628,1.35" style="fill:#1e1c1a;fill-rule:nonzero;"/><path d="M813.645,210.735c0.07,0.806 -0.544,1.512 -1.374,1.574c-0.828,0.06 -1.556,-0.542 -1.628,-1.352c-0.07,-0.806 0.544,-1.512 1.374,-1.572c0.828,-0.062 1.558,0.544 1.628,1.35" style="fill:#1e1c1a;fill-rule:nonzero;"/><path d="M821.563,204.662c0.072,0.806 -0.544,1.512 -1.374,1.572c-0.828,0.062 -1.556,-0.542 -1.626,-1.35c-0.072,-0.808 0.542,-1.512 1.372,-1.574c0.828,-0.06 1.558,0.544 1.628,1.352" style="fill:#1e1c1a;fill-rule:nonzero;"/><path d="M815.966,205.076c0.072,0.808 -0.544,1.512 -1.374,1.574c-0.828,0.06 -1.556,-0.542 -1.626,-1.35c-0.072,-0.808 0.542,-1.512 1.372,-1.574c0.828,-0.06 1.558,0.544 1.628,1.35" style="fill:#1e1c1a;fill-rule:nonzero;"/><path d="M823.471,226.461c0.07,0.806 -0.544,1.512 -1.374,1.574c-0.828,0.06 -1.558,-0.542 -1.628,-1.352c-0.07,-0.806 0.544,-1.512 1.374,-1.572c0.828,-0.062 1.556,0.544 1.628,1.35" style="fill:#1e1c1a;fill-rule:nonzero;"/><path d="M817.874,226.877c0.07,0.806 -0.544,1.512 -1.374,1.572c-0.828,0.062 -1.558,-0.542 -1.628,-1.35c-0.07,-0.806 0.544,-1.512 1.374,-1.572c0.828,-0.062 1.556,0.544 1.628,1.35" style="fill:#1e1c1a;fill-rule:nonzero;"/><path d="M825.792,220.803c0.07,0.808 -0.544,1.512 -1.374,1.574c-0.828,0.06 -1.558,-0.542 -1.628,-1.35c-0.07,-0.808 0.544,-1.512 1.374,-1.574c0.828,-0.06 1.558,0.544 1.628,1.35" style="fill:#1e1c1a;fill-rule:nonzero;"/><path d="M820.196,221.219c0.07,0.806 -0.544,1.512 -1.374,1.574c-0.828,0.06 -1.558,-0.542 -1.628,-1.352c-0.07,-0.806 0.544,-1.512 1.374,-1.572c0.828,-0.062 1.558,0.544 1.628,1.35" style="fill:#1e1c1a;fill-rule:nonzero;"/><path d="M814.599,221.635c0.07,0.806 -0.544,1.512 -1.374,1.572c-0.828,0.062 -1.558,-0.542 -1.628,-1.35c-0.07,-0.806 0.544,-1.512 1.374,-1.572c0.828,-0.062 1.558,0.544 1.628,1.35" style="fill:#1e1c1a;fill-rule:nonzero;"/><path d="M822.517,215.561c0.07,0.808 -0.544,1.512 -1.374,1.574c-0.828,0.06 -1.556,-0.542 -1.628,-1.35c-0.07,-0.808 0.544,-1.512 1.374,-1.574c0.828,-0.06 1.558,0.544 1.628,1.35" style="fill:#1e1c1a;fill-rule:nonzero;"/><path d="M816.92,215.977c0.07,0.806 -0.544,1.512 -1.374,1.574c-0.828,0.06 -1.556,-0.542 -1.628,-1.352c-0.07,-0.806 0.544,-1.512 1.374,-1.572c0.828,-0.062 1.558,0.544 1.628,1.35" style="fill:#1e1c1a;fill-rule:nonzero;"/><path d="M823.471,226.461c0.07,0.806 -0.544,1.512 -1.374,1.574c-0.828,0.06 -1.558,-0.542 -1.628,-1.352c-0.07,-0.806 0.544,-1.512 1.374,-1.572c0.828,-0.062 1.556,0.544 1.628,1.35" style="fill:#1e1c1a;fill-rule:nonzero;"/><path d="M817.874,226.877c0.07,0.806 -0.544,1.512 -1.374,1.572c-0.828,0.062 -1.558,-0.542 -1.628,-1.35c-0.07,-0.806 0.544,-1.512 1.374,-1.572c0.828,-0.062 1.556,0.544 1.628,1.35" style="fill:#1e1c1a;fill-rule:nonzero;"/><path d="M808.462,183.694c0.07,0.806 -0.544,1.512 -1.374,1.572c-0.828,0.062 -1.558,-0.542 -1.628,-1.35c-0.07,-0.806 0.544,-1.512 1.374,-1.574c0.828,-0.06 1.558,0.544 1.628,1.352" style="fill:#1e1c1a;fill-rule:nonzero;"/><path d="M802.866,184.11c0.07,0.806 -0.544,1.51 -1.374,1.572c-0.828,0.06 -1.558,-0.542 -1.628,-1.35c-0.07,-0.808 0.544,-1.512 1.374,-1.574c0.828,-0.06 1.558,0.544 1.628,1.352" style="fill:#1e1c1a;fill-rule:nonzero;"/><path d="M809.416,194.592c0.07,0.808 -0.544,1.512 -1.374,1.574c-0.828,0.06 -1.558,-0.542 -1.628,-1.35c-0.072,-0.808 0.544,-1.512 1.374,-1.574c0.828,-0.06 1.556,0.544 1.628,1.35" style="fill:#1e1c1a;fill-rule:nonzero;"/><path d="M803.82,195.008c0.07,0.808 -0.544,1.512 -1.374,1.574c-0.828,0.06 -1.558,-0.542 -1.628,-1.352c-0.072,-0.806 0.544,-1.51 1.374,-1.572c0.828,-0.06 1.556,0.544 1.628,1.35" style="fill:#1e1c1a;fill-rule:nonzero;"/><path d="M811.738,188.936c0.07,0.806 -0.544,1.512 -1.374,1.572c-0.828,0.062 -1.558,-0.542 -1.628,-1.35c-0.07,-0.806 0.544,-1.512 1.374,-1.574c0.828,-0.06 1.556,0.544 1.628,1.352" style="fill:#1e1c1a;fill-rule:nonzero;"/><path d="M806.141,189.352c0.07,0.806 -0.544,1.51 -1.374,1.572c-0.828,0.06 -1.558,-0.542 -1.628,-1.35c-0.07,-0.808 0.544,-1.512 1.374,-1.574c0.828,-0.06 1.556,0.544 1.628,1.352" style="fill:#1e1c1a;fill-rule:nonzero;"/><path d="M800.544,189.766c0.07,0.808 -0.544,1.512 -1.374,1.574c-0.828,0.06 -1.558,-0.542 -1.628,-1.352c-0.07,-0.806 0.544,-1.51 1.374,-1.572c0.828,-0.06 1.556,0.544 1.628,1.35" style="fill:#1e1c1a;fill-rule:nonzero;"/><path d="M808.462,183.694c0.07,0.806 -0.544,1.512 -1.374,1.572c-0.828,0.062 -1.558,-0.542 -1.628,-1.35c-0.07,-0.806 0.544,-1.512 1.374,-1.574c0.828,-0.06 1.558,0.544 1.628,1.352" style="fill:#1e1c1a;fill-rule:nonzero;"/><path d="M802.866,184.11c0.07,0.806 -0.544,1.51 -1.374,1.572c-0.828,0.06 -1.558,-0.542 -1.628,-1.35c-0.07,-0.808 0.544,-1.512 1.374,-1.574c0.828,-0.06 1.558,0.544 1.628,1.352" style="fill:#1e1c1a;fill-rule:nonzero;"/><path d="M810.369,205.492c0.072,0.808 -0.544,1.512 -1.374,1.574c-0.828,0.06 -1.556,-0.542 -1.628,-1.352c-0.07,-0.806 0.544,-1.51 1.374,-1.572c0.828,-0.062 1.558,0.544 1.628,1.35" style="fill:#1e1c1a;fill-rule:nonzero;"/><path d="M804.773,205.908c0.072,0.806 -0.544,1.512 -1.374,1.572c-0.828,0.062 -1.556,-0.542 -1.628,-1.35c-0.07,-0.806 0.544,-1.512 1.374,-1.572c0.828,-0.062 1.558,0.544 1.628,1.35" style="fill:#1e1c1a;fill-rule:nonzero;"/><path d="M812.691,199.834c0.072,0.808 -0.544,1.512 -1.372,1.574c-0.83,0.06 -1.558,-0.542 -1.628,-1.35c-0.072,-0.808 0.542,-1.512 1.372,-1.574c0.828,-0.06 1.558,0.544 1.628,1.35" style="fill:#1e1c1a;fill-rule:nonzero;"/><path d="M807.094,200.25c0.072,0.808 -0.544,1.512 -1.372,1.574c-0.83,0.06 -1.558,-0.542 -1.628,-1.352c-0.072,-0.806 0.542,-1.51 1.372,-1.572c0.828,-0.06 1.558,0.544 1.628,1.35" style="fill:#1e1c1a;fill-rule:nonzero;"/><path d="M801.497,200.666c0.072,0.806 -0.544,1.512 -1.374,1.572c-0.828,0.062 -1.556,-0.542 -1.626,-1.35c-0.072,-0.806 0.542,-1.512 1.372,-1.572c0.828,-0.062 1.558,0.544 1.628,1.35" style="fill:#1e1c1a;fill-rule:nonzero;"/><path d="M809.416,194.592c0.07,0.808 -0.544,1.512 -1.374,1.574c-0.828,0.06 -1.558,-0.542 -1.628,-1.35c-0.072,-0.808 0.544,-1.512 1.374,-1.574c0.828,-0.06 1.556,0.544 1.628,1.35" style="fill:#1e1c1a;fill-rule:nonzero;"/><path d="M803.82,195.008c0.07,0.808 -0.544,1.512 -1.374,1.574c-0.828,0.06 -1.558,-0.542 -1.628,-1.352c-0.072,-0.806 0.544,-1.51 1.374,-1.572c0.828,-0.06 1.556,0.544 1.628,1.35" style="fill:#1e1c1a;fill-rule:nonzero;"/><path d="M811.324,216.393c0.07,0.806 -0.544,1.512 -1.374,1.572c-0.828,0.062 -1.558,-0.542 -1.628,-1.35c-0.07,-0.806 0.544,-1.512 1.374,-1.572c0.828,-0.062 1.558,0.544 1.628,1.35" style="fill:#1e1c1a;fill-rule:nonzero;"/><path d="M805.727,216.809c0.07,0.806 -0.544,1.512 -1.374,1.572c-0.828,0.062 -1.558,-0.542 -1.628,-1.35c-0.07,-0.806 0.544,-1.512 1.374,-1.572c0.828,-0.062 1.558,0.544 1.628,1.35" style="fill:#1e1c1a;fill-rule:nonzero;"/><path d="M813.645,210.735c0.07,0.806 -0.544,1.512 -1.374,1.574c-0.828,0.06 -1.556,-0.542 -1.628,-1.352c-0.07,-0.806 0.544,-1.512 1.374,-1.572c0.828,-0.062 1.558,0.544 1.628,1.35" style="fill:#1e1c1a;fill-rule:nonzero;"/><path d="M808.048,211.151c0.07,0.806 -0.544,1.512 -1.374,1.572c-0.828,0.062 -1.556,-0.542 -1.628,-1.35c-0.07,-0.806 0.544,-1.512 1.374,-1.572c0.828,-0.062 1.558,0.544 1.628,1.35" style="fill:#1e1c1a;fill-rule:nonzero;"/><path d="M802.451,211.567c0.07,0.806 -0.544,1.512 -1.374,1.572c-0.828,0.062 -1.556,-0.542 -1.628,-1.35c-0.07,-0.806 0.544,-1.512 1.374,-1.572c0.828,-0.062 1.558,0.544 1.628,1.35" style="fill:#1e1c1a;fill-rule:nonzero;"/><path d="M810.369,205.492c0.072,0.808 -0.544,1.512 -1.374,1.574c-0.828,0.06 -1.556,-0.542 -1.628,-1.352c-0.07,-0.806 0.544,-1.51 1.374,-1.572c0.828,-0.062 1.558,0.544 1.628,1.35" style="fill:#1e1c1a;fill-rule:nonzero;"/><path d="M804.773,205.908c0.072,0.806 -0.544,1.512 -1.374,1.572c-0.828,0.062 -1.556,-0.542 -1.628,-1.35c-0.07,-0.806 0.544,-1.512 1.374,-1.572c0.828,-0.062 1.558,0.544 1.628,1.35" style="fill:#1e1c1a;fill-rule:nonzero;"/><path d="M812.278,227.293c0.07,0.806 -0.544,1.512 -1.374,1.572c-0.828,0.062 -1.558,-0.542 -1.628,-1.35c-0.07,-0.806 0.544,-1.512 1.374,-1.572c0.828,-0.062 1.556,0.542 1.628,1.35" style="fill:#1e1c1a;fill-rule:nonzero;"/><path d="M806.681,227.709c0.07,0.806 -0.544,1.51 -1.374,1.572c-0.828,0.06 -1.558,-0.542 -1.628,-1.35c-0.072,-0.808 0.544,-1.512 1.374,-1.574c0.828,-0.06 1.556,0.544 1.628,1.352" style="fill:#1e1c1a;fill-rule:nonzero;"/><path d="M814.599,221.635c0.07,0.806 -0.544,1.512 -1.374,1.572c-0.828,0.062 -1.558,-0.542 -1.628,-1.35c-0.07,-0.806 0.544,-1.512 1.374,-1.572c0.828,-0.062 1.558,0.544 1.628,1.35" style="fill:#1e1c1a;fill-rule:nonzero;"/><path d="M809.002,222.051c0.07,0.806 -0.544,1.512 -1.374,1.572c-0.828,0.062 -1.558,-0.542 -1.628,-1.35c-0.07,-0.806 0.544,-1.512 1.374,-1.572c0.828,-0.062 1.556,0.542 1.628,1.35" style="fill:#1e1c1a;fill-rule:nonzero;"/><path d="M803.406,222.467c0.07,0.806 -0.544,1.51 -1.374,1.572c-0.828,0.06 -1.558,-0.542 -1.628,-1.35c-0.07,-0.808 0.544,-1.512 1.374,-1.574c0.828,-0.06 1.556,0.544 1.628,1.352" style="fill:#1e1c1a;fill-rule:nonzero;"/><path d="M811.324,216.393c0.07,0.806 -0.544,1.512 -1.374,1.572c-0.828,0.062 -1.558,-0.542 -1.628,-1.35c-0.07,-0.806 0.544,-1.512 1.374,-1.572c0.828,-0.062 1.558,0.544 1.628,1.35" style="fill:#1e1c1a;fill-rule:nonzero;"/><path d="M805.727,216.809c0.07,0.806 -0.544,1.512 -1.374,1.572c-0.828,0.062 -1.558,-0.542 -1.628,-1.35c-0.07,-0.806 0.544,-1.512 1.374,-1.572c0.828,-0.062 1.558,0.544 1.628,1.35" style="fill:#1e1c1a;fill-rule:nonzero;"/><path d="M812.278,227.293c0.07,0.806 -0.544,1.512 -1.374,1.572c-0.828,0.062 -1.558,-0.542 -1.628,-1.35c-0.07,-0.806 0.544,-1.512 1.374,-1.572c0.828,-0.062 1.556,0.542 1.628,1.35" style="fill:#1e1c1a;fill-rule:nonzero;"/><path d="M806.681,227.709c0.07,0.806 -0.544,1.51 -1.374,1.572c-0.828,0.06 -1.558,-0.542 -1.628,-1.35c-0.072,-0.808 0.544,-1.512 1.374,-1.574c0.828,-0.06 1.556,0.544 1.628,1.352" style="fill:#1e1c1a;fill-rule:nonzero;"/><path d="M797.269,184.524c0.07,0.808 -0.544,1.512 -1.374,1.574c-0.828,0.06 -1.558,-0.542 -1.628,-1.352c-0.07,-0.806 0.544,-1.51 1.374,-1.572c0.828,-0.06 1.558,0.544 1.628,1.35" style="fill:#1e1c1a;fill-rule:nonzero;"/><path d="M791.672,184.94c0.07,0.806 -0.544,1.512 -1.374,1.574c-0.828,0.06 -1.558,-0.542 -1.628,-1.352c-0.07,-0.806 0.544,-1.512 1.374,-1.572c0.828,-0.062 1.558,0.544 1.628,1.35" style="fill:#1e1c1a;fill-rule:nonzero;"/><path d="M793.993,179.282c0.07,0.808 -0.544,1.512 -1.374,1.574c-0.828,0.06 -1.556,-0.542 -1.628,-1.352c-0.07,-0.806 0.544,-1.51 1.374,-1.572c0.828,-0.06 1.558,0.544 1.628,1.35" style="fill:#1e1c1a;fill-rule:nonzero;"/><path d="M788.397,179.698c0.07,0.806 -0.544,1.512 -1.374,1.574c-0.828,0.06 -1.556,-0.542 -1.628,-1.352c-0.07,-0.806 0.544,-1.512 1.374,-1.572c0.828,-0.062 1.558,0.544 1.628,1.35" style="fill:#1e1c1a;fill-rule:nonzero;"/><path d="M798.223,195.424c0.07,0.806 -0.544,1.512 -1.374,1.572c-0.828,0.062 -1.558,-0.542 -1.628,-1.35c-0.072,-0.806 0.544,-1.512 1.374,-1.572c0.828,-0.062 1.556,0.544 1.628,1.35" style="fill:#1e1c1a;fill-rule:nonzero;"/><path d="M792.626,195.84c0.07,0.806 -0.544,1.512 -1.374,1.572c-0.828,0.062 -1.558,-0.542 -1.628,-1.35c-0.072,-0.806 0.544,-1.512 1.374,-1.572c0.828,-0.062 1.556,0.544 1.628,1.35" style="fill:#1e1c1a;fill-rule:nonzero;"/><path d="M800.544,189.766c0.07,0.808 -0.544,1.512 -1.374,1.574c-0.828,0.06 -1.558,-0.542 -1.628,-1.352c-0.07,-0.806 0.544,-1.51 1.374,-1.572c0.828,-0.06 1.556,0.544 1.628,1.35" style="fill:#1e1c1a;fill-rule:nonzero;"/><path d="M794.948,190.182c0.07,0.806 -0.544,1.512 -1.374,1.572c-0.828,0.062 -1.558,-0.54 -1.628,-1.35c-0.07,-0.806 0.544,-1.512 1.374,-1.572c0.828,-0.062 1.556,0.544 1.628,1.35" style="fill:#1e1c1a;fill-rule:nonzero;"/><path d="M789.351,190.598c0.07,0.806 -0.544,1.512 -1.374,1.572c-0.828,0.062 -1.558,-0.542 -1.628,-1.35c-0.07,-0.806 0.544,-1.512 1.374,-1.572c0.828,-0.062 1.556,0.544 1.628,1.35" style="fill:#1e1c1a;fill-rule:nonzero;"/><path d="M797.269,184.524c0.07,0.808 -0.544,1.512 -1.374,1.574c-0.828,0.06 -1.558,-0.542 -1.628,-1.352c-0.07,-0.806 0.544,-1.51 1.374,-1.572c0.828,-0.06 1.558,0.544 1.628,1.35" style="fill:#1e1c1a;fill-rule:nonzero;"/><path d="M791.672,184.94c0.07,0.806 -0.544,1.512 -1.374,1.574c-0.828,0.06 -1.558,-0.542 -1.628,-1.352c-0.07,-0.806 0.544,-1.512 1.374,-1.572c0.828,-0.062 1.558,0.544 1.628,1.35" style="fill:#1e1c1a;fill-rule:nonzero;"/><path d="M799.176,206.324c0.072,0.806 -0.544,1.512 -1.374,1.572c-0.828,0.062 -1.556,-0.542 -1.628,-1.35c-0.07,-0.806 0.544,-1.512 1.374,-1.572c0.828,-0.062 1.558,0.544 1.628,1.35" style="fill:#1e1c1a;fill-rule:nonzero;"/><path d="M793.579,206.741c0.072,0.806 -0.544,1.51 -1.374,1.572c-0.828,0.062 -1.556,-0.542 -1.628,-1.35c-0.07,-0.808 0.544,-1.512 1.374,-1.574c0.828,-0.06 1.558,0.544 1.628,1.352" style="fill:#1e1c1a;fill-rule:nonzero;"/><path d="M801.497,200.666c0.072,0.806 -0.544,1.512 -1.374,1.572c-0.828,0.062 -1.556,-0.542 -1.626,-1.35c-0.072,-0.806 0.542,-1.512 1.372,-1.572c0.828,-0.062 1.558,0.544 1.628,1.35" style="fill:#1e1c1a;fill-rule:nonzero;"/><path d="M795.901,201.082c0.072,0.806 -0.544,1.512 -1.374,1.572c-0.828,0.062 -1.556,-0.542 -1.626,-1.35c-0.072,-0.806 0.542,-1.512 1.372,-1.572c0.828,-0.062 1.558,0.544 1.628,1.35" style="fill:#1e1c1a;fill-rule:nonzero;"/><path d="M790.304,201.498c0.072,0.806 -0.544,1.512 -1.374,1.572c-0.828,0.062 -1.556,-0.542 -1.626,-1.35c-0.072,-0.806 0.542,-1.512 1.372,-1.574c0.828,-0.06 1.558,0.544 1.628,1.352" style="fill:#1e1c1a;fill-rule:nonzero;"/><path d="M798.223,195.424c0.07,0.806 -0.544,1.512 -1.374,1.572c-0.828,0.062 -1.558,-0.542 -1.628,-1.35c-0.072,-0.806 0.544,-1.512 1.374,-1.572c0.828,-0.062 1.556,0.544 1.628,1.35" style="fill:#1e1c1a;fill-rule:nonzero;"/><path d="M792.626,195.84c0.07,0.806 -0.544,1.512 -1.374,1.572c-0.828,0.062 -1.558,-0.542 -1.628,-1.35c-0.072,-0.806 0.544,-1.512 1.374,-1.572c0.828,-0.062 1.556,0.544 1.628,1.35" style="fill:#1e1c1a;fill-rule:nonzero;"/><path d="M800.13,217.225c0.07,0.806 -0.544,1.51 -1.374,1.572c-0.828,0.06 -1.558,-0.542 -1.628,-1.35c-0.07,-0.808 0.544,-1.512 1.374,-1.574c0.828,-0.06 1.558,0.544 1.628,1.352" style="fill:#1e1c1a;fill-rule:nonzero;"/><path d="M794.533,217.639c0.07,0.808 -0.544,1.512 -1.374,1.574c-0.828,0.06 -1.558,-0.542 -1.628,-1.35c-0.07,-0.808 0.544,-1.512 1.374,-1.574c0.828,-0.06 1.558,0.544 1.628,1.35" style="fill:#1e1c1a;fill-rule:nonzero;"/><path d="M802.451,211.567c0.07,0.806 -0.544,1.512 -1.374,1.572c-0.828,0.062 -1.556,-0.542 -1.628,-1.35c-0.07,-0.806 0.544,-1.512 1.374,-1.572c0.828,-0.062 1.558,0.544 1.628,1.35" style="fill:#1e1c1a;fill-rule:nonzero;"/><path d="M796.855,211.983c0.07,0.806 -0.544,1.51 -1.374,1.572c-0.828,0.062 -1.556,-0.542 -1.628,-1.35c-0.07,-0.808 0.544,-1.512 1.374,-1.574c0.828,-0.06 1.558,0.544 1.628,1.352" style="fill:#1e1c1a;fill-rule:nonzero;"/><path d="M791.258,212.397c0.07,0.808 -0.544,1.512 -1.374,1.574c-0.828,0.06 -1.556,-0.542 -1.628,-1.35c-0.07,-0.808 0.544,-1.512 1.374,-1.574c0.828,-0.06 1.558,0.544 1.628,1.35" style="fill:#1e1c1a;fill-rule:nonzero;"/><path d="M799.176,206.324c0.072,0.806 -0.544,1.512 -1.374,1.572c-0.828,0.062 -1.556,-0.542 -1.628,-1.35c-0.07,-0.806 0.544,-1.512 1.374,-1.572c0.828,-0.062 1.558,0.544 1.628,1.35" style="fill:#1e1c1a;fill-rule:nonzero;"/><path d="M793.579,206.741c0.072,0.806 -0.544,1.51 -1.374,1.572c-0.828,0.062 -1.556,-0.542 -1.628,-1.35c-0.07,-0.808 0.544,-1.512 1.374,-1.574c0.828,-0.06 1.558,0.544 1.628,1.352" style="fill:#1e1c1a;fill-rule:nonzero;"/><path d="M801.084,228.123c0.07,0.808 -0.544,1.512 -1.374,1.574c-0.828,0.06 -1.558,-0.542 -1.628,-1.352c-0.072,-0.806 0.544,-1.51 1.374,-1.572c0.828,-0.06 1.556,0.544 1.628,1.35" style="fill:#1e1c1a;fill-rule:nonzero;"/><path d="M795.488,228.539c0.07,0.806 -0.544,1.512 -1.374,1.574c-0.828,0.06 -1.558,-0.542 -1.628,-1.352c-0.072,-0.806 0.544,-1.512 1.374,-1.572c0.828,-0.062 1.556,0.544 1.628,1.35" style="fill:#1e1c1a;fill-rule:nonzero;"/><path d="M803.406,222.467c0.07,0.806 -0.544,1.51 -1.374,1.572c-0.828,0.06 -1.558,-0.542 -1.628,-1.35c-0.07,-0.808 0.544,-1.512 1.374,-1.574c0.828,-0.06 1.556,0.544 1.628,1.352" style="fill:#1e1c1a;fill-rule:nonzero;"/><path d="M797.809,222.881c0.07,0.808 -0.544,1.512 -1.374,1.574c-0.828,0.06 -1.558,-0.542 -1.628,-1.352c-0.07,-0.806 0.544,-1.51 1.374,-1.572c0.828,-0.06 1.556,0.544 1.628,1.35" style="fill:#1e1c1a;fill-rule:nonzero;"/><path d="M792.212,223.297c0.07,0.806 -0.544,1.512 -1.374,1.574c-0.828,0.06 -1.558,-0.542 -1.628,-1.352c-0.07,-0.806 0.544,-1.512 1.374,-1.572c0.828,-0.062 1.556,0.544 1.628,1.35" style="fill:#1e1c1a;fill-rule:nonzero;"/><path d="M800.13,217.225c0.07,0.806 -0.544,1.51 -1.374,1.572c-0.828,0.06 -1.558,-0.542 -1.628,-1.35c-0.07,-0.808 0.544,-1.512 1.374,-1.574c0.828,-0.06 1.558,0.544 1.628,1.352" style="fill:#1e1c1a;fill-rule:nonzero;"/><path d="M794.533,217.639c0.07,0.808 -0.544,1.512 -1.374,1.574c-0.828,0.06 -1.558,-0.542 -1.628,-1.35c-0.07,-0.808 0.544,-1.512 1.374,-1.574c0.828,-0.06 1.558,0.544 1.628,1.35" style="fill:#1e1c1a;fill-rule:nonzero;"/><path d="M801.084,228.123c0.07,0.808 -0.544,1.512 -1.374,1.574c-0.828,0.06 -1.558,-0.542 -1.628,-1.352c-0.072,-0.806 0.544,-1.51 1.374,-1.572c0.828,-0.06 1.556,0.544 1.628,1.35" style="fill:#1e1c1a;fill-rule:nonzero;"/><path d="M795.488,228.539c0.07,0.806 -0.544,1.512 -1.374,1.574c-0.828,0.06 -1.558,-0.542 -1.628,-1.352c-0.072,-0.806 0.544,-1.512 1.374,-1.572c0.828,-0.062 1.556,0.544 1.628,1.35" style="fill:#1e1c1a;fill-rule:nonzero;"/><path d="M786.075,185.356c0.07,0.806 -0.544,1.512 -1.374,1.572c-0.828,0.062 -1.558,-0.542 -1.628,-1.35c-0.07,-0.806 0.544,-1.512 1.374,-1.572c0.828,-0.062 1.558,0.544 1.628,1.35" style="fill:#1e1c1a;fill-rule:nonzero;"/><path d="M780.479,185.772c0.07,0.806 -0.544,1.512 -1.374,1.572c-0.828,0.062 -1.558,-0.542 -1.628,-1.35c-0.07,-0.806 0.544,-1.512 1.374,-1.574c0.828,-0.06 1.558,0.544 1.628,1.352" style="fill:#1e1c1a;fill-rule:nonzero;"/><path d="M788.397,179.698c0.07,0.806 -0.544,1.512 -1.374,1.574c-0.828,0.06 -1.556,-0.542 -1.628,-1.352c-0.07,-0.806 0.544,-1.512 1.374,-1.572c0.828,-0.062 1.558,0.544 1.628,1.35" style="fill:#1e1c1a;fill-rule:nonzero;"/><path d="M782.8,180.114c0.07,0.806 -0.544,1.512 -1.374,1.572c-0.828,0.062 -1.556,-0.542 -1.628,-1.35c-0.07,-0.806 0.544,-1.512 1.374,-1.572c0.828,-0.062 1.558,0.544 1.628,1.35" style="fill:#1e1c1a;fill-rule:nonzero;"/><path d="M777.203,180.53c0.07,0.806 -0.544,1.512 -1.374,1.572c-0.828,0.062 -1.556,-0.542 -1.628,-1.35c-0.07,-0.806 0.544,-1.512 1.374,-1.572c0.828,-0.062 1.558,0.542 1.628,1.35" style="fill:#1e1c1a;fill-rule:nonzero;"/><path d="M787.03,196.256c0.07,0.806 -0.544,1.512 -1.374,1.572c-0.828,0.062 -1.558,-0.542 -1.628,-1.35c-0.072,-0.806 0.544,-1.512 1.374,-1.574c0.828,-0.06 1.556,0.544 1.628,1.352" style="fill:#1e1c1a;fill-rule:nonzero;"/><path d="M781.433,196.67c0.07,0.808 -0.544,1.512 -1.374,1.574c-0.828,0.06 -1.558,-0.542 -1.628,-1.35c-0.072,-0.808 0.544,-1.512 1.374,-1.574c0.828,-0.06 1.556,0.544 1.628,1.35" style="fill:#1e1c1a;fill-rule:nonzero;"/><path d="M789.351,190.598c0.07,0.806 -0.544,1.512 -1.374,1.572c-0.828,0.062 -1.558,-0.542 -1.628,-1.35c-0.07,-0.806 0.544,-1.512 1.374,-1.572c0.828,-0.062 1.556,0.544 1.628,1.35" style="fill:#1e1c1a;fill-rule:nonzero;"/><path d="M783.754,191.014c0.07,0.806 -0.544,1.512 -1.374,1.572c-0.828,0.062 -1.558,-0.542 -1.628,-1.35c-0.07,-0.806 0.544,-1.512 1.374,-1.574c0.828,-0.06 1.556,0.544 1.628,1.352" style="fill:#1e1c1a;fill-rule:nonzero;"/><path d="M778.158,191.43c0.07,0.806 -0.544,1.51 -1.374,1.572c-0.828,0.06 -1.558,-0.542 -1.628,-1.35c-0.07,-0.808 0.544,-1.512 1.374,-1.574c0.828,-0.06 1.556,0.544 1.628,1.352" style="fill:#1e1c1a;fill-rule:nonzero;"/><path d="M786.075,185.356c0.07,0.806 -0.544,1.512 -1.374,1.572c-0.828,0.062 -1.558,-0.542 -1.628,-1.35c-0.07,-0.806 0.544,-1.512 1.374,-1.572c0.828,-0.062 1.558,0.544 1.628,1.35" style="fill:#1e1c1a;fill-rule:nonzero;"/><path d="M780.479,185.772c0.07,0.806 -0.544,1.512 -1.374,1.572c-0.828,0.062 -1.558,-0.542 -1.628,-1.35c-0.07,-0.806 0.544,-1.512 1.374,-1.574c0.828,-0.06 1.558,0.544 1.628,1.352" style="fill:#1e1c1a;fill-rule:nonzero;"/><path d="M787.983,207.155c0.072,0.808 -0.544,1.512 -1.374,1.574c-0.828,0.06 -1.556,-0.542 -1.628,-1.35c-0.07,-0.808 0.544,-1.512 1.374,-1.574c0.828,-0.06 1.558,0.544 1.628,1.35" style="fill:#1e1c1a;fill-rule:nonzero;"/><path d="M782.386,207.571c0.072,0.808 -0.544,1.512 -1.374,1.574c-0.828,0.06 -1.556,-0.542 -1.628,-1.352c-0.07,-0.806 0.544,-1.51 1.374,-1.572c0.828,-0.062 1.558,0.544 1.628,1.35" style="fill:#1e1c1a;fill-rule:nonzero;"/><path d="M790.304,201.498c0.072,0.806 -0.544,1.512 -1.374,1.572c-0.828,0.062 -1.556,-0.542 -1.626,-1.35c-0.072,-0.806 0.542,-1.512 1.372,-1.574c0.828,-0.06 1.558,0.544 1.628,1.352" style="fill:#1e1c1a;fill-rule:nonzero;"/><path d="M784.707,201.912c0.072,0.808 -0.544,1.512 -1.374,1.574c-0.828,0.06 -1.556,-0.542 -1.626,-1.35c-0.072,-0.808 0.542,-1.512 1.372,-1.574c0.828,-0.06 1.558,0.544 1.628,1.35" style="fill:#1e1c1a;fill-rule:nonzero;"/><path d="M779.111,202.328c0.072,0.808 -0.544,1.512 -1.374,1.574c-0.828,0.06 -1.556,-0.542 -1.626,-1.352c-0.072,-0.806 0.542,-1.51 1.372,-1.572c0.828,-0.062 1.558,0.544 1.628,1.35" style="fill:#1e1c1a;fill-rule:nonzero;"/><path d="M787.03,196.256c0.07,0.806 -0.544,1.512 -1.374,1.572c-0.828,0.062 -1.558,-0.542 -1.628,-1.35c-0.072,-0.806 0.544,-1.512 1.374,-1.574c0.828,-0.06 1.556,0.544 1.628,1.352" style="fill:#1e1c1a;fill-rule:nonzero;"/><path d="M781.433,196.67c0.07,0.808 -0.544,1.512 -1.374,1.574c-0.828,0.06 -1.558,-0.542 -1.628,-1.35c-0.072,-0.808 0.544,-1.512 1.374,-1.574c0.828,-0.06 1.556,0.544 1.628,1.35" style="fill:#1e1c1a;fill-rule:nonzero;"/><path d="M788.937,218.055c0.07,0.806 -0.544,1.512 -1.374,1.574c-0.828,0.06 -1.558,-0.542 -1.628,-1.352c-0.07,-0.806 0.544,-1.512 1.374,-1.572c0.828,-0.062 1.558,0.544 1.628,1.35" style="fill:#1e1c1a;fill-rule:nonzero;"/><path d="M783.34,218.471c0.07,0.806 -0.544,1.512 -1.374,1.572c-0.828,0.062 -1.558,-0.542 -1.628,-1.35c-0.07,-0.806 0.544,-1.512 1.374,-1.572c0.828,-0.062 1.558,0.544 1.628,1.35" style="fill:#1e1c1a;fill-rule:nonzero;"/><path d="M791.258,212.397c0.07,0.808 -0.544,1.512 -1.374,1.574c-0.828,0.06 -1.556,-0.542 -1.628,-1.35c-0.07,-0.808 0.544,-1.512 1.374,-1.574c0.828,-0.06 1.558,0.544 1.628,1.35" style="fill:#1e1c1a;fill-rule:nonzero;"/><path d="M785.661,212.813c0.07,0.806 -0.544,1.512 -1.374,1.574c-0.828,0.06 -1.556,-0.542 -1.628,-1.352c-0.07,-0.806 0.544,-1.512 1.374,-1.572c0.828,-0.062 1.558,0.544 1.628,1.35" style="fill:#1e1c1a;fill-rule:nonzero;"/><path d="M780.065,213.229c0.07,0.806 -0.544,1.512 -1.374,1.572c-0.828,0.062 -1.556,-0.542 -1.628,-1.35c-0.07,-0.806 0.544,-1.512 1.374,-1.572c0.828,-0.062 1.558,0.544 1.628,1.35" style="fill:#1e1c1a;fill-rule:nonzero;"/><path d="M787.983,207.155c0.072,0.808 -0.544,1.512 -1.374,1.574c-0.828,0.06 -1.556,-0.542 -1.628,-1.35c-0.07,-0.808 0.544,-1.512 1.374,-1.574c0.828,-0.06 1.558,0.544 1.628,1.35" style="fill:#1e1c1a;fill-rule:nonzero;"/><path d="M782.386,207.571c0.072,0.808 -0.544,1.512 -1.374,1.574c-0.828,0.06 -1.556,-0.542 -1.628,-1.352c-0.07,-0.806 0.544,-1.51 1.374,-1.572c0.828,-0.062 1.558,0.544 1.628,1.35" style="fill:#1e1c1a;fill-rule:nonzero;"/><path d="M789.891,228.955c0.07,0.806 -0.544,1.512 -1.374,1.572c-0.828,0.062 -1.558,-0.542 -1.628,-1.35c-0.072,-0.806 0.544,-1.512 1.374,-1.572c0.828,-0.062 1.556,0.544 1.628,1.35" style="fill:#1e1c1a;fill-rule:nonzero;"/><path d="M784.294,229.371c0.07,0.806 -0.544,1.512 -1.374,1.572c-0.828,0.062 -1.558,-0.542 -1.628,-1.35c-0.072,-0.806 0.544,-1.512 1.374,-1.574c0.828,-0.06 1.556,0.544 1.628,1.352" style="fill:#1e1c1a;fill-rule:nonzero;"/><path d="M792.212,223.297c0.07,0.806 -0.544,1.512 -1.374,1.574c-0.828,0.06 -1.558,-0.542 -1.628,-1.352c-0.07,-0.806 0.544,-1.512 1.374,-1.572c0.828,-0.062 1.556,0.544 1.628,1.35" style="fill:#1e1c1a;fill-rule:nonzero;"/><path d="M786.616,223.713c0.07,0.806 -0.544,1.512 -1.374,1.572c-0.828,0.062 -1.558,-0.542 -1.628,-1.35c-0.07,-0.806 0.544,-1.512 1.374,-1.572c0.828,-0.062 1.556,0.544 1.628,1.35" style="fill:#1e1c1a;fill-rule:nonzero;"/><path d="M781.019,224.129c0.07,0.806 -0.544,1.512 -1.374,1.572c-0.828,0.062 -1.558,-0.542 -1.628,-1.35c-0.07,-0.806 0.544,-1.512 1.374,-1.572c0.828,-0.062 1.556,0.542 1.628,1.35" style="fill:#1e1c1a;fill-rule:nonzero;"/><path d="M788.937,218.055c0.07,0.806 -0.544,1.512 -1.374,1.574c-0.828,0.06 -1.558,-0.542 -1.628,-1.352c-0.07,-0.806 0.544,-1.512 1.374,-1.572c0.828,-0.062 1.558,0.544 1.628,1.35" style="fill:#1e1c1a;fill-rule:nonzero;"/><path d="M783.34,218.471c0.07,0.806 -0.544,1.512 -1.374,1.572c-0.828,0.062 -1.558,-0.542 -1.628,-1.35c-0.07,-0.806 0.544,-1.512 1.374,-1.572c0.828,-0.062 1.558,0.544 1.628,1.35" style="fill:#1e1c1a;fill-rule:nonzero;"/><path d="M789.891,228.955c0.07,0.806 -0.544,1.512 -1.374,1.572c-0.828,0.062 -1.558,-0.542 -1.628,-1.35c-0.072,-0.806 0.544,-1.512 1.374,-1.572c0.828,-0.062 1.556,0.544 1.628,1.35" style="fill:#1e1c1a;fill-rule:nonzero;"/><path d="M784.294,229.371c0.07,0.806 -0.544,1.512 -1.374,1.572c-0.828,0.062 -1.558,-0.542 -1.628,-1.35c-0.072,-0.806 0.544,-1.512 1.374,-1.574c0.828,-0.06 1.556,0.544 1.628,1.352" style="fill:#1e1c1a;fill-rule:nonzero;"/><path d="M774.882,186.188c0.07,0.806 -0.544,1.51 -1.374,1.572c-0.828,0.06 -1.558,-0.542 -1.628,-1.35c-0.07,-0.808 0.544,-1.512 1.374,-1.574c0.828,-0.06 1.558,0.544 1.628,1.352" style="fill:#1e1c1a;fill-rule:nonzero;"/><path d="M769.285,186.602c0.07,0.808 -0.544,1.512 -1.374,1.574c-0.828,0.06 -1.558,-0.542 -1.628,-1.352c-0.07,-0.806 0.544,-1.51 1.374,-1.572c0.828,-0.06 1.558,0.544 1.628,1.35" style="fill:#1e1c1a;fill-rule:nonzero;"/><path d="M777.203,180.53c0.07,0.806 -0.544,1.512 -1.374,1.572c-0.828,0.062 -1.556,-0.542 -1.628,-1.35c-0.07,-0.806 0.544,-1.512 1.374,-1.572c0.828,-0.062 1.558,0.542 1.628,1.35" style="fill:#1e1c1a;fill-rule:nonzero;"/><path d="M771.607,180.946c0.07,0.806 -0.544,1.51 -1.374,1.572c-0.828,0.06 -1.556,-0.542 -1.628,-1.35c-0.07,-0.808 0.544,-1.512 1.374,-1.574c0.828,-0.06 1.558,0.544 1.628,1.352" style="fill:#1e1c1a;fill-rule:nonzero;"/><path d="M766.01,181.36c0.07,0.808 -0.544,1.512 -1.374,1.574c-0.828,0.06 -1.556,-0.542 -1.628,-1.352c-0.07,-0.806 0.544,-1.51 1.374,-1.572c0.828,-0.06 1.558,0.544 1.628,1.35" style="fill:#1e1c1a;fill-rule:nonzero;"/><path d="M775.836,197.086c0.07,0.808 -0.544,1.512 -1.374,1.574c-0.828,0.06 -1.558,-0.542 -1.628,-1.352c-0.072,-0.806 0.544,-1.51 1.374,-1.572c0.828,-0.06 1.556,0.544 1.628,1.35" style="fill:#1e1c1a;fill-rule:nonzero;"/><path d="M770.24,197.502c0.07,0.806 -0.544,1.512 -1.374,1.572c-0.828,0.062 -1.558,-0.542 -1.628,-1.35c-0.072,-0.806 0.544,-1.512 1.374,-1.572c0.828,-0.062 1.556,0.544 1.628,1.35" style="fill:#1e1c1a;fill-rule:nonzero;"/><path d="M778.158,191.43c0.07,0.806 -0.544,1.51 -1.374,1.572c-0.828,0.06 -1.558,-0.542 -1.628,-1.35c-0.07,-0.808 0.544,-1.512 1.374,-1.574c0.828,-0.06 1.556,0.544 1.628,1.352" style="fill:#1e1c1a;fill-rule:nonzero;"/><path d="M772.561,191.844c0.07,0.808 -0.544,1.512 -1.374,1.574c-0.828,0.06 -1.558,-0.542 -1.628,-1.352c-0.07,-0.806 0.544,-1.51 1.374,-1.572c0.828,-0.06 1.556,0.544 1.628,1.35" style="fill:#1e1c1a;fill-rule:nonzero;"/><path d="M766.964,192.26c0.07,0.806 -0.544,1.512 -1.374,1.572c-0.828,0.062 -1.558,-0.54 -1.628,-1.35c-0.07,-0.806 0.544,-1.512 1.374,-1.572c0.828,-0.062 1.556,0.544 1.628,1.35" style="fill:#1e1c1a;fill-rule:nonzero;"/><path d="M774.882,186.188c0.07,0.806 -0.544,1.51 -1.374,1.572c-0.828,0.06 -1.558,-0.542 -1.628,-1.35c-0.07,-0.808 0.544,-1.512 1.374,-1.574c0.828,-0.06 1.558,0.544 1.628,1.352" style="fill:#1e1c1a;fill-rule:nonzero;"/><path d="M769.285,186.602c0.07,0.808 -0.544,1.512 -1.374,1.574c-0.828,0.06 -1.558,-0.542 -1.628,-1.352c-0.07,-0.806 0.544,-1.51 1.374,-1.572c0.828,-0.06 1.558,0.544 1.628,1.35" style="fill:#1e1c1a;fill-rule:nonzero;"/><path d="M776.789,207.987c0.072,0.806 -0.544,1.512 -1.374,1.572c-0.828,0.062 -1.556,-0.542 -1.628,-1.35c-0.07,-0.806 0.544,-1.512 1.374,-1.572c0.828,-0.062 1.558,0.544 1.628,1.35" style="fill:#1e1c1a;fill-rule:nonzero;"/><path d="M771.193,208.403c0.072,0.806 -0.544,1.512 -1.374,1.572c-0.828,0.062 -1.556,-0.542 -1.628,-1.35c-0.07,-0.806 0.544,-1.512 1.374,-1.572c0.828,-0.062 1.558,0.544 1.628,1.35" style="fill:#1e1c1a;fill-rule:nonzero;"/><path d="M779.111,202.328c0.072,0.808 -0.544,1.512 -1.374,1.574c-0.828,0.06 -1.556,-0.542 -1.626,-1.352c-0.072,-0.806 0.542,-1.51 1.372,-1.572c0.828,-0.062 1.558,0.544 1.628,1.35" style="fill:#1e1c1a;fill-rule:nonzero;"/><path d="M773.514,202.744c0.072,0.806 -0.544,1.512 -1.374,1.572c-0.828,0.062 -1.556,-0.542 -1.626,-1.35c-0.072,-0.806 0.542,-1.512 1.372,-1.572c0.828,-0.062 1.558,0.544 1.628,1.35" style="fill:#1e1c1a;fill-rule:nonzero;"/><path d="M767.917,203.16c0.072,0.806 -0.544,1.512 -1.374,1.572c-0.828,0.062 -1.556,-0.542 -1.626,-1.35c-0.072,-0.806 0.542,-1.512 1.372,-1.572c0.828,-0.062 1.558,0.544 1.628,1.35" style="fill:#1e1c1a;fill-rule:nonzero;"/><path d="M775.836,197.086c0.07,0.808 -0.544,1.512 -1.374,1.574c-0.828,0.06 -1.558,-0.542 -1.628,-1.352c-0.072,-0.806 0.544,-1.51 1.374,-1.572c0.828,-0.06 1.556,0.544 1.628,1.35" style="fill:#1e1c1a;fill-rule:nonzero;"/><path d="M770.24,197.502c0.07,0.806 -0.544,1.512 -1.374,1.572c-0.828,0.062 -1.558,-0.542 -1.628,-1.35c-0.072,-0.806 0.544,-1.512 1.374,-1.572c0.828,-0.062 1.556,0.544 1.628,1.35" style="fill:#1e1c1a;fill-rule:nonzero;"/><path d="M777.743,218.887c0.07,0.806 -0.544,1.512 -1.374,1.572c-0.828,0.062 -1.558,-0.542 -1.628,-1.35c-0.07,-0.806 0.544,-1.512 1.374,-1.572c0.828,-0.062 1.558,0.544 1.628,1.35" style="fill:#1e1c1a;fill-rule:nonzero;"/><path d="M772.147,219.303c0.07,0.806 -0.544,1.51 -1.374,1.572c-0.828,0.06 -1.558,-0.542 -1.628,-1.35c-0.07,-0.808 0.544,-1.512 1.374,-1.574c0.828,-0.06 1.558,0.544 1.628,1.352" style="fill:#1e1c1a;fill-rule:nonzero;"/><path d="M780.065,213.229c0.07,0.806 -0.544,1.512 -1.374,1.572c-0.828,0.062 -1.556,-0.542 -1.628,-1.35c-0.07,-0.806 0.544,-1.512 1.374,-1.572c0.828,-0.062 1.558,0.544 1.628,1.35" style="fill:#1e1c1a;fill-rule:nonzero;"/><path d="M774.468,213.645c0.07,0.806 -0.544,1.512 -1.374,1.572c-0.828,0.062 -1.556,-0.542 -1.628,-1.35c-0.07,-0.806 0.544,-1.512 1.374,-1.572c0.828,-0.062 1.558,0.544 1.628,1.35" style="fill:#1e1c1a;fill-rule:nonzero;"/><path d="M768.871,214.061c0.07,0.806 -0.544,1.51 -1.374,1.572c-0.828,0.06 -1.556,-0.542 -1.628,-1.35c-0.07,-0.808 0.544,-1.512 1.374,-1.574c0.828,-0.06 1.558,0.544 1.628,1.352" style="fill:#1e1c1a;fill-rule:nonzero;"/><path d="M776.789,207.987c0.072,0.806 -0.544,1.512 -1.374,1.572c-0.828,0.062 -1.556,-0.542 -1.628,-1.35c-0.07,-0.806 0.544,-1.512 1.374,-1.572c0.828,-0.062 1.558,0.544 1.628,1.35" style="fill:#1e1c1a;fill-rule:nonzero;"/><path d="M771.193,208.403c0.072,0.806 -0.544,1.512 -1.374,1.572c-0.828,0.062 -1.556,-0.542 -1.628,-1.35c-0.07,-0.806 0.544,-1.512 1.374,-1.572c0.828,-0.062 1.558,0.544 1.628,1.35" style="fill:#1e1c1a;fill-rule:nonzero;"/><path d="M778.698,229.787c0.07,0.806 -0.544,1.51 -1.374,1.572c-0.828,0.06 -1.558,-0.542 -1.628,-1.35c-0.072,-0.808 0.544,-1.512 1.374,-1.574c0.828,-0.06 1.556,0.544 1.628,1.352" style="fill:#1e1c1a;fill-rule:nonzero;"/><path d="M773.101,230.201c0.07,0.808 -0.544,1.512 -1.374,1.574c-0.828,0.06 -1.558,-0.542 -1.628,-1.352c-0.072,-0.806 0.544,-1.51 1.374,-1.572c0.828,-0.06 1.556,0.544 1.628,1.35" style="fill:#1e1c1a;fill-rule:nonzero;"/><path d="M781.019,224.129c0.07,0.806 -0.544,1.512 -1.374,1.572c-0.828,0.062 -1.558,-0.542 -1.628,-1.35c-0.07,-0.806 0.544,-1.512 1.374,-1.572c0.828,-0.062 1.556,0.542 1.628,1.35" style="fill:#1e1c1a;fill-rule:nonzero;"/><path d="M775.422,224.545c0.07,0.806 -0.544,1.51 -1.374,1.572c-0.828,0.06 -1.558,-0.542 -1.628,-1.35c-0.07,-0.808 0.544,-1.512 1.374,-1.574c0.828,-0.06 1.556,0.544 1.628,1.352" style="fill:#1e1c1a;fill-rule:nonzero;"/><path d="M769.825,224.959c0.07,0.808 -0.544,1.512 -1.374,1.574c-0.828,0.06 -1.558,-0.542 -1.628,-1.352c-0.07,-0.806 0.544,-1.51 1.374,-1.572c0.828,-0.06 1.556,0.544 1.628,1.35" style="fill:#1e1c1a;fill-rule:nonzero;"/><path d="M777.743,218.887c0.07,0.806 -0.544,1.512 -1.374,1.572c-0.828,0.062 -1.558,-0.542 -1.628,-1.35c-0.07,-0.806 0.544,-1.512 1.374,-1.572c0.828,-0.062 1.558,0.544 1.628,1.35" style="fill:#1e1c1a;fill-rule:nonzero;"/><path d="M772.147,219.303c0.07,0.806 -0.544,1.51 -1.374,1.572c-0.828,0.06 -1.558,-0.542 -1.628,-1.35c-0.07,-0.808 0.544,-1.512 1.374,-1.574c0.828,-0.06 1.558,0.544 1.628,1.352" style="fill:#1e1c1a;fill-rule:nonzero;"/><path d="M778.698,229.787c0.07,0.806 -0.544,1.51 -1.374,1.572c-0.828,0.06 -1.558,-0.542 -1.628,-1.35c-0.072,-0.808 0.544,-1.512 1.374,-1.574c0.828,-0.06 1.556,0.544 1.628,1.352" style="fill:#1e1c1a;fill-rule:nonzero;"/><path d="M773.101,230.201c0.07,0.808 -0.544,1.512 -1.374,1.574c-0.828,0.06 -1.558,-0.542 -1.628,-1.352c-0.072,-0.806 0.544,-1.51 1.374,-1.572c0.828,-0.06 1.556,0.544 1.628,1.35" style="fill:#1e1c1a;fill-rule:nonzero;"/><path d="M763.689,187.018c0.07,0.806 -0.544,1.512 -1.374,1.572c-0.828,0.062 -1.558,-0.54 -1.628,-1.35c-0.07,-0.806 0.544,-1.512 1.374,-1.572c0.828,-0.062 1.558,0.544 1.628,1.35" style="fill:#1e1c1a;fill-rule:nonzero;"/><path d="M766.01,181.36c0.07,0.808 -0.544,1.512 -1.374,1.574c-0.828,0.06 -1.556,-0.542 -1.628,-1.352c-0.07,-0.806 0.544,-1.51 1.374,-1.572c0.828,-0.06 1.558,0.544 1.628,1.35" style="fill:#1e1c1a;fill-rule:nonzero;"/><path d="M760.413,181.776c0.07,0.806 -0.544,1.512 -1.374,1.574c-0.828,0.06 -1.558,-0.542 -1.628,-1.352c-0.07,-0.806 0.544,-1.512 1.374,-1.572c0.828,-0.062 1.558,0.544 1.628,1.35" style="fill:#1e1c1a;fill-rule:nonzero;"/><path d="M764.643,197.918c0.07,0.806 -0.544,1.512 -1.374,1.572c-0.828,0.062 -1.558,-0.542 -1.628,-1.35c-0.072,-0.806 0.544,-1.512 1.374,-1.572c0.828,-0.062 1.556,0.544 1.628,1.35" style="fill:#1e1c1a;fill-rule:nonzero;"/><path d="M766.964,192.26c0.07,0.806 -0.544,1.512 -1.374,1.572c-0.828,0.062 -1.558,-0.54 -1.628,-1.35c-0.07,-0.806 0.544,-1.512 1.374,-1.572c0.828,-0.062 1.556,0.544 1.628,1.35" style="fill:#1e1c1a;fill-rule:nonzero;"/><path d="M761.367,192.676c0.07,0.806 -0.544,1.512 -1.374,1.572c-0.828,0.062 -1.558,-0.542 -1.628,-1.35c-0.07,-0.806 0.544,-1.512 1.374,-1.572c0.828,-0.062 1.556,0.544 1.628,1.35" style="fill:#1e1c1a;fill-rule:nonzero;"/><path d="M763.689,187.018c0.07,0.806 -0.544,1.512 -1.374,1.572c-0.828,0.062 -1.558,-0.54 -1.628,-1.35c-0.07,-0.806 0.544,-1.512 1.374,-1.572c0.828,-0.062 1.558,0.544 1.628,1.35" style="fill:#1e1c1a;fill-rule:nonzero;"/><path d="M765.596,208.819c0.07,0.806 -0.544,1.51 -1.374,1.572c-0.828,0.062 -1.556,-0.542 -1.628,-1.35c-0.07,-0.808 0.544,-1.512 1.374,-1.574c0.828,-0.06 1.558,0.544 1.628,1.352" style="fill:#1e1c1a;fill-rule:nonzero;"/><path d="M759.999,209.233c0.07,0.808 -0.544,1.512 -1.374,1.574c-0.828,0.06 -1.556,-0.542 -1.628,-1.35c-0.07,-0.808 0.544,-1.512 1.374,-1.574c0.828,-0.06 1.558,0.544 1.628,1.35" style="fill:#1e1c1a;fill-rule:nonzero;"/><path d="M767.917,203.16c0.072,0.806 -0.544,1.512 -1.374,1.572c-0.828,0.062 -1.556,-0.542 -1.626,-1.35c-0.072,-0.806 0.542,-1.512 1.372,-1.572c0.828,-0.062 1.558,0.544 1.628,1.35" style="fill:#1e1c1a;fill-rule:nonzero;"/><path d="M762.321,203.576c0.072,0.806 -0.544,1.512 -1.374,1.572c-0.828,0.062 -1.556,-0.542 -1.626,-1.35c-0.072,-0.806 0.542,-1.512 1.372,-1.574c0.828,-0.06 1.558,0.544 1.628,1.352" style="fill:#1e1c1a;fill-rule:nonzero;"/><path d="M764.643,197.918c0.07,0.806 -0.544,1.512 -1.374,1.572c-0.828,0.062 -1.558,-0.542 -1.628,-1.35c-0.072,-0.806 0.544,-1.512 1.374,-1.572c0.828,-0.062 1.556,0.544 1.628,1.35" style="fill:#1e1c1a;fill-rule:nonzero;"/><path d="M766.55,219.717c0.07,0.808 -0.544,1.512 -1.374,1.574c-0.828,0.06 -1.558,-0.542 -1.628,-1.35c-0.07,-0.808 0.544,-1.512 1.374,-1.574c0.828,-0.06 1.558,0.544 1.628,1.35" style="fill:#1e1c1a;fill-rule:nonzero;"/><path d="M760.953,220.133c0.07,0.806 -0.544,1.512 -1.374,1.574c-0.828,0.06 -1.558,-0.542 -1.628,-1.352c-0.07,-0.806 0.544,-1.512 1.374,-1.572c0.828,-0.062 1.558,0.544 1.628,1.35" style="fill:#1e1c1a;fill-rule:nonzero;"/><path d="M768.871,214.061c0.07,0.806 -0.544,1.51 -1.374,1.572c-0.828,0.06 -1.556,-0.542 -1.628,-1.35c-0.07,-0.808 0.544,-1.512 1.374,-1.574c0.828,-0.06 1.558,0.544 1.628,1.352" style="fill:#1e1c1a;fill-rule:nonzero;"/><path d="M763.275,214.475c0.07,0.808 -0.544,1.512 -1.374,1.574c-0.828,0.06 -1.556,-0.542 -1.628,-1.35c-0.07,-0.808 0.544,-1.512 1.374,-1.574c0.828,-0.06 1.558,0.544 1.628,1.35" style="fill:#1e1c1a;fill-rule:nonzero;"/><path d="M765.596,208.819c0.07,0.806 -0.544,1.51 -1.374,1.572c-0.828,0.062 -1.556,-0.542 -1.628,-1.35c-0.07,-0.808 0.544,-1.512 1.374,-1.574c0.828,-0.06 1.558,0.544 1.628,1.352" style="fill:#1e1c1a;fill-rule:nonzero;"/><path d="M759.999,209.233c0.07,0.808 -0.544,1.512 -1.374,1.574c-0.828,0.06 -1.556,-0.542 -1.628,-1.35c-0.07,-0.808 0.544,-1.512 1.374,-1.574c0.828,-0.06 1.558,0.544 1.628,1.35" style="fill:#1e1c1a;fill-rule:nonzero;"/><path d="M767.504,230.617c0.07,0.806 -0.544,1.512 -1.374,1.574c-0.828,0.06 -1.558,-0.542 -1.628,-1.352c-0.072,-0.806 0.544,-1.512 1.374,-1.572c0.828,-0.062 1.556,0.544 1.628,1.35" style="fill:#1e1c1a;fill-rule:nonzero;"/><path d="M769.825,224.959c0.07,0.808 -0.544,1.512 -1.374,1.574c-0.828,0.06 -1.558,-0.542 -1.628,-1.352c-0.07,-0.806 0.544,-1.51 1.374,-1.572c0.828,-0.06 1.556,0.544 1.628,1.35" style="fill:#1e1c1a;fill-rule:nonzero;"/><path d="M764.229,225.375c0.07,0.806 -0.544,1.512 -1.374,1.574c-0.828,0.06 -1.558,-0.542 -1.628,-1.352c-0.07,-0.806 0.544,-1.512 1.374,-1.572c0.828,-0.062 1.556,0.544 1.628,1.35" style="fill:#1e1c1a;fill-rule:nonzero;"/><path d="M766.55,219.717c0.07,0.808 -0.544,1.512 -1.374,1.574c-0.828,0.06 -1.558,-0.542 -1.628,-1.35c-0.07,-0.808 0.544,-1.512 1.374,-1.574c0.828,-0.06 1.558,0.544 1.628,1.35" style="fill:#1e1c1a;fill-rule:nonzero;"/><path d="M760.953,220.133c0.07,0.806 -0.544,1.512 -1.374,1.574c-0.828,0.06 -1.558,-0.542 -1.628,-1.352c-0.07,-0.806 0.544,-1.512 1.374,-1.572c0.828,-0.062 1.558,0.544 1.628,1.35" style="fill:#1e1c1a;fill-rule:nonzero;"/><path d="M767.504,230.617c0.07,0.806 -0.544,1.512 -1.374,1.574c-0.828,0.06 -1.558,-0.542 -1.628,-1.352c-0.072,-0.806 0.544,-1.512 1.374,-1.572c0.828,-0.062 1.556,0.544 1.628,1.35" style="fill:#1e1c1a;fill-rule:nonzero;"/></g></g></g></g></svg>