<?xml version="1.0" encoding="UTF-8" standalone="no"?><!DOCTYPE svg PUBLIC "-//W3C//DTD SVG 1.1//EN" "http://www.w3.org/Graphics/SVG/1.1/DTD/svg11.dtd"><svg width="100%" height="100%" viewBox="0 0 930 638" version="1.1" xmlns="http://www.w3.org/2000/svg" xmlns:xlink="http://www.w3.org/1999/xlink" xml:space="preserve" xmlns:serif="http://www.serif.com/" style="fill-rule:evenodd;clip-rule:evenodd;stroke-linejoin:round;stroke-miterlimit:2;"><g id="Ebene-5" serif:id="Ebene 5"><path d="M402.967,413.211c-52.354,-3.32 -92.472,-48.872 -89.154,-101.224l13.888,-219.02c3.318,-52.354 48.87,-92.472 101.224,-89.154c52.354,3.32 92.474,48.87 89.154,101.224l-13.888,219.02c-3.318,52.354 -48.87,92.472 -101.224,89.154" style="fill:#f4921f;fill-rule:nonzero;"/><path d="M357.94,370.748l-2.928,6.804l0.378,0.344l6.51,-3.536l-3.96,-3.612Zm-3.478,11.38l-3.58,-3.266l7.088,-17.228l2.732,2.492l-1.53,3.682l5.542,5.056l3.528,-1.86l2.732,2.492l-16.512,8.632Z" style="fill:#1e1c1a;fill-rule:nonzero;"/><path d="M345.611,359.488l-4.34,-6.608l0.94,-0.616c4.074,-2.676 8.89,-1.72 11.55,2.332c2.662,4.048 1.626,9.304 -2.764,12.184c-4.386,2.88 -9.622,1.744 -12.282,-2.308c-2.662,-4.048 -1.134,-8.102 0.816,-10.144l1.888,2.876c-0.936,1.534 -1.422,3.528 -0.092,5.554c1.68,2.556 4.82,3.242 7.85,1.252c3.03,-1.99 3.652,-5.144 1.972,-7.7c-1.818,-2.772 -4.854,-2.61 -5.794,-1.992l-0.104,0.068l2.448,3.73l-2.088,1.372Z" style="fill:#1e1c1a;fill-rule:nonzero;"/><path d="M338.931,339.176l-5.866,4.524l0.16,0.484l7.414,0.072l-1.708,-5.08Zm-8.57,8.254l-1.546,-4.596l14.568,-11.608l1.178,3.508l-3.126,2.474l2.39,7.11l3.988,0.088l1.18,3.508l-18.632,-0.484Z" style="fill:#1e1c1a;fill-rule:nonzero;"/><path d="M343.113,325.368l0.416,3.287l-17.372,2.197l-0.416,-3.288l17.372,-2.196Z" style="fill:#1e1c1a;"/><path d="M325.085,319.715l0.282,-4.458l12.51,-5.724l0.034,-0.51l-12.1,-0.766l0.21,-3.31l17.462,1.108l-0.284,4.454l-12.508,5.728l-0.032,0.508l12.096,0.766l-0.21,3.312l-17.46,-1.108Z" style="fill:#1e1c1a;fill-rule:nonzero;"/><path d="M338.529,297.285c1.498,0.096 2.838,-1.354 2.992,-3.774c0.162,-2.544 -0.772,-3.626 -2.018,-3.706c-0.998,-0.062 -1.91,0.52 -2.43,2.784l-0.694,3.026c-0.692,3.024 -2.526,4.312 -5.02,4.156c-2.87,-0.184 -5.086,-2.752 -4.82,-6.952c0.29,-4.584 2.932,-6.718 6.172,-6.51l-0.21,3.308c-1.494,-0.094 -2.822,1.1 -2.968,3.39c-0.144,2.292 0.788,3.374 2.036,3.454c0.996,0.062 1.678,-0.406 2.148,-2.294l0.676,-2.768c0.85,-3.526 2.452,-5.086 5.32,-4.904c2.992,0.19 5.094,2.624 4.802,7.208c-0.29,4.582 -2.954,7.098 -6.196,6.892l0.21,-3.31Z" style="fill:#1e1c1a;fill-rule:nonzero;"/><path d="M330.914,277.156l-0.338,5.346l-3.12,-0.198l0.888,-14.004l3.12,0.198l-0.34,5.346l14.342,0.91l-0.21,3.312l-14.342,-0.91Z" style="fill:#1e1c1a;fill-rule:nonzero;"/><path d="M344.238,248.686c0.074,-1.144 -0.86,-2.226 -2.106,-2.304c-1.248,-0.08 -2.31,0.874 -2.382,2.02l-0.306,4.838l4.488,0.284l0.306,-4.838Zm-7.374,-0.21c0.082,-1.272 -0.736,-2.22 -1.982,-2.298c-1.372,-0.088 -2.302,0.748 -2.382,2.022l-0.292,4.582l4.364,0.278l0.292,-4.584Zm-7.734,7.432l0.524,-8.272c0.194,-3.056 2.32,-4.968 5.188,-4.786c2.618,0.166 3.628,2.022 3.628,2.022l0.126,0.008c0,0 1.252,-1.968 3.996,-1.794c2.866,0.182 4.734,2.346 4.54,5.4l-0.54,8.53l-17.462,-1.108Z" style="fill:#1e1c1a;fill-rule:nonzero;"/><path d="M339.811,225.703c-3.616,-0.228 -6.006,1.92 -6.202,4.976c-0.192,3.054 1.908,5.488 5.524,5.718c3.618,0.23 6.006,-1.92 6.2,-4.976c0.194,-3.056 -1.904,-5.488 -5.522,-5.718m0.208,-3.308c5.24,0.332 8.74,4.386 8.432,9.224c-0.306,4.838 -4.29,8.42 -9.528,8.088c-5.238,-0.332 -8.738,-4.388 -8.432,-9.226c0.308,-4.838 4.292,-8.418 9.528,-8.086" style="fill:#1e1c1a;fill-rule:nonzero;"/><path d="M340.555,210.008c0.082,-1.274 -0.97,-2.49 -2.466,-2.584c-1.62,-0.104 -2.816,0.97 -2.896,2.244l-0.3,4.71l5.364,0.34l0.298,-4.71Zm-8.99,7.482l0.518,-8.148c0.2,-3.182 2.724,-5.45 6.216,-5.228c3.368,0.214 5.336,2.768 5.282,5.574l6.35,-5.35l-0.266,4.204l-6.35,5.348l-0.064,1.018l5.986,0.38l-0.21,3.31l-17.462,-1.108Z" style="fill:#1e1c1a;fill-rule:nonzero;"/><path d="M350.423,196.566l-0.21,3.311l-17.46,-1.107l0.21,-3.312l17.46,1.108Z" style="fill:#1e1c1a;"/><path d="M333.316,189.881l0.284,-4.456l12.508,-5.726l0.034,-0.508l-12.1,-0.768l0.21,-3.31l17.462,1.108l-0.282,4.456l-12.51,5.726l-0.032,0.51l12.096,0.764l-0.208,3.312l-17.462,-1.108Z" style="fill:#1e1c1a;fill-rule:nonzero;"/><path d="M350.882,157.738l-0.008,0.126c0,0 2.14,1.798 1.914,5.364c-0.306,4.838 -4.29,8.418 -9.528,8.086c-5.238,-0.332 -8.738,-4.386 -8.432,-9.224c0.306,-4.838 3.962,-7.162 6.744,-7.628l-0.218,3.44c-1.668,0.66 -3.254,1.964 -3.406,4.384c-0.194,3.056 1.906,5.49 5.522,5.72c3.618,0.228 6.006,-1.922 6.2,-4.976c0.21,-3.31 -2.312,-5.004 -3.434,-5.076l-0.124,-0.008l-0.282,4.456l-2.496,-0.158l0.492,-7.766l9.23,0.586l-0.162,2.546l-2.012,0.128Z" style="fill:#1e1c1a;fill-rule:nonzero;"/><path d="M348.562,139.047c1.498,0.096 2.838,-1.354 2.992,-3.774c0.162,-2.544 -0.772,-3.628 -2.018,-3.706c-0.998,-0.064 -1.91,0.518 -2.43,2.784l-0.694,3.026c-0.692,3.022 -2.526,4.312 -5.02,4.154c-2.87,-0.182 -5.086,-2.75 -4.82,-6.95c0.29,-4.584 2.932,-6.718 6.172,-6.512l-0.21,3.31c-1.494,-0.096 -2.822,1.1 -2.968,3.39c-0.144,2.292 0.788,3.374 2.036,3.454c0.996,0.062 1.676,-0.404 2.148,-2.294l0.676,-2.768c0.85,-3.526 2.452,-5.086 5.32,-4.906c2.992,0.19 5.094,2.626 4.802,7.208c-0.29,4.584 -2.954,7.1 -6.196,6.894l0.21,-3.31Z" style="fill:#1e1c1a;fill-rule:nonzero;"/><path d="M340.949,118.896l-0.338,5.346l-3.12,-0.198l0.888,-14.006l3.118,0.2l-0.338,5.346l14.342,0.91l-0.21,3.31l-14.342,-0.908Z" style="fill:#1e1c1a;fill-rule:nonzero;"/><path d="M347.634,98.353c0.082,-1.274 -0.968,-2.49 -2.466,-2.584c-1.62,-0.104 -2.816,0.968 -2.896,2.244l-0.298,4.71l5.362,0.338l0.298,-4.708Zm-8.99,7.482l0.518,-8.148c0.202,-3.182 2.724,-5.45 6.216,-5.228c3.368,0.212 5.336,2.768 5.284,5.574l6.348,-5.35l-0.266,4.204l-6.35,5.348l-0.064,1.018l5.986,0.38l-0.21,3.308l-17.462,-1.106Z" style="fill:#1e1c1a;fill-rule:nonzero;"/><path d="M352.557,78.904l-7.368,0.77l-0.116,0.498l6.268,3.944l1.216,-5.212Zm-11.628,2.528l1.098,-4.722l18.494,-2.236l-0.84,3.602l-3.96,0.464l-1.704,7.3l3.346,2.168l-0.84,3.6l-15.594,-10.176Z" style="fill:#1e1c1a;fill-rule:nonzero;"/><path d="M363.303,69.442l-1.368,3.02l-15.938,-7.22l1.368,-3.019l15.938,7.219Z" style="fill:#1e1c1a;"/><path d="M362.027,53.717l4.624,-6.41l0.914,0.66c3.95,2.856 4.772,7.698 1.938,11.626c-2.834,3.926 -8.112,4.832 -12.366,1.754c-4.256,-3.076 -5.058,-8.372 -2.224,-12.302c2.836,-3.928 7.164,-3.946 9.766,-2.85l-2.014,2.794c-1.764,-0.334 -3.802,-0.076 -5.218,1.886c-1.79,2.482 -1.308,5.662 1.628,7.786c2.938,2.122 6.104,1.58 7.896,-0.9c1.94,-2.686 0.706,-5.466 -0.204,-6.124l-0.104,-0.074l-2.608,3.618l-2.028,-1.464Z" style="fill:#1e1c1a;fill-rule:nonzero;"/><path d="M365.073,37.35l2.592,-2.07l4.37,5.466l6.28,-5.016l-4.37,-5.464l2.592,-2.07l10.928,13.664l-2.594,2.07l-4.524,-5.662l-6.282,5.016l4.528,5.66l-2.594,2.07l-10.926,-13.664Z" style="fill:#1e1c1a;fill-rule:nonzero;"/><path d="M387.523,25.801l-4.85,2.268l-1.322,-2.83l12.704,-5.94l1.322,2.832l-4.852,2.268l6.084,13.026l-3.002,1.406l-6.084,-13.03Z" style="fill:#1e1c1a;fill-rule:nonzero;"/><path d="M405.631,15.324l3.692,-0.214l3.766,12.05l0.51,-0.03l2.476,-12.41l3.822,-0.222l3.892,12.042l0.508,-0.028l2.348,-12.402l3.696,-0.216l-3.448,17.724l-4.584,0.266l-3.75,-11.8l-0.512,0.03l-2.362,12.154l-4.586,0.264l-5.468,-17.208Z" style="fill:#1e1c1a;fill-rule:nonzero;"/><path d="M442.887,28.002l-0.662,-7.378l-0.496,-0.122l-4.038,6.208l5.196,1.292Zm-2.354,-11.664l4.7,1.17l1.962,18.524l-3.586,-0.894l-0.406,-3.966l-7.276,-1.808l-2.218,3.312l-3.588,-0.892l10.412,-15.446Z" style="fill:#1e1c1a;fill-rule:nonzero;"/><path d="M453.51,32.867l-0.622,-13.188l3.3,1.662l0.378,8.586l0.454,0.232l7.134,-4.802l3.3,1.664l-10.986,7.338l-2.702,5.356l-2.958,-1.492l2.702,-5.356Z" style="fill:#1e1c1a;fill-rule:nonzero;"/><path d="M464.565,39.914c-0.942,1.164 -0.542,3.098 1.34,4.626c1.982,1.604 3.404,1.47 4.19,0.498c0.628,-0.776 0.682,-1.86 -0.864,-3.596l-2.062,-2.316c-2.062,-2.314 -2.05,-4.558 -0.478,-6.502c1.808,-2.234 5.184,-2.554 8.452,0.096c3.564,2.89 3.774,6.278 1.732,8.804l-2.576,-2.088c0.944,-1.164 0.74,-2.94 -1.044,-4.386c-1.78,-1.442 -3.202,-1.308 -3.99,-0.338c-0.628,0.778 -0.642,1.604 0.626,3.08l1.862,2.156c2.382,2.732 2.724,4.942 0.916,7.176c-1.888,2.332 -5.086,2.636 -8.65,-0.254c-3.566,-2.89 -4.074,-6.52 -2.028,-9.046l2.574,2.09Z" style="fill:#1e1c1a;fill-rule:nonzero;"/><path d="M477.239,60.809l-1.95,-2.702l14.188,-10.24l1.95,2.702l-14.188,10.24Z" style="fill:#1e1c1a;"/><path d="M496.057,57.422l1.818,4.074l-8.416,10.886l0.208,0.468l11.064,-4.95l1.354,3.028l-15.974,7.142l-1.818,-4.074l8.418,-10.888l-0.208,-0.466l-11.066,4.95l-1.35,-3.028l15.97,-7.142Z" style="fill:#1e1c1a;fill-rule:nonzero;"/><path d="M494.352,89.969l10.886,-7.494l0.324,3.682l-7.102,4.854l0.046,0.508l7.842,3.528l0.326,3.684l-12.03,-5.46l-5.98,0.532l-0.292,-3.302l5.98,-0.532Z" style="fill:#1e1c1a;fill-rule:nonzero;"/><path d="M496.619,114.648c3.616,0.228 6.006,-1.92 6.202,-4.974c0.192,-3.056 -1.908,-5.49 -5.524,-5.72c-3.618,-0.23 -6.006,1.92 -6.2,4.976c-0.194,3.056 1.904,5.488 5.522,5.718m-0.208,3.308c-5.24,-0.332 -8.74,-4.386 -8.432,-9.224c0.306,-4.838 4.29,-8.42 9.528,-8.088c5.238,0.332 8.738,4.388 8.432,9.226c-0.308,4.838 -4.292,8.418 -9.528,8.086" style="fill:#1e1c1a;fill-rule:nonzero;"/><path d="M504.922,121.951l-0.21,3.31l-10.352,-0.656c-2.494,-0.158 -4.352,1.514 -4.498,3.804c-0.146,2.294 1.486,4.184 3.982,4.342l10.352,0.658l-0.21,3.312l-10.352,-0.656c-4.49,-0.286 -7.172,-3.398 -6.89,-7.852c0.282,-4.456 3.338,-7.204 7.826,-6.918l10.352,0.656Z" style="fill:#1e1c1a;fill-rule:nonzero;"/><path d="M494.725,148.463c-0.08,1.274 0.97,2.49 2.466,2.586c1.62,0.102 2.816,-0.972 2.896,-2.246l0.3,-4.71l-5.364,-0.338l-0.298,4.708Zm8.99,-7.48l-0.516,8.146c-0.202,3.184 -2.726,5.452 -6.218,5.228c-3.368,-0.212 -5.336,-2.764 -5.282,-5.574l-6.348,5.35l0.266,-4.204l6.348,-5.346l0.064,-1.018l-5.984,-0.382l0.21,-3.308l17.46,1.108Z" style="fill:#1e1c1a;fill-rule:nonzero;"/><path d="M502.167,165.4l-0.21,3.308l-14.342,-0.908l-0.532,8.4l-3.12,-0.196l0.744,-11.712l17.46,1.108Z" style="fill:#1e1c1a;fill-rule:nonzero;"/><path d="M483.562,182.352l0.21,-3.311l17.46,1.107l-0.21,3.312l-17.46,-1.108Z" style="fill:#1e1c1a;"/><path d="M500.743,187.852l-0.75,11.84l-2.994,-0.19l0.54,-8.528l-4.24,-0.27l-0.5,7.892l-2.994,-0.19l0.502,-7.892l-7.234,-0.458l0.21,-3.31l17.46,1.106Z" style="fill:#1e1c1a;fill-rule:nonzero;"/><path d="M499.798,202.766l-0.758,11.966l-2.994,-0.188l0.548,-8.656l-4.24,-0.27l-0.516,8.148l-2.994,-0.192l0.516,-8.146l-4.238,-0.27l-0.55,8.656l-2.994,-0.188l0.76,-11.968l17.46,1.108Z" style="fill:#1e1c1a;fill-rule:nonzero;"/><path d="M429.128,399.127c-0.084,-0.006 -0.17,-0.016 -0.254,-0.032l-44.83,-8.412c-0.93,-0.176 -1.624,-0.954 -1.692,-1.898c-0.066,-0.944 0.508,-1.812 1.404,-2.118l61.316,-20.906l-87.884,-23.112c-0.968,-0.254 -1.618,-1.158 -1.548,-2.156c0.07,-0.998 0.836,-1.808 1.83,-1.924l100.73,-12.03l-104.394,-28.852c-0.948,-0.262 -1.586,-1.152 -1.524,-2.132c0.06,-0.982 0.798,-1.788 1.77,-1.934l122.714,-18.336l-117.83,-17.796c-1.028,-0.156 -1.782,-1.044 -1.772,-2.08c0.01,-1.04 0.784,-1.91 1.814,-2.044l118.684,-15.446l-117.182,-18.468c-0.994,-0.156 -1.732,-1.002 -1.756,-2.006c-0.024,-1.004 0.672,-1.884 1.656,-2.09l103.122,-21.464l-102.778,-22.574c-0.992,-0.22 -1.68,-1.118 -1.634,-2.134c0.048,-1.012 0.82,-1.844 1.826,-1.968l103.616,-12.726l-101.16,-26.132c-0.97,-0.252 -1.624,-1.16 -1.556,-2.162c0.068,-1 0.844,-1.808 1.84,-1.922l104.328,-11.924l-94.79,-23.218c-0.998,-0.244 -1.666,-1.18 -1.578,-2.206c0.09,-1.022 0.914,-1.828 1.938,-1.894l84.798,-5.53l-71.154,-19.924c-0.986,-0.276 -1.624,-1.228 -1.508,-2.242c0.118,-1.016 0.954,-1.798 1.974,-1.844l66.574,-3.02c1.192,-0.052 2.122,0.836 2.176,1.984c0.052,1.15 -0.836,2.124 -1.986,2.176l-53.618,2.434l70.412,19.712c0.976,0.274 1.614,1.214 1.508,2.222c-0.104,1.008 -0.922,1.796 -1.934,1.862l-83.468,5.446l92.952,22.768c0.978,0.238 1.646,1.146 1.582,2.152c-0.064,1.006 -0.84,1.822 -1.842,1.938l-104.732,11.97l100.912,26.066c0.968,0.25 1.622,1.152 1.556,2.15c-0.066,0.998 -0.832,1.81 -1.824,1.932l-102.412,12.58l100.382,22.048c0.96,0.21 1.642,1.062 1.636,2.044c-0.006,0.982 -0.696,1.826 -1.658,2.03l-101.5,21.126l120.228,18.948c1.024,0.162 1.772,1.048 1.76,2.084c-0.016,1.034 -0.788,1.904 -1.816,2.036l-118.35,15.404l116.888,17.656c1.02,0.156 1.774,1.03 1.772,2.06c0,1.032 -0.754,1.904 -1.774,2.058l-126.712,18.932l105.132,29.058c0.96,0.264 1.598,1.172 1.522,2.162c-0.074,0.992 -0.842,1.794 -1.828,1.91l-100.372,11.986l83.976,22.088c0.89,0.234 1.52,1.02 1.554,1.938c0.03,0.918 -0.54,1.748 -1.41,2.044l-60.354,20.576l37.046,6.95c1.128,0.214 1.874,1.304 1.662,2.432c-0.196,1.046 -1.142,1.76 -2.176,1.694" style="fill:#1e1c1a;fill-rule:nonzero;"/><path d="M458.035,382.025c1.238,-0.958 1.5,-3.006 0.344,-4.502c-0.946,-1.224 -2.274,-1.396 -3.212,-0.67l-1.292,0.998l2.774,5.244l1.386,-1.07Zm-6.928,-4.748l3.004,-2.322c1.7,-1.316 4.354,-0.974 5.93,1.064c1.894,2.45 1.43,6.064 -0.91,7.874l-3.236,2.502l-4.788,-9.118Z" style="fill:#1e1c1a;fill-rule:nonzero;"/><path d="M458.318,371.293l5.026,-4.936l1.176,1.736l-3.434,3.372l1.138,1.65l3.188,-3.128l1.188,1.722l-3.19,3.13l1.14,1.65l3.434,-3.37l1.186,1.724l-5.028,4.936l-5.824,-8.486Z" style="fill:#1e1c1a;fill-rule:nonzero;"/><path d="M468.308,370.812l1.394,-1.744l0.066,0.052c0.604,0.484 1.45,0.39 2.414,-0.818c0.698,-0.87 0.606,-1.716 0.204,-2.036c-0.336,-0.27 -0.928,-0.082 -1.664,0.426l-1.248,0.874c-1.248,0.872 -2.332,0.992 -3.206,0.294c-1.556,-1.242 -1.72,-3.486 -0.282,-5.282c1.61,-2.014 3.418,-2.216 4.762,-1.142c0.094,0.076 0.336,0.266 0.336,0.266l-1.396,1.746c-0.028,-0.02 -0.054,-0.042 -0.066,-0.054c-0.538,-0.43 -1.382,-0.336 -2.134,0.604c-0.642,0.806 -0.564,1.528 -0.094,1.906c0.268,0.214 0.578,0.24 1.314,-0.27l1.248,-0.87c1.476,-1.022 2.616,-1.21 3.556,-0.46c1.542,1.236 1.784,3.408 0.174,5.422c-1.768,2.21 -3.7,2.428 -5.11,1.3l-0.268,-0.214Z" style="fill:#1e1c1a;fill-rule:nonzero;"/><path d="M469.528,357.867l1.23,-1.862l7.466,7.076l-1.232,1.862l-7.464,-7.076Z" style="fill:#1e1c1a;fill-rule:nonzero;"/><path d="M477.672,353.17l2.142,-4.11l0.484,0.37c2.358,1.79 3.192,4.644 1.96,7.004c-1.15,2.204 -3.698,3.006 -6.054,1.776c-2.982,-1.556 -4.06,-5.02 -2.71,-7.606c1.072,-2.058 3.154,-2.712 5.268,-1.938l-1.04,1.994c-1.04,-0.232 -1.928,0.172 -2.406,1.086c-0.754,1.446 -0.134,3.414 1.766,4.406c1.37,0.716 2.758,0.278 3.354,-0.864c0.518,-0.99 0.46,-2.178 -0.348,-3.046l-1.038,1.992l-1.378,-1.064Z" style="fill:#1e1c1a;fill-rule:nonzero;"/><path d="M476.156,345.068l0.936,-2.658l6.63,0.056l0.122,-0.342l-5.548,-3.136l0.742,-2.108l8.972,5.054l-0.936,2.658l-6.636,-0.04l-0.12,0.342l5.552,3.12l-0.742,2.106l-8.972,-5.052Z" style="fill:#1e1c1a;fill-rule:nonzero;"/><path d="M480.129,331.668l0.242,-2.252l6.602,0.408l0.036,-0.342l-6.266,-3.568l0.254,-2.388l6.63,0.152l0.038,-0.34l-6.296,-3.312l0.25,-2.356l9.628,5.236l-0.298,2.818l-6.454,-0.186l-0.038,0.34l6.11,3.43l-0.3,2.818l-10.138,-0.458Z" style="fill:#1e1c1a;fill-rule:nonzero;"/><path d="M487.849,312.199l-3.726,0.366l-0.022,0.342l3.568,2.138l0.18,-2.846Zm-6.294,1.53l0.194,-3.088l10.226,-1.09l-0.142,2.264l-1.906,0.186l-0.268,4.22l1.826,1.08l-0.15,2.366l-9.78,-5.938Z" style="fill:#1e1c1a;fill-rule:nonzero;"/><path d="M482.086,305.35l0.14,-2.228l7.884,1.91l0.294,-4.63l2.12,0.512l-0.436,6.86l-10.002,-2.424Z" style="fill:#1e1c1a;fill-rule:nonzero;"/><path d="M490.532,299.203l-5.51,-6.254l-0.302,4.768l-2.116,-0.532l0.494,-7.8l2.068,0.508l5.508,6.256l0.312,-4.94l2.12,0.516l-0.504,7.97l-2.07,-0.492Z" style="fill:#1e1c1a;fill-rule:nonzero;"/></g></svg>