<?xml version="1.0" encoding="utf-8"?>
<!-- Generator: Adobe Illustrator 23.0.2, SVG Export Plug-In . SVG Version: 6.00 Build 0)  -->
<svg version="1.1" id="Ebene_3" xmlns="http://www.w3.org/2000/svg" xmlns:xlink="http://www.w3.org/1999/xlink" x="0px" y="0px"
	 viewBox="0 0 99.6 102.3" style="enable-background:new 0 0 99.6 102.3;" xml:space="preserve">
<style type="text/css">
	.st0{clip-path:url(#SVGID_2_);}
	.st1{fill:none;stroke:#1DBADF;stroke-width:0.25;}
	.st2{clip-path:url(#SVGID_4_);}
	.st3{clip-path:url(#SVGID_6_);}
	.st4{fill:none;stroke:#000000;stroke-width:0.25;}
</style>
<title>Zeichenfläche 3</title>
<g>
	<defs>
		<rect id="SVGID_1_" x="505.5" y="102.3" width="99.6" height="102.3"/>
	</defs>
	<clipPath id="SVGID_2_">
		<use xlink:href="#SVGID_1_"  style="overflow:visible;"/>
	</clipPath>
	<g class="st0">
		<line class="st1" x1="-304.9" y1="895" x2="507.4" y2="-22.5"/>
		<line class="st1" x1="-241.5" y1="895" x2="570.8" y2="-22.5"/>
		<line class="st1" x1="-250.6" y1="895" x2="561.7" y2="-22.5"/>
		<line class="st1" x1="-187.2" y1="895" x2="625.1" y2="-22.5"/>
		<line class="st1" x1="-42.3" y1="895" x2="770" y2="-22.5"/>
		<line class="st1" x1="-259.6" y1="895" x2="552.7" y2="-22.5"/>
		<line class="st1" x1="-196.3" y1="895" x2="616.1" y2="-22.5"/>
		<line class="st1" x1="-51.4" y1="895" x2="761" y2="-22.5"/>
		<line class="st1" x1="-141.9" y1="895" x2="670.4" y2="-22.5"/>
		<line class="st1" x1="12" y1="895" x2="824.3" y2="-22.5"/>
		<line class="st1" x1="-268.7" y1="895" x2="543.6" y2="-22.5"/>
		<line class="st1" x1="-205.3" y1="895" x2="607" y2="-22.5"/>
		<line class="st1" x1="-69.5" y1="895" x2="742.8" y2="-22.5"/>
		<line class="st1" x1="93.5" y1="895" x2="905.9" y2="-22.5"/>
		<line class="st1" x1="-151" y1="895" x2="661.3" y2="-22.5"/>
		<line class="st1" x1="3" y1="895" x2="815.3" y2="-22.5"/>
		<line class="st1" x1="-105.7" y1="895" x2="706.6" y2="-22.5"/>
		<line class="st1" x1="48.2" y1="895" x2="860.6" y2="-22.5"/>
		<line class="st1" x1="-277.8" y1="895" x2="534.6" y2="-22.5"/>
		<line class="st1" x1="-214.4" y1="895" x2="598" y2="-22.5"/>
		<line class="st1" x1="-87.6" y1="895" x2="724.7" y2="-22.5"/>
		<line class="st1" x1="84.5" y1="895" x2="896.8" y2="-22.5"/>
		<line class="st1" x1="-160" y1="895" x2="652.3" y2="-22.5"/>
		<line class="st1" x1="-6.1" y1="895" x2="806.2" y2="-22.5"/>
		<line class="st1" x1="-114.8" y1="895" x2="697.6" y2="-22.5"/>
		<line class="st1" x1="39.2" y1="895" x2="851.5" y2="-22.5"/>
		<line class="st1" x1="-60.4" y1="895" x2="751.9" y2="-22.5"/>
		<line class="st1" x1="75.4" y1="895" x2="887.7" y2="-22.5"/>
		<line class="st1" x1="-286.8" y1="895" x2="525.5" y2="-22.5"/>
		<line class="st1" x1="-223.4" y1="895" x2="588.9" y2="-22.5"/>
		<line class="st1" x1="-169.1" y1="895" x2="643.2" y2="-22.5"/>
		<line class="st1" x1="-24.2" y1="895" x2="788.1" y2="-22.5"/>
		<line class="st1" x1="-123.8" y1="895" x2="688.5" y2="-22.5"/>
		<line class="st1" x1="30.1" y1="895" x2="842.5" y2="-22.5"/>
		<line class="st1" x1="-78.5" y1="895" x2="733.8" y2="-22.5"/>
		<line class="st1" x1="66.3" y1="895" x2="878.7" y2="-22.5"/>
		<line class="st1" x1="-295.9" y1="895" x2="516.5" y2="-22.5"/>
		<line class="st1" x1="-232.5" y1="895" x2="579.8" y2="-22.5"/>
		<line class="st1" x1="-178.1" y1="895" x2="634.2" y2="-22.5"/>
		<line class="st1" x1="-33.3" y1="895" x2="779.1" y2="-22.5"/>
		<line class="st1" x1="-132.9" y1="895" x2="679.5" y2="-22.5"/>
		<line class="st1" x1="21.1" y1="895" x2="833.4" y2="-22.5"/>
		<line class="st1" x1="-96.7" y1="895" x2="715.7" y2="-22.5"/>
		<line class="st1" x1="57.3" y1="895" x2="869.6" y2="-22.5"/>
		<line class="st1" x1="-15.1" y1="895" x2="797.2" y2="-22.5"/>
	</g>
</g>
<g>
	<defs>
		<rect id="SVGID_3_" x="505.5" y="204.6" width="99.6" height="102.3"/>
	</defs>
	<clipPath id="SVGID_4_">
		<use xlink:href="#SVGID_3_"  style="overflow:visible;"/>
	</clipPath>
	<g class="st2">
		<line class="st1" x1="-304.9" y1="997.3" x2="507.4" y2="79.8"/>
		<line class="st1" x1="-241.5" y1="997.3" x2="570.8" y2="79.8"/>
		<line class="st1" x1="-250.6" y1="997.3" x2="561.7" y2="79.8"/>
		<line class="st1" x1="-187.2" y1="997.3" x2="625.1" y2="79.8"/>
		<line class="st1" x1="-42.3" y1="997.3" x2="770" y2="79.8"/>
		<line class="st1" x1="-259.6" y1="997.3" x2="552.7" y2="79.8"/>
		<line class="st1" x1="-196.3" y1="997.3" x2="616.1" y2="79.8"/>
		<line class="st1" x1="-51.4" y1="997.3" x2="761" y2="79.8"/>
		<line class="st1" x1="-141.9" y1="997.3" x2="670.4" y2="79.8"/>
		<line class="st1" x1="12" y1="997.3" x2="824.3" y2="79.8"/>
		<line class="st1" x1="-268.7" y1="997.3" x2="543.6" y2="79.8"/>
		<line class="st1" x1="-205.3" y1="997.3" x2="607" y2="79.8"/>
		<line class="st1" x1="-69.5" y1="997.3" x2="742.8" y2="79.8"/>
		<line class="st1" x1="93.5" y1="997.3" x2="905.9" y2="79.8"/>
		<line class="st1" x1="-151" y1="997.3" x2="661.3" y2="79.8"/>
		<line class="st1" x1="3" y1="997.3" x2="815.3" y2="79.8"/>
		<line class="st1" x1="-105.7" y1="997.3" x2="706.6" y2="79.8"/>
		<line class="st1" x1="48.2" y1="997.3" x2="860.6" y2="79.8"/>
		<line class="st1" x1="-277.8" y1="997.3" x2="534.6" y2="79.8"/>
		<line class="st1" x1="-214.4" y1="997.3" x2="598" y2="79.8"/>
		<line class="st1" x1="-87.6" y1="997.3" x2="724.7" y2="79.8"/>
		<line class="st1" x1="84.5" y1="997.3" x2="896.8" y2="79.8"/>
		<line class="st1" x1="-160" y1="997.3" x2="652.3" y2="79.8"/>
		<line class="st1" x1="-6.1" y1="997.3" x2="806.2" y2="79.8"/>
		<line class="st1" x1="-114.8" y1="997.3" x2="697.6" y2="79.8"/>
		<line class="st1" x1="39.2" y1="997.3" x2="851.5" y2="79.8"/>
		<line class="st1" x1="-60.4" y1="997.3" x2="751.9" y2="79.8"/>
		<line class="st1" x1="75.4" y1="997.3" x2="887.7" y2="79.8"/>
		<line class="st1" x1="-286.8" y1="997.3" x2="525.5" y2="79.8"/>
		<line class="st1" x1="-223.4" y1="997.3" x2="588.9" y2="79.8"/>
		<line class="st1" x1="-169.1" y1="997.3" x2="643.2" y2="79.8"/>
		<line class="st1" x1="-24.2" y1="997.3" x2="788.1" y2="79.8"/>
		<line class="st1" x1="-123.8" y1="997.3" x2="688.5" y2="79.8"/>
		<line class="st1" x1="30.1" y1="997.3" x2="842.5" y2="79.8"/>
		<line class="st1" x1="-78.5" y1="997.3" x2="733.8" y2="79.8"/>
		<line class="st1" x1="66.3" y1="997.3" x2="878.7" y2="79.8"/>
		<line class="st1" x1="-295.9" y1="997.3" x2="516.5" y2="79.8"/>
		<line class="st1" x1="-232.5" y1="997.3" x2="579.8" y2="79.8"/>
		<line class="st1" x1="-178.1" y1="997.3" x2="634.2" y2="79.8"/>
		<line class="st1" x1="-33.3" y1="997.3" x2="779.1" y2="79.8"/>
		<line class="st1" x1="-132.9" y1="997.3" x2="679.5" y2="79.8"/>
		<line class="st1" x1="21.1" y1="997.3" x2="833.4" y2="79.8"/>
		<line class="st1" x1="-96.7" y1="997.3" x2="715.7" y2="79.8"/>
		<line class="st1" x1="57.3" y1="997.3" x2="869.6" y2="79.8"/>
		<line class="st1" x1="-15.1" y1="997.3" x2="797.2" y2="79.8"/>
	</g>
</g>
<g>
	<defs>
		<rect id="SVGID_5_" y="0" width="99.6" height="102.3"/>
	</defs>
	<clipPath id="SVGID_6_">
		<use xlink:href="#SVGID_5_"  style="overflow:visible;"/>
	</clipPath>
	<g class="st3">
		<line class="st4" x1="77.8" y1="792.7" x2="890.2" y2="-124.8"/>
		<line class="st4" x1="86.9" y1="792.7" x2="899.2" y2="-124.8"/>
		<line class="st4" x1="96" y1="792.7" x2="908.3" y2="-124.8"/>
		<line class="st4" x1="-810.5" y1="792.7" x2="1.9" y2="-124.8"/>
		<line class="st4" x1="-747.1" y1="792.7" x2="65.3" y2="-124.8"/>
		<line class="st4" x1="-756.1" y1="792.7" x2="56.2" y2="-124.8"/>
		<line class="st4" x1="-692.7" y1="792.7" x2="119.6" y2="-124.8"/>
		<line class="st4" x1="-547.8" y1="792.7" x2="264.5" y2="-124.8"/>
		<line class="st4" x1="-384.8" y1="792.7" x2="427.5" y2="-124.8"/>
		<line class="st4" x1="-230.9" y1="792.7" x2="581.4" y2="-124.8"/>
		<line class="st4" x1="-58.8" y1="792.7" x2="753.5" y2="-124.8"/>
		<line class="st4" x1="-765.2" y1="792.7" x2="47.2" y2="-124.8"/>
		<line class="st4" x1="-701.8" y1="792.7" x2="110.5" y2="-124.8"/>
		<line class="st4" x1="-556.9" y1="792.7" x2="255.4" y2="-124.8"/>
		<line class="st4" x1="-393.9" y1="792.7" x2="418.4" y2="-124.8"/>
		<line class="st4" x1="-239.9" y1="792.7" x2="572.4" y2="-124.8"/>
		<line class="st4" x1="-67.9" y1="792.7" x2="744.5" y2="-124.8"/>
		<line class="st4" x1="-647.5" y1="792.7" x2="164.9" y2="-124.8"/>
		<line class="st4" x1="-493.5" y1="792.7" x2="318.8" y2="-124.8"/>
		<line class="st4" x1="-339.6" y1="792.7" x2="472.8" y2="-124.8"/>
		<line class="st4" x1="-185.6" y1="792.7" x2="626.7" y2="-124.8"/>
		<line class="st4" x1="-13.6" y1="792.7" x2="798.8" y2="-124.8"/>
		<line class="st4" x1="-774.2" y1="792.7" x2="38.1" y2="-124.8"/>
		<line class="st4" x1="-710.8" y1="792.7" x2="101.5" y2="-124.8"/>
		<line class="st4" x1="-575" y1="792.7" x2="237.3" y2="-124.8"/>
		<line class="st4" x1="-412" y1="792.7" x2="400.3" y2="-124.8"/>
		<line class="st4" x1="-249" y1="792.7" x2="563.3" y2="-124.8"/>
		<line class="st4" x1="-86" y1="792.7" x2="726.3" y2="-124.8"/>
		<line class="st4" x1="-656.5" y1="792.7" x2="155.8" y2="-124.8"/>
		<line class="st4" x1="-502.6" y1="792.7" x2="309.8" y2="-124.8"/>
		<line class="st4" x1="-348.6" y1="792.7" x2="463.7" y2="-124.8"/>
		<line class="st4" x1="-194.7" y1="792.7" x2="617.7" y2="-124.8"/>
		<line class="st4" x1="-22.6" y1="792.7" x2="789.7" y2="-124.8"/>
		<line class="st4" x1="-611.2" y1="792.7" x2="201.1" y2="-124.8"/>
		<line class="st4" x1="-457.3" y1="792.7" x2="355" y2="-124.8"/>
		<line class="st4" x1="-303.3" y1="792.7" x2="509" y2="-124.8"/>
		<line class="st4" x1="-149.4" y1="792.7" x2="662.9" y2="-124.8"/>
		<line class="st4" x1="22.7" y1="792.7" x2="835" y2="-124.8"/>
		<line class="st4" x1="-783.3" y1="792.7" x2="29" y2="-124.8"/>
		<line class="st4" x1="-719.9" y1="792.7" x2="92.4" y2="-124.8"/>
		<line class="st4" x1="-593.1" y1="792.7" x2="219.2" y2="-124.8"/>
		<line class="st4" x1="-421.1" y1="792.7" x2="391.3" y2="-124.8"/>
		<line class="st4" x1="-258.1" y1="792.7" x2="554.3" y2="-124.8"/>
		<line class="st4" x1="-95.1" y1="792.7" x2="717.3" y2="-124.8"/>
		<line class="st4" x1="-665.6" y1="792.7" x2="146.8" y2="-124.8"/>
		<line class="st4" x1="-511.6" y1="792.7" x2="300.7" y2="-124.8"/>
		<line class="st4" x1="-357.7" y1="792.7" x2="454.7" y2="-124.8"/>
		<line class="st4" x1="-203.7" y1="792.7" x2="608.6" y2="-124.8"/>
		<line class="st4" x1="-31.7" y1="792.7" x2="780.7" y2="-124.8"/>
		<line class="st4" x1="-620.3" y1="792.7" x2="192" y2="-124.8"/>
		<line class="st4" x1="-466.3" y1="792.7" x2="346" y2="-124.8"/>
		<line class="st4" x1="-312.4" y1="792.7" x2="499.9" y2="-124.8"/>
		<line class="st4" x1="-158.4" y1="792.7" x2="653.9" y2="-124.8"/>
		<line class="st4" x1="13.6" y1="792.7" x2="826" y2="-124.8"/>
		<line class="st4" x1="-566" y1="792.7" x2="246.4" y2="-124.8"/>
		<line class="st4" x1="-430.1" y1="792.7" x2="382.2" y2="-124.8"/>
		<line class="st4" x1="-276.2" y1="792.7" x2="536.2" y2="-124.8"/>
		<line class="st4" x1="-131.3" y1="792.7" x2="681.1" y2="-124.8"/>
		<line class="st4" x1="-113.2" y1="792.7" x2="699.2" y2="-124.8"/>
		<line class="st4" x1="49.8" y1="792.7" x2="862.2" y2="-124.8"/>
		<line class="st4" x1="-792.3" y1="792.7" x2="20" y2="-124.8"/>
		<line class="st4" x1="-729" y1="792.7" x2="83.4" y2="-124.8"/>
		<line class="st4" x1="-674.6" y1="792.7" x2="137.7" y2="-124.8"/>
		<line class="st4" x1="-529.7" y1="792.7" x2="282.6" y2="-124.8"/>
		<line class="st4" x1="-366.7" y1="792.7" x2="445.6" y2="-124.8"/>
		<line class="st4" x1="-212.8" y1="792.7" x2="599.5" y2="-124.8"/>
		<line class="st4" x1="-40.7" y1="792.7" x2="771.6" y2="-124.8"/>
		<line class="st4" x1="-629.3" y1="792.7" x2="183" y2="-124.8"/>
		<line class="st4" x1="-475.4" y1="792.7" x2="336.9" y2="-124.8"/>
		<line class="st4" x1="-321.5" y1="792.7" x2="490.9" y2="-124.8"/>
		<line class="st4" x1="-167.5" y1="792.7" x2="644.8" y2="-124.8"/>
		<line class="st4" x1="4.6" y1="792.7" x2="816.9" y2="-124.8"/>
		<line class="st4" x1="-584.1" y1="792.7" x2="228.3" y2="-124.8"/>
		<line class="st4" x1="-439.2" y1="792.7" x2="373.2" y2="-124.8"/>
		<line class="st4" x1="-285.2" y1="792.7" x2="527.1" y2="-124.8"/>
		<line class="st4" x1="-122.2" y1="792.7" x2="690.1" y2="-124.8"/>
		<line class="st4" x1="40.8" y1="792.7" x2="853.1" y2="-124.8"/>
		<line class="st4" x1="-801.4" y1="792.7" x2="10.9" y2="-124.8"/>
		<line class="st4" x1="-738" y1="792.7" x2="74.3" y2="-124.8"/>
		<line class="st4" x1="-683.7" y1="792.7" x2="128.6" y2="-124.8"/>
		<line class="st4" x1="-538.8" y1="792.7" x2="273.5" y2="-124.8"/>
		<line class="st4" x1="-375.8" y1="792.7" x2="436.5" y2="-124.8"/>
		<line class="st4" x1="-221.8" y1="792.7" x2="590.5" y2="-124.8"/>
		<line class="st4" x1="-49.8" y1="792.7" x2="762.6" y2="-124.8"/>
		<line class="st4" x1="-638.4" y1="792.7" x2="173.9" y2="-124.8"/>
		<line class="st4" x1="-484.5" y1="792.7" x2="327.9" y2="-124.8"/>
		<line class="st4" x1="-330.5" y1="792.7" x2="481.8" y2="-124.8"/>
		<line class="st4" x1="-176.6" y1="792.7" x2="635.8" y2="-124.8"/>
		<line class="st4" x1="-4.5" y1="792.7" x2="807.8" y2="-124.8"/>
		<line class="st4" x1="-602.2" y1="792.7" x2="210.1" y2="-124.8"/>
		<line class="st4" x1="-448.2" y1="792.7" x2="364.1" y2="-124.8"/>
		<line class="st4" x1="-294.3" y1="792.7" x2="518" y2="-124.8"/>
		<line class="st4" x1="-140.3" y1="792.7" x2="672" y2="-124.8"/>
		<line class="st4" x1="31.7" y1="792.7" x2="844.1" y2="-124.8"/>
		<line class="st4" x1="-520.7" y1="792.7" x2="291.7" y2="-124.8"/>
		<line class="st4" x1="-403" y1="792.7" x2="409.4" y2="-124.8"/>
		<line class="st4" x1="-267.1" y1="792.7" x2="545.2" y2="-124.8"/>
		<line class="st4" x1="-104.1" y1="792.7" x2="708.2" y2="-124.8"/>
		<line class="st4" x1="-76.9" y1="792.7" x2="735.4" y2="-124.8"/>
		<line class="st4" x1="58.9" y1="792.7" x2="871.2" y2="-124.8"/>
		<line class="st4" x1="67.9" y1="792.7" x2="880.3" y2="-124.8"/>
	</g>
</g>
</svg>
