<svg xmlns="http://www.w3.org/2000/svg" viewBox="0 0 268.54 31.45"><defs><style>.cls-1{fill:#1d1d1b;}</style></defs><title>Element 2</title><g id="Ebene_2" data-name="Ebene 2"><g id="Ebene_1-2" data-name="Ebene 1"><path class="cls-1" d="M0,11.17V7.07L1.64,5.62V5.54L0,4.09V0L3.75,3.06v5Z"/><path class="cls-1" d="M12.83,4.09,11.2,5.54v.08l1.63,1.45v4.1L9.08,8.11v-5L12.83,0Z"/><path class="cls-1" d="M9.49,16.79a2.84,2.84,0,0,0-3.14-2.4c-1.6,0-2.62.8-2.62,1.89s.9,1.4,2.09,1.69l2.47.58c2.31.58,4.68,1.19,4.68,4.6,0,3.1-2.8,4.52-6.14,4.52-3.67,0-6.28-1.73-6.71-5l3.11-.32c.23,2.13,1.8,2.89,3.64,2.89,1.69,0,2.9-.74,2.9-2s-1-1.63-2.49-2l-2.44-.62C2.78,20.11.61,19.38.61,16.44S3.14,12,6.44,12s5.5,1.62,6.12,4.54Z"/><path class="cls-1" d="M20.92,25v2.29c-.29,0-1.21,0-1.93,0-2.26,0-3.24-.49-3.24-2.68V18.21H14v-2h1.77V13.14h2.93v3.09H21v2H18.68V24c0,1,.39,1.09,1.3,1.09Z"/><path class="cls-1" d="M33.07,24c-.44,1.57-1.91,3.55-5.43,3.55s-5.56-2.26-5.56-5.79S24.17,16,27.63,16s5.81,2.28,5.53,6.44H25.07c.05,1.84,1,3.1,2.57,3.1a2.33,2.33,0,0,0,2.44-1.72Zm-8-3.52h5.06a2.53,2.53,0,0,0-5.06,0Z"/><path class="cls-1" d="M37.73,17.93h.09a3.57,3.57,0,0,1,3.33-2,3.49,3.49,0,0,1,.78.09v2.75a8.39,8.39,0,0,0-1.15-.09c-1.67,0-2.92.74-2.92,3v5.6H34.93V16.23h2.8Z"/><path class="cls-1" d="M46.31,12.15V27.33H43.37V12.15Z"/><path class="cls-1" d="M51.51,12.15v2.52H48.57V12.15Zm0,4.08v11.1H48.57V16.23Z"/><path class="cls-1" d="M56.62,17.71A4.07,4.07,0,0,1,60.13,16,3.67,3.67,0,0,1,64,20v7.31H61.1V20.78c0-1.79-.74-2.44-2.08-2.44s-2.35,1-2.35,2.95v6H53.73V16.23h2.81v1.48Z"/><path class="cls-1" d="M76.75,26.5c0,3.67-2.44,4.95-5.52,4.95-2.61,0-4.74-1-5.43-3.64l2.89-.35a2.32,2.32,0,0,0,2.54,1.8c1.57,0,2.58-.8,2.58-2.85V25.34h-.08a3.74,3.74,0,0,1-3.26,1.41c-2.73,0-4.76-2.09-4.76-5.4s2-5.38,4.81-5.38a3.65,3.65,0,0,1,3.34,1.59h.08V16.23h2.81ZM74,21.35c0-1.91-1-3.14-2.63-3.14s-2.65,1.23-2.65,3.14,1,3.19,2.65,3.19S74,23.29,74,21.35Z"/><path class="cls-1" d="M94.4,16.79a2.85,2.85,0,0,0-3.14-2.4c-1.61,0-2.62.8-2.62,1.89s.9,1.4,2.09,1.69l2.46.58c2.32.59,4.69,1.19,4.69,4.6,0,3.1-2.8,4.52-6.15,4.52-3.66,0-6.27-1.73-6.7-5l3.11-.31c.23,2.12,1.8,2.88,3.64,2.88,1.68,0,2.9-.74,2.9-2s-1-1.62-2.49-2l-2.45-.62c-2-.53-4.23-1.26-4.23-4.2S88.05,12,91.35,12s5.5,1.62,6.11,4.54Z"/><path class="cls-1" d="M102.66,12.15v2.52H99.73V12.15Zm0,4.08v11.1H99.73V16.23Z"/><path class="cls-1" d="M118.11,16c2,0,3.72,1.24,3.72,4v7.31H118.9V20.78c0-1.79-.71-2.44-1.92-2.44s-2.15,1-2.15,2.95v6h-2.94V20.78c0-1.79-.7-2.44-1.91-2.44s-2.16,1-2.16,2.95v6h-2.93V16.23h2.8v1.49h.09A3.89,3.89,0,0,1,111.11,16a3.46,3.46,0,0,1,3.24,1.84A4.62,4.62,0,0,1,118.12,16Z"/><path class="cls-1" d="M127,26h-.08v5.15H124v-15h2.81v1.45h.08A3.68,3.68,0,0,1,130.26,16c2.82,0,4.88,2.25,4.88,5.81s-2.06,5.81-4.83,5.81A3.73,3.73,0,0,1,127,26Zm-.24-4.26c0,2.34,1.06,3.57,2.7,3.57s2.71-1.23,2.71-3.57-1.06-3.56-2.71-3.56S126.74,19.45,126.74,21.78Z"/><path class="cls-1" d="M143.41,19.59a2.08,2.08,0,0,0-2.18-1.67c-1.07,0-1.82.47-1.82,1.32s.81,1,2,1.22l1.13.17c2,.34,3.92.93,3.92,3.41s-2.2,3.55-5.09,3.55-4.9-1.33-5.28-3.49l2.73-.39a2.35,2.35,0,0,0,2.58,1.94c1.24,0,2.07-.56,2.07-1.48s-.83-1.11-2.08-1.31l-1.22-.2c-1.78-.29-3.65-.92-3.65-3.3,0-2.11,2.15-3.39,4.75-3.39s4.55,1.32,4.89,3.24Z"/><path class="cls-1" d="M158.92,21.79c0,3.55-2.16,5.8-5.66,5.8s-5.68-2.25-5.68-5.8S149.73,16,153.26,16,158.92,18.23,158.92,21.79Zm-3,0c0-2.38-1-3.61-2.67-3.61s-2.69,1.23-2.69,3.61,1,3.6,2.69,3.6S155.93,24.17,155.93,21.79Z"/><path class="cls-1" d="M163.56,17.71A4.07,4.07,0,0,1,167.07,16a3.67,3.67,0,0,1,3.9,4v7.31H168V20.78c0-1.79-.74-2.44-2.08-2.44s-2.35,1-2.35,2.95v6h-2.94V16.23h2.81v1.48Z"/><path class="cls-1" d="M173.33,20.11h6.48v2.52h-6.48Z"/><path class="cls-1" d="M193.79,22.25c0,3.79-2.47,5.32-5.78,5.32a5.36,5.36,0,0,1-5.8-5.22,4.82,4.82,0,0,1,0-.75l3-.28a4.38,4.38,0,0,0,0,.72c.23,2.1,1.19,3,2.78,3s2.59-.86,2.59-3V12.26h3.19Z"/><path class="cls-1" d="M207,21.69c0,3.56-2.16,5.8-5.66,5.8s-5.68-2.24-5.68-5.8,2.16-5.81,5.68-5.81S207,18.13,207,21.69Zm-3,0c0-2.38-1-3.61-2.67-3.61s-2.69,1.23-2.69,3.61,1,3.6,2.69,3.6S204,24.08,204,21.69Z"/><path class="cls-1" d="M212.18,17.61a4.08,4.08,0,0,1,3.45-1.73c2.06,0,3.84,1.23,3.84,4v7.3h-2.94V20.68c0-1.79-.74-2.43-2.07-2.43s-2.36,1.1-2.36,3.08v5.9h-2.93V12.06h2.93v5.55Z"/><path class="cls-1" d="M224.91,17.61a4.07,4.07,0,0,1,3.5-1.73,3.67,3.67,0,0,1,3.91,4v7.3h-2.93V20.68c0-1.79-.75-2.43-2.08-2.43s-2.36,1-2.36,2.94v6H222V16.13h2.8v1.48Z"/><path class="cls-1" d="M241,19.49a2.09,2.09,0,0,0-2.19-1.66c-1.07,0-1.82.46-1.82,1.31s.81,1,2,1.22l1.13.18c2,.33,3.92.93,3.92,3.41s-2.2,3.54-5.09,3.54S234,26.17,233.61,24l2.74-.39a2.32,2.32,0,0,0,2.57,1.94c1.24,0,2.07-.56,2.07-1.48s-.83-1.1-2.08-1.31l-1.22-.2c-1.77-.28-3.65-.92-3.65-3.3,0-2.11,2.15-3.38,4.75-3.38s4.55,1.31,4.9,3.24Z"/><path class="cls-1" d="M256.49,21.69c0,3.56-2.16,5.8-5.66,5.8s-5.68-2.24-5.68-5.8,2.15-5.81,5.68-5.81S256.49,18.13,256.49,21.69Zm-3,0c0-2.38-1-3.61-2.67-3.61s-2.69,1.23-2.69,3.61,1,3.6,2.69,3.6S253.5,24.08,253.5,21.69Z"/><path class="cls-1" d="M261.13,17.61a4.09,4.09,0,0,1,3.51-1.73,3.67,3.67,0,0,1,3.9,4v7.3h-2.93V20.68c0-1.79-.74-2.43-2.07-2.43s-2.36,1-2.36,2.94v6h-2.93V16.13h2.8v1.48Z"/><rect class="cls-1" x="183.65" y="12.28" width="9.91" height="2.6"/></g></g></svg>
