<svg id="Ebene_3" data-name="Ebene 3" xmlns="http://www.w3.org/2000/svg" xmlns:xlink="http://www.w3.org/1999/xlink" viewBox="0 0 841.89 645.23"><defs><style>.cls-1,.cls-3{fill:none;}.cls-2{clip-path:url(#clip-path);}.cls-3{stroke:#1dbadf;stroke-width:0.25px;}</style><clipPath id="clip-path"><rect class="cls-1" y="-0.05" width="841.89" height="651.64"/></clipPath></defs><title>Zeichenfläche 1</title><g class="cls-2"><line class="cls-3" x1="81.02" y1="803.26" x2="893.35" y2="-114.2"/><line class="cls-3" x1="90.07" y1="803.26" x2="902.41" y2="-114.2"/><line class="cls-3" x1="108.18" y1="803.26" x2="920.52" y2="-114.2"/><line class="cls-3" x1="135.35" y1="803.26" x2="947.69" y2="-114.2"/><line class="cls-3" x1="171.58" y1="803.26" x2="983.91" y2="-114.2"/><line class="cls-3" x1="225.91" y1="803.26" x2="1038.24" y2="-114.2"/><line class="cls-3" x1="289.3" y1="803.26" x2="1101.63" y2="-114.2"/><line class="cls-3" x1="99.13" y1="803.26" x2="911.46" y2="-114.2"/><line class="cls-3" x1="126.3" y1="803.26" x2="938.63" y2="-114.2"/><line class="cls-3" x1="162.52" y1="803.26" x2="974.85" y2="-114.2"/><line class="cls-3" x1="216.85" y1="803.26" x2="1029.19" y2="-114.2"/><line class="cls-3" x1="280.25" y1="803.26" x2="1092.58" y2="-114.2"/><line class="cls-3" x1="343.64" y1="803.26" x2="1155.97" y2="-114.2"/><line class="cls-3" x1="488.53" y1="803.26" x2="1300.86" y2="-114.2"/><line class="cls-3" x1="651.53" y1="803.26" x2="1463.87" y2="-114.2"/><line class="cls-3" x1="805.48" y1="803.26" x2="1617.82" y2="-114.2"/><line class="cls-3" x1="117.24" y1="803.26" x2="929.57" y2="-114.2"/><line class="cls-3" x1="153.46" y1="803.26" x2="965.8" y2="-114.2"/><line class="cls-3" x1="207.8" y1="803.26" x2="1020.13" y2="-114.2"/><line class="cls-3" x1="271.19" y1="803.26" x2="1083.52" y2="-114.2"/><line class="cls-3" x1="334.58" y1="803.26" x2="1146.91" y2="-114.2"/><line class="cls-3" x1="479.47" y1="803.26" x2="1291.81" y2="-114.2"/><line class="cls-3" x1="642.48" y1="803.26" x2="1454.81" y2="-114.2"/><line class="cls-3" x1="796.43" y1="803.26" x2="1608.76" y2="-114.2"/><line class="cls-3" x1="388.92" y1="803.26" x2="1201.25" y2="-114.2"/><line class="cls-3" x1="542.86" y1="803.26" x2="1355.2" y2="-114.2"/><line class="cls-3" x1="696.81" y1="803.26" x2="1509.15" y2="-114.2"/><line class="cls-3" x1="144.41" y1="803.26" x2="956.74" y2="-114.2"/><line class="cls-3" x1="198.74" y1="803.26" x2="1011.08" y2="-114.2"/><line class="cls-3" x1="262.13" y1="803.26" x2="1074.47" y2="-114.2"/><line class="cls-3" x1="325.52" y1="803.26" x2="1137.86" y2="-114.2"/><line class="cls-3" x1="461.36" y1="803.26" x2="1273.69" y2="-114.2"/><line class="cls-3" x1="624.37" y1="803.26" x2="1436.7" y2="-114.2"/><line class="cls-3" x1="787.37" y1="803.26" x2="1599.7" y2="-114.2"/><line class="cls-3" x1="379.86" y1="803.26" x2="1192.19" y2="-114.2"/><line class="cls-3" x1="533.81" y1="803.26" x2="1346.14" y2="-114.2"/><line class="cls-3" x1="687.76" y1="803.26" x2="1500.09" y2="-114.2"/><line class="cls-3" x1="841.71" y1="803.26" x2="1654.04" y2="-114.2"/><line class="cls-3" x1="425.14" y1="803.26" x2="1237.47" y2="-114.2"/><line class="cls-3" x1="579.09" y1="803.26" x2="1391.42" y2="-114.2"/><line class="cls-3" x1="733.04" y1="803.26" x2="1545.37" y2="-114.2"/><line class="cls-3" x1="189.69" y1="803.26" x2="1002.02" y2="-114.2"/><line class="cls-3" x1="253.08" y1="803.26" x2="1065.41" y2="-114.2"/><line class="cls-3" x1="316.47" y1="803.26" x2="1128.8" y2="-114.2"/><line class="cls-3" x1="443.25" y1="803.26" x2="1255.58" y2="-114.2"/><line class="cls-3" x1="615.31" y1="803.26" x2="1427.64" y2="-114.2"/><line class="cls-3" x1="778.32" y1="803.26" x2="1590.65" y2="-114.2"/><line class="cls-3" x1="370.8" y1="803.26" x2="1183.14" y2="-114.2"/><line class="cls-3" x1="524.75" y1="803.26" x2="1337.09" y2="-114.2"/><line class="cls-3" x1="678.7" y1="803.26" x2="1491.03" y2="-114.2"/><line class="cls-3" x1="832.65" y1="803.26" x2="1644.98" y2="-114.2"/><line class="cls-3" x1="416.08" y1="803.26" x2="1228.42" y2="-114.2"/><line class="cls-3" x1="570.03" y1="803.26" x2="1382.36" y2="-114.2"/><line class="cls-3" x1="723.98" y1="803.26" x2="1536.31" y2="-114.2"/><line class="cls-3" x1="470.42" y1="803.26" x2="1282.75" y2="-114.2"/><line class="cls-3" x1="606.25" y1="803.26" x2="1418.59" y2="-114.2"/><line class="cls-3" x1="760.2" y1="803.26" x2="1572.54" y2="-114.2"/><line class="cls-3" x1="180.63" y1="803.26" x2="992.96" y2="-114.2"/><line class="cls-3" x1="244.02" y1="803.26" x2="1056.35" y2="-114.2"/><line class="cls-3" x1="307.41" y1="803.26" x2="1119.75" y2="-114.2"/><line class="cls-3" x1="361.75" y1="803.26" x2="1174.08" y2="-114.2"/><line class="cls-3" x1="506.64" y1="803.26" x2="1318.97" y2="-114.2"/><line class="cls-3" x1="669.65" y1="803.26" x2="1481.98" y2="-114.2"/><line class="cls-3" x1="823.59" y1="803.26" x2="1635.93" y2="-114.2"/><line class="cls-3" x1="407.03" y1="803.26" x2="1219.36" y2="-114.2"/><line class="cls-3" x1="560.98" y1="803.26" x2="1373.31" y2="-114.2"/><line class="cls-3" x1="714.92" y1="803.26" x2="1527.26" y2="-114.2"/><line class="cls-3" x1="452.31" y1="803.26" x2="1264.64" y2="-114.2"/><line class="cls-3" x1="597.2" y1="803.26" x2="1409.53" y2="-114.2"/><line class="cls-3" x1="751.15" y1="803.26" x2="1563.48" y2="-114.2"/><line class="cls-3" x1="234.97" y1="803.26" x2="1047.3" y2="-114.2"/><line class="cls-3" x1="298.36" y1="803.26" x2="1110.69" y2="-114.2"/><line class="cls-3" x1="352.69" y1="803.26" x2="1165.02" y2="-114.2"/><line class="cls-3" x1="497.58" y1="803.26" x2="1309.92" y2="-114.2"/><line class="cls-3" x1="660.59" y1="803.26" x2="1472.92" y2="-114.2"/><line class="cls-3" x1="814.54" y1="803.26" x2="1626.87" y2="-114.2"/><line class="cls-3" x1="397.97" y1="803.26" x2="1210.3" y2="-114.2"/><line class="cls-3" x1="551.92" y1="803.26" x2="1364.25" y2="-114.2"/><line class="cls-3" x1="705.87" y1="803.26" x2="1518.2" y2="-114.2"/><line class="cls-3" x1="434.19" y1="803.26" x2="1246.53" y2="-114.2"/><line class="cls-3" x1="588.14" y1="803.26" x2="1400.48" y2="-114.2"/><line class="cls-3" x1="742.09" y1="803.26" x2="1554.42" y2="-114.2"/><line class="cls-3" x1="515.7" y1="803.26" x2="1328.03" y2="-114.2"/><line class="cls-3" x1="633.42" y1="803.26" x2="1445.76" y2="-114.2"/><line class="cls-3" x1="769.26" y1="803.26" x2="1581.59" y2="-114.2"/><line class="cls-3" x1="-807.29" y1="803.26" x2="5.04" y2="-114.2"/><line class="cls-3" x1="-743.9" y1="803.26" x2="68.43" y2="-114.2"/><line class="cls-3" x1="-752.96" y1="803.26" x2="59.37" y2="-114.2"/><line class="cls-3" x1="-689.57" y1="803.26" x2="122.77" y2="-114.2"/><line class="cls-3" x1="-544.67" y1="803.26" x2="267.66" y2="-114.2"/><line class="cls-3" x1="-381.67" y1="803.26" x2="430.66" y2="-114.2"/><line class="cls-3" x1="-227.72" y1="803.26" x2="584.61" y2="-114.2"/><line class="cls-3" x1="-55.66" y1="803.26" x2="756.67" y2="-114.2"/><line class="cls-3" x1="-762.01" y1="803.26" x2="50.32" y2="-114.2"/><line class="cls-3" x1="-698.62" y1="803.26" x2="113.71" y2="-114.2"/><line class="cls-3" x1="-553.73" y1="803.26" x2="258.6" y2="-114.2"/><line class="cls-3" x1="-390.73" y1="803.26" x2="421.61" y2="-114.2"/><line class="cls-3" x1="-236.78" y1="803.26" x2="575.56" y2="-114.2"/><line class="cls-3" x1="-64.72" y1="803.26" x2="747.62" y2="-114.2"/><line class="cls-3" x1="-644.29" y1="803.26" x2="168.04" y2="-114.2"/><line class="cls-3" x1="-490.34" y1="803.26" x2="321.99" y2="-114.2"/><line class="cls-3" x1="-336.39" y1="803.26" x2="475.94" y2="-114.2"/><line class="cls-3" x1="-182.44" y1="803.26" x2="629.89" y2="-114.2"/><line class="cls-3" x1="-10.38" y1="803.26" x2="801.95" y2="-114.2"/><line class="cls-3" x1="-771.07" y1="803.26" x2="41.26" y2="-114.2"/><line class="cls-3" x1="-707.68" y1="803.26" x2="104.65" y2="-114.2"/><line class="cls-3" x1="-571.84" y1="803.26" x2="240.49" y2="-114.2"/><line class="cls-3" x1="-408.84" y1="803.26" x2="403.5" y2="-114.2"/><line class="cls-3" x1="-245.83" y1="803.26" x2="566.5" y2="-114.2"/><line class="cls-3" x1="-82.83" y1="803.26" x2="729.5" y2="-114.2"/><line class="cls-3" x1="-653.34" y1="803.26" x2="158.99" y2="-114.2"/><line class="cls-3" x1="-499.4" y1="803.26" x2="312.94" y2="-114.2"/><line class="cls-3" x1="-345.45" y1="803.26" x2="466.89" y2="-114.2"/><line class="cls-3" x1="-191.5" y1="803.26" x2="620.83" y2="-114.2"/><line class="cls-3" x1="-19.44" y1="803.26" x2="792.9" y2="-114.2"/><line class="cls-3" x1="-608.07" y1="803.26" x2="204.27" y2="-114.2"/><line class="cls-3" x1="-454.12" y1="803.26" x2="358.22" y2="-114.2"/><line class="cls-3" x1="-300.17" y1="803.26" x2="512.17" y2="-114.2"/><line class="cls-3" x1="-146.22" y1="803.26" x2="666.11" y2="-114.2"/><line class="cls-3" x1="25.84" y1="803.26" x2="838.17" y2="-114.2"/><line class="cls-3" x1="-780.13" y1="803.26" x2="32.21" y2="-114.2"/><line class="cls-3" x1="-716.74" y1="803.26" x2="95.6" y2="-114.2"/><line class="cls-3" x1="-589.95" y1="803.26" x2="222.38" y2="-114.2"/><line class="cls-3" x1="-417.89" y1="803.26" x2="394.44" y2="-114.2"/><line class="cls-3" x1="-254.89" y1="803.26" x2="557.44" y2="-114.2"/><line class="cls-3" x1="-91.88" y1="803.26" x2="720.45" y2="-114.2"/><line class="cls-3" x1="-662.4" y1="803.26" x2="149.93" y2="-114.2"/><line class="cls-3" x1="-508.45" y1="803.26" x2="303.88" y2="-114.2"/><line class="cls-3" x1="-354.5" y1="803.26" x2="457.83" y2="-114.2"/><line class="cls-3" x1="-200.55" y1="803.26" x2="611.78" y2="-114.2"/><line class="cls-3" x1="-28.49" y1="803.26" x2="783.84" y2="-114.2"/><line class="cls-3" x1="-617.12" y1="803.26" x2="195.21" y2="-114.2"/><line class="cls-3" x1="-463.17" y1="803.26" x2="349.16" y2="-114.2"/><line class="cls-3" x1="-309.22" y1="803.26" x2="503.11" y2="-114.2"/><line class="cls-3" x1="-155.27" y1="803.26" x2="657.06" y2="-114.2"/><line class="cls-3" x1="16.79" y1="803.26" x2="829.12" y2="-114.2"/><line class="cls-3" x1="-562.79" y1="803.26" x2="249.55" y2="-114.2"/><line class="cls-3" x1="-426.95" y1="803.26" x2="385.38" y2="-114.2"/><line class="cls-3" x1="-273" y1="803.26" x2="539.33" y2="-114.2"/><line class="cls-3" x1="-128.11" y1="803.26" x2="684.23" y2="-114.2"/><line class="cls-3" x1="-110" y1="803.26" x2="702.34" y2="-114.2"/><line class="cls-3" x1="53.01" y1="803.26" x2="865.34" y2="-114.2"/><line class="cls-3" x1="-789.18" y1="803.26" x2="23.15" y2="-114.2"/><line class="cls-3" x1="-725.79" y1="803.26" x2="86.54" y2="-114.2"/><line class="cls-3" x1="-671.46" y1="803.26" x2="140.88" y2="-114.2"/><line class="cls-3" x1="-526.56" y1="803.26" x2="285.77" y2="-114.2"/><line class="cls-3" x1="-363.56" y1="803.26" x2="448.77" y2="-114.2"/><line class="cls-3" x1="-209.61" y1="803.26" x2="602.72" y2="-114.2"/><line class="cls-3" x1="-37.55" y1="803.26" x2="774.78" y2="-114.2"/><line class="cls-3" x1="-626.18" y1="803.26" x2="186.16" y2="-114.2"/><line class="cls-3" x1="-472.23" y1="803.26" x2="340.1" y2="-114.2"/><line class="cls-3" x1="-318.28" y1="803.26" x2="494.05" y2="-114.2"/><line class="cls-3" x1="-164.33" y1="803.26" x2="648" y2="-114.2"/><line class="cls-3" x1="7.73" y1="803.26" x2="820.06" y2="-114.2"/><line class="cls-3" x1="-580.9" y1="803.26" x2="231.43" y2="-114.2"/><line class="cls-3" x1="-436.01" y1="803.26" x2="376.33" y2="-114.2"/><line class="cls-3" x1="-282.06" y1="803.26" x2="530.28" y2="-114.2"/><line class="cls-3" x1="-119.05" y1="803.26" x2="693.28" y2="-114.2"/><line class="cls-3" x1="43.95" y1="803.26" x2="856.29" y2="-114.2"/><line class="cls-3" x1="-798.24" y1="803.26" x2="14.1" y2="-114.2"/><line class="cls-3" x1="-734.85" y1="803.26" x2="77.49" y2="-114.2"/><line class="cls-3" x1="-680.51" y1="803.26" x2="131.82" y2="-114.2"/><line class="cls-3" x1="-535.62" y1="803.26" x2="276.71" y2="-114.2"/><line class="cls-3" x1="-372.61" y1="803.26" x2="439.72" y2="-114.2"/><line class="cls-3" x1="-218.67" y1="803.26" x2="593.67" y2="-114.2"/><line class="cls-3" x1="-46.61" y1="803.26" x2="765.73" y2="-114.2"/><line class="cls-3" x1="-635.23" y1="803.26" x2="177.1" y2="-114.2"/><line class="cls-3" x1="-481.28" y1="803.26" x2="331.05" y2="-114.2"/><line class="cls-3" x1="-327.34" y1="803.26" x2="485" y2="-114.2"/><line class="cls-3" x1="-173.39" y1="803.26" x2="638.95" y2="-114.2"/><line class="cls-3" x1="-1.33" y1="803.26" x2="811.01" y2="-114.2"/><line class="cls-3" x1="-599.01" y1="803.26" x2="213.32" y2="-114.2"/><line class="cls-3" x1="-445.06" y1="803.26" x2="367.27" y2="-114.2"/><line class="cls-3" x1="-291.11" y1="803.26" x2="521.22" y2="-114.2"/><line class="cls-3" x1="-137.16" y1="803.26" x2="675.17" y2="-114.2"/><line class="cls-3" x1="34.9" y1="803.26" x2="847.23" y2="-114.2"/><line class="cls-3" x1="-517.51" y1="803.26" x2="294.83" y2="-114.2"/><line class="cls-3" x1="-399.78" y1="803.26" x2="412.55" y2="-114.2"/><line class="cls-3" x1="-263.94" y1="803.26" x2="548.39" y2="-114.2"/><line class="cls-3" x1="-100.94" y1="803.26" x2="711.39" y2="-114.2"/><line class="cls-3" x1="-73.77" y1="803.26" x2="738.56" y2="-114.2"/><line class="cls-3" x1="62.06" y1="803.26" x2="874.4" y2="-114.2"/><line class="cls-3" x1="71.12" y1="803.26" x2="883.45" y2="-114.2"/></g></svg>